<?xml version="1.0" encoding="UTF-8"?>
<svg xmlns="http://www.w3.org/2000/svg" xmlns:xlink="http://www.w3.org/1999/xlink" width="222px" height="34px" viewBox="0 0 222 34" version="1.1">
<defs>
<clipPath id="clip1">
  <path d="M 4 3 L 218 3 L 218 29 L 4 29 Z M 4 3 "/>
</clipPath>
<clipPath id="clip2">
  <path d="M 211.78125 28.945312 L 10.21875 28.945312 C 7.023438 28.945312 4.429688 26.347656 4.429688 23.140625 L 4.429688 9.316406 C 4.429688 6.113281 7.019531 3.515625 10.21875 3.515625 L 211.785156 3.515625 C 214.980469 3.515625 217.574219 6.109375 217.574219 9.316406 L 217.574219 23.140625 C 217.570312 26.347656 214.980469 28.945312 211.78125 28.945312 Z M 211.78125 28.945312 "/>
</clipPath>
<filter id="alpha" filterUnits="objectBoundingBox" x="0%" y="0%" width="100%" height="100%">
  <feColorMatrix type="matrix" in="SourceGraphic" values="0 0 0 0 1 0 0 0 0 1 0 0 0 0 1 0 0 0 1 0"/>
</filter>
<mask id="mask0">
  <g filter="url(#alpha)">
<rect x="0" y="0" width="222" height="34" style="fill:rgb(0%,0%,0%);fill-opacity:0.2;stroke:none;"/>
  </g>
</mask>
<clipPath id="clip3">
  <rect x="0" y="0" width="222" height="34"/>
</clipPath>
<g id="surface6" clip-path="url(#clip3)">
<path style=" stroke:none;fill-rule:nonzero;fill:rgb(96.862745%,96.470588%,96.470588%);fill-opacity:1;" d="M 58.796875 -3.582031 C 57.6875 -5.578125 56.265625 -7.292969 54.566406 -8.683594 C 53.140625 -9.847656 51.542969 -10.8125 49.8125 -11.550781 C 49.796875 -11.589844 49.78125 -11.632812 49.765625 -11.671875 C 49.707031 -11.839844 49.644531 -12.007812 49.585938 -12.179688 C 49.570312 -12.21875 49.554688 -12.261719 49.542969 -12.304688 C 49.480469 -12.476562 49.425781 -12.648438 49.371094 -12.824219 C 49.355469 -12.863281 49.347656 -12.894531 49.335938 -12.929688 C 49.269531 -13.132812 49.207031 -13.335938 49.144531 -13.542969 C 49.132812 -13.585938 49.121094 -13.628906 49.105469 -13.671875 C 49.046875 -13.886719 48.984375 -14.101562 48.925781 -14.320312 C 48.890625 -14.5 48.707031 -15.394531 48.285156 -16.546875 C 48.285156 -16.550781 48.28125 -16.550781 48.28125 -16.554688 C 48.222656 -16.726562 48.152344 -16.902344 48.082031 -17.082031 C 48.078125 -17.089844 48.074219 -17.097656 48.070312 -17.101562 C 48.054688 -17.144531 48.035156 -17.1875 48.019531 -17.226562 C 47.960938 -17.375 47.894531 -17.527344 47.824219 -17.679688 C 47.8125 -17.703125 47.800781 -17.734375 47.785156 -17.761719 C 47.402344 -18.59375 46.90625 -19.464844 46.269531 -20.257812 C 46.191406 -20.359375 46.109375 -20.457031 46.023438 -20.554688 C 46.011719 -20.566406 46 -20.578125 45.988281 -20.59375 C 45.953125 -20.632812 45.914062 -20.671875 45.878906 -20.710938 C 45.824219 -20.769531 45.765625 -20.832031 45.707031 -20.894531 C 45.382812 -21.226562 45.03125 -21.53125 44.640625 -21.800781 L 44.636719 -21.804688 C 44.636719 -21.804688 44.632812 -21.804688 44.632812 -21.808594 C 44.539062 -21.875 43.226562 -22.746094 41.324219 -23.039062 C 40.347656 -23.1875 39.105469 -23.195312 37.765625 -22.75 C 37.753906 -22.746094 37.742188 -22.742188 37.730469 -22.738281 C 37.675781 -22.722656 37.621094 -22.703125 37.566406 -22.683594 C 37.535156 -22.667969 37.5 -22.65625 37.46875 -22.648438 C 37.429688 -22.632812 37.394531 -22.621094 37.359375 -22.605469 C 37.308594 -22.585938 37.261719 -22.566406 37.210938 -22.546875 C 37.1875 -22.535156 37.167969 -22.527344 37.144531 -22.515625 C 37.082031 -22.492188 37.019531 -22.464844 36.960938 -22.433594 C 36.949219 -22.429688 36.933594 -22.421875 36.921875 -22.417969 C 36.851562 -22.382812 36.78125 -22.351562 36.710938 -22.316406 C 36.707031 -22.3125 36.699219 -22.308594 36.691406 -22.308594 C 36.617188 -22.269531 36.542969 -22.230469 36.46875 -22.1875 C 36.464844 -22.1875 36.464844 -22.1875 36.460938 -22.183594 C 36.382812 -22.140625 36.304688 -22.097656 36.230469 -22.054688 C 36.226562 -22.054688 36.226562 -22.050781 36.226562 -22.050781 C 36.148438 -22.003906 36.070312 -21.957031 35.996094 -21.910156 C 35.992188 -21.90625 35.988281 -21.90625 35.984375 -21.902344 C 35.910156 -21.855469 35.835938 -21.804688 35.761719 -21.753906 C 35.753906 -21.75 35.75 -21.75 35.746094 -21.746094 C 35.671875 -21.695312 35.601562 -21.644531 35.527344 -21.59375 C 35.519531 -21.585938 35.511719 -21.582031 35.5 -21.570312 C 35.433594 -21.523438 35.367188 -21.472656 35.300781 -21.421875 C 35.285156 -21.410156 35.273438 -21.398438 35.257812 -21.390625 C 35.195312 -21.34375 35.136719 -21.292969 35.074219 -21.242188 C 35.054688 -21.226562 35.035156 -21.210938 35.015625 -21.195312 C 34.960938 -21.152344 34.90625 -21.101562 34.851562 -21.054688 C 34.824219 -21.035156 34.800781 -21.011719 34.777344 -20.992188 C 34.726562 -20.949219 34.679688 -20.902344 34.632812 -20.855469 C 34.601562 -20.828125 34.570312 -20.800781 34.539062 -20.773438 C 34.488281 -20.726562 34.4375 -20.675781 34.390625 -20.625 C 34.363281 -20.601562 34.332031 -20.574219 34.308594 -20.546875 C 34.1875 -20.425781 34.074219 -20.300781 33.960938 -20.164062 C 33.851562 -20.027344 33.75 -19.890625 33.65625 -19.75 C 33.589844 -19.648438 33.527344 -19.546875 33.464844 -19.449219 C 33.445312 -19.417969 33.429688 -19.386719 33.410156 -19.351562 C 33.367188 -19.28125 33.324219 -19.214844 33.285156 -19.144531 C 33.265625 -19.109375 33.246094 -19.074219 33.230469 -19.039062 C 33.191406 -18.972656 33.15625 -18.90625 33.121094 -18.835938 C 33.105469 -18.804688 33.085938 -18.773438 33.070312 -18.742188 C 33.03125 -18.664062 32.992188 -18.589844 32.957031 -18.511719 C 32.945312 -18.488281 32.9375 -18.46875 32.925781 -18.445312 C 32.878906 -18.34375 32.832031 -18.246094 32.792969 -18.144531 C 32.789062 -18.140625 32.789062 -18.136719 32.785156 -18.132812 C 32.746094 -18.039062 32.710938 -17.949219 32.675781 -17.855469 C 32.664062 -17.832031 32.65625 -17.800781 32.644531 -17.773438 C 32.621094 -17.707031 32.59375 -17.640625 32.570312 -17.570312 C 32.558594 -17.539062 32.546875 -17.503906 32.539062 -17.472656 C 32.519531 -17.410156 32.5 -17.347656 32.480469 -17.289062 C 32.46875 -17.253906 32.457031 -17.21875 32.449219 -17.183594 C 32.433594 -17.125 32.414062 -17.066406 32.402344 -17.011719 C 32.390625 -16.972656 32.378906 -16.9375 32.371094 -16.898438 C 32.359375 -16.847656 32.347656 -16.796875 32.335938 -16.746094 C 32.316406 -16.648438 32.292969 -16.546875 32.277344 -16.453125 C 32.273438 -16.433594 32.269531 -16.414062 32.265625 -16.394531 C 32.253906 -16.324219 32.242188 -16.253906 32.230469 -16.183594 C 32.230469 -16.175781 32.230469 -16.164062 32.226562 -16.15625 C 31.941406 -14.203125 32.46875 -12.554688 33.042969 -11.417969 C 32.511719 -11.109375 32.007812 -10.765625 31.539062 -10.386719 C 31.8125 -14.421875 31.496094 -17.695312 30.597656 -20.136719 C 29.582031 -22.910156 28.121094 -25.089844 26.261719 -26.609375 C 25.144531 -27.523438 23.9375 -28.261719 22.675781 -28.804688 C 22.476562 -28.890625 22.28125 -28.972656 22.085938 -29.054688 L 22.011719 -29.082031 C 19.28125 -30.171875 16.625 -30.582031 14.117188 -30.308594 C 12.566406 -30.136719 11.03125 -29.789062 9.558594 -29.269531 C 8.484375 -28.890625 7.417969 -28.414062 6.390625 -27.855469 C 3.964844 -26.535156 1.652344 -24.800781 -0.492188 -22.703125 C -2.613281 -20.625 -4.640625 -18.398438 -6.515625 -16.089844 C -7.957031 -14.320312 -9.371094 -12.507812 -10.730469 -10.695312 C -12.050781 -8.933594 -13.324219 -7.203125 -14.507812 -5.550781 C -15.203125 -4.589844 -15.480469 -3.515625 -15.339844 -2.355469 C -15.195312 -1.195312 -14.65625 -0.226562 -13.738281 0.527344 L 34.257812 39.75 C 35.179688 40.503906 36.214844 40.839844 37.332031 40.75 C 37.855469 40.710938 38.351562 40.582031 38.820312 40.375 C 39.339844 40.144531 39.824219 39.8125 40.269531 39.378906 L 40.292969 39.351562 C 41.648438 37.882812 42.953125 36.429688 44.164062 35.035156 C 45.355469 33.667969 46.515625 32.292969 47.609375 30.949219 C 52.289062 25.191406 55.746094 19.988281 57.878906 15.484375 C 59.207031 12.683594 60.085938 10.035156 60.496094 7.601562 C 60.757812 6.0625 60.835938 4.574219 60.726562 3.179688 C 60.636719 1.816406 60.398438 0.5 60.019531 -0.722656 C 59.714844 -1.714844 59.300781 -2.679688 58.796875 -3.582031 Z M 33.457031 -14.015625 C 33.457031 -14.019531 33.453125 -14.023438 33.453125 -14.027344 C 33.445312 -14.09375 33.433594 -14.164062 33.425781 -14.230469 C 33.414062 -14.308594 33.40625 -14.390625 33.398438 -14.476562 C 33.398438 -14.5 33.394531 -14.527344 33.394531 -14.554688 C 33.386719 -14.648438 33.378906 -14.746094 33.375 -14.84375 C 33.375 -14.859375 33.375 -14.875 33.375 -14.890625 C 33.355469 -15.746094 33.511719 -16.695312 33.945312 -17.703125 C 33.949219 -17.714844 33.953125 -17.722656 33.957031 -17.734375 C 34.019531 -17.875 34.082031 -18.011719 34.152344 -18.15625 C 34.152344 -18.15625 34.15625 -18.160156 34.15625 -18.160156 C 34.222656 -18.296875 34.300781 -18.433594 34.375 -18.570312 C 34.394531 -18.597656 34.410156 -18.628906 34.425781 -18.65625 C 34.507812 -18.792969 34.589844 -18.929688 34.679688 -19.066406 C 34.75 -19.171875 34.828125 -19.277344 34.910156 -19.378906 C 34.910156 -19.378906 34.910156 -19.382812 34.910156 -19.382812 C 34.996094 -19.488281 35.085938 -19.585938 35.175781 -19.671875 C 35.179688 -19.679688 35.1875 -19.683594 35.191406 -19.691406 C 35.304688 -19.800781 35.414062 -19.90625 35.523438 -20.003906 C 35.5625 -20.039062 35.601562 -20.070312 35.636719 -20.105469 C 35.71875 -20.175781 35.804688 -20.246094 35.886719 -20.316406 C 35.925781 -20.34375 35.964844 -20.378906 36.003906 -20.40625 C 36.097656 -20.484375 36.191406 -20.554688 36.289062 -20.621094 C 36.3125 -20.640625 36.332031 -20.65625 36.355469 -20.671875 C 36.472656 -20.753906 36.585938 -20.828125 36.703125 -20.898438 C 36.734375 -20.921875 36.769531 -20.9375 36.804688 -20.960938 C 36.886719 -21.011719 36.972656 -21.058594 37.058594 -21.105469 C 37.097656 -21.125 37.136719 -21.148438 37.175781 -21.167969 C 37.261719 -21.214844 37.347656 -21.253906 37.433594 -21.296875 C 37.464844 -21.3125 37.496094 -21.328125 37.527344 -21.34375 C 37.640625 -21.394531 37.757812 -21.441406 37.871094 -21.484375 C 37.898438 -21.496094 37.925781 -21.503906 37.953125 -21.515625 C 38.039062 -21.546875 38.128906 -21.578125 38.21875 -21.605469 C 38.261719 -21.621094 38.300781 -21.632812 38.34375 -21.644531 C 38.417969 -21.667969 38.492188 -21.6875 38.5625 -21.707031 C 38.609375 -21.71875 38.652344 -21.726562 38.695312 -21.738281 C 38.769531 -21.753906 38.839844 -21.769531 38.914062 -21.785156 C 38.953125 -21.792969 38.992188 -21.800781 39.03125 -21.808594 C 39.132812 -21.828125 39.234375 -21.839844 39.335938 -21.855469 C 39.363281 -21.859375 39.394531 -21.863281 39.421875 -21.867188 C 39.503906 -21.875 39.585938 -21.882812 39.671875 -21.886719 C 39.714844 -21.894531 39.757812 -21.894531 39.800781 -21.894531 C 39.863281 -21.898438 39.925781 -21.902344 39.988281 -21.902344 C 40.03125 -21.90625 40.078125 -21.90625 40.121094 -21.90625 C 40.183594 -21.90625 40.242188 -21.90625 40.300781 -21.902344 C 40.34375 -21.902344 40.386719 -21.902344 40.429688 -21.898438 C 40.492188 -21.898438 40.558594 -21.890625 40.625 -21.886719 C 40.679688 -21.882812 40.730469 -21.878906 40.78125 -21.871094 C 40.851562 -21.867188 40.925781 -21.859375 40.992188 -21.847656 C 41.035156 -21.84375 41.078125 -21.835938 41.121094 -21.832031 C 41.171875 -21.824219 41.222656 -21.816406 41.269531 -21.808594 C 41.316406 -21.800781 41.359375 -21.792969 41.402344 -21.785156 C 41.449219 -21.777344 41.492188 -21.765625 41.539062 -21.757812 C 41.582031 -21.75 41.625 -21.738281 41.667969 -21.726562 C 41.714844 -21.71875 41.757812 -21.707031 41.800781 -21.695312 C 41.859375 -21.679688 41.921875 -21.664062 41.976562 -21.648438 C 42.03125 -21.636719 42.085938 -21.621094 42.136719 -21.605469 C 42.175781 -21.59375 42.21875 -21.582031 42.257812 -21.566406 C 42.292969 -21.554688 42.328125 -21.542969 42.363281 -21.53125 C 42.402344 -21.519531 42.441406 -21.503906 42.480469 -21.488281 C 42.511719 -21.476562 42.546875 -21.46875 42.578125 -21.453125 C 42.613281 -21.441406 42.648438 -21.429688 42.6875 -21.414062 C 42.71875 -21.402344 42.746094 -21.390625 42.777344 -21.378906 C 42.8125 -21.363281 42.847656 -21.351562 42.882812 -21.335938 C 42.902344 -21.328125 42.921875 -21.316406 42.945312 -21.308594 C 43.011719 -21.28125 43.078125 -21.25 43.136719 -21.222656 C 43.164062 -21.210938 43.183594 -21.199219 43.210938 -21.191406 C 43.242188 -21.175781 43.269531 -21.160156 43.296875 -21.148438 C 43.316406 -21.136719 43.339844 -21.125 43.363281 -21.117188 C 43.386719 -21.101562 43.414062 -21.089844 43.441406 -21.074219 C 43.460938 -21.066406 43.476562 -21.054688 43.496094 -21.046875 C 43.519531 -21.035156 43.542969 -21.019531 43.570312 -21.007812 C 43.578125 -21.003906 43.585938 -21 43.59375 -20.992188 C 43.644531 -20.964844 43.691406 -20.9375 43.730469 -20.914062 C 43.738281 -20.910156 43.746094 -20.902344 43.753906 -20.898438 C 43.773438 -20.886719 43.792969 -20.878906 43.808594 -20.871094 C 43.816406 -20.863281 43.824219 -20.859375 43.832031 -20.855469 C 43.847656 -20.84375 43.863281 -20.835938 43.875 -20.828125 C 43.878906 -20.828125 43.878906 -20.824219 43.882812 -20.820312 C 43.910156 -20.804688 43.929688 -20.792969 43.941406 -20.78125 C 45.726562 -19.535156 46.75 -17.253906 47.269531 -15.703125 C 47.273438 -15.6875 47.28125 -15.671875 47.285156 -15.65625 C 47.390625 -15.339844 47.472656 -15.054688 47.539062 -14.816406 C 47.660156 -14.363281 47.71875 -14.078125 47.71875 -14.066406 L 47.730469 -14.015625 C 47.730469 -14.011719 47.734375 -14.003906 47.734375 -13.996094 C 47.808594 -13.734375 47.882812 -13.476562 47.957031 -13.222656 C 47.988281 -13.117188 48.019531 -13.007812 48.054688 -12.90625 C 48.097656 -12.757812 48.140625 -12.613281 48.1875 -12.472656 C 48.238281 -12.320312 48.289062 -12.167969 48.339844 -12.019531 C 48.371094 -11.933594 48.398438 -11.84375 48.429688 -11.761719 C 48.488281 -11.585938 48.550781 -11.414062 48.613281 -11.242188 C 48.632812 -11.191406 48.652344 -11.140625 48.671875 -11.089844 C 48.703125 -11.015625 48.726562 -10.9375 48.753906 -10.867188 L 48.847656 -10.621094 L 48.855469 -10.617188 C 49.789062 -8.28125 50.820312 -6.636719 51.675781 -5.679688 C 50.09375 -6.609375 47.066406 -7.605469 42.734375 -7.875 L 42.683594 -7.878906 C 42.636719 -7.878906 37.890625 -7.820312 35.359375 -10.230469 C 35.3125 -10.277344 34.972656 -10.621094 34.582031 -11.199219 L 34.410156 -11.488281 C 33.996094 -12.175781 33.617188 -13.03125 33.457031 -14.015625 Z M 58.847656 -0.355469 C 59.195312 0.777344 59.417969 1.996094 59.5 3.269531 C 59.601562 4.570312 59.527344 5.960938 59.285156 7.398438 C 58.894531 9.71875 58.046875 12.261719 56.769531 14.957031 C 54.679688 19.375 51.277344 24.492188 46.65625 30.171875 C 45.570312 31.507812 44.421875 32.875 43.242188 34.226562 C 42.039062 35.609375 40.746094 37.046875 39.402344 38.507812 C 38.761719 39.125 38.054688 39.457031 37.238281 39.519531 C 36.433594 39.585938 35.714844 39.347656 35.039062 38.796875 L -12.957031 -0.425781 C -13.632812 -0.980469 -14.011719 -1.660156 -14.113281 -2.503906 C -14.21875 -3.355469 -14.019531 -4.113281 -13.507812 -4.824219 C -12.324219 -6.472656 -11.058594 -8.195312 -9.742188 -9.953125 C -8.394531 -11.75 -6.988281 -13.550781 -5.558594 -15.308594 C -3.710938 -17.578125 -1.710938 -19.769531 0.375 -21.816406 C 2.4375 -23.835938 4.660156 -25.5 6.984375 -26.769531 C 7.480469 -27.039062 7.980469 -27.285156 8.488281 -27.511719 C 8.980469 -27.726562 9.476562 -27.925781 9.972656 -28.101562 C 11.355469 -28.585938 12.800781 -28.917969 14.261719 -29.078125 C 16.542969 -29.328125 18.976562 -28.953125 21.488281 -27.960938 L 21.5625 -27.933594 C 21.773438 -27.851562 21.980469 -27.761719 22.195312 -27.671875 C 23.351562 -27.171875 24.460938 -26.492188 25.488281 -25.652344 C 27.175781 -24.273438 28.507812 -22.273438 29.449219 -19.710938 C 30.394531 -17.128906 30.640625 -13.496094 30.1875 -8.90625 L 30.007812 -7.082031 L 31.25 -8.425781 C 31.953125 -9.183594 32.773438 -9.832031 33.691406 -10.359375 C 34.132812 -9.71875 34.496094 -9.355469 34.511719 -9.34375 C 37.34375 -6.648438 42.234375 -6.640625 42.683594 -6.644531 C 47.800781 -6.324219 50.695312 -4.988281 51.597656 -4.25 C 52.128906 -3.816406 52.585938 -3.632812 52.996094 -3.6875 C 53.09375 -3.699219 53.183594 -3.726562 53.269531 -3.765625 C 53.417969 -3.832031 53.550781 -3.933594 53.652344 -4.070312 C 53.824219 -4.269531 53.910156 -4.523438 53.890625 -4.789062 C 53.863281 -5.203125 53.59375 -5.617188 53.0625 -6.050781 C 52.484375 -6.523438 51.503906 -7.746094 50.523438 -9.859375 C 51.691406 -9.257812 52.789062 -8.546875 53.789062 -7.726562 C 55.367188 -6.441406 56.691406 -4.84375 57.726562 -2.984375 C 58.1875 -2.152344 58.5625 -1.269531 58.847656 -0.355469 Z M 58.847656 -0.355469 "/>
</g>
<mask id="mask1">
  <g filter="url(#alpha)">
<rect x="0" y="0" width="222" height="34" style="fill:rgb(0%,0%,0%);fill-opacity:0.2;stroke:none;"/>
  </g>
</mask>
<clipPath id="clip4">
  <rect x="0" y="0" width="222" height="34"/>
</clipPath>
<g id="surface9" clip-path="url(#clip4)">
<path style=" stroke:none;fill-rule:nonzero;fill:rgb(96.862745%,96.470588%,96.470588%);fill-opacity:1;" d="M 21.382812 -1.070312 C 23.125 -6.566406 22.046875 -11.101562 18.269531 -14.1875 C 16.023438 -16.023438 13.5625 -16.765625 10.953125 -16.386719 C 4.753906 -15.492188 -0.0742188 -8.640625 -0.277344 -8.347656 L -0.601562 -7.878906 L 17.273438 6.730469 L 17.660156 6.222656 C 17.757812 6.089844 20.097656 2.980469 21.382812 -1.070312 Z M 17.046875 4.953125 L 1.074219 -8.101562 C 2.25 -9.625 6.335938 -14.476562 11.128906 -15.167969 C 13.382812 -15.492188 15.523438 -14.84375 17.492188 -13.234375 C 20.890625 -10.457031 21.804688 -6.5 20.21875 -1.472656 C 19.292969 1.453125 17.75 3.917969 17.046875 4.953125 Z M 17.046875 4.953125 "/>
</g>
<mask id="mask2">
  <g filter="url(#alpha)">
<rect x="0" y="0" width="222" height="34" style="fill:rgb(0%,0%,0%);fill-opacity:0.2;stroke:none;"/>
  </g>
</mask>
<clipPath id="clip5">
  <rect x="0" y="0" width="222" height="34"/>
</clipPath>
<g id="surface12" clip-path="url(#clip5)">
<path style=" stroke:none;fill-rule:nonzero;fill:rgb(96.862745%,96.470588%,96.470588%);fill-opacity:1;" d="M 25.167969 7.792969 C 23.730469 9.285156 22.882812 10.5 22.847656 10.550781 L 22.523438 11.019531 L 40.398438 25.628906 L 40.78125 25.121094 C 41.0625 24.753906 47.585938 16.027344 44.5 8.761719 C 43.851562 7.226562 42.804688 5.863281 41.394531 4.710938 C 34.941406 -0.5625 28.460938 4.378906 25.167969 7.792969 Z M 43.367188 9.242188 C 45.769531 14.898438 41.484375 21.90625 40.167969 23.851562 L 24.195312 10.796875 C 24.558594 10.324219 25.199219 9.53125 26.050781 8.648438 C 27.515625 7.132812 29.808594 5.125 32.445312 4.183594 C 35.382812 3.136719 38.128906 3.632812 40.613281 5.660156 C 41.867188 6.6875 42.796875 7.894531 43.367188 9.242188 Z M 43.367188 9.242188 "/>
</g>
</defs>
<g id="surface1">
<path style=" stroke:none;fill-rule:nonzero;fill:rgb(5.882353%,10.588235%,12.54902%);fill-opacity:1;" d="M 211.78125 28.945312 L 10.21875 28.945312 C 7.023438 28.945312 4.429688 26.347656 4.429688 23.140625 L 4.429688 9.316406 C 4.429688 6.113281 7.019531 3.515625 10.21875 3.515625 L 211.785156 3.515625 C 214.980469 3.515625 217.574219 6.109375 217.574219 9.316406 L 217.574219 23.140625 C 217.570312 26.347656 214.980469 28.945312 211.78125 28.945312 Z M 211.78125 28.945312 "/>
<g clip-path="url(#clip1)" clip-rule="nonzero">
<g clip-path="url(#clip2)" clip-rule="nonzero">
<use xlink:href="#surface6" mask="url(#mask0)"/>
<use xlink:href="#surface9" mask="url(#mask1)"/>
<use xlink:href="#surface12" mask="url(#mask2)"/>
</g>
</g>
</g>
</svg>
