<?xml version="1.0" encoding="utf-8"?>
<!-- Generator: Adobe Illustrator 25.2.0, SVG Export Plug-In . SVG Version: 6.00 Build 0)  -->
<svg version="1.1" id="Layer_1" xmlns="http://www.w3.org/2000/svg" xmlns:xlink="http://www.w3.org/1999/xlink" x="0px" y="0px"
	 viewBox="0 0 186.81 165.46" style="enable-background:new 0 0 186.81 165.46;" xml:space="preserve">
<style type="text/css">
	.st0{fill:#FFFFFF;}
</style>
<g>
	<path class="st0" d="M180.84,96.2c-0.72,1.46-1.28,3.03-2.21,4.34c-1.24,1.75-3.18,2.51-5.29,2.73c-1.54,0.16-2.82-0.76-3.06-2.1
		c-0.27-1.52,0.53-2.79,2.24-3.01c2.03-0.26,3-1.45,3.07-3.25c0.14-3.49,0.04-6.99,0.04-10.69c-1.68,0-3.26,0.02-4.83,0
		c-2.14-0.03-3.26-0.95-3.28-2.62c-0.01-1.7,1.09-2.6,3.24-2.65c0.6-0.01,1.21,0,1.95-0.41c-0.86-0.47-1.68-1.02-2.57-1.41
		c-6.24-2.72-12.84-4.08-19.52-5.09c-8.74-1.33-17.54-1.49-26.36-1.46c-16.95,0.06-33.91,0.02-50.86,0.02
		c-0.51,0-1.03,0.02-1.54-0.01c-1.78-0.13-2.98-1.23-2.95-2.68c0.03-1.47,1.24-2.54,3.03-2.57c2.16-0.04,4.32-0.01,6.49-0.01
		c0.39,0,0.78-0.04,1.28-0.07c0-4.57,0-9.07,0-13.79c-2.34,0-4.66-0.09-6.98,0.02c-4.47,0.21-8.94,0.54-13.42,0.8
		c-1.83,0.11-2.74,0.96-3.06,2.87c-0.56,3.33-1.42,6.61-2.22,10.16c2.04,0,3.9-0.01,5.76,0c2.13,0.02,3.3,0.93,3.33,2.57
		c0.03,1.67-1.11,2.67-3.22,2.69c-1.93,0.02-3.87-0.02-5.8-0.13c-4.16-0.24-7.64-1.99-10.56-4.91c-1.45-1.44-2.86-2.92-4.17-4.26
		c-3.42,1.24-6.58,2.72-9.91,3.49c-4.3,1-8.7,1.63-13.1,2.07c-4.88,0.48-5.58,1.31-5.11,6.5c1.97,0.51,5.3-0.76,5.26,2.82
		c-0.04,3.45-3.22,2.29-5.32,2.72c0,2.71-0.17,5.37,0.05,8c0.2,2.47,1.74,4.14,4.16,4.85c3.15,0.93,6.32,1.79,9.65,2.73
		c0.6-5.48,2.95-9.93,7.66-12.94c3.5-2.23,7.33-3,11.41-2.3c4.41,0.75,7.92,3,10.54,6.6c2.59,3.57,3.35,7.61,2.83,12.06
		c24.85,0,49.55,0,74.27,0c0.19-2.13,0.13-4.36,0.61-6.47c1.87-8.34,10.16-13.65,18.76-12.18c8.12,1.39,14.1,9.35,13.24,17.6
		c-0.69,6.63-5.51,12.28-11.95,14c-6.66,1.78-13.44-0.57-17.45-6.19c-0.77-1.08-1.55-1.37-2.79-1.37c-24.97,0.03-49.95,0.03-74.92,0
		c-1.21,0-1.91,0.35-2.63,1.34c-3.55,4.85-8.45,7.26-14.43,6.76c-6.46-0.54-11.13-3.95-13.75-9.93c-0.43-0.99-0.98-1.51-2-1.78
		c-3.34-0.89-6.66-1.85-9.98-2.8C9.02,95.3,6.05,91.4,6.05,85.77c0-4.88,0.2-9.76-0.06-14.63c-0.26-4.9,2.88-8.93,8.6-9.33
		c9.08-0.63,17.86-2.42,25.84-7.14c2.29-1.35,4.76-2.4,7.14-3.61c4.9-2.49,10.04-4.19,15.56-4.61c0.33-0.02,0.64-0.19,0.96-0.29
		c10.01,0,20.03,0,30.04,0c0.32,0.11,0.63,0.28,0.95,0.31c5.82,0.5,11.21,2.33,16.14,5.4c6.65,4.14,13.24,8.38,19.87,12.54
		c0.65,0.41,1.41,0.8,2.15,0.86c4.47,0.38,8.97,0.54,13.43,1.01c8.83,0.95,17.5,2.6,25.72,6.11c3.27,1.39,5.73,3.64,7.22,6.88
		c0.49,1.07,0.83,2.2,1.23,3.3C180.84,87.12,180.84,91.66,180.84,96.2z M85.15,65.15c12.45,0,24.71,0,36.96,0
		c-5.54-3.77-11.07-7.43-16.89-10.57c-6.19-3.34-13.04-3.41-19.92-3.04c-0.06,0.3-0.15,0.52-0.15,0.73
		C85.15,56.52,85.15,60.76,85.15,65.15z M41.49,84.22c-6.13-0.01-11.08,4.82-11.15,10.9c-0.08,6.08,5,11.13,11.15,11.1
		c6.12-0.02,11.01-4.92,11.01-11.01C52.5,89.09,47.63,84.23,41.49,84.22z M148.22,84.22c-6.16-0.02-11.08,4.81-11.1,10.89
		c-0.02,6.2,4.92,11.14,11.09,11.11c6.1-0.03,11.07-4.98,11.07-11.01C159.29,89.17,154.33,84.24,148.22,84.22z M49.07,63.7
		c0.69-3.12,1.25-5.64,1.88-8.5c-2.51,1.26-4.63,2.32-6.37,3.19C46.01,60.06,47.38,61.68,49.07,63.7z"/>
	<path class="st0" d="M94.81,92.38c-9.16,0-18.31,0-27.47-0.01c-0.67,0-1.53,0.11-1.98-0.24c-0.77-0.61-1.64-1.47-1.82-2.36
		c-0.24-1.17,0.59-2.15,1.86-2.47c0.6-0.15,1.23-0.2,1.85-0.2c18.37-0.01,36.74-0.01,55.11,0c0.51,0,1.03,0.01,1.53,0.1
		c1.41,0.27,2.26,1.17,2.24,2.58c-0.02,1.42-0.93,2.27-2.32,2.53c-0.5,0.1-1.02,0.05-1.53,0.05
		C113.12,92.39,103.97,92.38,94.81,92.38z"/>
	<path class="st0" d="M45.98,92.81c-0.06,2.06-4.81,6.8-6.35,6.86c-2.02,0.08-3.55-2.13-2.35-3.7c1.39-1.82,3.13-3.41,4.91-4.87
		c0.5-0.42,1.8-0.3,2.49,0.05C45.36,91.51,45.73,92.47,45.98,92.81z"/>
	<path class="st0" d="M152.86,97.47c-0.47,0.57-0.91,1.59-1.65,1.89c-0.75,0.3-2.04,0.21-2.65-0.27c-1.59-1.25-2.99-2.75-4.34-4.27
		c-0.89-1.01-0.8-2.2,0.11-3.23c0.86-0.97,2.12-1.31,3.04-0.55c1.82,1.5,3.41,3.27,5.05,4.97
		C152.65,96.27,152.65,96.75,152.86,97.47z"/>
</g>
</svg>
