<?xml version="1.0" encoding="utf-8"?>
<!-- Generator: Adobe Illustrator 25.2.0, SVG Export Plug-In . SVG Version: 6.00 Build 0)  -->
<svg version="1.1" id="Layer_1" xmlns="http://www.w3.org/2000/svg" xmlns:xlink="http://www.w3.org/1999/xlink" x="0px" y="0px"
	 viewBox="0 0 93.61 95.72" style="enable-background:new 0 0 93.61 95.72;" xml:space="preserve">
<style type="text/css">
	.st0{fill:#FFFFFF;}
</style>
<path class="st0" d="M65.38,21.29C65.38,21.29,65.38,21.29,65.38,21.29c0-1.84,0-3.68-0.01-5.52c0-0.88,0.04-1.77-0.06-2.63
	c-0.44-3.67-3.49-6.38-7.18-6.41c-4.06-0.03-8.13-0.01-12.19-0.01c-6.15,0-12.3,0-18.45,0.01c-0.52,0-1.06,0.06-1.57,0.17
	c-3.4,0.78-5.7,3.69-5.7,7.19c0,2.4,0,4.8,0,7.2c0,0,0,0,0,0c-0.31,0-0.56,0.25-0.56,0.56v5.76c0,0.31,0.25,0.56,0.56,0.56
	c0,0,0,0,0,0c0,0.31,0,0.62,0,0.92c0,0,0,0,0,0c-0.31,0-0.56,0.25-0.56,0.56v5.76c0,0.31,0.25,0.56,0.56,0.56c0,0,0,0,0,0
	c0,2.97,0,5.93,0,8.9c0,5.56,0,11.12,0,16.67c0,6.15,0,12.3,0,18.45c0,0.26,0,0.53,0.03,0.79c0.41,3.71,3.53,6.51,7.27,6.51
	c2.3,0,4.59,0,6.89,0c7.88,0,15.75,0,23.63,0c1.57,0,3.01-0.44,4.27-1.37c2.04-1.5,3.05-3.54,3.07-6.07
	c0.01-2.17-0.01-4.34-0.01-6.51c0-3.29,0.01-6.58,0.01-9.88c0-5.48,0-10.97,0-16.45c0,0,0,0,0,0c0-1.96,0-3.92,0-5.87
	c0-1.97-0.01-3.94-0.01-5.91c0-2.36,0-4.72,0.01-7.07c0,0,0.01,0,0.01,0c0.31,0,0.56-0.25,0.56-0.56v-5.76
	C65.94,21.54,65.69,21.29,65.38,21.29z M35.97,9.49h13.64c0.29,0,0.53,0.24,0.53,0.53s-0.24,0.53-0.53,0.53H35.97
	c-0.29,0-0.53-0.24-0.53-0.53S35.68,9.49,35.97,9.49z M61.42,29.53c0,1-0.01,2.01-0.02,3.01c0,4.28,0,8.55,0,12.83c0,0,0,0,0,0
	c0,4.17,0,8.34,0,12.51c0,3.16,0,6.33,0,9.49c0,1.19,0,7.79,0,8.99c-0.01,1.59-1.09,2.67-2.68,2.67c-7.06,0-14.12,0-21.18,0
	c-3.52,0-7.05,0-10.57,0.01c-1.17,0-2.09-0.44-2.58-1.54c-0.15-0.33-0.22-0.71-0.22-1.07c-0.02-4.44-0.01-14.27-0.01-18.71
	c0-3.32-0.01-6.65-0.01-9.97c0-3.03,0.01-6.05,0.01-9.08c0-6.3,0.01-16.39-0.01-22.69c0-1.27,0.8-2.37,2.02-2.64
	c0.3-0.06,0.61-0.06,0.91-0.06c3.11,0,6.22,0,9.34,0c4.41,0,8.83,0,13.24,0c1.43,0,2.86,0,4.3,0c1.56,0,3.12,0,4.68,0
	c1.17-0.01,2.08,0.46,2.53,1.55c0.19,0.46,0.22,1.01,0.23,1.51C61.43,19.47,61.42,26.39,61.42,29.53z"/>
<g>
</g>
<g>
</g>
<g>
</g>
<g>
</g>
<g>
</g>
<g>
</g>
</svg>
