<?xml version="1.0" encoding="utf-8"?>
<!-- Generator: Adobe Illustrator 25.2.0, SVG Export Plug-In . SVG Version: 6.00 Build 0)  -->
<svg version="1.1" id="Layer_1" xmlns="http://www.w3.org/2000/svg" xmlns:xlink="http://www.w3.org/1999/xlink" x="0px" y="0px"
	 viewBox="0 0 1080 1080" style="enable-background:new 0 0 1080 1080;" xml:space="preserve">
<style type="text/css">
	.st0{fill:#FFFFFF;}
	.st1{fill:#DC493B;}
</style>
<path class="st0" d="M501.98,429.03c5.29,0.32,10.38,0.56,15.27,0.72c4.89,0.16,9.58,0.24,14.07,0.24c19.56,0,35.71-1.56,48.45-4.69
	c12.74-3.13,22.48-7.89,29.22-14.31c4.65-4.33,8.06-9.22,10.22-14.67c2.16-5.45,3.25-10.98,3.25-16.59c0-5.93-1.04-11.78-3.13-17.55
	c-2.09-5.77-4.85-10.94-8.3-15.51c-3.45-4.57-7.45-8.3-12.02-11.18c-4.57-2.89-9.34-4.49-14.31-4.81
	c10.42-6.89,17.55-13.59,21.4-20.08c3.85-6.49,5.77-12.78,5.77-18.88c0-3.69-0.48-7.21-1.44-10.58
	c-2.25-8.01-5.85-14.47-10.82-19.36c-4.97-4.89-10.78-8.69-17.43-11.42c-6.65-2.72-13.87-4.53-21.64-5.41
	c-7.78-0.88-15.59-1.32-23.45-1.32c-6.09,0-12.11,0.12-18.03,0.36c-5.93,0.24-11.54,0.52-16.83,0.84c-2.73,0.16-5.01,1.2-6.85,3.13
	c-1.84,1.92-2.77,4.25-2.77,6.97v164c0,2.73,0.88,5.01,2.64,6.85C497.01,427.63,499.26,428.71,501.98,429.03z M543.59,286.2
	c0-0.48,0.24-0.96,0.72-1.44c0.32-0.32,0.8-0.4,1.44-0.24c0.96,0.32,2.24,0.76,3.85,1.32c1.6,0.56,3.13,1.36,4.57,2.4
	c1.44,1.04,2.73,2.4,3.85,4.09c1.12,1.68,1.76,3.73,1.92,6.13c0.16,2.4-0.28,4.49-1.32,6.25c-1.04,1.77-2.33,3.25-3.85,4.45
	c-1.53,1.2-3.13,2.13-4.81,2.77c-1.68,0.64-3.09,1.12-4.21,1.44c-0.32,0.16-0.8,0.08-1.44-0.24c-0.48-0.16-0.72-0.56-0.72-1.2V286.2
	z M543.59,356.65c0-0.48,0.24-0.96,0.72-1.44c0.32-0.32,0.72-0.4,1.2-0.24c1.28,0.32,2.92,0.8,4.93,1.44c2,0.64,3.97,1.6,5.89,2.89
	c1.92,1.29,3.64,2.93,5.17,4.93c1.52,2.01,2.36,4.45,2.53,7.33c0.16,2.89-0.48,5.37-1.92,7.45c-1.44,2.08-3.13,3.85-5.05,5.29
	c-1.92,1.44-3.97,2.53-6.13,3.25c-2.16,0.72-3.89,1.24-5.17,1.56c-0.64,0.16-1.12,0.08-1.44-0.24c-0.48-0.16-0.72-0.64-0.72-1.44
	V356.65z M632.56,429.27l43.53,0.48c2.56,0,4.77-0.8,6.61-2.4c1.84-1.6,2.92-3.61,3.25-6.01l1.68-9.86c0-0.96,0.56-1.44,1.68-1.44
	l27.65,0.24c0.8,0,1.36,0.48,1.68,1.44l1.68,9.14c0.48,2.4,1.64,4.37,3.49,5.89c1.84,1.53,3.97,2.28,6.37,2.28h42.32
	c3.04,0,5.61-1.28,7.69-3.85c2.08-2.56,2.72-5.37,1.92-8.42l-38.47-159.91c-0.48-2.24-1.65-4.09-3.49-5.53
	c-1.84-1.44-3.97-2.16-6.37-2.16l-60.36,0.72c-2.25,0-4.25,0.68-6.01,2.04c-1.77,1.36-2.97,3.17-3.61,5.41l-40.88,159.43
	c-0.64,3.05,0,5.85,1.92,8.42C626.63,427.59,629.19,428.95,632.56,429.27z M699.65,329c0.16-0.64,0.72-1.12,1.68-1.44
	c0.8,0,1.36,0.48,1.68,1.44l5.53,29.1c0,0.64-0.08,1.12-0.24,1.44c-0.32,0.32-0.8,0.48-1.44,0.48l-9.86,0.24
	c-0.48,0-0.88-0.16-1.2-0.48c-0.32-0.32-0.48-0.8-0.48-1.44L699.65,329z M797.03,431.2c3.69,0.48,7.25,0.8,10.7,0.96
	c3.45,0.16,6.85,0.24,10.22,0.24c17.47,0,32.58-2.68,45.33-8.06c12.74-5.37,23.21-12.42,31.38-21.16
	c8.18-8.74,14.07-18.72,17.67-29.94c3.61-11.22,5.17-22.76,4.69-34.63c-0.64-11.7-3.17-23.21-7.57-34.51
	c-4.41-11.3-10.7-21.4-18.88-30.3c-8.18-8.9-18.24-16.07-30.18-21.52c-11.94-5.45-25.69-8.18-41.24-8.18
	c-3.53,0-7.14,0.16-10.82,0.48c-3.69,0.32-7.45,0.8-11.3,1.44c-2.4,0.32-4.41,1.41-6.01,3.25c-1.6,1.85-2.4,4.13-2.4,6.85
	l-0.48,164.72c0,2.73,0.84,5.05,2.53,6.97C792.35,429.75,794.47,430.88,797.03,431.2z M838.15,308.56c0-0.16,0.16-0.56,0.48-1.2
	c0.32-0.32,0.72-0.48,1.2-0.48c1.45,0,3.64,0.28,6.55,0.84c2.91,0.56,5.78,1.89,8.62,3.97c2.83,2.08,5.3,5.17,7.41,9.26
	c2.1,4.09,3.16,9.66,3.16,16.71c0,7.06-1.05,12.74-3.16,17.07c-2.1,4.33-4.53,7.74-7.28,10.22c-2.75,2.49-5.54,4.25-8.37,5.29
	c-2.83,1.04-5.06,1.65-6.67,1.8c-0.65,0-1.13-0.16-1.45-0.48c-0.32-0.32-0.48-0.8-0.48-1.44V308.56z M1055.78,412.44l-25.49-55.55
	c3.04-1.92,5.89-4.53,8.54-7.81c2.64-3.28,4.93-7.05,6.85-11.3c1.92-4.25,3.4-8.78,4.45-13.59c1.04-4.81,1.56-9.78,1.56-14.91
	c0-7.7-1.44-15.43-4.33-23.21c-2.89-7.77-7.62-14.75-14.19-20.92c-6.58-6.17-15.27-11.18-26.09-15.03
	c-10.82-3.85-24.17-5.77-40.04-5.77c-4.65,0-9.54,0.2-14.67,0.6c-5.13,0.4-10.5,1-16.11,1.8c-2.4,0.32-4.41,1.4-6.01,3.25
	c-1.6,1.85-2.4,3.97-2.4,6.37l-2.4,164c0,2.73,0.96,5.05,2.89,6.97c1.92,2.09,4.25,3.13,6.97,3.13h37.03c2.72,0,5.09-1,7.09-3.01
	c2-2,3.01-4.37,3.01-7.09v-32.94c0-0.96,0.4-1.44,1.2-1.44c0.96-0.32,1.6,0,1.92,0.96l17.07,39.44c0.96,2.09,2.44,3.65,4.45,4.69
	c2,1.04,4.12,1.4,6.37,1.08l34.87-5.77c3.2-0.48,5.53-2.16,6.97-5.05C1056.9,418.61,1057.06,415.65,1055.78,412.44z M999.15,317.22
	c-1.36,2.09-3.05,3.85-5.05,5.29c-2.01,1.44-4.09,2.53-6.25,3.25c-2.16,0.72-3.89,1.24-5.17,1.56c-0.32,0.16-0.8,0.08-1.44-0.24
	c-0.48-0.48-0.72-0.96-0.72-1.44v-31.02c0-0.48,0.24-0.88,0.72-1.2c0.64-0.32,1.12-0.4,1.44-0.24c1.28,0.32,2.92,0.76,4.93,1.32
	c2,0.56,3.97,1.48,5.89,2.77c1.92,1.29,3.61,2.93,5.05,4.93c1.44,2.01,2.24,4.45,2.4,7.33
	C1001.11,312.57,1000.51,315.13,999.15,317.22z M522.24,507.28l-20.26,0.44c-2.33,0.15-4.58-0.72-6.75-2.61
	c-1.74-1.74-2.61-3.92-2.61-6.54l0.44-39c0.14-2.47,1.09-4.58,2.83-6.32c1.74-1.74,3.85-2.61,6.32-2.61l98.49-0.65
	c2.62,0,4.79,0.95,6.54,2.83c1.74,1.74,2.62,3.92,2.62,6.54l-1.09,39.44c-0.15,2.33-1.02,4.32-2.62,5.99
	c-1.6,1.67-3.63,2.58-6.1,2.72l-15.91,0.44c-0.15,0-0.51,0.15-1.09,0.44c-0.29,0.58-0.44,0.95-0.44,1.09l3.7,96.96
	c0,2.47-0.84,4.58-2.51,6.32c-1.67,1.74-3.74,2.76-6.21,3.05l-46.41,2.18c-2.61,0.15-4.87-0.72-6.75-2.61
	c-1.89-1.74-2.83-3.92-2.83-6.54l2.18-100.01c0-0.44-0.15-0.8-0.44-1.09C523.18,507.42,522.82,507.28,522.24,507.28z M733.81,609.47
	c1.45-2.47,1.6-5.15,0.44-8.06l-23.1-50.33c2.76-1.74,5.34-4.1,7.74-7.08c2.4-2.98,4.47-6.39,6.21-10.24
	c1.74-3.85,3.08-7.95,4.03-12.31c0.94-4.36,1.42-8.86,1.42-13.51c0-6.97-1.31-13.98-3.92-21.03c-2.61-7.04-6.9-13.36-12.85-18.96
	c-5.96-5.59-13.84-10.13-23.64-13.62c-9.81-3.49-21.9-5.23-36.28-5.23c-4.21,0-8.64,0.18-13.29,0.54c-4.65,0.36-9.52,0.91-14.6,1.63
	c-2.18,0.29-4,1.27-5.45,2.94c-1.45,1.67-2.18,3.6-2.18,5.77l-2.18,148.6c0,2.47,0.87,4.57,2.61,6.32c1.74,1.89,3.85,2.83,6.32,2.83
	h33.56c2.47,0,4.61-0.91,6.43-2.72c1.81-1.82,2.72-3.96,2.72-6.43v-29.85c0-0.87,0.36-1.31,1.09-1.31c0.87-0.29,1.45,0,1.74,0.87
	l15.47,35.73c0.87,1.89,2.21,3.31,4.03,4.25c1.81,0.94,3.74,1.27,5.77,0.98l31.59-5.23C730.39,613.61,732.5,612.08,733.81,609.47z
	 M682.93,515.12c-1.24,1.89-2.76,3.49-4.58,4.79c-1.82,1.31-3.7,2.29-5.67,2.94c-1.96,0.65-3.52,1.13-4.68,1.42
	c-0.29,0.15-0.73,0.07-1.31-0.22c-0.44-0.44-0.65-0.87-0.65-1.31v-28.11c0-0.44,0.22-0.8,0.65-1.09c0.58-0.29,1.01-0.36,1.31-0.22
	c1.16,0.29,2.65,0.69,4.47,1.2c1.82,0.51,3.6,1.34,5.34,2.51c1.74,1.16,3.27,2.65,4.57,4.47c1.31,1.82,2.03,4.03,2.18,6.65
	C684.71,510.91,684.16,513.24,682.93,515.12z M793.94,451.5c2.62,0,4.79,0.87,6.54,2.61c1.74,1.74,2.54,3.92,2.4,6.54l-2.62,146.64
	c-0.15,2.47-1.09,4.58-2.83,6.32c-1.74,1.74-3.85,2.61-6.32,2.61h-42.49c-2.33,0-4.43-0.94-6.32-2.83
	c-1.74-1.74-2.62-3.85-2.62-6.32l0.44-146.86c0-2.61,0.87-4.79,2.61-6.54c1.74-1.74,3.85-2.62,6.32-2.62L793.94,451.5z
	 M926.97,531.46c2.69-6.83,4.03-13.8,4.03-20.92c0-7.55-1.6-15-4.79-22.33c-3.2-7.33-8.17-13.87-14.93-19.61
	c-6.75-5.74-15.36-10.38-25.82-13.94c-10.46-3.56-22.88-5.34-37.26-5.34c-3.92,0-7.99,0.11-12.2,0.33
	c-4.21,0.22-8.57,0.69-13.07,1.42c-2.33,0.29-4.21,1.27-5.66,2.94c-1.45,1.67-2.18,3.6-2.18,5.77l-2.18,147.95
	c0,2.47,0.87,4.65,2.62,6.54c1.74,1.74,3.85,2.62,6.32,2.62h38.35c2.47,0,4.58-0.91,6.32-2.72c1.74-1.81,2.61-3.96,2.61-6.43v-37.7
	c0-0.73,0.51-1.23,1.53-1.53c9.59-0.29,18.12-2.14,25.6-5.56c7.48-3.41,13.8-7.81,18.96-13.18
	C920.35,544.39,924.28,538.29,926.97,531.46z M885.13,518.17c-1.24,1.89-2.76,3.49-4.58,4.79c-1.82,1.31-3.7,2.29-5.66,2.94
	c-1.96,0.65-3.52,1.13-4.68,1.42c-0.29,0.15-0.73,0.07-1.31-0.22c-0.29-0.14-0.44-0.51-0.44-1.09v-28.11c0-0.58,0.14-1.01,0.44-1.31
	c0.29-0.14,0.73-0.22,1.31-0.22c1.16,0.29,2.65,0.73,4.47,1.31c1.81,0.58,3.6,1.45,5.34,2.61c1.74,1.16,3.27,2.65,4.58,4.47
	c1.31,1.82,2.03,4.03,2.18,6.65C886.91,514.03,886.36,516.29,885.13,518.17z M1054.32,565.45c0.44,9.01-1.09,16.85-4.58,23.53
	c-3.49,6.68-8.35,12.2-14.6,16.56c-6.25,4.36-13.55,7.63-21.9,9.81c-8.36,2.18-17.18,3.27-26.47,3.27c-9.88,0-19.97-1.23-30.29-3.7
	c-2.18-0.44-3.92-1.52-5.23-3.27c-1.31-1.74-1.89-3.63-1.74-5.66l0.87-33.34c0.14-2.62,1.23-4.79,3.27-6.54
	c1.89-1.74,4.21-2.47,6.97-2.18c1.6,0.15,3.23,0.29,4.9,0.44c1.67,0.15,3.38,0.22,5.12,0.22c2.76,0,5.45-0.18,8.06-0.55
	c2.61-0.36,4.9-1.01,6.86-1.96c1.96-0.94,3.52-2.25,4.68-3.92c1.16-1.67,1.6-3.81,1.31-6.43c-0.44-3.34-2.11-5.96-5.01-7.84
	c-2.91-1.89-6.39-3.63-10.46-5.23c-4.07-1.6-8.39-3.3-12.96-5.12c-4.58-1.81-8.79-4.36-12.64-7.63c-3.85-3.27-6.97-7.44-9.37-12.53
	c-2.4-5.08-3.38-11.77-2.94-20.05c0.44-7.99,2.29-14.96,5.56-20.92c3.27-5.95,7.55-10.89,12.86-14.82
	c5.3-3.92,11.55-6.86,18.74-8.82c7.19-1.96,14.93-2.94,23.21-2.94c7.41,0,15.03,0.73,22.88,2.18c7.84,1.45,15.83,3.63,23.97,6.54
	c2.47,0.73,4.21,2.22,5.23,4.47c1.01,2.25,1.16,4.54,0.44,6.86l-10.89,32.03c-0.87,2.47-2.4,4.21-4.58,5.23
	c-2.47,1.16-4.87,1.31-7.19,0.44c-2.47-1.01-5.12-1.89-7.95-2.61c-2.83-0.73-5.63-1.09-8.39-1.09c-2.61,0-4.98,0.51-7.08,1.53
	c-2.11,1.02-3.59,2.83-4.47,5.45c-0.87,2.61-0.18,4.76,2.07,6.43c2.25,1.67,5.3,3.34,9.15,5.01c3.85,1.67,8.17,3.56,12.96,5.67
	c4.79,2.11,9.29,4.87,13.51,8.28c4.21,3.41,7.84,7.81,10.89,13.18C1052.14,550.78,1053.89,557.47,1054.32,565.45z M535.77,687.06
	c0.09,0.84-0.14,1.57-0.7,2.18c-0.61,0.61-1.31,0.91-2.11,0.91l-14.32,0.21c-0.84,0-1.54-0.3-2.11-0.91
	c-0.56-0.56-0.84-1.29-0.84-2.18l0.56-14.18l-12.7-32.43c-0.37-0.98-0.28-1.87,0.28-2.67c0.61-0.89,1.4-1.33,2.39-1.33l12.14-0.07
	c0.65,0,1.24,0.19,1.76,0.56c0.51,0.37,0.87,0.89,1.05,1.54l3.79,12.7c0.09,0.23,0.26,0.35,0.49,0.35c0.23,0,0.4-0.12,0.49-0.35
	l3.02-12.63c0.19-0.65,0.55-1.2,1.09-1.65c0.54-0.44,1.16-0.64,1.86-0.6l12.42,0.42c1.03,0.09,1.82,0.54,2.39,1.33
	c0.56,0.84,0.65,1.73,0.28,2.67l-12.28,31.66L535.77,687.06z M584.31,643.82c-2.18-2.48-4.74-4.45-7.69-5.9
	c-2.95-1.45-6.08-2.18-9.41-2.18c-3.32,0-6.46,0.73-9.41,2.18c-2.95,1.45-5.51,3.42-7.69,5.9c-2.18,2.48-3.9,5.39-5.16,8.74
	c-1.26,3.35-1.89,6.91-1.89,10.7c0,3.79,0.63,7.36,1.89,10.71c1.26,3.35,2.98,6.27,5.16,8.77c2.18,2.5,4.74,4.47,7.69,5.9
	c2.95,1.43,6.08,2.14,9.41,2.14c3.32,0,6.46-0.71,9.41-2.14c2.95-1.43,5.51-3.39,7.69-5.9c2.18-2.5,3.9-5.43,5.16-8.77
	c1.26-3.35,1.89-6.91,1.89-10.71c0-3.79-0.63-7.36-1.89-10.7C588.2,649.22,586.48,646.3,584.31,643.82z M575.01,668.32
	c-0.42,1.17-0.98,2.19-1.68,3.05c-0.7,0.87-1.53,1.54-2.49,2.04c-0.96,0.49-1.98,0.74-3.05,0.74c-1.08,0-2.09-0.25-3.05-0.74
	c-0.96-0.49-1.79-1.17-2.49-2.04c-0.7-0.87-1.26-1.88-1.68-3.05c-0.42-1.17-0.63-2.41-0.63-3.72c0-1.31,0.21-2.55,0.63-3.72
	c0.42-1.17,0.98-2.19,1.68-3.05c0.7-0.87,1.53-1.54,2.49-2.04c0.96-0.49,1.98-0.74,3.05-0.74c1.08,0,2.09,0.24,3.05,0.74
	c0.96,0.49,1.79,1.17,2.49,2.04c0.7,0.87,1.26,1.88,1.68,3.05c0.42,1.17,0.63,2.41,0.63,3.72
	C575.64,665.91,575.43,667.15,575.01,668.32z M641.23,647.12c0.16,2.81,0.25,5.66,0.25,8.56c0,4.21-0.29,8.35-0.88,12.42
	c-0.59,4.07-1.7,7.73-3.33,10.98c-1.64,3.25-3.93,5.91-6.88,7.97c-2.95,2.06-6.79,3.18-11.51,3.37c-3.51,0.14-6.58-0.2-9.2-1.02
	c-2.62-0.82-4.87-2.01-6.74-3.58c-1.87-1.57-3.42-3.47-4.63-5.72c-1.22-2.25-2.18-4.7-2.88-7.37c-0.7-2.67-1.19-5.51-1.47-8.53
	c-0.28-3.02-0.42-6.12-0.42-9.3c0-2.57,0.07-5.16,0.21-7.76c0.14-2.6,0.3-5.16,0.49-7.69c0.05-0.8,0.34-1.44,0.88-1.93
	s1.2-0.76,2-0.81h15.3c0.8-0.05,1.5,0.23,2.11,0.84c0.56,0.56,0.84,1.24,0.84,2.04c-0.05,2.11-0.07,4.55-0.07,7.33
	c0,2.78,0,5.56,0,8.32c0,2.81,0.01,5.37,0.04,7.69c0.02,2.32,0.08,4.08,0.17,5.3c0.09,1.45,0.4,2.61,0.91,3.47
	c0.51,0.87,1.08,1.3,1.68,1.3c0.52,0,1.01-0.39,1.47-1.16s0.82-2.05,1.05-3.83c0.14-1.08,0.25-2.33,0.32-3.76
	c0.07-1.43,0.13-2.95,0.17-4.56c0.05-1.61,0.08-3.3,0.11-5.05c0.02-1.75,0.03-3.5,0.03-5.23c0-1.83-0.01-3.59-0.03-5.3
	c-0.02-1.71-0.04-3.24-0.04-4.6c0-0.8,0.28-1.49,0.84-2.07c0.56-0.58,1.24-0.88,2.04-0.88l13.62-0.14c0.8-0.05,1.46,0.19,2,0.7
	c0.54,0.52,0.85,1.17,0.95,1.97C640.87,641.65,641.07,644.31,641.23,647.12z M675.87,669.09c0.89-0.56,1.72-1.32,2.49-2.28
	c0.77-0.96,1.44-2.06,2-3.3c0.56-1.24,0.99-2.56,1.3-3.97c0.3-1.4,0.46-2.85,0.46-4.35c0-2.25-0.42-4.5-1.26-6.77
	c-0.84-2.27-2.22-4.3-4.14-6.11c-1.92-1.8-4.46-3.26-7.62-4.39c-3.16-1.12-7.05-1.68-11.69-1.68c-1.36,0-2.78,0.06-4.28,0.17
	c-1.5,0.12-3.07,0.29-4.7,0.53c-0.7,0.09-1.29,0.41-1.75,0.95c-0.47,0.54-0.7,1.16-0.7,1.86l-0.7,47.87c0,0.8,0.28,1.47,0.84,2.04
	c0.56,0.61,1.24,0.91,2.04,0.91h10.81c0.8,0,1.49-0.29,2.07-0.88s0.88-1.28,0.88-2.07v-9.62c0-0.28,0.12-0.42,0.35-0.42
	c0.28-0.09,0.47,0,0.56,0.28l4.98,11.51c0.28,0.61,0.71,1.06,1.3,1.37c0.59,0.3,1.2,0.41,1.86,0.32l10.18-1.68
	c0.94-0.14,1.61-0.63,2.04-1.47c0.47-0.8,0.51-1.66,0.14-2.6L675.87,669.09z M666.78,657.51c-0.4,0.61-0.89,1.12-1.48,1.54
	c-0.59,0.42-1.19,0.74-1.82,0.95c-0.63,0.21-1.13,0.36-1.51,0.46c-0.1,0.05-0.24,0.03-0.42-0.07c-0.14-0.14-0.21-0.28-0.21-0.42
	v-9.05c0-0.14,0.07-0.26,0.21-0.35c0.19-0.09,0.33-0.12,0.42-0.07c0.37,0.09,0.85,0.22,1.44,0.39c0.59,0.16,1.16,0.43,1.72,0.81
	c0.56,0.38,1.05,0.85,1.47,1.44c0.42,0.59,0.65,1.3,0.7,2.14C667.36,656.15,667.18,656.9,666.78,657.51z M743.05,637.43
	c0.56,0.56,0.84,1.26,0.84,2.11l-0.35,12.7c-0.05,0.75-0.33,1.39-0.84,1.93c-0.52,0.54-1.17,0.83-1.97,0.88l-5.12,0.14
	c-0.05,0-0.16,0.05-0.35,0.14c-0.09,0.19-0.14,0.3-0.14,0.35l1.19,31.24c0,0.8-0.27,1.47-0.81,2.04c-0.54,0.56-1.2,0.89-2,0.98
	l-14.95,0.7c-0.84,0.05-1.57-0.23-2.18-0.84c-0.61-0.56-0.91-1.26-0.91-2.11l0.7-32.22c0-0.14-0.05-0.26-0.14-0.35
	c-0.05-0.09-0.16-0.14-0.35-0.14l-6.53,0.14c-0.75,0.05-1.47-0.23-2.18-0.84c-0.56-0.56-0.84-1.26-0.84-2.11l0.14-12.56
	c0.05-0.8,0.35-1.47,0.91-2.04c0.56-0.56,1.24-0.84,2.04-0.84l31.73-0.21C741.78,636.52,742.49,636.83,743.05,637.43z
	 M785.69,643.82c-2.18-2.48-4.74-4.45-7.69-5.9c-2.95-1.45-6.08-2.18-9.41-2.18c-3.32,0-6.46,0.73-9.41,2.18
	c-2.95,1.45-5.51,3.42-7.69,5.9c-2.18,2.48-3.9,5.39-5.16,8.74c-1.26,3.35-1.9,6.91-1.9,10.7c0,3.79,0.63,7.36,1.9,10.71
	c1.26,3.35,2.98,6.27,5.16,8.77c2.18,2.5,4.74,4.47,7.69,5.9c2.95,1.43,6.08,2.14,9.41,2.14c3.32,0,6.46-0.71,9.41-2.14
	c2.95-1.43,5.51-3.39,7.69-5.9c2.18-2.5,3.9-5.43,5.16-8.77c1.26-3.35,1.89-6.91,1.89-10.71c0-3.79-0.63-7.36-1.89-10.7
	C789.58,649.22,787.86,646.3,785.69,643.82z M776.39,668.32c-0.42,1.17-0.98,2.19-1.69,3.05c-0.7,0.87-1.53,1.54-2.49,2.04
	c-0.96,0.49-1.98,0.74-3.05,0.74c-1.08,0-2.1-0.25-3.05-0.74c-0.96-0.49-1.79-1.17-2.49-2.04c-0.7-0.87-1.26-1.88-1.69-3.05
	c-0.42-1.17-0.63-2.41-0.63-3.72c0-1.31,0.21-2.55,0.63-3.72c0.42-1.17,0.98-2.19,1.69-3.05c0.7-0.87,1.53-1.54,2.49-2.04
	c0.96-0.49,1.98-0.74,3.05-0.74c1.08,0,2.09,0.24,3.05,0.74c0.96,0.49,1.79,1.17,2.49,2.04c0.7,0.87,1.26,1.88,1.69,3.05
	c0.42,1.17,0.63,2.41,0.63,3.72C777.02,665.91,776.81,667.15,776.39,668.32z M842.61,647.12c0.16,2.81,0.25,5.66,0.25,8.56
	c0,4.21-0.29,8.35-0.88,12.42c-0.59,4.07-1.7,7.73-3.33,10.98c-1.64,3.25-3.93,5.91-6.88,7.97c-2.95,2.06-6.79,3.18-11.51,3.37
	c-3.51,0.14-6.58-0.2-9.2-1.02c-2.62-0.82-4.87-2.01-6.74-3.58c-1.87-1.57-3.42-3.47-4.63-5.72c-1.22-2.25-2.18-4.7-2.88-7.37
	c-0.7-2.67-1.19-5.51-1.47-8.53c-0.28-3.02-0.42-6.12-0.42-9.3c0-2.57,0.07-5.16,0.21-7.76c0.14-2.6,0.3-5.16,0.49-7.69
	c0.05-0.8,0.34-1.44,0.88-1.93c0.54-0.49,1.2-0.76,2-0.81h15.3c0.8-0.05,1.5,0.23,2.11,0.84c0.56,0.56,0.84,1.24,0.84,2.04
	c-0.05,2.11-0.07,4.55-0.07,7.33c0,2.78,0,5.56,0,8.32c0,2.81,0.01,5.37,0.04,7.69c0.02,2.32,0.08,4.08,0.18,5.3
	c0.09,1.45,0.4,2.61,0.91,3.47c0.52,0.87,1.08,1.3,1.68,1.3c0.52,0,1.01-0.39,1.47-1.16s0.82-2.05,1.05-3.83
	c0.14-1.08,0.25-2.33,0.32-3.76c0.07-1.43,0.13-2.95,0.18-4.56c0.05-1.61,0.08-3.3,0.1-5.05c0.02-1.75,0.04-3.5,0.04-5.23
	c0-1.83-0.01-3.59-0.04-5.3c-0.02-1.71-0.03-3.24-0.03-4.6c0-0.8,0.28-1.49,0.84-2.07c0.56-0.58,1.24-0.88,2.04-0.88l13.62-0.14
	c0.8-0.05,1.46,0.19,2,0.7c0.54,0.52,0.85,1.17,0.95,1.97C842.25,641.65,842.45,644.31,842.61,647.12z M877.26,669.09
	c0.89-0.56,1.72-1.32,2.49-2.28c0.77-0.96,1.44-2.06,2-3.3c0.56-1.24,0.99-2.56,1.3-3.97s0.46-2.85,0.46-4.35
	c0-2.25-0.42-4.5-1.26-6.77c-0.84-2.27-2.22-4.3-4.14-6.11c-1.92-1.8-4.46-3.26-7.62-4.39c-3.16-1.12-7.05-1.68-11.69-1.68
	c-1.36,0-2.78,0.06-4.28,0.17c-1.5,0.12-3.07,0.29-4.7,0.53c-0.7,0.09-1.29,0.41-1.75,0.95c-0.47,0.54-0.7,1.16-0.7,1.86l-0.7,47.87
	c0,0.8,0.28,1.47,0.84,2.04c0.56,0.61,1.24,0.91,2.04,0.91h10.81c0.79,0,1.48-0.29,2.07-0.88c0.58-0.59,0.88-1.28,0.88-2.07v-9.62
	c0-0.28,0.12-0.42,0.35-0.42c0.28-0.09,0.47,0,0.56,0.28l4.98,11.51c0.28,0.61,0.71,1.06,1.3,1.37c0.59,0.3,1.2,0.41,1.86,0.32
	l10.18-1.68c0.94-0.14,1.62-0.63,2.04-1.47c0.47-0.8,0.51-1.66,0.14-2.6L877.26,669.09z M868.17,657.51
	c-0.4,0.61-0.89,1.12-1.47,1.54c-0.59,0.42-1.19,0.74-1.83,0.95c-0.63,0.21-1.13,0.36-1.51,0.46c-0.09,0.05-0.23,0.03-0.42-0.07
	c-0.14-0.14-0.21-0.28-0.21-0.42v-9.05c0-0.14,0.07-0.26,0.21-0.35c0.19-0.09,0.33-0.12,0.42-0.07c0.37,0.09,0.85,0.22,1.44,0.39
	c0.59,0.16,1.16,0.43,1.72,0.81c0.56,0.38,1.05,0.85,1.47,1.44c0.42,0.59,0.66,1.3,0.7,2.14
	C868.74,656.15,868.56,656.9,868.17,657.51z M963.1,639.05l2.11,47.8c0.05,0.8-0.21,1.52-0.77,2.18c-0.56,0.56-1.26,0.84-2.11,0.84
	l-12.14,0.14c-0.8,0-1.46-0.26-2-0.77c-0.54-0.51-0.85-1.17-0.95-1.97l-1.12-16.92c-0.09-0.33-0.26-0.49-0.49-0.49
	c-0.23,0-0.4,0.12-0.49,0.35l-2.6,11.93c-0.14,0.66-0.48,1.2-1.02,1.65c-0.54,0.45-1.16,0.67-1.86,0.67l-5.69-0.07
	c-1.4,0-2.34-0.68-2.81-2.04l-3.65-11.09c-0.09-0.23-0.26-0.35-0.49-0.35c-0.28,0.09-0.42,0.26-0.42,0.49l-0.14,15.79
	c0,0.8-0.28,1.47-0.84,2.04c-0.56,0.56-1.26,0.84-2.11,0.84l-13.13-0.14c-0.75,0-1.43-0.3-2.04-0.91c-0.56-0.56-0.84-1.24-0.84-2.04
	l0.77-47.66c0-0.8,0.28-1.47,0.84-2.04c0.56-0.56,1.24-0.84,2.04-0.84l16.63-0.21c0.66,0,1.23,0.19,1.72,0.56
	c0.49,0.37,0.85,0.87,1.09,1.47l5.55,18.11c0.09,0.23,0.26,0.35,0.49,0.35c0.28,0,0.42-0.12,0.42-0.35l4.7-18.18
	c0.19-0.66,0.55-1.19,1.09-1.61c0.54-0.42,1.13-0.61,1.79-0.56l15.58,0.28c0.8,0,1.46,0.27,2,0.81S963.05,638.3,963.1,639.05z
	 M1002.76,639.89c-0.14-0.65-0.48-1.19-1.02-1.61c-0.54-0.42-1.16-0.63-1.86-0.63l-17.62,0.21c-0.66,0-1.24,0.2-1.75,0.6
	s-0.87,0.92-1.05,1.58l-11.93,46.54c-0.19,0.89,0,1.71,0.56,2.46c0.52,0.7,1.26,1.1,2.25,1.19l12.7,0.14c0.75,0,1.39-0.23,1.93-0.7
	c0.54-0.47,0.85-1.05,0.95-1.75l0.49-2.88c0-0.28,0.16-0.42,0.49-0.42l8.07,0.07c0.23,0,0.4,0.14,0.49,0.42l0.49,2.67
	c0.14,0.7,0.48,1.28,1.02,1.72c0.54,0.44,1.16,0.67,1.86,0.67h12.35c0.89,0,1.64-0.37,2.25-1.12c0.61-0.75,0.79-1.57,0.56-2.46
	L1002.76,639.89z M992.44,669.86c-0.09,0.09-0.23,0.14-0.42,0.14l-2.88,0.07c-0.14,0-0.26-0.05-0.35-0.14
	c-0.09-0.09-0.14-0.23-0.14-0.42l1.26-8.56c0.05-0.19,0.21-0.33,0.49-0.42c0.23,0,0.4,0.14,0.49,0.42l1.61,8.49
	C992.51,669.63,992.49,669.77,992.44,669.86z M1047.43,642.52c-2.18-1.85-4.95-3.34-8.32-4.49c-3.37-1.15-7.37-1.72-12-1.72
	c-1.26,0-2.57,0.03-3.93,0.1c-1.36,0.07-2.76,0.22-4.21,0.46c-0.75,0.09-1.36,0.41-1.82,0.95c-0.47,0.54-0.7,1.16-0.7,1.86
	l-0.7,47.66c0,0.8,0.28,1.5,0.84,2.11c0.56,0.56,1.24,0.84,2.04,0.84h12.35c0.79,0,1.47-0.29,2.04-0.88
	c0.56-0.58,0.84-1.27,0.84-2.07V675.2c0-0.23,0.16-0.4,0.49-0.49c3.09-0.09,5.84-0.69,8.25-1.79c2.41-1.1,4.44-2.51,6.11-4.25
	c1.66-1.73,2.92-3.7,3.79-5.9c0.86-2.2,1.3-4.45,1.3-6.74c0-2.43-0.52-4.83-1.54-7.19C1051.21,646.48,1049.61,644.37,1047.43,642.52
	z M1039.01,658.49c-0.4,0.61-0.89,1.12-1.47,1.54c-0.59,0.42-1.19,0.74-1.82,0.95c-0.63,0.21-1.14,0.36-1.51,0.46
	c-0.09,0.05-0.23,0.02-0.42-0.07c-0.09-0.05-0.14-0.16-0.14-0.35v-9.06c0-0.19,0.05-0.33,0.14-0.42c0.09-0.05,0.23-0.07,0.42-0.07
	c0.37,0.09,0.85,0.23,1.44,0.42c0.58,0.19,1.16,0.47,1.72,0.84c0.56,0.37,1.05,0.85,1.47,1.44c0.42,0.59,0.66,1.3,0.7,2.14
	C1039.58,657.16,1039.41,657.88,1039.01,658.49z"/>
<path class="st0" d="M433.26,548.07c-6.33-17.49-14.72-33.15-25.18-47c-10.47-13.84-22.63-25.13-36.49-33.88
	c-13.87-8.74-28.35-13.6-43.43-14.57c31.55-20.88,53.16-41.16,64.81-60.83c11.65-19.67,17.48-38.74,17.48-57.2
	c0-11.17-1.46-21.85-4.37-32.05c-0.51-1.82-1.05-3.62-1.61-5.4l0,0l0,0v-0.01c-6.87-21.8-17.25-39.54-31.17-53.25
	c-8.71-8.57-18.27-16.04-28.69-22.42c-7.58-4.65-15.62-8.71-24.11-12.19c-20.15-8.25-42-13.72-65.55-16.39
	c-23.55-2.67-47.23-4.01-71.02-4.01c-18.45,0-36.66,0.36-54.63,1.08c-17.97,0.72-34.97,1.56-50.99,2.51
	c-8.25,0.48-15.16,3.65-20.76,9.48c-5.59,5.83-8.37,12.87-8.37,21.12v292.14v138.98v65.74c0,8.26,2.67,15.17,8.02,20.76
	c5.35,5.59,12.14,8.86,20.4,9.83c16.04,1,31.46,1.75,46.28,2.24c14.82,0.51,29.04,0.75,42.65,0.75c59.27,0,108.23-4.73,146.85-14.21
	c23.73-5.82,44.03-13.52,60.89-23.1c10.58-6.01,19.8-12.76,27.68-20.25c7.78-7.24,14.4-14.99,19.89-23.27c0,0,0,0,0,0l0,0
	c4.45-6.71,8.14-13.76,11.08-21.16c6.56-16.51,9.84-33.27,9.84-50.28C442.75,583.28,439.58,565.55,433.26,548.07z M167.91,266.78
	c0,0,67.27-5.09,103.09,27.87c13,11.96,21.87,28.94,21.87,52.99c0,90.31-124.96,94.5-124.96,94.5v-44.99V266.78z M167.91,681.53
	V534.87v-28.71c0,0,11.77-0.89,28.08,0.49c36.84,3.1,96.88,17.77,96.88,80.36c0,14.65-3.29,27.04-8.81,37.51
	C255.61,678.58,167.91,681.53,167.91,681.53z"/>
<path class="st1" d="M473.81,473.56c0,0-4.03-48.19-55.78-53.38c-1.2-0.12-2.41-0.18-3.62-0.18c-1.21,0-2.42,0.06-3.62,0.18
	c-51.75,5.18-55.78,53.38-55.78,53.38c-2.3,30.42,23.69,61.07,23.69,61.07c23.69,33.03,31.37,58.81,31.37,70.57
	c0,7.72,2.58,8.88,4.36,8.76c1.77,0.12,4.36-1.03,4.36-8.76c0-11.76,7.68-37.54,31.37-70.57
	C450.13,534.62,476.11,503.97,473.81,473.56z M414.41,492.53c-11.46,0-20.76-9.29-20.76-20.76s9.29-20.76,20.76-20.76
	c11.46,0,20.76,9.29,20.76,20.76S425.87,492.53,414.41,492.53z"/>
<g>
</g>
<g>
</g>
<g>
</g>
<g>
</g>
<g>
</g>
<g>
</g>
</svg>
