<?xml version="1.0" encoding="utf-8"?>
<!-- Generator: Adobe Illustrator 25.2.0, SVG Export Plug-In . SVG Version: 6.00 Build 0)  -->
<svg version="1.1" id="Layer_1" xmlns="http://www.w3.org/2000/svg" xmlns:xlink="http://www.w3.org/1999/xlink" x="0px" y="0px"
	 viewBox="0 0 1080 1080" style="enable-background:new 0 0 1080 1080;" xml:space="preserve">
<style type="text/css">
	.st0{fill:#3A3A3A;}
	.st1{fill:url(#SVGID_1_);}
	.st2{fill:url(#SVGID_2_);}
	.st3{fill:url(#SVGID_3_);}
	.st4{fill:url(#SVGID_4_);}
	.st5{fill:url(#SVGID_5_);}
	.st6{fill:#DD493C;}
	.st7{fill:#822C29;}
</style>
<path class="st0" d="M486.18,456.77c5.29,0.32,10.38,0.56,15.27,0.72c4.89,0.16,9.58,0.24,14.06,0.24c19.55,0,35.7-1.56,48.44-4.69
	c12.74-3.13,22.48-7.89,29.21-14.3c4.65-4.33,8.05-9.22,10.22-14.67c2.16-5.45,3.25-10.98,3.25-16.59c0-5.93-1.05-11.78-3.13-17.55
	c-2.08-5.77-4.85-10.94-8.29-15.51c-3.45-4.57-7.45-8.29-12.02-11.18c-4.57-2.89-9.34-4.49-14.31-4.81
	c10.42-6.89,17.55-13.58,21.4-20.07c3.85-6.49,5.77-12.78,5.77-18.87c0-3.69-0.48-7.21-1.44-10.58
	c-2.25-8.01-5.85-14.46-10.82-19.35c-4.97-4.89-10.78-8.69-17.43-11.42c-6.65-2.72-13.87-4.53-21.64-5.41
	c-7.78-0.88-15.59-1.32-23.44-1.32c-6.09,0-12.1,0.12-18.03,0.36c-5.93,0.24-11.54,0.52-16.83,0.84c-2.73,0.16-5.01,1.2-6.85,3.13
	c-1.84,1.92-2.76,4.25-2.76,6.97v163.96c0,2.73,0.88,5.01,2.64,6.85C481.21,455.37,483.45,456.45,486.18,456.77z M527.77,313.96
	c0-0.48,0.24-0.96,0.72-1.44c0.32-0.32,0.8-0.4,1.44-0.24c0.96,0.32,2.24,0.76,3.85,1.32c1.6,0.56,3.13,1.36,4.57,2.4
	c1.44,1.04,2.72,2.4,3.85,4.09c1.12,1.68,1.76,3.73,1.92,6.13c0.16,2.4-0.28,4.49-1.32,6.25c-1.04,1.77-2.32,3.25-3.85,4.45
	c-1.53,1.2-3.13,2.13-4.81,2.76c-1.68,0.64-3.09,1.12-4.21,1.44c-0.32,0.16-0.8,0.08-1.44-0.24c-0.48-0.16-0.72-0.56-0.72-1.2
	V313.96z M527.77,384.4c0-0.48,0.24-0.96,0.72-1.44c0.32-0.32,0.72-0.4,1.2-0.24c1.28,0.32,2.92,0.8,4.93,1.44
	c2,0.64,3.97,1.6,5.89,2.89c1.92,1.28,3.64,2.93,5.17,4.93c1.52,2.01,2.36,4.45,2.52,7.33c0.16,2.89-0.48,5.37-1.92,7.45
	c-1.44,2.08-3.13,3.85-5.05,5.29c-1.92,1.44-3.97,2.52-6.13,3.25c-2.16,0.72-3.89,1.24-5.17,1.56c-0.64,0.16-1.12,0.08-1.44-0.24
	c-0.48-0.16-0.72-0.64-0.72-1.44V384.4z M616.72,457.01l43.52,0.48c2.56,0,4.77-0.8,6.61-2.4c1.84-1.6,2.92-3.61,3.24-6.01
	l1.68-9.86c0-0.96,0.56-1.44,1.68-1.44l27.65,0.24c0.8,0,1.36,0.48,1.68,1.44l1.68,9.14c0.48,2.4,1.64,4.37,3.49,5.89
	c1.84,1.53,3.97,2.28,6.37,2.28h42.31c3.04,0,5.61-1.28,7.69-3.85c2.08-2.56,2.72-5.37,1.92-8.41L727.8,284.63
	c-0.48-2.24-1.65-4.09-3.49-5.53c-1.84-1.44-3.97-2.16-6.37-2.16l-60.34,0.72c-2.25,0-4.25,0.68-6.01,2.04
	c-1.77,1.36-2.97,3.17-3.61,5.41l-40.87,159.4c-0.64,3.05,0,5.85,1.92,8.41C610.79,455.33,613.36,456.69,616.72,457.01z
	 M683.8,356.75c0.16-0.64,0.72-1.12,1.68-1.44c0.8,0,1.36,0.48,1.68,1.44l5.53,29.09c0,0.64-0.08,1.12-0.24,1.44
	c-0.32,0.32-0.8,0.48-1.44,0.48l-9.86,0.24c-0.48,0-0.88-0.16-1.2-0.48c-0.32-0.32-0.48-0.8-0.48-1.44L683.8,356.75z M781.17,458.93
	c3.68,0.48,7.25,0.8,10.7,0.96c3.44,0.16,6.85,0.24,10.22,0.24c17.47,0,32.58-2.68,45.32-8.05c12.74-5.37,23.2-12.42,31.38-21.16
	c8.17-8.73,14.06-18.71,17.67-29.93c3.61-11.22,5.17-22.76,4.69-34.62c-0.64-11.7-3.17-23.2-7.57-34.5
	c-4.41-11.3-10.7-21.4-18.87-30.29c-8.17-8.9-18.23-16.07-30.17-21.52c-11.94-5.45-25.69-8.17-41.23-8.17
	c-3.53,0-7.13,0.16-10.82,0.48c-3.69,0.32-7.45,0.8-11.3,1.44c-2.4,0.32-4.41,1.41-6.01,3.25c-1.6,1.84-2.4,4.13-2.4,6.85
	l-0.48,164.69c0,2.73,0.84,5.05,2.52,6.97C776.48,457.49,778.6,458.61,781.17,458.93z M822.28,336.32c0-0.16,0.16-0.56,0.48-1.2
	c0.32-0.32,0.72-0.48,1.2-0.48c1.45,0,3.64,0.28,6.55,0.84c2.91,0.56,5.78,1.89,8.61,3.97c2.83,2.08,5.3,5.17,7.4,9.26
	c2.1,4.09,3.16,9.66,3.16,16.71c0,7.05-1.05,12.74-3.16,17.07c-2.1,4.33-4.53,7.74-7.28,10.22c-2.75,2.49-5.54,4.25-8.37,5.29
	c-2.83,1.04-5.06,1.65-6.67,1.8c-0.65,0-1.13-0.16-1.45-0.48c-0.32-0.32-0.48-0.8-0.48-1.44V336.32z M1039.86,440.18l-25.48-55.54
	c3.04-1.92,5.89-4.53,8.53-7.81c2.65-3.28,4.93-7.05,6.85-11.3c1.92-4.24,3.4-8.78,4.45-13.58c1.04-4.81,1.56-9.77,1.56-14.91
	c0-7.69-1.44-15.42-4.33-23.2c-2.89-7.77-7.61-14.74-14.19-20.92c-6.57-6.17-15.27-11.18-26.09-15.03
	c-10.82-3.85-24.16-5.77-40.03-5.77c-4.65,0-9.54,0.2-14.67,0.6c-5.13,0.4-10.5,1-16.11,1.8c-2.4,0.32-4.41,1.41-6.01,3.25
	c-1.6,1.84-2.4,3.97-2.4,6.37l-2.4,163.96c0,2.73,0.96,5.05,2.88,6.97c1.92,2.09,4.24,3.13,6.97,3.13h37.02c2.72,0,5.09-1,7.09-3.01
	c2-2,3.01-4.37,3.01-7.09v-32.94c0-0.96,0.4-1.44,1.2-1.44c0.96-0.32,1.6,0,1.92,0.96l17.07,39.43c0.96,2.08,2.44,3.65,4.45,4.69
	c2,1.04,4.13,1.4,6.37,1.08l34.86-5.77c3.2-0.48,5.53-2.16,6.97-5.05C1040.98,446.35,1041.14,443.39,1039.86,440.18z M983.24,344.97
	c-1.36,2.08-3.05,3.85-5.05,5.29c-2.01,1.44-4.09,2.52-6.25,3.25c-2.16,0.72-3.89,1.24-5.17,1.56c-0.32,0.16-0.8,0.08-1.44-0.24
	c-0.48-0.48-0.72-0.96-0.72-1.44v-31.01c0-0.48,0.24-0.88,0.72-1.2c0.64-0.32,1.12-0.4,1.44-0.24c1.28,0.32,2.92,0.76,4.93,1.32
	c2,0.56,3.97,1.48,5.89,2.76c1.92,1.28,3.61,2.93,5.05,4.93c1.44,2.01,2.24,4.45,2.4,7.33C985.2,340.33,984.6,342.89,983.24,344.97z
	 M506.43,535l-20.26,0.44c-2.32,0.15-4.58-0.72-6.75-2.61c-1.74-1.74-2.61-3.92-2.61-6.54l0.44-38.99c0.14-2.47,1.09-4.57,2.83-6.32
	c1.74-1.74,3.85-2.61,6.32-2.61l98.47-0.65c2.61,0,4.79,0.95,6.54,2.83c1.74,1.74,2.61,3.92,2.61,6.54l-1.09,39.43
	c-0.15,2.32-1.02,4.32-2.61,5.99c-1.6,1.67-3.63,2.58-6.1,2.72l-15.9,0.44c-0.15,0-0.51,0.15-1.09,0.44
	c-0.29,0.58-0.43,0.95-0.43,1.09l3.7,96.94c0,2.47-0.84,4.57-2.51,6.32c-1.67,1.74-3.74,2.76-6.21,3.05l-46.4,2.18
	c-2.61,0.15-4.87-0.72-6.75-2.61c-1.89-1.74-2.83-3.92-2.83-6.54l2.18-99.99c0-0.44-0.15-0.8-0.43-1.09
	C507.37,535.14,507.01,535,506.43,535z M717.95,637.17c1.45-2.47,1.6-5.15,0.44-8.06l-23.09-50.32c2.76-1.74,5.34-4.1,7.73-7.08
	c2.4-2.98,4.47-6.39,6.21-10.24c1.74-3.85,3.08-7.95,4.03-12.31c0.94-4.36,1.42-8.86,1.42-13.51c0-6.97-1.31-13.98-3.92-21.02
	c-2.61-7.04-6.9-13.36-12.85-18.95c-5.96-5.59-13.83-10.13-23.64-13.62c-9.8-3.49-21.89-5.23-36.27-5.23
	c-4.21,0-8.64,0.18-13.29,0.54c-4.65,0.36-9.51,0.91-14.6,1.63c-2.18,0.29-4,1.27-5.45,2.94c-1.45,1.67-2.18,3.59-2.18,5.77
	l-2.18,148.57c0,2.47,0.87,4.58,2.61,6.32c1.74,1.89,3.85,2.83,6.32,2.83h33.55c2.47,0,4.61-0.91,6.43-2.72
	c1.81-1.81,2.72-3.95,2.72-6.43v-29.84c0-0.87,0.36-1.31,1.09-1.31c0.87-0.29,1.45,0,1.74,0.87l15.47,35.73
	c0.87,1.89,2.21,3.3,4.03,4.25c1.81,0.94,3.74,1.27,5.77,0.98l31.59-5.23C714.54,641.3,716.65,639.78,717.95,637.17z M667.09,542.84
	c-1.24,1.89-2.76,3.49-4.57,4.79c-1.82,1.31-3.7,2.29-5.66,2.94c-1.96,0.65-3.52,1.13-4.68,1.42c-0.29,0.15-0.73,0.08-1.31-0.22
	c-0.44-0.44-0.65-0.87-0.65-1.31v-28.1c0-0.44,0.22-0.8,0.65-1.09c0.58-0.29,1.01-0.36,1.31-0.22c1.16,0.29,2.65,0.69,4.47,1.2
	c1.81,0.51,3.59,1.34,5.34,2.51c1.74,1.16,3.27,2.65,4.58,4.47c1.31,1.82,2.03,4.03,2.18,6.64
	C668.86,538.63,668.32,540.95,667.09,542.84z M778.08,479.23c2.61,0,4.79,0.87,6.54,2.61c1.74,1.74,2.54,3.92,2.4,6.54l-2.61,146.61
	c-0.15,2.47-1.09,4.58-2.83,6.32c-1.74,1.74-3.85,2.61-6.32,2.61h-42.48c-2.32,0-4.43-0.94-6.32-2.83
	c-1.74-1.74-2.61-3.85-2.61-6.32l0.44-146.83c0-2.61,0.87-4.79,2.61-6.54c1.74-1.74,3.85-2.61,6.32-2.61L778.08,479.23z
	 M911.07,559.18c2.69-6.82,4.03-13.8,4.03-20.91c0-7.55-1.6-14.99-4.79-22.33c-3.2-7.33-8.17-13.87-14.92-19.61
	c-6.75-5.74-15.36-10.38-25.82-13.94c-10.46-3.56-22.87-5.34-37.25-5.34c-3.92,0-7.99,0.11-12.2,0.33
	c-4.21,0.22-8.57,0.69-13.07,1.42c-2.32,0.29-4.21,1.27-5.66,2.94c-1.45,1.67-2.18,3.59-2.18,5.77l-2.18,147.92
	c0,2.47,0.87,4.65,2.61,6.54c1.74,1.74,3.85,2.61,6.32,2.61h38.34c2.47,0,4.57-0.91,6.32-2.72c1.74-1.81,2.61-3.96,2.61-6.43v-37.69
	c0-0.72,0.51-1.23,1.52-1.52c9.59-0.29,18.12-2.14,25.6-5.56c7.48-3.41,13.8-7.81,18.95-13.18
	C904.46,572.1,908.38,566,911.07,559.18z M869.25,545.89c-1.24,1.89-2.76,3.49-4.58,4.79c-1.82,1.31-3.7,2.29-5.66,2.94
	c-1.96,0.65-3.52,1.13-4.68,1.42c-0.29,0.15-0.73,0.07-1.31-0.22c-0.29-0.14-0.43-0.51-0.43-1.09v-28.1c0-0.58,0.14-1.01,0.43-1.31
	c0.29-0.14,0.72-0.22,1.31-0.22c1.16,0.29,2.65,0.73,4.47,1.31c1.81,0.58,3.59,1.45,5.34,2.61c1.74,1.16,3.27,2.65,4.58,4.47
	c1.31,1.82,2.03,4.03,2.18,6.64C871.02,541.75,870.48,544,869.25,545.89z M1038.4,593.16c0.44,9.01-1.09,16.85-4.58,23.53
	c-3.49,6.68-8.35,12.2-14.6,16.56c-6.25,4.36-13.54,7.62-21.89,9.8c-8.35,2.18-17.18,3.27-26.47,3.27c-9.88,0-19.97-1.23-30.28-3.7
	c-2.18-0.44-3.92-1.53-5.23-3.27c-1.31-1.74-1.89-3.63-1.74-5.66l0.87-33.33c0.14-2.61,1.23-4.79,3.27-6.54
	c1.89-1.74,4.21-2.47,6.97-2.18c1.6,0.15,3.23,0.29,4.9,0.44c1.67,0.15,3.38,0.22,5.12,0.22c2.76,0,5.45-0.18,8.06-0.54
	c2.61-0.36,4.9-1.01,6.86-1.96c1.96-0.94,3.52-2.25,4.68-3.92c1.16-1.67,1.6-3.81,1.31-6.43c-0.44-3.34-2.11-5.95-5.01-7.84
	c-2.91-1.89-6.39-3.63-10.46-5.23c-4.07-1.6-8.39-3.3-12.96-5.12c-4.58-1.81-8.79-4.36-12.63-7.62c-3.85-3.27-6.97-7.44-9.37-12.53
	c-2.4-5.08-3.38-11.76-2.94-20.04c0.44-7.99,2.29-14.96,5.55-20.91c3.27-5.95,7.55-10.89,12.85-14.81
	c5.3-3.92,11.55-6.86,18.74-8.82c7.19-1.96,14.92-2.94,23.2-2.94c7.41,0,15.03,0.73,22.87,2.18c7.84,1.45,15.83,3.63,23.96,6.54
	c2.47,0.73,4.21,2.22,5.23,4.47c1.01,2.25,1.16,4.54,0.44,6.86l-10.89,32.02c-0.87,2.47-2.4,4.21-4.58,5.23
	c-2.47,1.16-4.87,1.31-7.19,0.44c-2.47-1.01-5.12-1.89-7.95-2.61c-2.83-0.72-5.63-1.09-8.39-1.09c-2.61,0-4.98,0.51-7.08,1.52
	c-2.11,1.02-3.59,2.83-4.47,5.45c-0.87,2.61-0.18,4.76,2.07,6.43c2.25,1.67,5.3,3.34,9.15,5.01c3.85,1.67,8.17,3.56,12.96,5.66
	c4.79,2.11,9.29,4.87,13.51,8.28c4.21,3.41,7.84,7.81,10.89,13.18C1036.22,578.49,1037.97,585.18,1038.4,593.16z M519.95,717.64
	c0.09,0.84-0.14,1.57-0.7,2.18c-0.61,0.61-1.31,0.91-2.11,0.91l-14.32,0.21c-0.84,0-1.54-0.3-2.11-0.91
	c-0.56-0.56-0.84-1.29-0.84-2.18l0.56-14.18l-12.7-32.42c-0.37-0.98-0.28-1.87,0.28-2.67c0.61-0.89,1.4-1.33,2.39-1.33l12.14-0.07
	c0.65,0,1.24,0.19,1.75,0.56c0.51,0.38,0.86,0.89,1.05,1.54l3.79,12.7c0.09,0.23,0.26,0.35,0.49,0.35c0.23,0,0.4-0.12,0.49-0.35
	l3.02-12.63c0.19-0.65,0.55-1.2,1.09-1.65c0.54-0.44,1.16-0.64,1.86-0.6l12.42,0.42c1.03,0.09,1.82,0.54,2.39,1.33
	c0.56,0.84,0.65,1.73,0.28,2.67l-12.28,31.65L519.95,717.64z M568.48,674.41c-2.18-2.48-4.74-4.44-7.68-5.9
	c-2.95-1.45-6.08-2.18-9.4-2.18c-3.32,0-6.46,0.73-9.4,2.18c-2.95,1.45-5.51,3.42-7.68,5.9c-2.18,2.48-3.89,5.39-5.16,8.74
	c-1.26,3.35-1.89,6.91-1.89,10.7s0.63,7.36,1.89,10.7c1.26,3.34,2.98,6.27,5.16,8.77c2.18,2.5,4.74,4.47,7.68,5.9
	c2.95,1.43,6.08,2.14,9.4,2.14c3.32,0,6.46-0.71,9.4-2.14c2.95-1.43,5.51-3.39,7.68-5.9c2.18-2.5,3.89-5.43,5.16-8.77
	c1.26-3.34,1.89-6.91,1.89-10.7s-0.63-7.36-1.89-10.7C572.38,679.8,570.66,676.89,568.48,674.41z M559.18,698.9
	c-0.42,1.17-0.98,2.19-1.68,3.05c-0.7,0.87-1.53,1.54-2.49,2.03c-0.96,0.49-1.98,0.74-3.05,0.74s-2.09-0.25-3.05-0.74
	c-0.96-0.49-1.79-1.17-2.49-2.03c-0.7-0.86-1.26-1.88-1.68-3.05c-0.42-1.17-0.63-2.41-0.63-3.72s0.21-2.55,0.63-3.72
	c0.42-1.17,0.98-2.19,1.68-3.05c0.7-0.86,1.53-1.54,2.49-2.03c0.96-0.49,1.98-0.74,3.05-0.74s2.09,0.25,3.05,0.74
	c0.96,0.49,1.79,1.17,2.49,2.03c0.7,0.87,1.26,1.88,1.68,3.05c0.42,1.17,0.63,2.41,0.63,3.72S559.61,697.73,559.18,698.9z
	 M625.4,677.7c0.16,2.81,0.25,5.66,0.25,8.56c0,4.21-0.29,8.35-0.88,12.42c-0.58,4.07-1.7,7.73-3.33,10.98
	c-1.64,3.25-3.93,5.91-6.88,7.97c-2.95,2.06-6.79,3.18-11.51,3.37c-3.51,0.14-6.57-0.2-9.19-1.02c-2.62-0.82-4.87-2.01-6.74-3.58
	c-1.87-1.57-3.42-3.47-4.63-5.72c-1.22-2.25-2.18-4.7-2.88-7.37s-1.19-5.51-1.47-8.53c-0.28-3.02-0.42-6.12-0.42-9.3
	c0-2.57,0.07-5.16,0.21-7.75c0.14-2.6,0.3-5.16,0.49-7.69c0.05-0.79,0.34-1.44,0.88-1.93c0.54-0.49,1.2-0.76,2-0.81h15.3
	c0.79-0.05,1.5,0.23,2.11,0.84c0.56,0.56,0.84,1.24,0.84,2.04c-0.05,2.11-0.07,4.55-0.07,7.33c0,2.78,0,5.56,0,8.32
	c0,2.81,0.01,5.37,0.03,7.69c0.02,2.32,0.08,4.08,0.18,5.3c0.09,1.45,0.4,2.61,0.91,3.47c0.51,0.87,1.08,1.3,1.68,1.3
	c0.51,0,1-0.39,1.47-1.16c0.47-0.77,0.82-2.05,1.05-3.82c0.14-1.08,0.25-2.33,0.32-3.75c0.07-1.43,0.13-2.95,0.18-4.56
	c0.05-1.61,0.08-3.3,0.1-5.05c0.02-1.75,0.04-3.5,0.04-5.23c0-1.82-0.01-3.59-0.04-5.3c-0.02-1.71-0.03-3.24-0.03-4.6
	c0-0.8,0.28-1.49,0.84-2.07s1.24-0.88,2.03-0.88l13.62-0.14c0.79-0.05,1.46,0.19,2,0.7c0.54,0.52,0.85,1.17,0.95,1.97
	C625.03,672.23,625.23,674.9,625.4,677.7z M660.03,699.67c0.89-0.56,1.72-1.32,2.49-2.28c0.77-0.96,1.44-2.06,2-3.3
	c0.56-1.24,0.99-2.56,1.3-3.96c0.3-1.4,0.46-2.85,0.46-4.35c0-2.25-0.42-4.5-1.26-6.77c-0.84-2.27-2.22-4.3-4.14-6.11
	c-1.92-1.8-4.46-3.26-7.61-4.39c-3.16-1.12-7.05-1.68-11.69-1.68c-1.36,0-2.78,0.06-4.28,0.18c-1.5,0.12-3.06,0.29-4.7,0.53
	c-0.7,0.09-1.29,0.41-1.75,0.95c-0.47,0.54-0.7,1.16-0.7,1.86l-0.7,47.86c0,0.8,0.28,1.47,0.84,2.03c0.56,0.61,1.24,0.91,2.04,0.91
	h10.81c0.8,0,1.49-0.29,2.07-0.88c0.59-0.58,0.88-1.27,0.88-2.07v-9.61c0-0.28,0.12-0.42,0.35-0.42c0.28-0.09,0.47,0,0.56,0.28
	l4.98,11.51c0.28,0.61,0.71,1.07,1.3,1.37c0.58,0.3,1.2,0.41,1.86,0.32l10.18-1.68c0.94-0.14,1.61-0.63,2.03-1.47
	c0.47-0.8,0.51-1.66,0.14-2.6L660.03,699.67z M650.94,688.09c-0.4,0.61-0.89,1.12-1.47,1.54c-0.59,0.42-1.19,0.74-1.82,0.95
	c-0.63,0.21-1.14,0.36-1.51,0.46c-0.09,0.05-0.23,0.02-0.42-0.07c-0.14-0.14-0.21-0.28-0.21-0.42v-9.05c0-0.14,0.07-0.26,0.21-0.35
	c0.19-0.09,0.33-0.12,0.42-0.07c0.37,0.09,0.85,0.22,1.44,0.39c0.58,0.16,1.16,0.43,1.72,0.81c0.56,0.38,1.05,0.85,1.47,1.44
	c0.42,0.59,0.66,1.3,0.7,2.14C651.52,686.73,651.34,687.48,650.94,688.09z M727.19,668.02c0.56,0.56,0.84,1.26,0.84,2.11l-0.35,12.7
	c-0.05,0.75-0.33,1.39-0.84,1.93c-0.52,0.54-1.17,0.83-1.97,0.88l-5.12,0.14c-0.05,0-0.16,0.05-0.35,0.14
	c-0.09,0.19-0.14,0.31-0.14,0.35l1.19,31.23c0,0.8-0.27,1.47-0.81,2.03s-1.21,0.89-2,0.98l-14.95,0.7
	c-0.84,0.05-1.57-0.23-2.17-0.84c-0.61-0.56-0.91-1.26-0.91-2.11l0.7-32.21c0-0.14-0.05-0.26-0.14-0.35
	c-0.05-0.09-0.16-0.14-0.35-0.14l-6.53,0.14c-0.75,0.05-1.47-0.23-2.18-0.84c-0.56-0.56-0.84-1.26-0.84-2.11l0.14-12.56
	c0.05-0.8,0.35-1.47,0.91-2.04c0.56-0.56,1.24-0.84,2.03-0.84l31.72-0.21C725.93,667.11,726.63,667.41,727.19,668.02z
	 M769.82,674.41c-2.18-2.48-4.74-4.44-7.68-5.9c-2.95-1.45-6.08-2.18-9.4-2.18c-3.32,0-6.46,0.73-9.4,2.18
	c-2.95,1.45-5.51,3.42-7.68,5.9c-2.18,2.48-3.89,5.39-5.16,8.74c-1.26,3.35-1.89,6.91-1.89,10.7s0.63,7.36,1.89,10.7
	c1.26,3.34,2.98,6.27,5.16,8.77c2.18,2.5,4.74,4.47,7.68,5.9c2.95,1.43,6.08,2.14,9.4,2.14c3.32,0,6.46-0.71,9.4-2.14
	c2.95-1.43,5.51-3.39,7.68-5.9c2.18-2.5,3.89-5.43,5.16-8.77c1.26-3.34,1.89-6.91,1.89-10.7s-0.63-7.36-1.89-10.7
	C773.72,679.8,772,676.89,769.82,674.41z M760.52,698.9c-0.42,1.17-0.98,2.19-1.68,3.05c-0.7,0.87-1.53,1.54-2.49,2.03
	c-0.96,0.49-1.98,0.74-3.05,0.74s-2.09-0.25-3.05-0.74c-0.96-0.49-1.79-1.17-2.49-2.03c-0.7-0.86-1.26-1.88-1.68-3.05
	c-0.42-1.17-0.63-2.41-0.63-3.72s0.21-2.55,0.63-3.72c0.42-1.17,0.98-2.19,1.68-3.05c0.7-0.86,1.53-1.54,2.49-2.03
	c0.96-0.49,1.98-0.74,3.05-0.74s2.09,0.25,3.05,0.74c0.96,0.49,1.79,1.17,2.49,2.03c0.7,0.87,1.26,1.88,1.68,3.05
	c0.42,1.17,0.63,2.41,0.63,3.72S760.95,697.73,760.52,698.9z M826.74,677.7c0.16,2.81,0.25,5.66,0.25,8.56
	c0,4.21-0.29,8.35-0.88,12.42c-0.58,4.07-1.7,7.73-3.33,10.98c-1.64,3.25-3.93,5.91-6.88,7.97c-2.95,2.06-6.79,3.18-11.51,3.37
	c-3.51,0.14-6.57-0.2-9.19-1.02c-2.62-0.82-4.87-2.01-6.74-3.58c-1.87-1.57-3.42-3.47-4.63-5.72c-1.22-2.25-2.18-4.7-2.88-7.37
	c-0.7-2.67-1.19-5.51-1.47-8.53c-0.28-3.02-0.42-6.12-0.42-9.3c0-2.57,0.07-5.16,0.21-7.75c0.14-2.6,0.3-5.16,0.49-7.69
	c0.05-0.79,0.34-1.44,0.88-1.93c0.54-0.49,1.2-0.76,2-0.81h15.3c0.79-0.05,1.5,0.23,2.11,0.84c0.56,0.56,0.84,1.24,0.84,2.04
	c-0.05,2.11-0.07,4.55-0.07,7.33c0,2.78,0,5.56,0,8.32c0,2.81,0.01,5.37,0.03,7.69c0.02,2.32,0.08,4.08,0.18,5.3
	c0.09,1.45,0.4,2.61,0.91,3.47c0.51,0.87,1.08,1.3,1.68,1.3c0.51,0,1-0.39,1.47-1.16c0.47-0.77,0.82-2.05,1.05-3.82
	c0.14-1.08,0.25-2.33,0.32-3.75c0.07-1.43,0.13-2.95,0.18-4.56c0.05-1.61,0.08-3.3,0.1-5.05c0.02-1.75,0.04-3.5,0.04-5.23
	c0-1.82-0.01-3.59-0.04-5.3c-0.02-1.71-0.03-3.24-0.03-4.6c0-0.8,0.28-1.49,0.84-2.07c0.56-0.58,1.24-0.88,2.03-0.88l13.62-0.14
	c0.79-0.05,1.46,0.19,2,0.7c0.54,0.52,0.85,1.17,0.95,1.97C826.37,672.23,826.57,674.9,826.74,677.7z M861.37,699.67
	c0.89-0.56,1.72-1.32,2.49-2.28c0.77-0.96,1.44-2.06,2-3.3c0.56-1.24,0.99-2.56,1.3-3.96c0.3-1.4,0.46-2.85,0.46-4.35
	c0-2.25-0.42-4.5-1.26-6.77c-0.84-2.27-2.22-4.3-4.14-6.11c-1.92-1.8-4.46-3.26-7.61-4.39c-3.16-1.12-7.05-1.68-11.69-1.68
	c-1.36,0-2.78,0.06-4.28,0.18c-1.5,0.12-3.06,0.29-4.7,0.53c-0.7,0.09-1.29,0.41-1.75,0.95c-0.47,0.54-0.7,1.16-0.7,1.86l-0.7,47.86
	c0,0.8,0.28,1.47,0.84,2.03c0.56,0.61,1.24,0.91,2.04,0.91h10.81c0.8,0,1.49-0.29,2.07-0.88c0.59-0.58,0.88-1.27,0.88-2.07v-9.61
	c0-0.28,0.12-0.42,0.35-0.42c0.28-0.09,0.47,0,0.56,0.28l4.98,11.51c0.28,0.61,0.71,1.07,1.3,1.37c0.58,0.3,1.2,0.41,1.86,0.32
	l10.18-1.68c0.94-0.14,1.61-0.63,2.03-1.47c0.47-0.8,0.51-1.66,0.14-2.6L861.37,699.67z M852.28,688.09
	c-0.4,0.61-0.89,1.12-1.47,1.54c-0.59,0.42-1.19,0.74-1.82,0.95c-0.63,0.21-1.14,0.36-1.51,0.46c-0.09,0.05-0.23,0.02-0.42-0.07
	c-0.14-0.14-0.21-0.28-0.21-0.42v-9.05c0-0.14,0.07-0.26,0.21-0.35c0.19-0.09,0.33-0.12,0.42-0.07c0.37,0.09,0.85,0.22,1.44,0.39
	c0.58,0.16,1.16,0.43,1.72,0.81c0.56,0.38,1.05,0.85,1.47,1.44c0.42,0.59,0.66,1.3,0.7,2.14
	C852.85,686.73,852.68,687.48,852.28,688.09z M947.2,669.63l2.11,47.79c0.05,0.8-0.21,1.52-0.77,2.18
	c-0.56,0.56-1.26,0.84-2.11,0.84l-12.14,0.14c-0.8,0-1.46-0.26-2-0.77c-0.54-0.51-0.85-1.17-0.95-1.97l-1.12-16.91
	c-0.09-0.33-0.26-0.49-0.49-0.49c-0.23,0-0.4,0.12-0.49,0.35l-2.6,11.93c-0.14,0.66-0.48,1.21-1.02,1.65
	c-0.54,0.45-1.16,0.67-1.86,0.67l-5.68-0.07c-1.4,0-2.34-0.68-2.81-2.03l-3.65-11.09c-0.09-0.23-0.26-0.35-0.49-0.35
	c-0.28,0.09-0.42,0.26-0.42,0.49l-0.14,15.79c0,0.8-0.28,1.47-0.84,2.04c-0.56,0.56-1.26,0.84-2.11,0.84l-13.12-0.14
	c-0.75,0-1.43-0.3-2.04-0.91c-0.56-0.56-0.84-1.24-0.84-2.04l0.77-47.65c0-0.8,0.28-1.47,0.84-2.03c0.56-0.56,1.24-0.84,2.04-0.84
	l16.63-0.21c0.65,0,1.23,0.19,1.72,0.56c0.49,0.37,0.85,0.87,1.09,1.47l5.54,18.11c0.09,0.23,0.26,0.35,0.49,0.35
	c0.28,0,0.42-0.12,0.42-0.35l4.7-18.18c0.19-0.66,0.55-1.19,1.09-1.61c0.54-0.42,1.13-0.61,1.79-0.56l15.58,0.28
	c0.8,0,1.46,0.27,2,0.81C946.86,668.24,947.15,668.89,947.2,669.63z M986.85,670.48c-0.14-0.66-0.48-1.19-1.02-1.61
	c-0.54-0.42-1.16-0.63-1.86-0.63l-17.61,0.21c-0.66,0-1.24,0.2-1.75,0.6c-0.52,0.4-0.87,0.92-1.05,1.58l-11.93,46.53
	c-0.19,0.89,0,1.71,0.56,2.46c0.51,0.7,1.26,1.1,2.25,1.19l12.7,0.14c0.75,0,1.39-0.23,1.93-0.7c0.54-0.47,0.85-1.05,0.95-1.75
	l0.49-2.88c0-0.28,0.16-0.42,0.49-0.42l8.07,0.07c0.23,0,0.4,0.14,0.49,0.42l0.49,2.67c0.14,0.7,0.48,1.28,1.02,1.72
	c0.54,0.45,1.16,0.67,1.86,0.67h12.35c0.89,0,1.64-0.37,2.25-1.12c0.61-0.75,0.79-1.57,0.56-2.46L986.85,670.48z M976.53,700.44
	c-0.09,0.09-0.23,0.14-0.42,0.14l-2.88,0.07c-0.14,0-0.26-0.05-0.35-0.14c-0.09-0.09-0.14-0.23-0.14-0.42l1.26-8.56
	c0.05-0.19,0.21-0.33,0.49-0.42c0.23,0,0.4,0.14,0.49,0.42l1.61,8.49C976.6,700.21,976.58,700.35,976.53,700.44z M1031.52,673.11
	c-2.17-1.85-4.95-3.34-8.32-4.49c-3.37-1.15-7.37-1.72-12-1.72c-1.26,0-2.57,0.04-3.93,0.1c-1.36,0.07-2.76,0.22-4.21,0.46
	c-0.75,0.09-1.36,0.41-1.82,0.95c-0.47,0.54-0.7,1.16-0.7,1.86l-0.7,47.65c0,0.8,0.28,1.5,0.84,2.11c0.56,0.56,1.24,0.84,2.04,0.84
	h12.35c0.8,0,1.47-0.29,2.04-0.88c0.56-0.58,0.84-1.27,0.84-2.07v-12.14c0-0.23,0.16-0.4,0.49-0.49c3.09-0.09,5.84-0.69,8.25-1.79
	c2.41-1.1,4.44-2.51,6.11-4.25c1.66-1.73,2.92-3.7,3.79-5.9c0.86-2.2,1.3-4.44,1.3-6.74c0-2.43-0.52-4.83-1.54-7.19
	C1035.29,677.06,1033.69,674.96,1031.52,673.11z M1023.09,689.07c-0.4,0.61-0.89,1.12-1.47,1.54c-0.58,0.42-1.19,0.74-1.82,0.95
	c-0.63,0.21-1.13,0.36-1.51,0.46c-0.09,0.05-0.23,0.02-0.42-0.07c-0.09-0.05-0.14-0.16-0.14-0.35v-9.05c0-0.19,0.05-0.33,0.14-0.42
	c0.09-0.05,0.23-0.07,0.42-0.07c0.37,0.09,0.85,0.23,1.44,0.42c0.58,0.19,1.16,0.47,1.72,0.84c0.56,0.37,1.05,0.85,1.47,1.44
	c0.42,0.59,0.65,1.3,0.7,2.14C1023.67,687.74,1023.49,688.47,1023.09,689.07z"/>
<g>
	<path d="M417.47,578.67c-6.33-17.49-14.72-33.14-25.18-46.99c-10.47-13.84-22.62-25.13-36.48-33.87
		c-13.87-8.74-28.34-13.6-43.42-14.57c31.54-20.88,53.14-41.15,64.8-60.82c11.65-19.67,17.48-38.73,17.48-57.19
		c0-11.16-1.46-21.85-4.37-32.05c-0.51-1.82-1.05-3.62-1.61-5.39v-0.01c-6.87-21.79-17.25-39.53-31.16-53.23
		c-8.71-8.57-18.27-16.04-28.69-22.41c-7.58-4.65-15.61-8.71-24.11-12.19c-20.15-8.25-41.99-13.72-65.54-16.39
		c-23.55-2.67-47.22-4.01-71.01-4.01c-18.44,0-36.65,0.36-54.62,1.08c-17.96,0.72-34.96,1.56-50.98,2.51
		c-8.25,0.48-15.16,3.65-20.75,9.48c-5.59,5.83-8.37,12.86-8.37,21.12V750.5c0,8.26,2.67,15.17,8.02,20.76
		c5.35,5.59,12.13,8.86,20.4,9.83c16.03,1,31.45,1.75,46.27,2.24c14.82,0.51,29.03,0.75,42.64,0.75c59.26,0,108.2-4.72,146.82-14.2
		c23.73-5.82,44.03-13.51,60.88-23.09c10.58-6,19.8-12.76,27.67-20.25c7.77-7.24,14.4-14.99,19.88-23.26
		c4.45-6.71,8.14-13.76,11.08-21.16c6.56-16.51,9.84-33.27,9.84-50.27C426.96,613.88,423.79,596.15,417.47,578.67z M152.17,297.44
		c0,0,67.26-5.09,103.07,27.87c13,11.96,21.86,28.93,21.86,52.98c0,90.29-124.94,94.48-124.94,94.48V297.44z M152.17,712.11V536.78
		c0,0,11.76-0.89,28.08,0.49c36.84,3.1,96.86,17.77,96.86,80.35c0,14.65-3.29,27.04-8.81,37.5
		C239.85,709.16,152.17,712.11,152.17,712.11z"/>
	<linearGradient id="SVGID_1_" gradientUnits="userSpaceOnUse" x1="-65.3027" y1="548.1751" x2="352.8403" y2="37.8989">
		<stop  offset="8.073434e-08" style="stop-color:#1EA464"/>
		<stop  offset="1" style="stop-color:#42B174"/>
	</linearGradient>
	<path class="st1" d="M328.84,252.15l-73.59,73.17c-35.81-32.96-103.07-27.87-103.07-27.87V427.8L33.47,545.82V253.74
		c0-8.25,2.79-15.29,8.37-21.12c5.59-5.83,12.5-8.99,20.75-9.48c16.02-0.95,33.02-1.79,50.98-2.51c17.96-0.71,36.17-1.08,54.62-1.08
		c23.79,0,47.46,1.34,71.01,4.01c23.54,2.67,45.39,8.13,65.54,16.39C313.22,243.44,321.25,247.5,328.84,252.15z"/>
	<linearGradient id="SVGID_2_" gradientUnits="userSpaceOnUse" x1="33.4693" y1="468.4593" x2="388.6838" y2="468.4593">
		<stop  offset="1.614687e-07" style="stop-color:#EAC939"/>
		<stop  offset="1" style="stop-color:#FFE151"/>
	</linearGradient>
	<path class="st2" d="M388.68,327.79L388.68,327.79L215.52,501.82l-35.27,35.45c-16.31-1.38-28.08-0.49-28.08-0.49v28.7
		L33.47,684.77V545.82l118.7-118.02v44.98c0,0,124.94-4.2,124.94-94.48c0-24.05-8.86-41.02-21.86-52.98l73.59-73.17
		c10.42,6.37,19.98,13.84,28.69,22.41C371.44,288.26,381.82,306,388.68,327.79z"/>
	<linearGradient id="SVGID_3_" gradientUnits="userSpaceOnUse" x1="33.4693" y1="674.7797" x2="358.4846" y2="674.7797">
		<stop  offset="1.614687e-07" style="stop-color:#5580C0"/>
		<stop  offset="1" style="stop-color:#3668B0"/>
	</linearGradient>
	<path class="st3" d="M358.48,746.78c-16.85,9.58-37.15,17.28-60.88,23.09c-38.61,9.48-87.56,14.2-146.82,14.2
		c-13.6,0-27.82-0.24-42.64-0.75c-14.82-0.5-30.23-1.24-46.27-2.24c-8.26-0.97-15.05-4.24-20.4-9.83
		c-5.35-5.59-8.02-12.5-8.02-20.76v-65.73l118.7-119.29v146.62c0,0,87.68-2.95,116.13-56.99L358.48,746.78z"/>
	<linearGradient id="SVGID_4_" gradientUnits="userSpaceOnUse" x1="180.2495" y1="624.2991" x2="406.0379" y2="624.2991">
		<stop  offset="1.614687e-07" style="stop-color:#F1F1F1"/>
		<stop  offset="1" style="stop-color:#D1D1D1"/>
	</linearGradient>
	<path class="st4" d="M406.04,703.27c-5.48,8.28-12.11,16.03-19.88,23.26c-7.87,7.49-17.09,14.24-27.67,20.25l-90.19-91.66
		c5.52-10.47,8.81-22.85,8.81-37.5c0-62.58-60.02-77.24-96.86-80.35l35.27-35.45L406.04,703.27z"/>
	<linearGradient id="SVGID_5_" gradientUnits="userSpaceOnUse" x1="215.5201" y1="515.5341" x2="426.9565" y2="515.5341">
		<stop  offset="1.614687e-07" style="stop-color:#D4D4D3"/>
		<stop  offset="1" style="stop-color:#B0B0B0"/>
	</linearGradient>
	<path class="st5" d="M426.96,631.84c0,17.01-3.28,33.76-9.84,50.27c-2.94,7.4-6.63,14.45-11.08,21.16L215.52,501.82L388.68,327.8
		c0.56,1.78,1.09,3.57,1.61,5.39c2.91,10.2,4.37,20.88,4.37,32.05c0,18.45-5.83,37.52-17.48,57.19
		c-11.66,19.67-33.25,39.94-64.8,60.82c15.08,0.97,29.55,5.83,43.42,14.57c13.86,8.74,26.02,20.03,36.48,33.87
		c10.46,13.85,18.85,29.51,25.18,46.99C423.79,596.15,426.96,613.88,426.96,631.84z"/>
	<g>
		<path class="st6" d="M392.29,459.17c-1.21,0-2.42,0.06-3.62,0.18c-51.74,5.18-55.77,53.37-55.77,53.37
			c-2.3,30.41,23.68,61.06,23.68,61.06c23.68,33.02,31.36,58.8,31.36,70.56c0,7.72,2.58,8.87,4.35,8.76
			c1.77,0.12,4.35-1.03,4.35-8.76c0-11.76,7.68-37.54,31.36-70.56c0,0,25.98-30.65,23.68-61.06c0,0-4.03-48.18-55.77-53.37
			C394.71,459.23,393.5,459.17,392.29,459.17L392.29,459.17z"/>
		<circle class="st7" cx="392.29" cy="510.93" r="20.75"/>
	</g>
</g>
<g>
</g>
<g>
</g>
<g>
</g>
<g>
</g>
<g>
</g>
<g>
</g>
</svg>
