<?xml version="1.0" encoding="utf-8"?>
<!-- Generator: Adobe Illustrator 25.2.0, SVG Export Plug-In . SVG Version: 6.00 Build 0)  -->
<svg version="1.1" id="Layer_1" xmlns="http://www.w3.org/2000/svg" xmlns:xlink="http://www.w3.org/1999/xlink" x="0px" y="0px"
	 viewBox="0 0 186.81 165.46" style="enable-background:new 0 0 186.81 165.46;" xml:space="preserve">
<style type="text/css">
	.st0{fill:url(#SVGID_1_);}
	.st1{fill:#FFFFFF;}
</style>
<linearGradient id="SVGID_1_" gradientUnits="userSpaceOnUse" x1="-655.759" y1="-676.5181" x2="1188.4672" y2="-676.5181">
	<stop  offset="8.073434e-08" style="stop-color:#1EA464"/>
	<stop  offset="1" style="stop-color:#42B174"/>
</linearGradient>
<path class="st0" d="M1141.11-514.27H-608.41c-26.15,0-47.35-21.2-47.35-47.35v-229.8c0-26.15,21.2-47.35,47.35-47.35h1749.52
	c26.15,0,47.35,21.2,47.35,47.35v229.8C1188.47-535.47,1167.27-514.27,1141.11-514.27z"/>
<g>
	<g>
		<path class="st1" d="M970.05-707.52c-0.88,1.78-1.57,3.71-2.7,5.32c-1.52,2.15-3.9,3.07-6.49,3.34c-1.89,0.2-3.46-0.93-3.75-2.57
			c-0.33-1.87,0.65-3.42,2.75-3.69c2.48-0.32,3.68-1.78,3.76-3.98c0.17-4.28,0.05-8.57,0.05-13.1c-2.06,0-3.99,0.02-5.92-0.01
			c-2.62-0.04-4-1.16-4.01-3.22c-0.01-2.08,1.34-3.19,3.97-3.25c0.74-0.02,1.48,0,2.39-0.5c-1.05-0.58-2.06-1.25-3.15-1.73
			c-7.64-3.33-15.73-4.99-23.93-6.24c-10.71-1.63-21.49-1.83-32.3-1.79c-20.77,0.07-41.55,0.02-62.32,0.02
			c-0.63,0-1.26,0.03-1.88-0.02c-2.18-0.16-3.65-1.51-3.61-3.29c0.04-1.8,1.52-3.11,3.71-3.15c2.65-0.05,5.3-0.01,7.95-0.02
			c0.48,0,0.96-0.05,1.57-0.08c0-5.6,0-11.11,0-16.89c-2.87,0-5.71-0.11-8.55,0.02c-5.48,0.26-10.96,0.66-16.44,0.99
			c-2.24,0.13-3.36,1.17-3.75,3.52c-0.68,4.08-1.74,8.1-2.72,12.46c2.5,0,4.78-0.01,7.06,0c2.62,0.02,4.04,1.14,4.08,3.15
			c0.04,2.04-1.36,3.27-3.95,3.3c-2.37,0.02-4.74-0.02-7.1-0.16c-5.1-0.29-9.36-2.44-12.94-6.01c-1.77-1.77-3.51-3.58-5.12-5.22
			c-4.19,1.51-8.06,3.33-12.14,4.28c-5.26,1.23-10.67,2-16.05,2.53c-5.98,0.59-6.84,1.6-6.27,7.96c2.41,0.63,6.49-0.93,6.44,3.46
			c-0.05,4.23-3.94,2.8-6.51,3.34c0,3.32-0.2,6.58,0.06,9.81c0.25,3.03,2.13,5.07,5.1,5.94c3.86,1.14,7.75,2.2,11.83,3.35
			c0.74-6.72,3.61-12.17,9.39-15.85c4.29-2.73,8.98-3.68,13.99-2.82c5.4,0.92,9.71,3.67,12.92,8.09c3.18,4.37,4.1,9.32,3.47,14.78
			c30.45,0,60.72,0,91.01,0c0.23-2.62,0.16-5.34,0.74-7.93c2.29-10.22,12.44-16.73,22.98-14.92c9.94,1.71,17.28,11.46,16.22,21.57
			c-0.85,8.13-6.76,15.05-14.64,17.16c-8.16,2.18-16.46-0.7-21.39-7.59c-0.95-1.32-1.9-1.68-3.42-1.68
			c-30.6,0.04-61.21,0.04-91.81,0c-1.48,0-2.34,0.43-3.23,1.65c-4.35,5.94-10.35,8.9-17.68,8.28c-7.91-0.66-13.64-4.85-16.85-12.17
			c-0.53-1.21-1.2-1.85-2.45-2.19c-4.09-1.09-8.16-2.27-12.23-3.43c-6.7-1.91-10.34-6.69-10.34-13.58c0-5.98,0.25-11.96-0.07-17.92
			c-0.32-6.01,3.53-10.95,10.53-11.43c11.13-0.77,21.89-2.97,31.67-8.75c2.8-1.66,5.83-2.94,8.74-4.42
			c6.01-3.06,12.3-5.13,19.06-5.65c0.4-0.03,0.79-0.23,1.18-0.36c12.27,0,24.54,0,36.81,0c0.39,0.13,0.77,0.34,1.17,0.37
			c7.13,0.62,13.73,2.85,19.78,6.62c8.15,5.08,16.22,10.26,24.35,15.37c0.79,0.5,1.73,0.98,2.64,1.05
			c5.48,0.47,10.99,0.66,16.45,1.24c10.81,1.16,21.44,3.19,31.52,7.49c4.01,1.71,7.03,4.46,8.84,8.43c0.6,1.31,1.01,2.69,1.51,4.05
			C970.05-718.64,970.05-713.08,970.05-707.52z M852.79-745.56c15.26,0,30.27,0,45.29,0c-6.78-4.63-13.57-9.1-20.69-12.95
			c-7.58-4.1-15.98-4.18-24.4-3.73c-0.08,0.37-0.18,0.63-0.18,0.9C852.79-756.14,852.79-750.94,852.79-745.56z M799.29-722.2
			c-7.52-0.01-13.57,5.9-13.67,13.35c-0.1,7.45,6.12,13.64,13.66,13.61c7.5-0.03,13.49-6.03,13.5-13.5
			C812.78-716.23,806.82-722.18,799.29-722.2z M930.08-722.2c-7.55-0.03-13.58,5.89-13.6,13.35c-0.03,7.59,6.02,13.65,13.59,13.61
			c7.47-0.04,13.56-6.1,13.57-13.49C943.65-716.14,937.57-722.17,930.08-722.2z M808.59-747.35c0.85-3.83,1.53-6.91,2.31-10.42
			c-3.08,1.54-5.68,2.84-7.8,3.91C804.83-751.81,806.51-749.82,808.59-747.35z"/>
		<path class="st1" d="M864.63-712.2c-11.22,0-22.44,0.01-33.66-0.01c-0.82,0-1.88,0.14-2.42-0.29c-0.94-0.75-2.01-1.8-2.23-2.89
			c-0.29-1.44,0.73-2.63,2.27-3.02c0.73-0.18,1.51-0.24,2.27-0.25c22.51-0.01,45.02-0.01,67.54,0c0.62,0,1.26,0.01,1.87,0.13
			c1.72,0.34,2.77,1.43,2.74,3.16c-0.02,1.74-1.14,2.78-2.84,3.11c-0.61,0.12-1.25,0.07-1.88,0.07
			C887.07-712.2,875.85-712.2,864.63-712.2z"/>
		<path class="st1" d="M804.8-711.67c-0.07,2.52-5.89,8.33-7.78,8.41c-2.48,0.1-4.35-2.61-2.88-4.53c1.7-2.23,3.83-4.17,6.01-5.96
			c0.62-0.51,2.21-0.37,3.05,0.07C804.03-713.26,804.49-712.09,804.8-711.67z"/>
		<path class="st1" d="M935.77-705.96c-0.57,0.7-1.12,1.95-2.03,2.32c-0.92,0.37-2.51,0.26-3.25-0.33
			c-1.94-1.54-3.67-3.38-5.32-5.24c-1.09-1.23-0.98-2.7,0.13-3.96c1.05-1.19,2.6-1.61,3.73-0.67c2.22,1.84,4.17,4.01,6.18,6.09
			C935.51-707.44,935.5-706.84,935.77-705.96z"/>
	</g>
	<g>
		<path class="st1" d="M742.72-616.76c-1.74,0-3.32-0.26-4.74-0.78c-1.42-0.52-2.55-1.27-3.39-2.24c-0.84-0.97-1.26-2.14-1.26-3.5
			c0-1.28,0.28-2.4,0.85-3.37s1.45-1.88,2.65-2.72s2.73-1.7,4.59-2.57c1.86-0.87,4.07-1.84,6.66-2.91l0.83,4.7
			c-2.35,0.87-4.25,1.62-5.7,2.26c-1.45,0.64-2.57,1.21-3.35,1.72s-1.31,0.97-1.59,1.39c-0.28,0.42-0.41,0.85-0.41,1.28
			c0,0.78,0.41,1.38,1.22,1.78c0.81,0.41,2.03,0.61,3.65,0.61c0.49,0,1.02-0.02,1.59-0.07c0.57-0.04,1.17-0.13,1.8-0.26
			s1.32-0.3,2.04-0.5l1,4c-1.07,0.46-2.1,0.78-3.07,0.93C745.12-616.84,744-616.76,742.72-616.76z M739.5-640.12l-3.52-3.57
			l3.35-3.57l3.52,3.57L739.5-640.12z M746.99-640.12l-3.52-3.57l3.35-3.57l3.52,3.57L746.99-640.12z M753.82-614.8
			c-1.51,0-2.75-0.19-3.72-0.57s-1.73-0.89-2.28-1.54c-0.55-0.65-0.94-1.41-1.15-2.28c-0.22-0.87-0.33-1.78-0.33-2.74v-15.7h4.52
			v14.57c0,1.33,0.23,2.3,0.7,2.91c0.46,0.61,1.51,0.91,3.13,0.91h1.65v4.44H753.82z"/>
		<path class="st1" d="M756.34-619.24h0.43v4.44h-0.43c-0.87,0-1.3-0.77-1.3-2.31C755.03-618.53,755.47-619.24,756.34-619.24z
			 M756.34-614.8v-4.44h5.31c0.23-0.43,0.48-1.12,0.74-2.07c0.26-0.94,0.49-1.96,0.7-3.07c0.2-1.1,0.33-2.1,0.39-3l5.26-1.83
			c-0.41,2-0.85,3.81-1.33,5.44s-1.05,3.15-1.72,4.59s-1.51,2.89-2.52,4.37H756.34z M771.87-614.8c-1.57,0-2.95-0.14-4.15-0.43
			s-2.26-0.66-3.17-1.11c-0.91-0.45-1.75-0.92-2.5-1.41l2.39-2.96c0.58,0.32,1.2,0.59,1.87,0.8c0.67,0.22,1.38,0.38,2.15,0.5
			c0.77,0.12,1.57,0.17,2.41,0.17h1.39v4.44H771.87z M772.26-614.8v-4.44h20.32c0.03-2.12-0.16-3.92-0.57-5.42
			c-0.41-1.49-1.07-2.65-1.98-3.46c-0.91-0.81-2.15-1.22-3.72-1.22c-1.59,0-3.23,0.54-4.92,1.61c-1.68,1.07-3.36,2.65-5.02,4.72
			c-1.67,2.07-3.3,4.63-4.89,7.68l-2.83-3.7c1.97-3.33,3.95-6.1,5.94-8.29c1.99-2.19,4-3.83,6.05-4.92c2.04-1.09,4.11-1.63,6.2-1.63
			c2.15,0,3.94,0.49,5.39,1.46s2.57,2.33,3.35,4.07c0.78,1.74,1.22,3.76,1.33,6.07c0.1,2.3-0.14,4.79-0.72,7.46H772.26z"/>
		<path class="st1" d="M810.93-614.8c-1.51,0-2.75-0.19-3.72-0.57c-0.97-0.38-1.73-0.89-2.28-1.54c-0.55-0.65-0.94-1.41-1.15-2.28
			c-0.22-0.87-0.33-1.78-0.33-2.74v-25.06h4.52v23.93c0,0.67,0.05,1.25,0.15,1.74c0.1,0.49,0.28,0.89,0.54,1.2s0.64,0.53,1.15,0.67
			s1.17,0.22,1.98,0.22h1.65v4.44H810.93z"/>
		<path class="st1" d="M813.45-619.24h0.43v4.44h-0.43c-0.87,0-1.3-0.77-1.3-2.31C812.15-618.53,812.58-619.24,813.45-619.24z
			 M813.45-614.8v-4.44h1.26c2.73,0,5.06-0.1,7-0.3c1.94-0.2,3.62-0.48,5.02-0.83c1.41-0.35,2.65-0.76,3.72-1.24
			c1.07-0.48,2.1-0.98,3.09-1.5c0.29-0.17,0.58-0.33,0.87-0.48c0.29-0.14,0.58-0.29,0.87-0.43c0.29-0.15,0.58-0.29,0.87-0.44
			c-1.1-0.41-2.19-0.88-3.26-1.41c-1.07-0.54-2.13-1.07-3.17-1.61c-1.04-0.54-2.07-0.98-3.07-1.33c-1-0.35-1.98-0.52-2.94-0.52
			c-0.87,0-1.78,0.22-2.74,0.67c-0.96,0.45-1.86,1.44-2.7,2.98l-3.13-1.61c0.78-1.59,1.66-2.87,2.63-3.83s2.02-1.65,3.13-2.09
			c1.12-0.44,2.25-0.65,3.42-0.65c1.39,0,2.73,0.25,4.02,0.76c1.29,0.51,2.55,1.12,3.78,1.85c1.23,0.73,2.44,1.46,3.63,2.2
			c1.19,0.74,2.38,1.36,3.57,1.87c1.19,0.51,2.38,0.76,3.57,0.76v3.92c-0.81,0-1.83,0.29-3.07,0.87s-2.65,1.29-4.24,2.13
			c-0.99,0.52-2.07,1.06-3.26,1.61c-1.19,0.55-2.58,1.06-4.18,1.52c-1.59,0.46-3.51,0.84-5.74,1.13s-4.89,0.43-7.96,0.43H813.45z
			 M824.42-638.51l-3.52-3.57l3.35-3.57l3.52,3.57L824.42-638.51z"/>
		<path class="st1" d="M870.4-614.8c-3.57,0-6.36-0.78-8.37-2.35c-2.02-1.57-3.02-3.71-3.02-6.44c0-1.28,0.2-2.68,0.61-4.22
			c0.41-1.54,1.13-3.19,2.17-4.96l3.48,1.57c-0.7,1.51-1.16,2.77-1.39,3.78c-0.23,1.02-0.35,1.94-0.35,2.78
			c0,1.42,0.35,2.52,1.07,3.31c0.71,0.78,1.69,1.33,2.94,1.63s2.67,0.46,4.26,0.46h16.1l3.35,4.44H870.4z M873.14-635.6l-3.52-3.57
			l3.35-3.57l3.52,3.57L873.14-635.6z M880.62-635.6l-3.52-3.57l3.35-3.57l3.52,3.57L880.62-635.6z M882.1-619.24h0.43v4.44h-0.43
			c-0.87,0-1.31-0.77-1.31-2.31C880.79-618.53,881.23-619.24,882.1-619.24z M882.1-614.8v-4.44h7.79c0-1.97-0.3-3.78-0.89-5.44
			c-0.59-1.65-1.39-3.38-2.37-5.18l3.96-4c0.84,1.83,1.59,3.73,2.24,5.7c0.65,1.97,1.02,4.05,1.11,6.24
			c0.09,2.19-0.33,4.56-1.26,7.11H882.1z"/>
		<path class="st1" d="M900.41-646.99h4.52v32.19h-4.52V-646.99z"/>
		<path class="st1" d="M912.94-604.8c-1.22,0-2.54-0.22-3.96-0.67c-1.42-0.45-2.77-1.17-4.05-2.15l1.61-3.04
			c0.93,0.38,1.91,0.71,2.94,1s1.95,0.44,2.76,0.44c1.74,0,3.26-0.39,4.57-1.17s2.33-1.86,3.07-3.22c0.74-1.36,1.11-2.93,1.11-4.7
			c0-0.78-0.16-1.63-0.48-2.54s-0.88-2.01-1.67-3.28c-0.8-1.28-1.92-2.8-3.37-4.57l3.22-4.05c1.54,2.06,2.77,3.89,3.7,5.48
			c0.93,1.59,1.61,3.1,2.04,4.52c0.44,1.42,0.65,2.9,0.65,4.44c0,1.22-0.15,2.46-0.46,3.74c-0.3,1.28-0.78,2.49-1.41,3.65
			s-1.44,2.2-2.41,3.13c-0.97,0.93-2.11,1.66-3.42,2.2C916.07-605.07,914.59-604.8,912.94-604.8z"/>
		<path class="st1" d="M938.65-614.8c-1.51,0-2.75-0.19-3.72-0.57c-0.97-0.38-1.73-0.89-2.28-1.54c-0.55-0.65-0.94-1.41-1.15-2.28
			c-0.22-0.87-0.33-1.78-0.33-2.74v-25.06h4.52v23.93c0,0.67,0.05,1.25,0.15,1.74c0.1,0.49,0.28,0.89,0.54,1.2s0.64,0.53,1.15,0.67
			s1.17,0.22,1.98,0.22h1.65v4.44H938.65z"/>
		<path class="st1" d="M941.17-619.24h0.43v4.44h-0.43c-0.87,0-1.3-0.77-1.3-2.31C939.87-618.53,940.3-619.24,941.17-619.24z
			 M941.17-614.8v-4.44h5.31c0.23-0.43,0.48-1.12,0.74-2.07c0.26-0.94,0.49-1.96,0.7-3.07c0.2-1.1,0.33-2.1,0.39-3l5.26-1.83
			c-0.41,2-0.85,3.81-1.33,5.44s-1.05,3.15-1.72,4.59s-1.51,2.89-2.52,4.37H941.17z M945.3-604.23l-3.52-3.57l3.35-3.57l3.52,3.57
			L945.3-604.23z M956.7-614.8c-1.57,0-2.95-0.14-4.15-0.43s-2.26-0.66-3.17-1.11c-0.91-0.45-1.75-0.92-2.5-1.41l2.39-2.96
			c0.58,0.32,1.2,0.59,1.87,0.8c0.67,0.22,1.38,0.38,2.15,0.5c0.77,0.12,1.57,0.17,2.41,0.17h1.39v4.44H956.7z M952.79-604.23
			l-3.52-3.57l3.35-3.57l3.52,3.57L952.79-604.23z"/>
		<path class="st1" d="M957.09-619.24h0.43v4.44h-0.43c-0.87,0-1.3-0.77-1.3-2.31C955.79-618.53,956.22-619.24,957.09-619.24z
			 M957.09-614.8v-4.44h5.79c0.35-0.55,0.68-1.3,1-2.24c0.32-0.94,0.59-1.94,0.83-2.98s0.38-2.02,0.44-2.91l5.26-1.83
			c-0.32,1.51-0.67,2.9-1.04,4.18c-0.38,1.28-0.81,2.49-1.31,3.63c-0.49,1.15-1.04,2.26-1.63,3.33c-0.59,1.07-1.27,2.16-2.02,3.26
			H957.09z M972.14-614.8c-1.57,0-2.95-0.14-4.15-0.43s-2.26-0.66-3.17-1.11c-0.91-0.45-1.75-0.92-2.5-1.41l2.39-2.96
			c0.84,0.46,1.81,0.83,2.89,1.09c1.09,0.26,2.27,0.39,3.54,0.39h3.48c0.35-0.55,0.68-1.3,1-2.24c0.32-0.94,0.59-1.94,0.83-2.98
			s0.38-2.02,0.44-2.91l5.26-1.83c-0.32,1.51-0.67,2.9-1.04,4.18c-0.38,1.28-0.81,2.49-1.31,3.63c-0.49,1.15-1.04,2.26-1.63,3.33
			c-0.59,1.07-1.27,2.16-2.02,3.26H972.14z M986.15-614.8c-1.57,0-2.95-0.14-4.15-0.43c-1.2-0.29-2.26-0.66-3.18-1.11
			s-1.75-0.92-2.5-1.41l2.39-2.96c0.84,0.46,1.8,0.83,2.89,1.09c1.09,0.26,2.27,0.39,3.54,0.39h5.57c0-1.97-0.3-3.78-0.89-5.44
			c-0.59-1.65-1.39-3.38-2.37-5.18l3.96-4c0.64,1.39,1.22,2.81,1.76,4.24c0.54,1.44,0.95,2.93,1.24,4.48s0.38,3.18,0.28,4.89
			c-0.1,1.71-0.5,3.52-1.2,5.44H986.15z"/>
	</g>
</g>
<g>
	<g>
		<path class="st1" d="M283.32-608.35l-8.13-28.75h5l5.74,23.27l5.74-23.27h5.13l-8.27,28.75H283.32z"/>
		<path class="st1" d="M298.9-602.61l17.92-36.19h4.31l-17.88,36.19H298.9z"/>
		<path class="st1" d="M330.35-608.35h-4.52v-18.71c0-3.1,0.85-5.55,2.54-7.35c1.7-1.8,4.14-2.7,7.33-2.7h5.92v4.44h-5.48
			c-1.39,0-2.52,0.21-3.37,0.63c-0.86,0.42-1.47,1.1-1.85,2.04c-0.38,0.94-0.57,2.18-0.57,3.72V-608.35z"/>
		<path class="st1" d="M359.84-625.58l0.43,4.44l-3.78,0.35c-1.94,0.17-3.47,0.63-4.57,1.37c-1.1,0.74-1.65,1.79-1.65,3.15
			c0,1.33,0.49,2.3,1.48,2.89c0.99,0.59,2.45,0.89,4.39,0.89c1.28,0,2.36-0.07,3.26-0.22c0.9-0.15,1.88-0.38,2.96-0.7l1.13,4.09
			c-1.07,0.43-2.19,0.75-3.35,0.96c-1.16,0.2-2.49,0.3-4,0.3c-1.6,0-3.03-0.18-4.31-0.54c-1.28-0.36-2.37-0.88-3.28-1.57
			c-0.91-0.68-1.61-1.53-2.09-2.54c-0.48-1.02-0.72-2.18-0.72-3.48c0-1.8,0.46-3.33,1.37-4.59c0.91-1.26,2.15-2.26,3.7-3
			c1.55-0.74,3.3-1.21,5.24-1.41L359.84-625.58z M360.75-637.11v4.44h-4.26c-1.68,0-3.02,0.39-4.02,1.17s-1.5,1.81-1.5,3.09
			c0,0.64,0.16,1.26,0.48,1.87c0.32,0.61,0.75,1.14,1.31,1.59c0.55,0.45,1.17,0.78,1.87,0.98l-1.39,2.96
			c-1.19-0.06-2.31-0.42-3.35-1.09s-1.88-1.55-2.5-2.65c-0.62-1.1-0.94-2.32-0.94-3.65c0-1.71,0.44-3.22,1.31-4.52
			c0.87-1.3,2.06-2.33,3.57-3.07c1.51-0.74,3.23-1.11,5.18-1.11H360.75z"/>
		<path class="st1" d="M378.94-608.35v-3.83h2.39c-0.32-0.46-0.59-0.99-0.81-1.59c-0.22-0.59-0.33-1.3-0.33-2.11
			c0-1.25,0.28-2.33,0.83-3.26c0.55-0.93,1.31-1.65,2.28-2.15c0.97-0.51,2.05-0.76,3.24-0.76c0.93,0,1.79,0.09,2.59,0.28
			c0.8,0.19,1.52,0.46,2.15,0.8l-1.52,3.35c-0.46-0.23-0.92-0.39-1.37-0.48c-0.45-0.09-0.91-0.13-1.37-0.13
			c-0.96,0-1.68,0.3-2.17,0.89c-0.49,0.59-0.74,1.27-0.74,2.02c0,0.55,0.15,1.07,0.46,1.54c0.3,0.48,0.79,0.86,1.46,1.15
			c0.67,0.29,1.55,0.43,2.65,0.43h3.44v3.83H378.94z"/>
		<path class="st1" d="M413.08-612.14c-0.64-0.9-1.41-1.88-2.31-2.96c-0.9-1.07-1.91-2.2-3.02-3.39c-1.12-1.19-2.33-2.42-3.63-3.7
			s-2.68-2.57-4.11-3.87c-1.44-1.3-2.91-2.59-4.42-3.87l0.83-4.87c2.35,2.03,4.49,3.97,6.42,5.83c1.93,1.86,3.66,3.6,5.2,5.22
			c1.54,1.62,2.88,3.1,4.02,4.42c1.15,1.32,2.09,2.46,2.85,3.42L413.08-612.14z M397.16-608.35l-0.87-4.44h8.09
			c0.93,0,1.86-0.06,2.78-0.17c0.93-0.12,1.78-0.34,2.57-0.67c0.78-0.33,1.44-0.8,1.98-1.41c0.54-0.61,0.89-1.39,1.07-2.35
			l3.22-0.57c0,1.42-0.13,2.66-0.39,3.72c-0.26,1.06-0.7,1.96-1.31,2.72c-0.61,0.75-1.43,1.36-2.46,1.83s-2.31,0.8-3.83,1.02
			s-3.34,0.33-5.46,0.33H397.16z M419.13-608.35c-1.51,0-2.75-0.19-3.72-0.57c-0.97-0.38-1.73-0.89-2.28-1.54
			c-0.55-0.65-0.94-1.41-1.15-2.28c-0.22-0.87-0.33-1.78-0.33-2.74v-25.06h4.52v23.93c0,1.33,0.23,2.3,0.7,2.91s1.51,0.91,3.13,0.91
			h0.78v4.44H419.13z"/>
		<path class="st1" d="M420.78-612.79h0.44v4.44h-0.44c-0.87,0-1.31-0.77-1.31-2.31C419.48-612.08,419.91-612.79,420.78-612.79z
			 M420.78-608.35v-4.44h0.26c0.52,0,0.98-0.07,1.37-0.22s0.76-0.41,1.11-0.78c0.35-0.38,0.74-0.91,1.17-1.59
			c0.44-0.68,0.97-1.56,1.61-2.63c0.87-1.48,1.71-2.73,2.52-3.76s1.6-1.85,2.37-2.46c0.77-0.61,1.54-1.05,2.31-1.33
			c0.77-0.28,1.54-0.41,2.33-0.41c1.13,0,2.15,0.26,3.04,0.78c0.9,0.52,1.74,1.41,2.52,2.65c0.78,1.25,1.57,2.97,2.35,5.18
			c0.52,1.42,1,2.46,1.44,3.11s0.91,1.06,1.41,1.22c0.51,0.16,1.15,0.24,1.94,0.24h0.09v4.44h-0.09c-1.31,0-2.42-0.15-3.35-0.46
			c-0.93-0.3-1.73-0.77-2.41-1.39c-0.68-0.62-1.27-1.38-1.76-2.28c-0.49-0.9-0.94-1.94-1.35-3.13c-0.58-1.71-1.1-2.98-1.54-3.81
			c-0.45-0.83-0.88-1.37-1.28-1.63c-0.41-0.26-0.86-0.39-1.35-0.39c-0.46,0-0.96,0.17-1.5,0.5c-0.54,0.33-1.12,0.88-1.76,1.63
			c-0.64,0.75-1.33,1.78-2.09,3.09c-0.75,1.31-1.43,2.42-2.02,3.33c-0.59,0.91-1.15,1.67-1.65,2.26c-0.51,0.59-1.02,1.06-1.54,1.39
			c-0.52,0.33-1.09,0.57-1.72,0.7c-0.62,0.13-1.34,0.2-2.15,0.2H420.78z M444.06-610.4c-0.81,1.04-1.78,1.78-2.89,2.2
			c-1.12,0.42-2.31,0.6-3.59,0.54c-1.28-0.06-2.56-0.33-3.85-0.8c-1.29-0.48-2.52-1.12-3.7-1.91c-1.17-0.8-2.23-1.69-3.15-2.68
			l2.44-2.78c0.78,0.64,1.66,1.23,2.63,1.76c0.97,0.54,2,0.96,3.09,1.28c1.09,0.32,2.22,0.49,3.39,0.52
			c1.17,0.03,2.36-0.14,3.54-0.52L444.06-610.4z"/>
		<path class="st1" d="M448.62-612.79h0.44v4.44h-0.44c-0.87,0-1.31-0.77-1.31-2.31C447.32-612.08,447.75-612.79,448.62-612.79z
			 M448.62-608.35v-4.44h6.18c-0.73-0.78-1.28-1.66-1.67-2.63s-0.59-2.04-0.59-3.2c0-1.71,0.42-3.23,1.26-4.54
			c0.84-1.32,1.99-2.36,3.46-3.11c1.46-0.75,3.15-1.13,5.07-1.13c1.28,0,2.53,0.16,3.76,0.48c1.23,0.32,2.39,0.77,3.46,1.35l-2,3.74
			c-0.84-0.41-1.69-0.7-2.54-0.87c-0.86-0.17-1.75-0.26-2.68-0.26c-1.62,0-2.91,0.4-3.85,1.2c-0.94,0.8-1.41,1.85-1.41,3.15
			c0,0.99,0.29,1.93,0.87,2.83c0.58,0.9,1.52,1.62,2.83,2.17c1.31,0.55,3.02,0.83,5.13,0.83h4.09v4.44H448.62z"/>
		<path class="st1" d="M495.47-610.31c-1.74,0-3.32-0.26-4.74-0.78c-1.42-0.52-2.55-1.27-3.39-2.24c-0.84-0.97-1.26-2.14-1.26-3.5
			c0-1.28,0.28-2.4,0.85-3.37s1.45-1.88,2.65-2.72c1.2-0.84,2.73-1.7,4.59-2.57c1.86-0.87,4.07-1.84,6.66-2.91l0.83,4.7
			c-2.35,0.87-4.25,1.62-5.7,2.26c-1.45,0.64-2.57,1.21-3.35,1.72s-1.31,0.97-1.59,1.39c-0.28,0.42-0.41,0.85-0.41,1.28
			c0,0.78,0.41,1.38,1.22,1.78c0.81,0.41,2.03,0.61,3.65,0.61c0.49,0,1.02-0.02,1.59-0.07c0.57-0.04,1.17-0.13,1.81-0.26
			c0.64-0.13,1.32-0.3,2.04-0.5l1,4c-1.07,0.46-2.1,0.78-3.07,0.93C497.87-610.39,496.75-610.31,495.47-610.31z M492.26-633.67
			l-3.52-3.57l3.35-3.57l3.52,3.57L492.26-633.67z M499.74-633.67l-3.52-3.57l3.35-3.57l3.52,3.57L499.74-633.67z M506.57-608.35
			c-1.51,0-2.75-0.19-3.72-0.57c-0.97-0.38-1.73-0.89-2.28-1.54c-0.55-0.65-0.94-1.41-1.15-2.28c-0.22-0.87-0.33-1.78-0.33-2.74
			v-15.7h4.52v14.57c0,1.33,0.23,2.3,0.7,2.91c0.46,0.61,1.51,0.91,3.13,0.91h1.65v4.44H506.57z"/>
		<path class="st1" d="M509.09-612.79h0.44v4.44h-0.44c-0.87,0-1.31-0.77-1.31-2.31C507.78-612.08,508.22-612.79,509.09-612.79z
			 M509.09-608.35v-4.44h0.09c0.67,0,1.25-0.14,1.74-0.43c0.49-0.29,0.96-0.73,1.39-1.33c0.43-0.59,0.9-1.33,1.39-2.2
			c0.44-0.81,0.96-1.74,1.59-2.78c0.62-1.04,1.35-2.06,2.18-3.04c0.83-0.99,1.77-1.8,2.83-2.44c1.06-0.64,2.24-0.96,3.55-0.96
			c1.65,0,3.09,0.44,4.31,1.31c1.22,0.87,2.18,2.08,2.89,3.63c0.71,1.55,1.13,3.35,1.26,5.39c0.13,2.04-0.07,4.24-0.59,6.59
			c-1.07,0.49-2.17,0.87-3.31,1.13c-1.13,0.26-2.26,0.4-3.39,0.41c-1.13,0.01-2.23-0.1-3.28-0.35s-2.07-0.62-3.02-1.13
			c-0.96-0.51-1.83-1.15-2.63-1.91c-0.8-0.77-1.5-1.67-2.11-2.72l2.74-2.26c0.49,0.75,1.14,1.41,1.94,1.98
			c0.8,0.57,1.7,1.02,2.72,1.37c1.01,0.35,2.1,0.57,3.26,0.65c1.16,0.09,2.35,0.03,3.57-0.17c0.12-1.28,0.09-2.48-0.09-3.61
			c-0.17-1.13-0.47-2.13-0.89-3c-0.42-0.87-0.95-1.55-1.59-2.04c-0.64-0.49-1.35-0.74-2.13-0.74c-0.52,0-1.06,0.17-1.61,0.52
			c-0.55,0.35-1.17,0.99-1.85,1.91c-0.68,0.93-1.52,2.28-2.5,4.04c-0.32,0.58-0.7,1.25-1.15,2c-0.45,0.75-0.99,1.48-1.63,2.18
			c-0.64,0.7-1.41,1.28-2.31,1.74c-0.9,0.46-1.99,0.7-3.26,0.7H509.09z"/>
		<path class="st1" d="M537.93-608.35l-0.83-4.44h12.14c1.39,0,2.41-0.14,3.07-0.41c0.65-0.28,1.14-0.66,1.46-1.15l1.57,3.57
			c-0.26,0.61-0.7,1.09-1.3,1.43c-0.61,0.35-1.33,0.6-2.15,0.76c-0.83,0.16-1.7,0.24-2.63,0.24H537.93z M544.28-625.23l3.39-4.31
			l7.61,13.14c0.52,0.9,1,1.62,1.44,2.15c0.43,0.54,0.89,0.91,1.37,1.13c0.48,0.22,1.05,0.33,1.72,0.33h0.44v4.44h-0.44
			c-0.87,0-1.67-0.11-2.41-0.33s-1.44-0.55-2.09-1c-0.65-0.45-1.29-1.04-1.91-1.76c-0.62-0.72-1.27-1.59-1.94-2.61L544.28-625.23z"
			/>
		<path class="st1" d="M560.25-612.79h0.43v4.44h-0.43c-0.87,0-1.31-0.77-1.31-2.31C558.94-612.08,559.38-612.79,560.25-612.79z
			 M560.25-608.35v-4.44h1.26c2.73,0,5.06-0.1,7-0.3c1.94-0.2,3.62-0.48,5.02-0.83c1.41-0.35,2.65-0.76,3.72-1.24
			c1.07-0.48,2.1-0.98,3.09-1.5c0.29-0.17,0.58-0.33,0.87-0.48c0.29-0.14,0.58-0.29,0.87-0.43c0.29-0.15,0.58-0.29,0.87-0.44
			c-1.1-0.41-2.19-0.88-3.26-1.41c-1.07-0.54-2.13-1.07-3.18-1.61c-1.04-0.54-2.07-0.98-3.07-1.33c-1-0.35-1.98-0.52-2.94-0.52
			c-0.87,0-1.78,0.22-2.74,0.67c-0.96,0.45-1.86,1.44-2.7,2.98l-3.13-1.61c0.78-1.59,1.66-2.87,2.63-3.83s2.02-1.65,3.13-2.09
			c1.12-0.44,2.25-0.65,3.42-0.65c1.39,0,2.73,0.25,4.02,0.76c1.29,0.51,2.55,1.12,3.79,1.85c1.23,0.73,2.44,1.46,3.63,2.2
			c1.19,0.74,2.38,1.36,3.57,1.87c1.19,0.51,2.38,0.76,3.57,0.76v3.92c-0.81,0-1.83,0.29-3.07,0.87c-1.23,0.58-2.65,1.29-4.24,2.13
			c-0.99,0.52-2.07,1.06-3.26,1.61c-1.19,0.55-2.58,1.06-4.18,1.52c-1.6,0.46-3.51,0.84-5.74,1.13c-2.23,0.29-4.89,0.43-7.96,0.43
			H560.25z M571.21-632.06l-3.52-3.57l3.35-3.57l3.52,3.57L571.21-632.06z"/>
	</g>
	<g>
		<path class="st1" d="M466.04-687.17c-4.33,5.72-9.49,9.92-15.7,12.82c-3.5,1.63-7.17,2.69-10.98,3.32
			c-0.38,0.06-0.87,0.28-1.04,0.58c-3.77,6.51-9.72,9.85-16.83,11.21c-3.35,0.64-6.83,0.6-10.26,0.82c-0.79,0.05-1.53-0.19-1.73-1.1
			c-0.21-0.96,0.5-1.3,1.21-1.63c4.95-2.36,7.35-6.71,9.16-11.55c-1.86-0.86-3.65-1.59-5.36-2.48
			c-14.9-7.73-23.51-23.66-21.82-40.28c1.96-19.21,17.05-34.37,36.28-36.45c22-2.38,42.04,13.55,44.68,35.51
			c1.03,8.58-0.47,16.69-4.51,24.34c-0.4,0.75-0.88,1.19-1.72,1.43c-8.24,2.39-16.63,3.89-25.18,4.48
			c-0.41,0.03-0.97-0.23-1.26-0.54c-0.87-0.91-1.85-1.45-3.13-1.45c-3.09,0.01-6.17-0.02-9.26,0.01c-2.3,0.03-3.93,1.66-3.95,3.86
			c-0.02,2.13,1.7,3.8,4,3.81c3.05,0.02,6.1-0.01,9.14,0.01c1.58,0.01,2.69-0.69,3.56-1.98c0.24-0.35,0.74-0.72,1.14-0.75
			C450.35-683.8,458.1-685.07,466.04-687.17z M433.24-707.8c1.92,0,3.55-1.6,3.57-3.53c0.02-1.92-1.58-3.56-3.5-3.6
			c-1.97-0.04-3.64,1.61-3.63,3.59C429.69-709.41,431.3-707.81,433.24-707.8z M414.94-711.43c-0.03,1.96,1.52,3.58,3.46,3.63
			c1.97,0.05,3.67-1.6,3.67-3.56c0-1.91-1.62-3.55-3.54-3.57C416.57-714.95,414.97-713.38,414.94-711.43z M447.98-707.8
			c2,0,3.61-1.63,3.59-3.62c-0.03-1.91-1.68-3.53-3.6-3.5c-1.92,0.02-3.54,1.66-3.53,3.57C444.44-709.43,446.07-707.8,447.98-707.8z
			"/>
		<path class="st1" d="M474.7-686.49c13.04-22.6,5.49-49.15-12.34-62.66c-17.53-13.29-41.97-13.03-59.14,0.72
			c-17.69,14.17-23.93,40.09-11.43,61.92c-0.98,0.34-1.89,0.82-2.86,0.97c-2.81,0.42-5.64,0.79-8.48,1.04
			c-4.38,0.39-7.96-2.62-8.5-6.98c-0.84-6.83-1.69-13.66-2.55-20.49c-0.63-5.05,2.36-8.83,7.43-9.39c1.06-0.12,2.39,0.04,3.08-0.55
			c0.67-0.56,0.66-1.92,0.97-2.92c6.64-21.78,20.99-35.38,43.43-39.42c28.27-5.09,55.19,13.18,61.68,41.23
			c0.23,0.98,0.62,1.42,1.61,1.44c0.71,0.01,1.41,0.16,2.12,0.24c4.95,0.52,7.97,4.38,7.34,9.35c-0.87,6.87-1.71,13.74-2.56,20.61
			c-0.5,4.1-4,7.19-8.11,6.91c-3.03-0.21-6.06-0.65-9.07-1.08C476.47-685.7,475.65-686.15,474.7-686.49z"/>
	</g>
</g>
<g>
	<g>
		<path class="st1" d="M-142.29-610.31c-1.74,0-3.32-0.26-4.74-0.78c-1.42-0.52-2.55-1.27-3.39-2.24c-0.84-0.97-1.26-2.14-1.26-3.5
			c0-1.28,0.28-2.4,0.85-3.37s1.45-1.88,2.65-2.72c1.2-0.84,2.73-1.7,4.59-2.57c1.86-0.87,4.07-1.84,6.66-2.91l0.83,4.7
			c-2.35,0.87-4.25,1.62-5.7,2.26c-1.45,0.64-2.57,1.21-3.35,1.72s-1.31,0.97-1.59,1.39c-0.28,0.42-0.41,0.85-0.41,1.28
			c0,0.78,0.41,1.38,1.22,1.78c0.81,0.41,2.03,0.61,3.65,0.61c0.49,0,1.02-0.02,1.59-0.07c0.57-0.04,1.17-0.13,1.81-0.26
			c0.64-0.13,1.32-0.3,2.04-0.5l1,4c-1.07,0.46-2.1,0.78-3.07,0.93C-139.9-610.39-141.02-610.31-142.29-610.31z M-145.51-633.67
			l-3.52-3.57l3.35-3.57l3.52,3.57L-145.51-633.67z M-138.03-633.67l-3.52-3.57l3.35-3.57l3.52,3.57L-138.03-633.67z M-131.2-608.35
			c-1.51,0-2.75-0.19-3.72-0.57c-0.97-0.38-1.73-0.89-2.28-1.54c-0.55-0.65-0.94-1.41-1.15-2.28c-0.22-0.87-0.33-1.78-0.33-2.74
			v-15.7h4.52v14.57c0,1.33,0.23,2.3,0.7,2.91c0.46,0.61,1.51,0.91,3.13,0.91h1.65v4.44H-131.2z"/>
		<path class="st1" d="M-128.68-612.79h0.44v4.44h-0.44c-0.87,0-1.31-0.77-1.31-2.31C-129.98-612.08-129.55-612.79-128.68-612.79z
			 M-128.68-608.35v-4.44h5.31c0.23-0.43,0.48-1.12,0.74-2.07c0.26-0.94,0.49-1.96,0.7-3.07c0.2-1.1,0.33-2.1,0.39-3l5.26-1.83
			c-0.41,2-0.85,3.81-1.33,5.44s-1.05,3.15-1.72,4.59c-0.67,1.44-1.51,2.89-2.52,4.37H-128.68z M-113.15-608.35
			c-1.57,0-2.95-0.14-4.15-0.43c-1.2-0.29-2.26-0.66-3.18-1.11s-1.75-0.92-2.5-1.41l2.39-2.96c0.58,0.32,1.2,0.59,1.87,0.8
			c0.67,0.22,1.38,0.38,2.15,0.5c0.77,0.12,1.57,0.17,2.41,0.17h1.39v4.44H-113.15z M-118.76-628.23l-3.52-3.57l3.35-3.57l3.52,3.57
			L-118.76-628.23z"/>
		<path class="st1" d="M-112.76-612.79h0.44v4.44h-0.44c-0.87,0-1.31-0.77-1.31-2.31C-114.06-612.08-113.63-612.79-112.76-612.79z
			 M-112.76-608.35v-4.44h0.09c0.67,0,1.25-0.14,1.74-0.43c0.49-0.29,0.96-0.73,1.39-1.33c0.43-0.59,0.9-1.33,1.39-2.2
			c0.44-0.81,0.96-1.74,1.59-2.78c0.62-1.04,1.35-2.06,2.18-3.04c0.83-0.99,1.77-1.8,2.83-2.44c1.06-0.64,2.24-0.96,3.55-0.96
			c1.65,0,3.09,0.44,4.31,1.31c1.22,0.87,2.18,2.08,2.89,3.63c0.71,1.55,1.13,3.35,1.26,5.39c0.13,2.04-0.07,4.24-0.59,6.59
			c-1.07,0.49-2.17,0.87-3.31,1.13c-1.13,0.26-2.26,0.4-3.39,0.41c-1.13,0.01-2.23-0.1-3.28-0.35s-2.07-0.62-3.02-1.13
			c-0.96-0.51-1.83-1.15-2.63-1.91c-0.8-0.77-1.5-1.67-2.11-2.72l2.74-2.26c0.49,0.75,1.14,1.41,1.94,1.98
			c0.8,0.57,1.7,1.02,2.72,1.37c1.01,0.35,2.1,0.57,3.26,0.65c1.16,0.09,2.35,0.03,3.57-0.17c0.12-1.28,0.09-2.48-0.09-3.61
			c-0.17-1.13-0.47-2.13-0.89-3c-0.42-0.87-0.95-1.55-1.59-2.04c-0.64-0.49-1.35-0.74-2.13-0.74c-0.52,0-1.06,0.17-1.61,0.52
			c-0.55,0.35-1.17,0.99-1.85,1.91c-0.68,0.93-1.52,2.28-2.5,4.04c-0.32,0.58-0.7,1.25-1.15,2c-0.45,0.75-0.99,1.48-1.63,2.18
			c-0.64,0.7-1.41,1.28-2.31,1.74c-0.9,0.46-1.99,0.7-3.26,0.7H-112.76z"/>
		<path class="st1" d="M-85.01-643.59v-2.48h1.44c-0.2-0.29-0.36-0.59-0.46-0.91c-0.1-0.32-0.15-0.65-0.15-1
			c0-1.13,0.39-2.06,1.17-2.78c0.78-0.72,1.8-1.09,3.04-1.09c0.52,0,1.04,0.06,1.54,0.17c0.51,0.12,0.96,0.29,1.37,0.52l-1,2.17
			c-0.29-0.14-0.58-0.25-0.87-0.3c-0.29-0.06-0.58-0.09-0.87-0.09c-0.64,0-1.11,0.15-1.41,0.44c-0.3,0.29-0.46,0.65-0.46,1.09
			c0,0.41,0.2,0.8,0.61,1.2c0.41,0.39,1.17,0.59,2.31,0.59h2.22v2.48H-85.01z M-83-640.54h4.52v32.19H-83V-640.54z"/>
		<path class="st1" d="M-50.12-608.35c-3.57,0-6.36-0.78-8.37-2.35c-2.02-1.57-3.02-3.71-3.02-6.44c0-1.28,0.2-2.68,0.61-4.22
			c0.41-1.54,1.13-3.19,2.17-4.96l3.48,1.57c-0.7,1.51-1.16,2.77-1.39,3.78c-0.23,1.02-0.35,1.94-0.35,2.78
			c0,1.42,0.35,2.52,1.07,3.31c0.71,0.78,1.69,1.33,2.94,1.63c1.25,0.3,2.67,0.46,4.26,0.46h16.1l3.35,4.44H-50.12z M-47.38-629.15
			l-3.52-3.57l3.35-3.57l3.52,3.57L-47.38-629.15z M-39.9-629.15l-3.52-3.57l3.35-3.57l3.52,3.57L-39.9-629.15z M-38.42-612.79h0.44
			v4.44h-0.44c-0.87,0-1.31-0.77-1.31-2.31C-39.72-612.08-39.29-612.79-38.42-612.79z M-38.42-608.35v-4.44h7.79
			c0-1.97-0.3-3.78-0.89-5.44c-0.59-1.65-1.39-3.38-2.37-5.18l3.96-4c0.84,1.83,1.59,3.73,2.24,5.7c0.65,1.97,1.02,4.05,1.11,6.24
			c0.09,2.19-0.33,4.56-1.26,7.11H-38.42z"/>
		<path class="st1" d="M-4.79-612.14c-0.64-0.9-1.41-1.88-2.31-2.96c-0.9-1.07-1.91-2.2-3.02-3.39c-1.12-1.19-2.33-2.42-3.63-3.7
			s-2.68-2.57-4.11-3.87c-1.44-1.3-2.91-2.59-4.42-3.87l0.83-4.87c2.35,2.03,4.49,3.97,6.42,5.83c1.93,1.86,3.66,3.6,5.2,5.22
			c1.54,1.62,2.88,3.1,4.02,4.42c1.15,1.32,2.09,2.46,2.85,3.42L-4.79-612.14z M-20.71-608.35l-0.87-4.44h8.09
			c0.93,0,1.86-0.06,2.78-0.17c0.93-0.12,1.78-0.34,2.57-0.67c0.78-0.33,1.44-0.8,1.98-1.41c0.54-0.61,0.89-1.39,1.07-2.35
			l3.22-0.57c0,1.42-0.13,2.66-0.39,3.72c-0.26,1.06-0.7,1.96-1.31,2.72c-0.61,0.75-1.43,1.36-2.46,1.83s-2.31,0.8-3.83,1.02
			s-3.34,0.33-5.46,0.33H-20.71z M1.26-608.35c-1.51,0-2.75-0.19-3.72-0.57c-0.97-0.38-1.73-0.89-2.28-1.54
			c-0.55-0.65-0.94-1.41-1.15-2.28c-0.22-0.87-0.33-1.78-0.33-2.74v-25.06h4.52v23.93c0,1.33,0.23,2.3,0.7,2.91s1.51,0.91,3.13,0.91
			h0.78v4.44H1.26z"/>
		<path class="st1" d="M2.91-612.79h0.44v4.44H2.91c-0.87,0-1.31-0.77-1.31-2.31C1.6-612.08,2.04-612.79,2.91-612.79z M2.91-608.35
			v-4.44h1.26c2.73,0,5.06-0.1,7-0.3c1.94-0.2,3.62-0.48,5.02-0.83c1.41-0.35,2.65-0.76,3.72-1.24c1.07-0.48,2.1-0.98,3.09-1.5
			c0.29-0.17,0.58-0.33,0.87-0.48c0.29-0.14,0.58-0.29,0.87-0.43c0.29-0.15,0.58-0.29,0.87-0.44c-1.1-0.41-2.19-0.88-3.26-1.41
			c-1.07-0.54-2.13-1.07-3.18-1.61c-1.04-0.54-2.07-0.98-3.07-1.33c-1-0.35-1.98-0.52-2.94-0.52c-0.87,0-1.78,0.22-2.74,0.67
			c-0.96,0.45-1.86,1.44-2.7,2.98l-3.13-1.61c0.78-1.59,1.66-2.87,2.63-3.83s2.02-1.65,3.13-2.09c1.12-0.44,2.25-0.65,3.41-0.65
			c1.39,0,2.73,0.25,4.02,0.76c1.29,0.51,2.55,1.12,3.78,1.85c1.23,0.73,2.44,1.46,3.63,2.2c1.19,0.74,2.38,1.36,3.57,1.87
			c1.19,0.51,2.38,0.76,3.57,0.76v3.92c-0.81,0-1.83,0.29-3.07,0.87c-1.23,0.58-2.65,1.29-4.24,2.13c-0.99,0.52-2.07,1.06-3.26,1.61
			c-1.19,0.55-2.58,1.06-4.18,1.52c-1.6,0.46-3.51,0.84-5.74,1.13c-2.23,0.29-4.89,0.43-7.96,0.43H2.91z"/>
		<path class="st1" d="M39.49-598.35c-1.22,0-2.54-0.22-3.96-0.67c-1.42-0.45-2.77-1.17-4.05-2.15l1.61-3.04
			c0.93,0.38,1.91,0.71,2.94,1c1.03,0.29,1.95,0.44,2.76,0.44c1.74,0,3.26-0.39,4.57-1.17c1.31-0.78,2.33-1.86,3.07-3.22
			c0.74-1.36,1.11-2.93,1.11-4.7c0-0.78-0.16-1.63-0.48-2.54c-0.32-0.91-0.88-2.01-1.67-3.28c-0.8-1.28-1.92-2.8-3.37-4.57
			l3.22-4.05c1.54,2.06,2.77,3.89,3.7,5.48c0.93,1.59,1.61,3.1,2.04,4.52c0.44,1.42,0.65,2.9,0.65,4.44c0,1.22-0.15,2.46-0.46,3.74
			c-0.3,1.28-0.78,2.49-1.41,3.65c-0.64,1.16-1.44,2.2-2.41,3.13c-0.97,0.93-2.11,1.66-3.42,2.2
			C42.62-598.62,41.15-598.35,39.49-598.35z"/>
		<path class="st1" d="M69.07-608.35l20.31-30.45h4.31l-20.36,30.45H69.07z M75.38-638.89l3.52,3.52l-3.48,3.48l-3.52-3.48
			L75.38-638.89z M89.26-615.66l3.52,3.52l-3.48,3.48l-3.52-3.48L89.26-615.66z"/>
		<path class="st1" d="M104.96-608.35h-4.52v-28.75h4.52V-608.35z"/>
		<path class="st1" d="M115.4-622.23l3.52,3.52l-3.48,3.48l-3.52-3.48L115.4-622.23z"/>
		<path class="st1" d="M127.62-622.23l3.52,3.52l-3.48,3.48l-3.52-3.48L127.62-622.23z"/>
	</g>
	<path class="st1" d="M36.85-741.66c-0.08,0.75-0.19,1.5-0.23,2.25c-0.74,14.52-3.28,28.64-9.42,41.94
		c-4.41,9.55-10.25,18.06-18.52,24.73c-5.15,4.15-10.89,7.16-17.34,8.7c-0.6,0.14-1.3,0.14-1.9,0c-9.48-2.33-17.2-7.53-23.68-14.68
		c-8.47-9.36-13.8-20.42-17.22-32.47c-2.09-7.36-3.42-14.86-3.94-22.5c-0.19-2.82-0.43-5.63-0.66-8.57
		c18.83-1.94,33.35-11.92,46.34-24.41c3.43,2.94,6.77,5.99,10.3,8.78c5.65,4.46,11.71,8.3,18.39,11.06
		c5.73,2.37,11.65,4.09,17.89,4.48C36.85-742.12,36.85-741.89,36.85-741.66z M28.12-734.61c0.06-1.65,0.06-1.65-1.38-2
		c-4.53-1.13-8.87-2.76-13.09-4.74c-8.01-3.76-15.27-8.65-21.98-14.38c-1.05-0.89-1.51-0.89-2.53-0.03
		c-0.96,0.81-1.93,1.63-2.92,2.41c-9.77,7.73-20.41,13.78-32.59,16.84c-0.89,0.22-1.05,0.6-1.01,1.39
		c0.35,6.11,1.13,12.16,2.53,18.12c2.8,11.94,7.48,22.99,15.52,32.41c4.76,5.57,10.42,9.93,17.28,12.7
		c1.67,0.67,3.19,0.81,4.81,0.01c1.26-0.63,2.59-1.12,3.84-1.77c8.16-4.27,14.22-10.74,19.01-18.46
		C23.68-705.17,27.13-719.6,28.12-734.61z M-13.28-708.08c-3.97-3.92-7.95-7.83-11.92-11.76c-2.74-2.71-3.94-2.71-6.65,0.05
		c-1.59,1.62-1.6,3.29,0.03,4.9c5.46,5.4,10.93,10.8,16.4,16.19c2.1,2.07,3.54,2.05,5.66-0.03c6.97-6.87,13.93-13.75,20.89-20.62
		c1.93-1.91,3.88-3.8,5.78-5.73c1.36-1.39,1.34-3.08,0.02-4.49c-0.31-0.33-0.65-0.65-0.97-0.97c-1.73-1.7-3.36-1.72-5.09-0.04
		c-2.59,2.54-5.17,5.1-7.76,7.65c-5.22,5.15-10.44,10.31-15.69,15.49C-12.84-707.68-13.07-707.87-13.28-708.08z"/>
</g>
<g>
	<path class="st1" d="M-537.43-621c-1.8,0-3.38-0.35-4.74-1.04c-1.36-0.7-2.42-1.65-3.18-2.85c-0.75-1.2-1.13-2.59-1.13-4.15
		c0-1.33,0.25-2.57,0.76-3.7c0.51-1.13,1.15-2.16,1.91-3.09c0.77-0.93,1.58-1.78,2.44-2.54c0.85-0.77,1.63-1.46,2.33-2.07l2.65,2.7
		c-0.99,0.93-1.91,1.83-2.76,2.72c-0.86,0.89-1.54,1.81-2.04,2.76c-0.51,0.96-0.76,1.99-0.76,3.09c0,1.04,0.39,1.93,1.17,2.65
		c0.78,0.72,1.9,1.09,3.35,1.09c1.74,0,2.95-0.35,3.63-1.07c0.68-0.71,1.02-1.6,1.02-2.67c0-0.67-0.15-1.39-0.46-2.18
		c-0.3-0.78-0.8-1.64-1.5-2.57c-0.7-0.93-1.64-1.94-2.83-3.04c-1.19-1.1-2.65-2.29-4.39-3.57l2.31-4.18
		c1.71,1.31,3.2,2.54,4.48,3.72c1.28,1.17,2.36,2.3,3.24,3.37c0.88,1.07,1.59,2.1,2.13,3.09s0.93,1.93,1.17,2.83
		c0.25,0.9,0.37,1.78,0.37,2.65c0,1.62-0.36,3.04-1.07,4.24c-0.71,1.2-1.75,2.14-3.11,2.81C-533.79-621.33-535.46-621-537.43-621z
		 M-541.56-646.79l-3.52-3.57l3.35-3.57l3.52,3.57L-541.56-646.79z M-534.08-646.79l-3.52-3.57l3.35-3.57l3.52,3.57L-534.08-646.79z
		"/>
	<path class="st1" d="M-521.55-611.47c-1.22,0-2.54-0.22-3.96-0.67c-1.42-0.45-2.77-1.17-4.05-2.15l1.61-3.04
		c0.93,0.38,1.91,0.71,2.94,1c1.03,0.29,1.95,0.44,2.76,0.44c1.74,0,3.26-0.39,4.57-1.17c1.31-0.78,2.33-1.86,3.07-3.22
		c0.74-1.36,1.11-2.93,1.11-4.7c0-0.67-0.09-1.25-0.26-1.74c-0.17-0.49-0.41-0.99-0.7-1.48c-0.29-0.49-0.62-1.03-1-1.61l6.05,3.26
		c0,0.26,0,0.52,0,0.78s0,0.52,0,0.78c0,1.22-0.17,2.46-0.5,3.74c-0.33,1.28-0.82,2.49-1.46,3.65c-0.64,1.16-1.44,2.2-2.41,3.13
		c-0.97,0.93-2.1,1.66-3.39,2.2C-518.47-611.74-519.93-611.47-521.55-611.47z M-517.42-642.57l-3.52-3.57l3.35-3.57l3.52,3.57
		L-517.42-642.57z M-504.98-621.48c-0.99,0-1.88-0.11-2.68-0.33c-0.8-0.22-1.54-0.55-2.24-1c-0.7-0.45-1.36-1.04-1.98-1.76
		c-0.62-0.72-1.25-1.59-1.89-2.61l-5.26-8.22l3.22-4.05l5.87,9.92c0.55,0.9,1.04,1.62,1.48,2.15c0.44,0.54,0.92,0.91,1.46,1.13
		c0.54,0.22,1.21,0.33,2.02,0.33h0.44v4.44H-504.98z"/>
	<path class="st1" d="M-504.54-625.91h0.44v4.44h-0.44c-0.87,0-1.31-0.77-1.31-2.31C-505.85-625.2-505.41-625.91-504.54-625.91z
		 M-504.54-621.48v-4.44h5.31c0.23-0.43,0.48-1.12,0.74-2.07c0.26-0.94,0.49-1.96,0.7-3.07c0.2-1.1,0.33-2.1,0.39-3l5.26-1.83
		c-0.41,2-0.85,3.81-1.33,5.44s-1.05,3.15-1.72,4.59c-0.67,1.44-1.51,2.89-2.52,4.37H-504.54z M-500.41-610.91l-3.52-3.57l3.35-3.57
		l3.52,3.57L-500.41-610.91z M-489.01-621.48c-1.57,0-2.95-0.14-4.15-0.43c-1.2-0.29-2.26-0.66-3.18-1.11s-1.75-0.92-2.5-1.41
		l2.39-2.96c0.58,0.32,1.2,0.59,1.87,0.8c0.67,0.22,1.38,0.38,2.15,0.5c0.77,0.12,1.57,0.17,2.41,0.17h1.39v4.44H-489.01z
		 M-492.93-610.91l-3.52-3.57l3.35-3.57l3.52,3.57L-492.93-610.91z"/>
	<path class="st1" d="M-488.62-625.91h0.44v4.44h-0.44c-0.87,0-1.31-0.77-1.31-2.31C-489.92-625.2-489.49-625.91-488.62-625.91z
		 M-488.62-621.48v-4.44h0.26c0.52,0,0.98-0.07,1.37-0.22s0.76-0.41,1.11-0.78c0.35-0.38,0.74-0.91,1.17-1.59
		c0.44-0.68,0.97-1.56,1.61-2.63c0.87-1.48,1.71-2.73,2.52-3.76s1.6-1.85,2.37-2.46c0.77-0.61,1.54-1.05,2.31-1.33
		c0.77-0.28,1.54-0.41,2.33-0.41c1.13,0,2.15,0.26,3.04,0.78c0.9,0.52,1.74,1.41,2.52,2.65c0.78,1.25,1.57,2.97,2.35,5.18
		c0.52,1.42,1,2.46,1.44,3.11s0.91,1.06,1.41,1.22c0.51,0.16,1.15,0.24,1.94,0.24h0.09v4.44h-0.09c-1.31,0-2.42-0.15-3.35-0.46
		c-0.93-0.3-1.73-0.77-2.41-1.39c-0.68-0.62-1.27-1.38-1.76-2.28c-0.49-0.9-0.94-1.94-1.35-3.13c-0.58-1.71-1.1-2.98-1.54-3.81
		c-0.45-0.83-0.88-1.37-1.28-1.63c-0.41-0.26-0.86-0.39-1.35-0.39c-0.46,0-0.96,0.17-1.5,0.5c-0.54,0.33-1.12,0.88-1.76,1.63
		c-0.64,0.75-1.33,1.78-2.09,3.09c-0.75,1.31-1.43,2.42-2.02,3.33c-0.59,0.91-1.15,1.67-1.65,2.26c-0.51,0.59-1.02,1.06-1.54,1.39
		c-0.52,0.33-1.09,0.57-1.72,0.7c-0.62,0.13-1.34,0.2-2.15,0.2H-488.62z M-465.35-623.52c-0.81,1.04-1.78,1.78-2.89,2.2
		c-1.12,0.42-2.31,0.6-3.59,0.54c-1.28-0.06-2.56-0.33-3.85-0.8c-1.29-0.48-2.52-1.12-3.7-1.91c-1.17-0.8-2.23-1.69-3.15-2.68
		l2.44-2.78c0.78,0.64,1.66,1.23,2.63,1.76c0.97,0.54,2,0.96,3.09,1.28c1.09,0.32,2.22,0.49,3.39,0.52
		c1.17,0.03,2.36-0.14,3.54-0.52L-465.35-623.52z"/>
	<path class="st1" d="M-460.78-625.91h0.44v4.44h-0.44c-0.87,0-1.31-0.77-1.31-2.31C-462.08-625.2-461.65-625.91-460.78-625.91z
		 M-460.78-621.48v-4.44h0.09c0.67,0,1.25-0.14,1.74-0.43c0.49-0.29,0.96-0.73,1.39-1.33c0.43-0.59,0.9-1.33,1.39-2.2
		c0.44-0.81,0.96-1.74,1.59-2.78c0.62-1.04,1.35-2.06,2.18-3.04c0.83-0.99,1.77-1.8,2.83-2.44c1.06-0.64,2.24-0.96,3.55-0.96
		c1.65,0,3.09,0.44,4.31,1.31c1.22,0.87,2.18,2.08,2.89,3.63c0.71,1.55,1.13,3.35,1.26,5.39c0.13,2.04-0.07,4.24-0.59,6.59
		c-1.07,0.49-2.17,0.87-3.31,1.13c-1.13,0.26-2.26,0.4-3.39,0.41c-1.13,0.01-2.23-0.1-3.28-0.35s-2.07-0.62-3.02-1.13
		c-0.96-0.51-1.83-1.15-2.63-1.91c-0.8-0.77-1.5-1.67-2.11-2.72l2.74-2.26c0.49,0.75,1.14,1.41,1.94,1.98
		c0.8,0.57,1.7,1.02,2.72,1.37c1.01,0.35,2.1,0.57,3.26,0.65c1.16,0.09,2.35,0.03,3.57-0.17c0.12-1.28,0.09-2.48-0.09-3.61
		c-0.17-1.13-0.47-2.13-0.89-3c-0.42-0.87-0.95-1.55-1.59-2.04c-0.64-0.49-1.35-0.74-2.13-0.74c-0.52,0-1.06,0.17-1.61,0.52
		c-0.55,0.35-1.17,0.99-1.85,1.91c-0.68,0.93-1.52,2.28-2.5,4.04c-0.32,0.58-0.7,1.25-1.15,2c-0.45,0.75-0.99,1.48-1.63,2.18
		c-0.64,0.7-1.41,1.28-2.31,1.74c-0.9,0.46-1.99,0.7-3.26,0.7H-460.78z"/>
	<path class="st1" d="M-399.79-639.22c1.74,0,3.26,0.53,4.57,1.59c1.3,1.06,2.32,2.52,3.04,4.37c0.72,1.86,1.09,4.02,1.09,6.48
		c0,2.38-0.33,4.52-0.98,6.42c-0.65,1.9-1.65,3.51-2.98,4.83c-1.33,1.32-3.01,2.33-5.02,3.02c-2.02,0.7-4.4,1.04-7.16,1.04
		c-2.78,0-5.21-0.41-7.26-1.22c-2.06-0.81-3.66-2.04-4.81-3.68c-1.15-1.64-1.72-3.68-1.72-6.11c0-0.84,0.14-1.99,0.44-3.44
		c0.29-1.45,0.78-3.07,1.48-4.87l3.83,1.26c-0.46,1.25-0.8,2.41-1.02,3.5c-0.22,1.09-0.33,2.05-0.33,2.89c0,1.6,0.38,2.93,1.13,4
		c0.75,1.07,1.86,1.88,3.33,2.42c1.46,0.54,3.27,0.8,5.42,0.8c2.03,0,3.84-0.27,5.44-0.8c1.59-0.54,2.91-1.34,3.96-2.42
		s1.73-2.42,2.04-4.04c-0.78,0.26-1.59,0.46-2.41,0.59s-1.62,0.2-2.37,0.2c-1.48,0-2.75-0.18-3.81-0.54
		c-1.06-0.36-1.93-0.86-2.61-1.48c-0.68-0.62-1.18-1.34-1.5-2.15c-0.32-0.81-0.48-1.68-0.48-2.61c0-1.51,0.25-2.88,0.74-4.11
		c0.49-1.23,1.15-2.29,1.98-3.18c0.83-0.88,1.75-1.57,2.78-2.04C-401.96-638.99-400.9-639.22-399.79-639.22z M-403.45-643.88
		l-3.52-3.57l3.35-3.57l3.52,3.57L-403.45-643.88z M-404.36-630.05c0,0.64,0.14,1.2,0.44,1.67c0.29,0.48,0.79,0.86,1.5,1.13
		c0.71,0.28,1.67,0.41,2.89,0.41c0.72,0,1.44-0.06,2.15-0.17c0.71-0.12,1.43-0.29,2.15-0.52c-0.15-1.3-0.42-2.51-0.83-3.61
		c-0.41-1.1-0.94-1.99-1.61-2.65c-0.67-0.67-1.46-1-2.39-1c-0.84,0-1.59,0.24-2.24,0.72c-0.65,0.48-1.16,1.08-1.52,1.81
		C-404.18-631.54-404.36-630.8-404.36-630.05z M-395.96-643.88l-3.52-3.57l3.35-3.57l3.52,3.57L-395.96-643.88z"/>
	<path class="st1" d="M-385.48-621.48l-0.83-4.44h13.01c-0.29-1.59-0.7-3.08-1.24-4.46c-0.54-1.38-1.28-2.72-2.22-4.02
		c-0.94-1.3-2.17-2.62-3.68-3.96l3.39-4.31c2.12,2.26,3.81,4.46,5.07,6.59c1.26,2.13,2.1,4.37,2.5,6.72c0.41,2.35,0.41,4.97,0,7.87
		H-385.48z"/>
	<path class="st1" d="M-355.6-621.48c-1.51,0-2.75-0.19-3.72-0.57s-1.73-0.89-2.28-1.54c-0.55-0.65-0.94-1.41-1.15-2.28
		c-0.22-0.87-0.33-1.78-0.33-2.74v-25.06h4.52v23.93c0,0.67,0.05,1.25,0.15,1.74c0.1,0.49,0.28,0.89,0.54,1.2
		c0.26,0.3,0.65,0.53,1.15,0.67c0.51,0.15,1.17,0.22,1.98,0.22h1.65v4.44H-355.6z"/>
	<path class="st1" d="M-353.07-625.91h0.44v4.44h-0.44c-0.87,0-1.31-0.77-1.31-2.31C-354.38-625.2-353.94-625.91-353.07-625.91z
		 M-353.07-621.48v-4.44h5.31c0.23-0.43,0.48-1.12,0.74-2.07c0.26-0.94,0.49-1.96,0.7-3.07c0.2-1.1,0.33-2.1,0.39-3l5.26-1.83
		c-0.41,2-0.85,3.81-1.33,5.44s-1.05,3.15-1.72,4.59c-0.67,1.44-1.51,2.89-2.52,4.37H-353.07z M-337.54-621.48
		c-1.57,0-2.95-0.14-4.15-0.43c-1.2-0.29-2.26-0.66-3.18-1.11s-1.75-0.92-2.5-1.41l2.39-2.96c0.58,0.32,1.2,0.59,1.87,0.8
		c0.67,0.22,1.38,0.38,2.15,0.5c0.77,0.12,1.57,0.17,2.41,0.17h1.39v4.44H-337.54z M-343.16-641.36l-3.52-3.57l3.35-3.57l3.52,3.57
		L-343.16-641.36z"/>
	<path class="st1" d="M-337.15-625.91h0.44v4.44h-0.44c-0.87,0-1.31-0.77-1.31-2.31C-338.46-625.2-338.02-625.91-337.15-625.91z
		 M-337.15-621.48v-4.44h16.62c0.06-0.72,0.11-1.36,0.15-1.91c0.04-0.55,0.07-1.06,0.09-1.52c0.01-0.46,0.02-0.91,0.02-1.35
		c0-1.36-0.1-2.65-0.3-3.87c-0.2-1.22-0.52-2.3-0.94-3.24c-0.42-0.94-0.94-1.68-1.54-2.22c-0.61-0.54-1.33-0.8-2.18-0.8
		c-0.84,0-1.59,0.24-2.24,0.72c-0.65,0.48-1.16,1.08-1.52,1.8c-0.36,0.73-0.54,1.46-0.54,2.22c0,0.64,0.15,1.2,0.46,1.67
		s0.8,0.86,1.5,1.13c0.7,0.28,1.65,0.41,2.87,0.41c0.75,0,1.52-0.06,2.28-0.2c0.77-0.13,1.56-0.34,2.37-0.63l2.22,3.31
		c-1.1,0.64-2.31,1.12-3.63,1.46c-1.32,0.33-2.59,0.5-3.81,0.5c-1.48,0-2.75-0.18-3.81-0.54c-1.06-0.36-1.93-0.86-2.61-1.48
		c-0.68-0.62-1.18-1.34-1.5-2.15c-0.32-0.81-0.48-1.68-0.48-2.61c0-1.51,0.25-2.88,0.74-4.11c0.49-1.23,1.15-2.29,1.98-3.17
		c0.83-0.88,1.75-1.57,2.78-2.04c1.03-0.48,2.09-0.72,3.2-0.72c1.74,0,3.26,0.52,4.57,1.57c1.31,1.04,2.32,2.46,3.05,4.26
		c0.72,1.8,1.09,3.86,1.09,6.18c0,1.19-0.06,2.52-0.17,3.98c-0.12,1.46-0.26,2.89-0.43,4.26c-0.17,1.38-0.36,2.56-0.57,3.54H-337.15
		z M-324.89-649.93l-3.52-3.57l3.35-3.57l3.52,3.57L-324.89-649.93z"/>
</g>
<path class="st1" d="M64.62,121.41c0.7-4.07,1.46-8.52,2.22-12.96c0.59-3.43,1.14-6.86,1.79-10.28c0.41-2.12-0.17-3.77-1.74-5.27
	c-5.46-5.23-10.83-10.56-16.27-15.81c-1.44-1.39-2.28-2.9-1.61-4.94c0.69-2.1,2.32-2.82,4.36-3.1c7.65-1.07,15.28-2.2,22.93-3.3
	c1.84-0.26,2.99-1.33,3.79-2.97c3.34-6.84,6.75-13.64,10.07-20.48c0.91-1.87,2.15-3.18,4.32-3.17c2.09,0.02,3.31,1.28,4.2,3.1
	c3.3,6.79,6.7,13.54,9.99,20.34c0.94,1.95,2.31,2.97,4.48,3.27c7.6,1.03,15.18,2.17,22.77,3.26c1.86,0.27,3.29,1.11,3.92,2.97
	c0.66,1.94-0.01,3.48-1.42,4.84c-5.47,5.3-10.88,10.66-16.39,15.93c-1.62,1.55-2.17,3.23-1.78,5.42c1.31,7.28,2.52,14.57,3.79,21.85
	c0.3,1.7,0.46,3.35-0.82,4.79c-1.39,1.57-3.49,1.9-5.64,0.77c-6.74-3.53-13.5-7.02-20.19-10.64c-2.1-1.13-3.91-1.08-5.98,0.04
	c-6.69,3.62-13.44,7.14-20.19,10.65C67.9,127.43,64.47,125.37,64.62,121.41z"/>
<g>
</g>
<g>
</g>
<g>
</g>
<g>
</g>
<g>
</g>
<g>
</g>
</svg>
