<?xml version="1.0" encoding="utf-8"?>
<!-- Generator: Adobe Illustrator 25.2.0, SVG Export Plug-In . SVG Version: 6.00 Build 0)  -->
<svg version="1.1" id="Layer_1" xmlns="http://www.w3.org/2000/svg" xmlns:xlink="http://www.w3.org/1999/xlink" x="0px" y="0px"
	 viewBox="0 0 490.8 240.25" style="enable-background:new 0 0 490.8 240.25;" xml:space="preserve">
<style type="text/css">
	.st0{fill:#FFFFFF;}
	.st1{fill:#55B262;}
	.st2{opacity:0.1;clip-path:url(#SVGID_2_);}
</style>
<g>
	<path class="st0" d="M311.93,128.61c-3.78,0-6.7-0.73-8.75-2.19c-2.06-1.46-3.08-3.52-3.08-6.18c0-1.23,0.19-2.55,0.58-3.95
		c0.39-1.4,1.03-2.9,1.92-4.5l2.5,1.18c-0.67,1.4-1.14,2.64-1.42,3.72c-0.28,1.08-0.42,2.08-0.42,3.01c0,1.4,0.38,2.52,1.12,3.36
		c0.75,0.84,1.83,1.45,3.23,1.83c1.4,0.38,3.09,0.57,5.06,0.57h15.21l1.79,3.15H311.93z M316.51,137.65l-2.75-2.82l2.63-2.82
		l2.75,2.82L316.51,137.65z M321.64,125.46h0.42v3.15h-0.42c-0.83,0-1.25-0.55-1.25-1.64C320.39,125.96,320.81,125.46,321.64,125.46
		z M321.64,128.61v-3.15h7.75c0.17-1.99,0-3.96-0.5-5.91c-0.5-1.95-1.29-3.97-2.38-6.08l2.67-2.69c0.92,1.88,1.67,3.79,2.25,5.72
		s0.91,3.9,0.98,5.91c0.07,2-0.24,4.07-0.94,6.2H321.64z"/>
	<path class="st0" d="M342.68,138.28c-1.11,0-2.33-0.21-3.65-0.63c-1.32-0.42-2.56-1.04-3.73-1.85l1.25-2.31
		c0.92,0.48,1.9,0.87,2.94,1.18c1.04,0.31,1.98,0.46,2.81,0.46c2.08,0,3.85-0.58,5.29-1.75c1.44-1.16,2.44-2.75,3-4.77h-3.54
		c-1.56,0-2.89-0.15-4-0.46c-1.11-0.31-2.02-0.74-2.73-1.3c-0.71-0.56-1.23-1.24-1.56-2.04c-0.33-0.8-0.5-1.67-0.5-2.63
		c0-1.35,0.21-2.59,0.63-3.72c0.42-1.13,0.99-2.12,1.73-2.94s1.57-1.47,2.5-1.93c0.93-0.46,1.91-0.69,2.94-0.69
		c1.47,0,2.78,0.45,3.94,1.35c1.15,0.9,2.07,2.16,2.75,3.79c0.68,1.63,1.06,3.52,1.15,5.68c0.03,0.28,0.04,0.57,0.04,0.86
		c0,0.29-0.01,0.6-0.04,0.9h2.96v3.15h-3.33c-0.28,1.35-0.72,2.61-1.33,3.79c-0.61,1.18-1.37,2.21-2.27,3.09
		c-0.9,0.88-1.96,1.57-3.17,2.06C345.54,138.04,344.18,138.28,342.68,138.28z M347.31,125.46h3.67c0.03-0.31,0.04-0.61,0.04-0.9
		c0-0.29-0.01-0.58-0.04-0.86c-0.08-1.43-0.34-2.72-0.77-3.87c-0.43-1.15-1.01-2.07-1.75-2.75c-0.74-0.69-1.59-1.03-2.56-1.03
		c-0.86,0-1.65,0.27-2.38,0.82c-0.72,0.55-1.29,1.25-1.69,2.1c-0.4,0.86-0.6,1.76-0.6,2.71c0,0.81,0.19,1.5,0.56,2.06
		c0.38,0.56,1.01,0.99,1.9,1.28C344.57,125.31,345.78,125.46,347.31,125.46z"/>
	<path class="st0" d="M356.85,125.46h0.42v3.15h-0.42c-0.83,0-1.25-0.55-1.25-1.64C355.6,125.96,356.02,125.46,356.85,125.46z
		 M356.85,128.61v-3.15h4.96c0.36-0.73,0.7-1.61,1.02-2.65s0.6-2.14,0.83-3.3c0.24-1.16,0.41-2.26,0.52-3.3l3.67-1.26
		c-0.36,1.88-0.76,3.61-1.19,5.19c-0.43,1.58-0.93,3.06-1.5,4.44s-1.26,2.72-2.06,4.04H356.85z M360.93,137.65l-2.79-2.82l2.62-2.82
		l2.79,2.82L360.93,137.65z M371.14,128.61c-1.22,0-2.35-0.12-3.4-0.36s-2-0.55-2.88-0.93c-0.88-0.38-1.69-0.82-2.44-1.32l1.67-2.23
		c0.64,0.37,1.31,0.67,2.02,0.93c0.71,0.25,1.44,0.44,2.21,0.57s1.52,0.19,2.27,0.19h0.79v3.15H371.14z M367.52,137.65l-2.79-2.82
		l2.63-2.82l2.79,2.82L367.52,137.65z"/>
	<path class="st0" d="M371.39,125.46h0.42v3.15h-0.42c-0.83,0-1.25-0.55-1.25-1.64C370.14,125.96,370.56,125.46,371.39,125.46z
		 M371.39,128.61v-3.15h7.75c0.17-1.99,0-3.96-0.5-5.91c-0.5-1.95-1.29-3.97-2.38-6.08l2.67-2.69c0.92,1.88,1.67,3.79,2.25,5.72
		c0.58,1.93,0.91,3.9,0.98,5.91s-0.24,4.07-0.94,6.2H371.39z M374.43,106.45l-2.79-2.82l2.62-2.82l2.79,2.82L374.43,106.45z
		 M381.02,106.45l-2.79-2.82l2.62-2.82l2.79,2.82L381.02,106.45z"/>
	<path class="st0" d="M392.43,138.28c-1.11,0-2.33-0.21-3.65-0.63c-1.32-0.42-2.56-1.04-3.73-1.85l1.25-2.31
		c0.92,0.48,1.9,0.87,2.94,1.18c1.04,0.31,1.98,0.46,2.81,0.46c2.08,0,3.85-0.58,5.29-1.75c1.44-1.16,2.44-2.75,3-4.77h-3.54
		c-1.56,0-2.89-0.15-4-0.46c-1.11-0.31-2.02-0.74-2.73-1.3c-0.71-0.56-1.23-1.24-1.56-2.04c-0.33-0.8-0.5-1.67-0.5-2.63
		c0-1.35,0.21-2.59,0.63-3.72c0.42-1.13,0.99-2.12,1.73-2.94s1.57-1.47,2.5-1.93c0.93-0.46,1.91-0.69,2.94-0.69
		c1.47,0,2.78,0.45,3.94,1.35c1.15,0.9,2.07,2.16,2.75,3.79c0.68,1.63,1.06,3.52,1.15,5.68c0.03,0.28,0.04,0.57,0.04,0.86
		c0,0.29-0.01,0.6-0.04,0.9h2.96v3.15h-3.33c-0.28,1.35-0.72,2.61-1.33,3.79c-0.61,1.18-1.37,2.21-2.27,3.09
		c-0.9,0.88-1.96,1.57-3.17,2.06C395.29,138.04,393.93,138.28,392.43,138.28z M397.06,125.46h3.67c0.03-0.31,0.04-0.61,0.04-0.9
		c0-0.29-0.01-0.58-0.04-0.86c-0.08-1.43-0.34-2.72-0.77-3.87c-0.43-1.15-1.01-2.07-1.75-2.75c-0.74-0.69-1.59-1.03-2.56-1.03
		c-0.86,0-1.65,0.27-2.38,0.82c-0.72,0.55-1.29,1.25-1.69,2.1c-0.4,0.86-0.6,1.76-0.6,2.71c0,0.81,0.19,1.5,0.56,2.06
		c0.38,0.56,1.01,0.99,1.9,1.28C394.32,125.31,395.53,125.46,397.06,125.46z"/>
	<path class="st0" d="M406.6,125.46h0.42v3.15h-0.42c-0.83,0-1.25-0.55-1.25-1.64C405.35,125.96,405.77,125.46,406.6,125.46z
		 M406.6,128.61v-3.15h4.96c0.36-0.73,0.7-1.61,1.02-2.65s0.6-2.14,0.83-3.3c0.24-1.16,0.41-2.26,0.52-3.3l3.67-1.26
		c-0.36,1.88-0.76,3.61-1.19,5.19c-0.43,1.58-0.93,3.06-1.5,4.44s-1.26,2.72-2.06,4.04H406.6z M410.68,137.65l-2.79-2.82l2.62-2.82
		l2.79,2.82L410.68,137.65z M420.89,128.61c-1.22,0-2.35-0.12-3.4-0.36s-2-0.55-2.88-0.93c-0.88-0.38-1.69-0.82-2.44-1.32l1.67-2.23
		c0.64,0.37,1.31,0.67,2.02,0.93c0.71,0.25,1.44,0.44,2.21,0.57s1.52,0.19,2.27,0.19h0.79v3.15H420.89z M417.27,137.65l-2.79-2.82
		l2.63-2.82l2.79,2.82L417.27,137.65z"/>
	<path class="st0" d="M421.14,125.46h0.42v3.15h-0.42c-0.83,0-1.25-0.55-1.25-1.64C419.89,125.96,420.31,125.46,421.14,125.46z
		 M421.14,128.61v-3.15h5.79V97.49h3.17v31.12H421.14z"/>
	<path class="st0" d="M436.77,97.49h3.17v31.12h-3.17V97.49z"/>
</g>
<g>
	<path class="st1" d="M445.93,228.57H44.95c-19.24,0-34.84-15.6-34.84-34.84V46.53c0-19.24,15.6-34.84,34.84-34.84h400.98
		c19.24,0,34.84,15.6,34.84,34.84v147.19C480.77,212.97,465.17,228.57,445.93,228.57z"/>
	<g>
		<defs>
			<path id="SVGID_1_" d="M445.85,228.57H44.87c-19.24,0-34.84-15.6-34.84-34.84V46.53c0-19.24,15.6-34.84,34.84-34.84h400.98
				c19.24,0,34.84,15.6,34.84,34.84v147.19C480.69,212.97,465.09,228.57,445.85,228.57z"/>
		</defs>
		<clipPath id="SVGID_2_">
			<use xlink:href="#SVGID_1_"  style="overflow:visible;"/>
		</clipPath>
		<g class="st2">
			<path class="st0" d="M2.62,303c-0.68-13.78-1.33-27.57-2.05-41.35c-0.8-15.14-1.68-30.27-2.5-45.4
				c-0.6-11.09-1.18-22.17-1.69-33.26c-0.07-1.61,0.01-3.35,0.55-4.83c0.92-2.53,2.87-4.11,5.69-4.02c2.84,0.09,5.46,2.28,5.82,5.09
				c0.49,3.83,0.78,7.68,0.99,11.54c1.94,35.67,3.84,71.35,5.74,107.02c0.09,1.73,0.08,3.48,0.11,5.21C11.05,303,6.83,303,2.62,303z
				"/>
			<path class="st0" d="M370.24,303c-0.75-13-1.51-26.01-2.24-39.01c-0.94-16.58-1.86-33.16-2.77-49.74
				c-0.59-10.8-1.17-21.6-1.65-32.4c-0.19-4.25,2.37-7.53,5.77-7.75c3.67-0.24,6.47,2.66,6.71,7.11c1.38,24.88,2.7,49.76,4.08,74.64
				c0.88,15.72,1.83,31.43,2.75,47.15C378.68,303,374.46,303,370.24,303z"/>
			<path class="st0" d="M-23.85,46.49c6.4-0.37,12.8-0.85,19.2-1.01c1.33-0.03,3.05,0.78,3.95,1.79c1.35,1.51,1.91,0.93,2.79-0.26
				c2.98-4.02,5.93-8.07,9.03-11.99c1.11-1.4,2.5-2.74,4.04-3.6c1.07-0.59,2.99-0.84,3.85-0.25c0.89,0.62,1.47,2.51,1.29,3.72
				c-0.27,1.84-1.05,3.74-2.06,5.32C11.83,50.27,5.41,60.33-1.25,70.23c-6.99,10.38-14.24,20.58-21.39,30.85
				c-0.31,0.44-0.8,0.75-1.21,1.12C-23.85,83.63-23.85,65.06-23.85,46.49z"/>
			<path class="st0" d="M166,303c-0.42-25.77-0.85-51.54-1.26-77.3c-0.05-2.88-0.2-5.78,0.02-8.64c0.27-3.64,2.93-6.18,6.05-6.17
				c3.12,0.01,6.01,2.84,6.15,6.46c0.29,7.71,0.4,15.43,0.55,23.15c0.39,20.84,0.77,41.68,1.15,62.51C174.44,303,170.22,303,166,303
				z"/>
			<path class="st0" d="M-23.85,6.44c15.47-0.8,30.93-1.62,46.4-2.38c2.29-0.11,4.6-0.06,6.87,0.21c1.87,0.22,3.56,1.09,3.68,3.37
				c0.11,2.26-1.47,3.4-3.29,3.78c-2.98,0.63-6.03,1.06-9.06,1.26c-13.73,0.9-27.47,1.68-41.2,2.53c-1.14,0.07-2.26,0.34-3.39,0.51
				C-23.85,12.64-23.85,9.54-23.85,6.44z"/>
			<path class="st0" d="M-23.85,20.37c12.97-0.57,25.94-1.24,38.92-1.66c3.96-0.13,6.49,1.88,6.49,4.3c0,2.57-2.14,4.51-6.22,4.8
				c-13.06,0.92-26.13,1.64-39.19,2.43C-23.85,26.95-23.85,23.66-23.85,20.37z"/>
			<path class="st0" d="M-23.85,109.75c6.12-7.25,12.28-14.48,18.36-21.77c2.21-2.65,4.25-5.45,6.37-8.18
				c0.35-0.45,0.71-0.91,1.1-1.33c2.42-2.59,4.73-3.22,6.46-1.78c1.73,1.44,1.66,3.96-0.42,6.75c-6.89,9.25-13.83,18.45-20.77,27.66
				c-3.18,4.22-6.4,8.41-9.64,12.59c-0.37,0.48-0.96,0.77-1.45,1.15C-23.85,119.81-23.85,114.78-23.85,109.75z"/>
			<path class="st0" d="M-23.85,227.56c0.76-0.58,1.47-1.22,2.27-1.71c2.7-1.68,4.89-1.02,8.08,2.16c-0.24-2.96-0.38-5.94-0.75-8.88
				c-0.47-3.75,1.65-6.96,4.89-7.12c3.16-0.15,5.6,2.63,5.61,6.32c0.01,5.22,0.13,10.44,0.06,15.66c-0.03,2.11-0.33,4.23-0.7,6.3
				c-0.35,1.93-1.35,3.43-3.54,3.59c-2.19,0.16-3.47-1.13-3.93-3.07c-0.8-3.45-1.38-6.95-1.89-9.59c-2.31,3.04-5.06,6.75-7.91,10.39
				c-0.54,0.69-1.45,1.09-2.19,1.62C-23.85,238-23.85,232.78-23.85,227.56z"/>
			<path class="st0" d="M-23.85,152.11c9.63-0.55,19.25-1.09,28.88-1.69c1.12-0.07,2.24-0.46,3.33-0.79
				c2.4-0.73,4.67-0.14,5.71,1.98c0.79,1.6,0.97,3.91,0.48,5.64c-0.65,2.34-2.89,3.04-5.3,3.07c-10.2,0.15-20.4,0.36-30.59,0.58
				c-0.84,0.02-1.67,0.32-2.5,0.5C-23.85,158.3-23.85,155.21-23.85,152.11z"/>
			<path class="st0" d="M436.4,303c-1.05-0.58-2.05-1.26-3.14-1.73c-3.94-1.68-5.87-5.08-4.67-8.38c1.28-3.51,5.02-4.87,9.15-3.24
				c7.74,3.06,15.46,6.15,23.17,9.27c3.17,1.29,6.29,2.71,9.43,4.07C459.03,303,447.72,303,436.4,303z"/>
			<path class="st0" d="M69.35,303c-1.34-0.66-2.68-1.35-4.03-1.98c-3.66-1.69-5.29-5.16-3.95-8.48c1.17-2.92,4.84-4.52,8.3-3.17
				c10.88,4.24,21.69,8.65,32.51,13.02c0.23,0.09,0.37,0.4,0.55,0.6C91.6,303,80.47,303,69.35,303z"/>
			<path class="st0" d="M-23.85,138.76c7.7-0.46,15.4-0.93,23.11-1.39c2.19-0.13,4.39-0.39,6.58-0.32c2.22,0.07,3.87,1.25,4.2,3.6
				c0.33,2.35-1.2,3.66-3.15,4.21c-1.82,0.52-3.76,0.65-5.66,0.83c-8.36,0.81-16.72,1.57-25.08,2.36
				C-23.85,144.95-23.85,141.86-23.85,138.76z"/>
			<path class="st0" d="M-23.85,127.74c4.85-0.74,9.68-1.63,14.56-2.18c4.36-0.5,8.76-0.64,13.14-0.93c0.29-0.02,0.57-0.01,0.86,0
				c2.83,0.05,4.65,1.41,4.76,3.55c0.1,1.95-1.8,3.79-4.37,4.16c-3.21,0.46-6.43,0.87-9.64,1.28c-4.82,0.62-9.63,1.38-14.48,1.76
				c-1.57,0.12-3.21-0.79-4.82-1.23C-23.85,131.99-23.85,129.87-23.85,127.74z"/>
			<path class="st0" d="M288.55,303c-1.32-1.72-1.96-3.54-0.71-5.59c1.27-2.1,3.25-1.87,5.32-1.86c6.97,0.02,13.95-0.16,20.92-0.23
				c1.63-0.02,3.4-0.28,4.84,0.27c1.19,0.45,2.68,1.89,2.76,2.99c0.08,1.02-1.35,2.46-2.46,3.17c-1.19,0.75-2.78,0.86-4.2,1.25
				C306.19,303,297.37,303,288.55,303z"/>
			<path class="st0" d="M-11.19,303c-0.24-5.76-0.43-11.52-0.74-17.28c-0.14-2.58,0.69-4.84,2.94-5.74
				c1.65-0.66,3.97-0.67,5.63-0.02c2.28,0.89,3.07,3.24,2.99,5.76c-0.17,5.76-0.31,11.52-0.46,17.28C-4.29,303-7.74,303-11.19,303z"
				/>
			<path class="st0" d="M356.43,303c-0.12-3.64-0.19-7.28-0.38-10.92c-0.11-2.11-0.43-4.2-0.62-6.3c-0.33-3.6,2.1-6.52,5.55-6.67
				c3.31-0.15,5.99,2.51,5.89,6.02c-0.17,5.96-0.43,11.92-0.65,17.88C362.95,303,359.69,303,356.43,303z"/>
			<path class="st0" d="M146.44,303c-0.2-4.05-0.48-8.1-0.56-12.15c-0.05-2.91,1.15-5.27,3.9-6.54c2.22-1.03,4.63-0.8,6.1,0.95
				c1.31,1.57,2.18,3.84,2.46,5.9c0.54,3.9,0.53,7.89,0.75,11.84C154.88,303,150.66,303,146.44,303z"/>
			<path class="st0" d="M327.09,303c-0.61-4.3-1.36-8.58-1.78-12.9c-0.44-4.53,1.7-7.37,5.44-7.7c3.33-0.3,6.14,2.44,6.4,6.7
				c0.28,4.62,0.21,9.26,0.3,13.9C334,303,330.54,303,327.09,303z"/>
			<path class="st0" d="M342.05,303c-0.28-4.52-0.49-9.04-0.87-13.56c-0.24-2.85,0.36-5.54,2.93-6.66c1.67-0.73,4.22-0.62,5.9,0.15
				c2.45,1.12,2.92,3.79,2.79,6.48c-0.21,4.52-0.27,9.05-0.4,13.58C348.95,303,345.5,303,342.05,303z"/>
			<path class="st0" d="M-23.85-45.21c2.67,0,5.34,0,8.41,0c0,1.49,0.05,2.81-0.01,4.13c-0.27,6.74-0.57,13.47-0.86,20.21
				c-0.08,1.93-0.41,3.87-2.76,4.05c-2.38,0.18-2.99-1.62-3.17-3.6c-0.19-2.2-0.29-4.41-0.59-6.59c-0.17-1.25-0.67-2.46-1.02-3.68
				C-23.85-35.53-23.85-40.37-23.85-45.21z"/>
			<path class="st0" d="M-23.85,266.44c5.51-0.21,11.02-0.57,16.54-0.59c3.51-0.02,5.46,1.77,5.63,4.49
				c0.17,2.83-1.74,4.98-5.31,5.16c-5.61,0.28-11.24,0.17-16.85,0.23C-23.85,272.63-23.85,269.54-23.85,266.44z"/>
			<path class="st0" d="M-23.85,34.3c0.74-0.14,1.47-0.38,2.21-0.41c6.11-0.24,12.23-0.47,18.35-0.64c1.62-0.04,3.24,0.08,4.86,0.24
				c1.69,0.17,3.66,0.71,3.27,2.75c-0.24,1.23-1.8,2.72-3.07,3.11c-2.33,0.72-4.88,0.78-7.34,1c-6.09,0.53-12.18,1-18.27,1.49
				C-23.85,39.33-23.85,36.82-23.85,34.3z"/>
			<path class="st0" d="M130.33,303c-0.33-2.17-0.62-4.35-0.99-6.51c-0.25-1.42-0.72-2.81-0.9-4.24c-0.44-3.57,2.11-6.86,5.52-7.22
				c3.19-0.34,6.41,2.32,6.61,5.82c0.22,4.04,0.1,8.09,0.13,12.14C137.24,303,133.79,303,130.33,303z"/>
			<path class="st0" d="M-23.85,208.41c3.51-2.63,6.95-5.35,10.54-7.86c1.74-1.21,3.82-1.57,5.47,0.23c1.67,1.81,1.24,4.03-0.23,5.5
				c-5.14,5.09-10.5,9.96-15.78,14.91C-23.85,216.92-23.85,212.66-23.85,208.41z"/>
			<path class="st0" d="M-23.85,282.69c6.57-1.82,9.52,0.63,9.19,7.63c-0.2,4.23-0.37,8.46-0.56,12.68c-2.88,0-5.75,0-8.63,0
				C-23.85,296.23-23.85,289.46-23.85,282.69z"/>
			<path class="st0" d="M393.25,303c-0.75-2.83-0.93-5.52,1.7-7.57c2.55-1.99,5.11-1.28,7.79-0.2c6.59,2.66,13.23,5.19,19.85,7.78
				C412.81,303,403.03,303,393.25,303z"/>
			<path class="st0" d="M26.2,303c-1.06-2.59-1.15-5.06,1.01-7.18c2.24-2.2,4.76-1.93,7.42-0.91c5.6,2.14,11.24,4.18,16.84,6.33
				c1.21,0.46,2.34,1.17,3.5,1.76C45.38,303,35.79,303,26.2,303z"/>
			<path class="st0" d="M-23.85,166.04c4.19-0.28,8.38-0.54,12.57-0.85c2.93-0.21,5.4,1.85,5.47,4.63c0.07,2.86-2.13,5.02-5.16,5.01
				c-4.29-0.01-8.58-0.06-12.88-0.09C-23.85,171.84-23.85,168.94-23.85,166.04z"/>
			<path class="st0" d="M-23.85,184.03c3.17,0.06,6.33,0.11,9.5,0.2c1.68,0.05,3.67-0.33,4.95,0.44c1.29,0.78,2.42,2.68,2.61,4.22
				c0.25,2.01-1.17,3.62-3.3,4.08c-1.01,0.22-2.08,0.19-3.12,0.21c-3.55,0.06-7.1,0.09-10.65,0.13
				C-23.85,190.22-23.85,187.13-23.85,184.03z"/>
			<path class="st0" d="M182.69,303c-0.02-2.02-0.17-4.04-0.04-6.05c0.21-3.34,2.67-5.78,5.85-6.03c2.94-0.23,5.64,1.89,6.23,5.21
				c0.4,2.25,0.42,4.57,0.62,6.87C191.13,303,186.91,303,182.69,303z"/>
			<path class="st0" d="M275.31,303c0.04-2.12,0.15-4.24,0.1-6.35c-0.07-3.4,2.11-6.27,4.94-6.35c2.94-0.08,5.24,2.53,5.29,6.04
				c0.03,2.22,0.02,4.44,0.02,6.66C282.22,303,278.77,303,275.31,303z"/>
			<path class="st0" d="M202.82,303c-0.24-1.42-0.61-2.82-0.68-4.25c-0.16-3.46,2.45-6.21,5.74-6.18c3.32,0.03,6.11,3.08,5.86,6.47
				c-0.1,1.33-0.37,2.64-0.56,3.96C209.73,303,206.28,303,202.82,303z"/>
			<path class="st0" d="M-23.85,249.03c0.19-0.02,0.38-0.07,0.56-0.06c4.04,0.09,6.47,2.15,6.3,5.33c-0.16,3.06-2.83,4.85-6.86,4.6
				C-23.85,255.61-23.85,252.32-23.85,249.03z"/>
			<path class="st0" d="M225.84,303c-0.48-0.42-0.96-0.84-1.44-1.25c-1.95-1.67-2.21-4.31-0.6-6.15c1.66-1.9,4.35-1.93,6.06-0.08
				c1.73,1.88,1.58,4.36-0.36,6.12c-0.47,0.43-0.9,0.91-1.35,1.37C227.37,303,226.6,303,225.84,303z"/>
			<path class="st0" d="M-23.85,196.8c0.75,0.95,1.96,1.83,2.1,2.86c0.09,0.67-1.35,1.57-2.1,2.36
				C-23.85,200.28-23.85,198.54-23.85,196.8z"/>
			<path class="st0" d="M227.23,275.54c15.5,0,31-0.04,46.5,0.03c4.59,0.02,9.2,0.1,13.75,0.61c3.68,0.42,5.48,2.43,5.41,4.95
				c-0.07,2.48-2.41,4.66-5.88,4.97c-4.86,0.43-9.74,0.72-14.61,0.83c-19.81,0.43-39.62,0.75-59.44,1.14
				c-7.46,0.15-14.92,0.49-22.38,0.59c-4.91,0.06-8.27-4.41-6.31-8.5c0.81-1.69,2.59-2.92,4.13-4.58
				c-4.28-2.33-3.54-6.66-3.61-10.76c-0.52-30.51-1.06-61.03-1.59-91.54c-0.01-0.77-0.02-1.55,0.04-2.32
				c0.29-3.65,2.52-5.79,5.92-5.73c3.29,0.06,5.68,2.43,5.62,6.02c-0.13,8.79-0.53,17.58-0.62,26.37
				c-0.23,23.09-0.35,46.18-0.51,69.27c-0.02,3.29,0.32,6.73-3.53,8.67c11.53,1.5,22.94,0.19,34.75-0.15
				c-5.38-2.17-4.28-6.75-4.4-10.69c-0.34-10.71-0.5-21.43-0.69-32.14c-0.11-6.27-0.13-12.55-0.26-18.82
				c-0.04-1.92-0.26-3.84-0.51-5.75c-0.47-3.74,1.9-7.03,5.3-7.26c3.61-0.24,6.16,2.45,6.14,6.41c-0.06,19.98-0.15,39.96-0.11,59.94
				c0.01,3.27-0.82,5.97-3.76,7.94C226.81,275.2,227.02,275.37,227.23,275.54z"/>
			<path class="st0" d="M32.83-23.49c-2.2,0-4.41-0.06-6.61,0.01c-4.37,0.14-7.4-2.12-7.56-5.73c-0.19-4.13,2.14-6.59,6.82-6.8
				c15.79-0.69,31.58-1.26,47.38-1.89c15.41-0.62,30.81-1.31,46.22-1.84c5.16-0.18,10.34,0.04,15.5,0.13
				c1.04,0.02,2.11,0.19,3.12,0.45c2.94,0.75,4.82,2.75,4.7,5.1c-0.15,2.93-1.95,4.68-4.63,5.14c-4.43,0.75-8.89,1.47-13.37,1.68
				c-17.03,0.78-34.08,1.33-51.12,1.98c-13.49,0.51-26.98,1.04-40.46,1.56C32.83-23.62,32.83-23.56,32.83-23.49z"/>
			<path class="st0" d="M49.66,183.53c0.4,15.06,1,30.12,1.16,45.18c0.21,19.78,0.11,39.56,0.03,59.34
				c-0.01,2.28-0.39,4.67-1.2,6.78c-0.46,1.19-2.14,2.66-3.25,2.64c-1.29-0.02-3.16-1.27-3.69-2.47c-0.98-2.23-1.51-4.79-1.63-7.24
				c-1.09-21.98-2.18-43.97-3.01-65.96c-0.64-16.98-0.94-33.98-1.32-50.97c-0.09-3.88,2.81-6.9,6.29-6.91
				c3.46-0.01,6.14,2.71,6.25,6.59c0.12,4.34,0.03,8.68,0.03,13.02C49.44,183.52,49.55,183.52,49.66,183.53z"/>
			<path class="st0" d="M418.23,230.21c0,19.51,0.02,39.01-0.04,58.52c-0.01,1.91-0.18,3.99-0.98,5.66
				c-0.65,1.36-2.31,3.01-3.58,3.06c-1.25,0.06-3.12-1.47-3.74-2.78c-0.96-2.02-1.41-4.43-1.52-6.71
				c-1.03-20.43-2.11-40.87-2.84-61.31c-0.66-18.33-0.97-36.68-1.29-55.02c-0.03-1.81,0.53-3.9,1.51-5.39
				c1.42-2.16,3.84-2.81,6.39-2.07c2.63,0.77,4.42,3.22,4.54,6.39c0.26,7.14,0.55,14.28,0.6,21.43c0.1,12.74,0.03,25.48,0.03,38.22
				C417.62,230.21,417.93,230.21,418.23,230.21z"/>
			<path class="st0" d="M365.46,52.18c-5.01,0.28-9.67,0.42-14.31,0.84c-8.29,0.75-16.56,1.65-24.84,2.51
				c-3.68,0.38-6.18-1.23-6.35-4.16c-0.18-3.05,1.98-4.85,5.69-4.95c11.96-0.31,23.93-0.64,35.89-1.03c2.7-0.09,5,0.36,6.19,3.93
				c1.47-2.05,2.61-3.76,3.87-5.37c2.9-3.71,5.8-7.42,8.85-11c0.82-0.97,2.1-1.69,3.31-2.15c2.22-0.84,4.24,0.58,3.95,2.92
				c-0.26,2.05-0.78,4.26-1.86,5.97c-6.69,10.57-13.41,21.12-20.42,31.48c-9.92,14.67-20.09,29.17-30.19,43.73
				c-1.37,1.97-2.87,3.86-4.38,5.73c-2.02,2.51-4.24,2.98-6.51,1.45c-2.16-1.46-2.65-3.98-0.93-6.62
				c5.25-8.07,10.58-16.07,15.94-24.07c8.41-12.56,16.87-25.08,25.3-37.63C364.92,53.39,365.08,52.96,365.46,52.18z"/>
			<path class="st0" d="M493.79-39.81c0,4.29,0,8.3,0,12.5c-3.74,0.18-7.35,0.38-10.97,0.51c-29.56,1.09-59.13,2.17-88.69,3.26
				c-5.27,0.19-8.31-2.11-8.18-6.23c0.1-3.33,1.9-5.49,5.45-6.04c2.54-0.4,5.14-0.49,7.72-0.58c17.32-0.65,34.65-1.25,51.97-1.91
				c11.95-0.46,23.9-1.01,35.85-1.49C489.12-39.89,491.31-39.81,493.79-39.81z"/>
			<path class="st0" d="M467.47,255.94c-0.56-0.42-1.14-0.82-1.67-1.27c-2.75-2.31-2.65-6.21,0.1-8.55
				c7.81-6.65,15.58-13.35,23.36-20.03c1.36-1.17,2.74-2.32,4.48-3.79c0,14.76,0,28.97,0,43.59c-6.56,0.18-13.13,0.41-19.69,0.54
				c-13.39,0.26-26.79,0.45-40.18,0.74c-1.99,0.04-3.97,0.54-5.97,0.73c-3.34,0.33-6.31-2.04-6.49-5.1c-0.21-3.52,2.44-6.28,6-6.27
				c9.07,0.03,18.14,0.04,27.21,0.05c4.24,0.01,8.47,0,12.71,0C467.37,256.38,467.42,256.16,467.47,255.94z"/>
			<path class="st0" d="M152.04,161.22c-0.99-0.11-1.97-0.3-2.96-0.31c-4.69-0.06-9.38-0.01-14.08-0.1
				c-3.14-0.06-4.84-1.63-4.76-4.17c0.08-2.46,1.71-3.96,4.68-3.98c8.14-0.05,16.27-0.03,24.41,0.02c2.43,0.01,4.53,0.96,4.78,3.62
				c0.25,2.7-1.65,3.92-4.1,4.26c-1.38,0.19-2.77,0.26-4.46,0.62c6.02,2.02,5.6,6.93,5.63,11.64c0.13,21.24,0.29,42.47,0.37,63.71
				c0.03,7.13-0.11,14.26-0.2,21.39c-0.04,3.21-1.47,5.04-3.86,5.07c-2.35,0.03-3.9-1.79-4.07-4.98c-1.21-22.26-2.4-44.52-3.6-66.77
				c-0.37-6.84-0.71-13.69-1.2-20.53c-0.26-3.56,0.15-6.73,3.68-8.76C152.21,161.71,152.12,161.47,152.04,161.22z"/>
			<path class="st0" d="M55.14,150.83c0-8.59,0.03-17.65-0.01-26.72c-0.04-10.82-0.13-21.64-0.19-32.46c0-0.68,0-1.36,0.11-2.02
				c0.53-3.17,2.53-4.96,5.42-4.9c2.73,0.06,4.74,2.11,4.9,5.35c0.31,6.56,0.55,13.12,0.68,19.68c0.29,13.8,0.65,27.61,0.67,41.42
				c0.02,8.97-0.51,17.95-0.8,26.93c-0.02,0.48-0.02,0.98-0.14,1.44c-0.52,2.06-1.33,3.97-3.82,4.04c-2.49,0.08-3.63-1.71-3.99-3.81
				c-0.57-3.42-0.95-6.88-1.2-10.33c-0.32-4.43-0.42-8.87-0.63-13.3c-0.02-0.35-0.16-0.7-0.36-1.52c-0.7,0.84-1.05,1.55-1.62,1.88
				c-1.41,0.83-2.92,2.1-4.39,2.11c-5.15,0.02-10.31-0.38-15.46-0.71c-2.01-0.13-3.91-0.73-4.13-3.17
				c-0.21-2.44,1.51-3.48,3.52-3.81c5.37-0.9,10.76-1.93,16.18-2.3C51.73,148.47,53.69,150.17,55.14,150.83z"/>
			<path class="st0" d="M422.94,154.04c-2.23,4.46-2.8,4.73-8.02,4.43c-4.2-0.24-8.4-0.39-12.6-0.54c-2.25-0.08-4.51-0.57-4.79-3.13
				c-0.29-2.57,1.69-3.63,4.01-3.98c5.1-0.79,10.19-1.67,15.3-2.36c2.97-0.4,4.75,1.39,6.08,4.65c0-4.31,0.03-7.9-0.01-11.48
				c-0.17-14.68-0.36-29.35-0.53-44.03c-0.03-2.51-0.1-5.02,0.05-7.52c0.21-3.41,2.22-5.38,5.21-5.37c2.84,0.01,5.08,2.15,5.15,5.48
				c0.43,22.4,0.81,44.79,1.1,67.19c0.08,5.88-0.16,11.77-0.34,17.65c-0.05,1.73-0.3,3.47-0.64,5.17c-0.39,1.99-1.6,3.42-3.7,3.4
				c-2.05-0.01-3.48-1.31-3.72-3.36c-0.63-5.26-1.19-10.53-1.55-15.82c-0.23-3.43-0.04-6.89-0.04-10.34
				C423.57,154.07,423.25,154.05,422.94,154.04z"/>
			<path class="st0" d="M101.09,256.32c-1.21-0.71-1.74-0.98-2.22-1.32c-3.18-2.23-3.26-6.37-0.29-8.9
				c8.4-7.15,16.72-14.38,25.13-21.52c1.74-1.48,3.58-3.02,5.64-3.87c1.21-0.5,3.48-0.19,4.28,0.68c0.78,0.84,0.89,3.29,0.22,4.31
				c-1.62,2.46-3.73,4.64-5.88,6.66c-6.02,5.66-12.21,11.14-18.25,16.79c-2.34,2.19-4.45,4.65-6.8,7.13
				c0.43,0.08,0.98,0.26,1.54,0.26c6.99,0.01,13.99-0.05,20.98,0.02c1.89,0.02,3.99-0.02,5.6,0.78c1.38,0.68,2.88,2.4,3.11,3.86
				c0.36,2.25-1.45,3.83-3.66,4.02c-5.9,0.52-11.82,1.01-17.74,1.14c-15.32,0.36-30.64,0.5-45.96,0.8
				c-2.09,0.04-4.17,0.52-6.26,0.74c-3.52,0.38-6.31-1.98-6.41-5.4c-0.11-3.52,2.42-5.98,5.92-5.95c7.92,0.07,15.85,0.08,23.77,0.08
				c4.98,0,9.96-0.06,14.94-0.11C99.27,256.54,99.79,256.45,101.09,256.32z"/>
			<path class="st0" d="M183.28-45.1c4.09,0,8,0,12.65,0c0,7.2-0.09,14.31,0.02,21.42c0.23,14.58,0.71,29.16,0.82,43.73
				c0.09,11.57-0.27,23.15-2.69,34.52c-0.21,1.01-1.82,2.11-2.98,2.42c-1.79,0.48-2.86-0.9-3.15-2.58
				c-1.03-5.88-2.65-11.76-2.85-17.68c-0.89-27.02-1.37-54.06-1.99-81.09C183.11-44.53,183.19-44.71,183.28-45.1z"/>
			<path class="st0" d="M146.59,11.8c-0.4-11.68-0.87-23.35-1.16-35.03c-0.15-5.8,4.84-9.16,9.34-6.47
				c2.27,1.36,3.08,3.55,3.16,6.13c0.39,11.58,0.81,23.17,1.21,34.75c0.4,11.67,0.97,23.34,1.09,35.02c0.06,5.66-0.74,11.34-1.2,17
				c-0.07,0.85-0.15,1.9-0.66,2.48c-1.07,1.22-2.39,2.98-3.65,3.01c-1.22,0.03-3.23-1.61-3.59-2.89c-1.29-4.61-2.55-9.34-2.87-14.09
				c-0.87-13.28-1.27-26.59-1.85-39.89C146.47,11.8,146.53,11.8,146.59,11.8z"/>
			<path class="st0" d="M116.23,282.86c-11.96,0-23.91,0-35.87,0c-1.24,0-2.49-0.01-3.73-0.12c-3.53-0.3-6.06-2.86-6.11-6.09
				c-0.05-3.25,2.33-6.08,5.89-6.22c8.79-0.35,17.6-0.44,26.4-0.59c16.65-0.27,33.29-0.52,49.94-0.75c1.33-0.02,2.69,0,4,0.22
				c3.26,0.56,5.74,3.24,5.65,5.92c-0.12,3.38-2.71,6.19-6.27,6.32c-7.84,0.28-15.68,0.41-23.52,0.52
				c-5.46,0.08-10.91,0.01-16.37,0.01C116.23,282.34,116.23,282.6,116.23,282.86z"/>
			<path class="st0" d="M81.81-7.21c-7.35,0.34-14.71,0.68-22.06,1C58.7-6.16,57.63-6.13,56.6-6.3c-3.25-0.54-5.52-3.06-5.57-6.06
				c-0.05-2.94,2.17-5.74,5.44-6.11c5.13-0.57,10.29-0.85,15.45-1.1c20.54-0.99,41.08-1.93,61.62-2.87
				c0.86-0.04,1.73-0.05,2.58,0.06c3.94,0.5,6.47,2.91,6.49,6.12c0.02,3.23-2.73,6.05-6.63,6.34c-5.44,0.41-10.9,0.56-16.34,0.83
				c-12.61,0.63-25.22,1.26-37.82,1.89C81.81-7.2,81.81-7.2,81.81-7.21z"/>
			<path class="st0" d="M36.27-0.59c-0.17-2.99-0.38-5.97-0.5-8.96c-0.17-4.29,2.13-7.39,5.67-7.76c3.52-0.37,6.47,2.17,6.81,6.59
				c0.7,9.04,1.06,18.1,1.58,27.15c0.7,12.13,1.68,24.26,2.04,36.4c0.17,5.83-0.72,11.7-1.33,17.54c-0.24,2.3-1.32,4.46-4.03,4.52
				c-2.76,0.06-3.83-2.34-4.24-4.41c-1.25-6.22-2.59-12.48-3.03-18.79C38.01,34.29,37.22,16.84,36.27-0.59z"/>
			<path class="st0" d="M403.1-8.18c0-0.77-0.02-1.54,0-2.31c0.14-3.81,2.73-6.75,6.04-6.88c3.27-0.12,6.19,2.68,6.47,6.46
				c0.47,6.55,0.83,13.11,1.19,19.67c0.8,14.56,1.75,29.11,2.27,43.68c0.2,5.66-0.5,11.37-0.98,17.04
				c-0.12,1.37-0.74,2.83-1.52,3.98c-1.35,2-3.88,1.98-5.36,0.06c-0.75-0.97-1.52-2.12-1.74-3.29c-1.08-5.78-2.46-11.55-2.84-17.39
				c-1.34-20.33-2.3-40.68-3.41-61.03C403.16-8.18,403.13-8.18,403.1-8.18z"/>
			<path class="st0" d="M144.85,185.03c-0.72,1.1-1.73,3.07-3.15,4.69c-4.57,5.21-9.24,10.32-13.95,15.39
				c-9.61,10.37-19.14,20.8-28.94,30.98c-5.66,5.88-11.73,11.37-17.7,16.95c-2.6,2.43-5.85,2.45-8.01,0.3
				c-2.23-2.22-2.17-5.54,0.51-8.24c12.83-12.99,25.63-26.02,38.66-38.8c7.89-7.74,16.17-15.07,24.35-22.5
				c1.25-1.13,2.81-2.06,4.39-2.64C143.17,180.37,144.93,181.83,144.85,185.03z"/>
			<path class="st0" d="M289.03,167.99c-1.36-0.65-3.74-1.45-5.76-2.8c-17.93-11.96-35.8-24.02-53.68-36.06
				c-1.67-1.12-3.4-2.19-4.92-3.51c-3.14-2.71-3.65-6.35-1.47-9.21c2.03-2.67,5.68-3.08,9-0.8c19.6,13.47,39.33,26.77,57.77,41.86
				c1.52,1.25,2.99,2.77,3.94,4.48C295.64,165.04,293.61,168.04,289.03,167.99z"/>
			<path class="st0" d="M429.88,76.07c-2.36-0.16-4.23-1.14-5.08-3.52c-0.97-2.69-0.12-4.98,1.86-6.82c3.66-3.4,7.41-6.7,11.1-10.08
				c14.18-12.97,28.3-26.02,42.59-38.86c2.3-2.07,5.28-3.43,8.09-4.81c1.66-0.82,3.51-0.79,4.9,1.03c1.31,1.71,0.5,3.08-0.53,4.36
				c-3.19,3.94-6.08,8.2-9.73,11.65c-15.37,14.51-30.97,28.76-46.49,43.11C434.63,73.92,433.07,76.38,429.88,76.07z"/>
			<path class="st0" d="M62.37,76.79c-1.62-1.25-3.82-2.13-4.44-3.66c-0.68-1.67-0.63-4.49,0.38-5.83c2.22-2.95,5.2-5.33,7.94-7.86
				c14.53-13.42,29.07-26.84,43.66-40.18c2.18-2,4.62-3.75,7.1-5.37c1.49-0.98,3.23-1.72,4.97-2.13c3.25-0.78,5.26,1.19,3.82,4.12
				c-1.73,3.54-3.95,7.11-6.77,9.8c-14.31,13.65-28.89,27.01-43.36,40.48c-2.81,2.61-5.48,5.39-8.38,7.89
				C66.05,75.12,64.39,75.69,62.37,76.79z"/>
			<path class="st0" d="M280.78,39.54c8.71,0,17.43-0.04,26.14,0.02c3.57,0.02,5.77,1.63,5.76,3.96c-0.01,2.18-2.1,3.85-5.46,4.09
				c-18.14,1.29-36.27,2.63-54.42,3.75c-8.48,0.52-16.99,0.62-25.49,0.83c-3.09,0.08-6.01-2.83-6.07-5.83
				c-0.07-3.2,2.59-5.76,6.16-5.92c6.6-0.29,13.19-0.63,19.79-0.85c11.2-0.37,22.39-0.66,33.59-0.99
				C280.77,38.91,280.77,39.22,280.78,39.54z"/>
			<path class="st0" d="M306.48,174.19c-0.17-3.49,2.37-6.58,5.67-6.96c3.39-0.4,6.39,1.92,6.72,5.61c0.29,3.26,0.08,6.56,0.13,9.84
				c0.38,22.99,0.8,45.98,1.14,68.98c0.04,2.69-0.34,5.39-0.53,8.08c-0.16,2.11-1.31,3.81-3.32,3.52c-1.17-0.17-2.84-1.92-3.02-3.15
				c-1.01-7.16-1.84-14.35-2.36-21.57c-1.52-21.18-2.87-42.38-4.29-63.57C306.6,174.7,306.52,174.41,306.48,174.19z"/>
			<path class="st0" d="M493.78-21.88c0,4.15,0,8.16,0,12.42c-4.34,0.26-8.61,0.57-12.88,0.77c-17.98,0.85-35.97,1.75-53.96,2.39
				c-2.28,0.08-5.07-0.72-6.76-2.16c-1.23-1.04-1.58-3.87-1.33-5.76c0.32-2.43,2.38-4.02,4.87-4.25c5.34-0.5,10.69-0.86,16.04-1.12
				c16.26-0.8,32.52-1.54,48.78-2.28C490.24-21.94,491.94-21.88,493.78-21.88z"/>
			<path class="st0" d="M74.24-1.36c12.03-0.78,24.06-1.65,36.1-2.32c8.89-0.5,17.78-0.9,26.68-1.02c4.29-0.06,6.36,1.65,6.54,4.24
				c0.19,2.72-1.82,4.83-6.1,5.21c-12.39,1.1-24.81,1.87-37.21,2.83c-11.45,0.88-22.89,1.85-34.34,2.77
				c-1.15,0.09-2.29,0.26-3.44,0.29c-3.98,0.12-6.82-2.23-6.99-5.71c-0.16-3.44,2.82-6.45,6.65-6.54c4.02-0.09,8.05-0.02,12.07-0.02
				C74.23-1.54,74.24-1.45,74.24-1.36z"/>
			<path class="st0" d="M30.87,267.85c0,4.63,0.02,10.7-0.02,16.77c-0.01,0.94-0.04,2.13-0.58,2.77c-1.09,1.3-2.51,3.16-3.82,3.18
				c-1.31,0.02-3.42-1.68-3.83-3.04c-1.09-3.66-1.78-7.51-2.06-11.33c-1.47-19.73-2.76-39.48-4.1-59.22
				c-0.05-0.67-0.08-1.35-0.05-2.03c0.16-3.62,2.48-6.35,5.62-6.63c3.38-0.3,6.35,1.91,6.68,5.71c0.56,6.54,0.72,13.11,0.97,19.67
				C30.09,244.61,30.44,255.51,30.87,267.85z"/>
			<path class="st0" d="M397.05,232.56c0.51,17.88,0.97,33.03,1.34,48.19c0.05,2.1,0.1,4.41-0.68,6.27
				c-0.63,1.53-2.31,3.2-3.84,3.62c-2.02,0.55-3.7-1.16-4.04-3.23c-0.91-5.5-1.86-11.01-2.28-16.56c-1.38-18.19-2.53-36.4-3.77-54.6
				c-0.29-4.25,1.94-7.5,5.43-7.88c3.73-0.41,6.56,1.96,6.92,6.41C396.66,221.6,396.85,228.45,397.05,232.56z"/>
			<path class="st0" d="M233.65,206.42c0.25-3.47,1.59-5.41,4.2-6.35c2.61-0.94,5.34-0.01,7.32,2.59c2.05,2.67,4.07,5.36,5.94,8.16
				c5.14,7.66,10.14,15.42,15.31,23.06c6.14,9.08,12.44,18.04,18.55,27.14c1.09,1.63,1.88,3.61,2.25,5.54
				c0.21,1.09-0.37,2.91-1.21,3.47c-0.86,0.57-2.8,0.48-3.67-0.15c-2.07-1.5-4.03-3.29-5.61-5.31
				c-5.45-6.97-10.65-14.13-16.06-21.13c-6.64-8.58-13.42-17.06-20.1-25.61c-1.89-2.42-3.74-4.89-5.39-7.48
				C234.35,209.02,234.01,207.37,233.65,206.42z"/>
			<path class="st0" d="M242.05,193.3c-9.95,0-19.91-0.05-29.86,0.03c-3.14,0.02-6.28,0.48-9.43,0.56c-3.64,0.1-6.6-2.64-6.54-5.86
				c0.06-3.64,3.11-6.22,6.95-6.1c18.54,0.57,37.08,1.03,55.62,1.63c6.88,0.22,13.76,0.69,20.64,1.11c0.93,0.06,1.86,0.4,2.76,0.71
				c1.86,0.65,3.63,1.9,2.97,3.92c-0.46,1.42-2.17,3.17-3.55,3.41c-4.32,0.74-8.74,1.05-13.12,1.13
				c-8.81,0.16-17.62,0.05-26.43,0.05C242.05,193.69,242.05,193.5,242.05,193.3z"/>
			<path class="st0" d="M296.99,179.64c1.87,1.53,3.85,2.82,5.32,4.55c0.56,0.65,0.23,2.45-0.21,3.52c-0.94,2.3-3.51,3.12-5.78,2.2
				c-2.17-0.88-3.33-2.68-2.93-4.77c0.32-1.69,1.7-3.18,2.7-4.92c-11.68-0.33-23.13-0.56-34.58-0.99c-8.8-0.33-17.6-0.94-26.4-1.36
				c-2.96-0.14-5.94-0.03-8.9-0.12c-3.49-0.11-6.03-2.9-5.75-6.22c0.26-3.17,3.15-5.57,6.39-5.36c9.17,0.59,18.34,1.12,27.5,1.76
				c12.99,0.91,25.97,1.87,38.95,2.87c1.21,0.09,2.45,0.46,3.57,0.96c3.65,1.64,3.96,4.96,0.76,7.4
				C297.29,179.42,296.94,179.68,296.99,179.64z"/>
			<path class="st0" d="M131.06,41.26c-0.4-7.6-0.81-15.21-1.19-22.81c-0.2-3.99,2.53-7.42,5.95-7.58c3.7-0.17,6.6,2.95,6.63,7.18
				c0.13,17.86,0.39,35.72,0.31,53.58c-0.03,5.67-0.81,11.37-1.65,17c-0.2,1.32-2.01,2.39-3.08,3.58c-1.03-1.12-2.71-2.11-2.97-3.39
				c-1.11-5.57-2.13-11.2-2.58-16.86c-0.81-10.21-1.18-20.45-1.74-30.67C130.85,41.27,130.95,41.26,131.06,41.26z"/>
			<path class="st0" d="M493.93,193.36c0,4.19,0.07,7.95-0.05,11.71c-0.03,0.84-0.52,1.82-1.09,2.47
				c-13.66,15.68-28.16,30.53-43.4,44.65c-0.49,0.46-0.98,0.93-1.51,1.34c-2.46,1.92-5.53,1.78-7.56-0.31
				c-1.97-2.03-2.1-4.94,0.01-7.32c3.65-4.09,7.31-8.19,11.23-12.01c13.69-13.36,27.49-26.6,41.26-39.88
				C493,193.83,493.28,193.74,493.93,193.36z"/>
			<path class="st0" d="M218.46,59.47c-0.58,15.23-1.14,30.45-1.75,45.68c-0.07,1.63-0.25,3.29-0.67,4.86
				c-0.26,0.96-1.07,1.76-1.63,2.63c-0.64-0.81-1.71-1.56-1.84-2.44c-1.09-7.63-2.44-15.25-2.9-22.93
				c-1.02-17.05-1.55-34.12-2.34-51.18c-0.17-3.64-0.57-7.28-0.96-10.91c-0.4-3.64,2.12-7.05,5.42-7.2
				c3.65-0.16,6.15,2.51,6.14,6.45c-0.02,11.67-0.01,23.34-0.01,35.01C218.11,59.46,218.28,59.46,218.46,59.47z"/>
			<path class="st0" d="M322.05,151.32c-1.79-1.49-3.63-2.44-4.6-3.96c-1.26-1.97-0.9-4.27,0.68-6.19
				c10.95-13.38,21.9-26.74,32.83-40.13c5.95-7.29,11.86-14.62,17.8-21.91c2.58-3.17,5.12-4,7.01-2.42
				c1.94,1.63,1.69,4.01-0.91,7.42c-14.92,19.57-29.88,39.12-44.78,58.71c-1.15,1.52-1.8,3.46-3.07,4.85
				C325.81,149,324.09,149.86,322.05,151.32z"/>
			<path class="st0" d="M493.85-4.56c0,3.6,0,6.86,0,10.51c-4.48,0.33-8.92,0.68-13.36,0.97c-12.5,0.81-25,1.54-37.5,2.4
				c-4.2,0.29-8.37,1.05-12.56,1.21c-1.78,0.07-3.87-0.43-5.32-1.41c-2.11-1.43-2.88-3.84-1.98-6.43c0.91-2.62,3.61-4.25,6.88-4.29
				c6.89-0.09,13.79,0.05,20.67-0.31c13.75-0.73,27.49-1.74,41.23-2.63C492.46-4.59,493.02-4.56,493.85-4.56z"/>
			<path class="st0" d="M88.15,206.67c1.55-2.14,2.43-4.01,3.87-5.22c7.26-6.12,14.55-12.21,22.04-18.03
				c7.5-5.83,15.24-11.35,22.91-16.96c0.99-0.73,2.15-1.26,3.29-1.73c2.03-0.83,4.42-0.84,5.35,1.17c0.71,1.53,0.64,4.14-0.23,5.55
				c-1.43,2.31-3.63,4.23-5.77,5.97c-10.44,8.45-20.97,16.78-31.45,25.18c-3.07,2.46-6.05,5.02-9.07,7.54
				c-1.98,1.65-4.32,2.65-6.6,1.27C90.87,210.43,89.8,208.53,88.15,206.67z"/>
			<path class="st0" d="M34.24,28.85c0.84,12.48,1.69,24.82,2.49,37.16c0.68,10.5,1.31,21,1.88,31.51c0.08,1.52-0.09,3.15-0.6,4.56
				c-0.33,0.91-1.4,1.95-2.29,2.13c-0.67,0.13-1.93-0.84-2.32-1.63c-0.72-1.43-1.22-3.06-1.41-4.65
				c-2.51-21.28-4.94-42.56-7.44-63.84c-0.29-2.48-0.73-4.97-1.34-7.38c-0.69-2.7-0.28-5.04,1.86-6.8c1.84-1.5,3.97-1.79,6.19-0.63
				c2.56,1.33,3.36,3.53,3.17,6.26C34.35,26.67,34.3,27.83,34.24,28.85z"/>
			<path class="st0" d="M401.43,25.44c0.62,9.72,1.26,19.45,1.86,29.17c0.88,14.07,1.77,28.15,2.58,42.22
				c0.09,1.61-0.06,3.33-0.54,4.86c-0.32,1.01-1.35,2.39-2.18,2.47c-0.81,0.08-2.34-1.14-2.55-2.02c-1.07-4.68-2.07-9.41-2.63-14.18
				c-2.08-17.73-3.95-35.48-5.98-53.21c-0.32-2.77-0.97-5.5-1.52-8.23c-0.54-2.66-0.37-5.35,2.12-6.64
				c1.64-0.85,4.06-1.05,5.84-0.53C401.12,20.13,401.97,22.66,401.43,25.44z"/>
			<path class="st0" d="M376.78,160.18c-14.85-1.02-29.6,1.03-44.39,1.64c-10.04,0.42-20.08,0.74-30.13,1.04
				c-3.19,0.1-5.08-1.41-5.09-3.81c-0.01-2.31,1.89-3.81,5.03-4.01c22.06-1.38,44.12-2.73,66.18-4.17c2.37-0.15,4.74-0.62,7.04-1.23
				c2.28-0.6,4.2-0.22,5.74,1.48c1.55,1.71,1.88,3.81,0.93,5.93C381.09,159.33,379.18,160.27,376.78,160.18z"/>
			<path class="st0" d="M294.34,239.48c0-9.27,0.09-18.54-0.04-27.81c-0.05-3.46-0.65-6.91-0.91-10.37c-0.1-1.33-0.15-2.73,0.18-4
				c0.55-2.15,1.98-3.52,4.35-3.44c2.25,0.08,3.56,1.48,3.9,3.56c0.32,1.98,0.27,4.02,0.34,6.03c0.39,11.57,0.75,23.14,1.17,34.71
				c0.39,10.61,0.86,21.23,1.24,31.84c0.04,1.23-0.19,2.5-0.48,3.71c-0.53,2.22-2,3.63-4.27,3.58c-2.25-0.05-3.91-1.52-4.2-3.7
				c-0.54-4.01-0.89-8.06-0.97-12.1c-0.15-7.34-0.04-14.68-0.04-22.02C294.53,239.48,294.44,239.48,294.34,239.48z"/>
			<path class="st0" d="M117.73,129.66c-3.92-4.36-3.08-9.1-3.47-13.53c-0.44-5-0.57-10.02-0.85-15.03
				c-0.18-3.12,1.85-5.68,4.48-5.61c3.09,0.07,4.73,2.3,4.62,5.7c-0.21,6.28-0.08,12.57-0.35,18.84c-0.13,2.96-0.88,5.89-1.35,8.84
				c-0.3,0.03-0.6,0.06-0.9,0.09c0.52,0.34,1.02,0.7,1.55,1c2.62,1.51,3.7,3.94,2.88,6.55c-0.88,2.82-3.26,4.54-6.2,3.96
				c-12.25-2.44-24.61-0.9-36.92-1.2c-3.06-0.08-6.11-0.28-9.16-0.53c-2.01-0.16-3.95-1.26-3.5-3.32c0.3-1.37,2.22-3.16,3.62-3.36
				c4.24-0.62,8.57-0.64,12.87-0.74c8.62-0.2,17.25-0.24,25.87-0.49C113.01,130.78,115.08,130.13,117.73,129.66z"/>
			<path class="st0" d="M484.27,130.04c-0.94-3.05-2.02-5.22-2.21-7.46c-0.61-7.3-0.94-14.63-1.29-21.95
				c-0.14-3.06,1.9-5.23,4.59-5.13c2.78,0.1,4.59,2.22,4.51,5.23c-0.18,6.85-0.22,13.7-0.55,20.54c-0.11,2.22-1.03,4.39-1.39,6.61
				c-0.1,0.62,0.29,1.6,0.78,1.99c3,2.36,3.97,4.78,2.75,7.36c-1.36,2.89-3.82,3.34-7.53,2.99c-7.4-0.7-14.85-0.86-22.28-1.08
				c-7.25-0.21-14.51-0.16-21.77-0.36c-2.11-0.06-4.22-0.86-4.02-3.5c0.2-2.63,2.4-3.37,4.59-3.43c11.27-0.32,22.55-0.47,33.82-0.82
				C477.75,130.92,481.2,130.36,484.27,130.04z"/>
			<path class="st0" d="M330.69,7.02c19.43-0.98,39.22-1.98,59.01-2.95c2-0.1,4.02-0.06,6.03,0.05c2.22,0.12,4.5,0.73,4.72,3.31
				c0.22,2.69-1.83,3.84-4.22,4.2c-2.83,0.43-5.67,0.91-8.53,1.08c-17.96,1.09-35.93,2.07-53.89,3.17
				c-3.04,0.19-6.05,0.85-9.09,1.17c-2.29,0.24-4.49-0.59-5.16-2.77c-0.49-1.61-0.18-3.84,0.61-5.34c0.55-1.04,2.47-1.65,3.87-1.85
				C326.1,6.8,328.24,7.02,330.69,7.02z"/>
			<path class="st0" d="M14.02,138.93c0-11.39,0.02-22.78-0.01-34.17c-0.03-12.64-0.1-25.29-0.16-37.93
				c-0.02-3.34,1.77-5.42,4.66-5.38c2.8,0.03,4.79,2.33,4.73,5.42c-0.25,12.82-0.53,25.64-0.72,38.47
				c-0.17,11.58-0.23,23.16-0.38,34.73c-0.02,1.34,0.1,2.93-0.56,3.94c-0.82,1.27-2.24,2.58-3.64,2.95
				c-1.88,0.49-3.26-0.96-3.68-2.85c-0.37-1.69-0.42-3.44-0.61-5.16C13.78,138.94,13.9,138.94,14.02,138.93z"/>
			<path class="st0" d="M381.16,104.2c0-12.35,0-24.7,0-37.05c0-3.61,1.73-5.72,4.67-5.68c2.98,0.04,4.69,2.19,4.62,5.68
				c-0.25,13.79-0.52,27.59-0.7,41.38c-0.13,9.84-0.11,19.67-0.2,29.51c-0.02,1.73-0.2,3.47-0.37,5.19
				c-0.22,2.17-1.29,3.64-3.58,3.81c-2.46,0.18-3.8-1.28-4.13-3.53c-0.3-2.09-0.32-4.23-0.32-6.35
				c-0.03-10.99-0.01-21.99-0.01-32.98C381.14,104.2,381.15,104.2,381.16,104.2z"/>
			<path class="st0" d="M83.18,195.04c0,10.23,0.02,20.47-0.03,30.7c-0.01,1.52-0.07,3.18-0.66,4.52c-0.46,1.05-1.79,2.39-2.73,2.39
				c-1.12,0-2.92-1.08-3.23-2.08c-0.8-2.53-1.19-5.26-1.29-7.92c-0.7-18.14-1.27-36.28-1.9-54.42c-0.06-1.73-0.26-3.46-0.41-5.18
				c-0.29-3.43,2.2-6.39,5.46-6.5c3-0.1,5.56,2.5,5.57,5.76c0.02,10.91,0.01,21.83,0.01,32.74
				C83.7,195.04,83.44,195.04,83.18,195.04z"/>
			<path class="st0" d="M450.65,194c0,10.24,0.02,20.48-0.02,30.71c-0.01,1.54-0.25,3.08-0.45,4.6c-0.27,2.07-1.37,3.49-3.53,3.47
				c-2.27-0.02-3.12-1.8-3.32-3.71c-0.5-4.8-1-9.61-1.17-14.43c-0.54-15.82-0.92-31.65-1.39-47.47c-0.05-1.64-0.41-3.27-0.38-4.91
				c0.06-3.4,2.5-5.85,5.55-5.77c3.04,0.08,5.36,2.68,5.36,6c0,10.5,0,21,0,31.5C451.09,194,450.87,194,450.65,194z"/>
			<path class="st0" d="M493.79,269.58c0,4.19,0,8.2,0,12.88c-6.75,0-13.41-0.05-20.06,0.01c-8.89,0.08-17.78,0.26-26.68,0.38
				c-1.05,0.01-2.11,0-3.15-0.11c-3.6-0.36-5.97-2.83-5.99-6.17c-0.02-3.24,2.14-5.87,5.65-6.15c4.76-0.37,9.55-0.35,14.33-0.45
				c11-0.22,22-0.41,32.99-0.59C491.81,269.38,492.75,269.51,493.79,269.58z"/>
			<path class="st0" d="M283.62,67.26c4.48,0.24,9.24,0.43,14,0.77c2.23,0.16,3.85,1.37,4.07,3.72c0.23,2.37-1.19,4.03-3.31,4.43
				c-6.63,1.25-13.28,2.58-19.99,3.23c-11.41,1.1-22.86,1.68-34.3,2.51c-3.63,0.26-6.39-1.83-6.7-5.18c-0.28-3,1.81-5.55,5.08-5.85
				C256.07,69.64,269.69,68.48,283.62,67.26z"/>
			<path class="st0" d="M178.75,56.59c0,11.29,0.02,22.58-0.02,33.86c-0.01,1.43-0.05,3-0.6,4.26c-0.49,1.11-1.72,1.88-2.62,2.8
				c-0.9-0.95-2.41-1.81-2.59-2.88c-0.94-5.9-1.84-11.83-2.23-17.78c-0.93-14.55-1.56-29.12-2.35-43.69
				c-0.14-2.6-0.52-5.19-0.63-7.79c-0.16-3.73,1.85-6.19,4.89-6.21c3.16-0.02,5.42,2.46,5.48,6.17c0.1,6.37,0.14,12.74,0.18,19.1
				c0.03,4.05,0,8.1,0,12.15C178.43,56.59,178.59,56.59,178.75,56.59z"/>
			<path class="st0" d="M171.03,140.71c-0.61-6.69-1.22-13.37-1.85-20.05c-0.07-0.77-0.34-1.51-0.41-2.28
				c-0.22-2.58,1.37-4.56,3.64-4.61c2.4-0.05,3.98,1.64,3.98,4.27c0,8.09-0.04,16.18,0.01,24.27c0.01,1.97-0.07,3.76-2.38,4.29
				c-2.23,0.51-2.67-1.26-3.3-2.78c-0.06-0.14-0.3-0.2-0.64-0.4c-1.75,4.48-5.74,5.07-9.66,5.11c-8.32,0.08-16.64-0.16-24.96-0.37
				c-3.34-0.08-5.56-2.53-5.55-5.78c0.01-2.96,2.4-5.39,5.53-5.48c7.93-0.23,15.86-0.46,23.79-0.62c4.28-0.09,8.46,0.2,10.83,4.82
				C170.4,140.98,170.72,140.84,171.03,140.71z"/>
			<path class="st0" d="M210.82,237.7c-0.53,9.74-1.03,19.48-1.62,29.21c-0.29,4.84-1.58,6.88-4.11,7.01
				c-2.3,0.12-3.82-1.85-4.15-6.59c-0.74-10.39-1.25-20.8-1.77-31.2c-0.28-5.5-0.55-11-0.56-16.5c0-5.52,4.7-8.79,9.03-6.44
				c3.14,1.71,3.58,4.82,3.61,7.99c0.05,5.5,0.01,11.01,0.01,16.51C211.1,237.69,210.96,237.69,210.82,237.7z"/>
			<path class="st0" d="M220.44,138.25c1.14-1.62,1.99-3.62,3.49-4.77c2.27-1.74,4.96-1.26,7.23,0.38c4.35,3.15,8.63,6.39,12.9,9.64
				c5.26,4,10.58,7.94,15.69,12.14c1.8,1.48,3.38,3.49,4.42,5.58c0.6,1.2,0.45,3.49-0.35,4.47c-0.81,0.98-3.17,1.7-4.27,1.21
				c-4.59-2.03-9.18-4.22-13.37-6.98c-7.27-4.8-14.23-10.07-21.33-15.12C222.73,143.28,221.07,141.53,220.44,138.25z"/>
			<path class="st0" d="M62.7,54.16c-3.48-0.15-5.22-1.39-6.18-3.81c-1.01-2.57-0.42-4.84,1.5-6.6
				c10.2-9.33,20.43-18.62,30.73-27.83c1.55-1.39,3.38-2.7,5.31-3.32c1.28-0.41,3.5-0.02,4.34,0.9c0.83,0.91,1.12,3.38,0.46,4.39
				c-2.13,3.28-4.57,6.43-7.31,9.21c-6.75,6.84-13.75,13.43-20.62,20.15c-1.51,1.47-2.78,3.21-4.39,4.56
				C65.22,52.93,63.56,53.66,62.7,54.16z"/>
			<path class="st0" d="M430.2,54.14c-3.62,0-5.33-1.37-6.32-3.7c-1.07-2.52-0.48-4.91,1.41-6.65c10.11-9.29,20.3-18.48,30.51-27.66
				c1.35-1.21,2.89-2.24,4.46-3.16c1.87-1.09,3.95-1.3,5.58,0.35c1.57,1.6,1.25,3.7,0.15,5.37c-1.42,2.15-3.07,4.22-4.89,6.04
				c-7.68,7.68-15.46,15.26-23.19,22.89c-1.3,1.28-2.4,2.78-3.79,3.94C432.71,52.73,431.05,53.59,430.2,54.14z"/>
			<path class="st0" d="M272.33,113.8c0-8.1-0.12-16.2,0.05-24.3c0.09-4.5,1.62-6.55,4.15-6.53c2.42,0.02,4.18,2.26,4.43,6.5
				c0.7,11.46,1.22,22.93,1.79,34.4c0.23,4.72,0.47,9.45,0.58,14.17c0.1,3.96-2.15,6.42-5.49,6.24c-3.02-0.17-4.92-2.16-4.95-5.59
				c-0.08-8.3-0.02-16.6-0.02-24.9C272.68,113.8,272.5,113.8,272.33,113.8z"/>
			<path class="st0" d="M338.42,20.53c8.6-0.51,17.2-1.12,25.8-1.51c6.12-0.28,12.25-0.38,18.38-0.32c3.91,0.04,6.13,1.77,6.21,4.25
				c0.09,2.5-1.91,4.37-5.85,4.82c-6.46,0.74-12.95,1.34-19.44,1.76c-8.98,0.58-17.97,0.94-26.96,1.38
				c-3.2,0.15-5.64-2.03-5.81-5.13c-0.14-2.66,2.39-5.2,5.37-5.35c0.76-0.04,1.53-0.01,2.3-0.01
				C338.42,20.46,338.42,20.5,338.42,20.53z"/>
			<path class="st0" d="M318.03,109.68c-4.63,0.09-6.91-4.03-4.87-7.52c2.03-3.48,4.34-6.8,6.67-10.09
				c7.34-10.35,14.71-20.67,22.15-30.95c1.11-1.53,2.49-3,4.04-4.04c1.02-0.68,2.59-0.55,3.91-0.78c0.17,1.27,0.81,2.7,0.43,3.77
				c-0.95,2.7-2.07,5.42-3.61,7.82c-8.33,13.04-16.76,26.01-25.29,38.92C320.55,108.21,318.8,109.05,318.03,109.68z"/>
			<path class="st0" d="M203.17-45.07c3.86,0,7.27,0,10.89,0c0.07,0.78,0.17,1.51,0.18,2.25c0.23,12.75,0.52,25.5,0.62,38.25
				c0.02,2.97-0.56,5.95-0.91,8.91c-0.26,2.25-1.4,3.93-3.74,4.1c-2.51,0.18-3.59-1.77-3.96-3.82c-0.73-4.08-1.47-8.19-1.67-12.32
				C203.98-20.04,203.63-32.4,203.17-45.07z"/>
			<path class="st0" d="M353.65,231.58c-2.18,2.83-3.84,5.14-5.66,7.3c-1.98,2.36-4.05,4.63-6.17,6.86
				c-2.36,2.49-5.47,2.94-7.4,1.18c-2.16-1.97-2.21-4.65-0.02-7.49c2.94-3.8,5.85-7.64,8.97-11.29c3.62-4.26,6.19-4.25,10.43,0.31
				c-0.3-3.84-0.54-7.04-0.8-10.24c-0.2-2.48,0.72-4.67,2.93-5.43c1.58-0.54,3.83-0.33,5.31,0.46c1.15,0.62,2.16,2.6,2.22,4.02
				c0.26,6.24,0.2,12.51,0.13,18.76c-0.02,1.62-0.18,3.41-0.9,4.79c-0.66,1.26-2.12,2.8-3.31,2.87c-1.21,0.07-3.13-1.23-3.63-2.41
				c-0.96-2.24-1.13-4.82-1.63-7.25C354,233.46,353.9,232.91,353.65,231.58z"/>
			<path class="st0" d="M203.19,149.16c0-8.41-0.02-16.81,0.01-25.22c0.01-3.55,2.16-5.84,5.14-5.59c3.02,0.26,4.63,2.75,4.48,6.23
				c-0.37,8.88-0.74,17.76-0.78,26.64c-0.03,7.32,0.42,14.64,0.63,21.96c0.03,1.16,0.09,2.34-0.09,3.47
				c-0.35,2.11-1.59,3.56-3.75,3.8c-2.17,0.23-3.79-0.9-4.36-2.98c-0.48-1.74-0.65-3.61-0.67-5.42c-0.07-7.63-0.03-15.26-0.03-22.9
				C203.58,149.16,203.38,149.16,203.19,149.16z"/>
			<path class="st0" d="M493.92,173.7c0,5.1,0.09,9.5-0.08,13.89c-0.03,0.83-0.94,1.82-1.69,2.4c-5.78,4.44-11.65,8.74-17.42,13.19
				c-2.96,2.28-5.74,4.79-8.61,7.19c-2.71,2.27-6.56,2.07-8.52-0.43c-1.84-2.35-1.23-6.26,1.29-8.31
				c7.36-5.99,14.69-12.02,22.09-17.95C485.06,180.41,489.26,177.29,493.92,173.7z"/>
			<path class="st0" d="M259.55-45.08c3.44,0,6.67,0,10.57,0c0,3.65-0.07,7.28,0.01,10.9c0.22,9.06,0.73,18.12,0.67,27.18
				c-0.03,3.97-1.02,7.98-1.91,11.89c-0.23,1.02-1.71,2.38-2.68,2.43c-0.93,0.05-2.52-1.22-2.81-2.2c-1.19-4.14-2.59-8.35-2.84-12.6
				c-0.68-11.63-0.83-23.3-1.17-34.95C259.38-43.21,259.49-43.97,259.55-45.08z"/>
			<path class="st0" d="M190.44,95.24c0-7.02,0.05-14.04-0.03-21.05c-0.03-2.51,1.85-5.24,4.1-5.54c2.34-0.31,5.02,2.04,5.12,4.74
				c0.51,13.18,0.97,26.36,1.37,39.54c0.05,1.72-0.22,3.47-0.56,5.16c-0.46,2.32-1.55,4.21-4.25,4.28
				c-2.55,0.07-3.86-1.57-4.32-3.82c-0.55-2.73-1.04-5.51-1.14-8.28c-0.18-5-0.05-10.02-0.05-15.03
				C190.61,95.24,190.53,95.24,190.44,95.24z"/>
			<path class="st0" d="M267.08,108.39c0,5.49,0,10.99,0,16.48c0,0.77,0.02,1.55-0.08,2.31c-0.45,3.44-2.61,5.54-5.55,5.42
				c-2.93-0.12-5.05-2.43-5.11-5.86c-0.07-3.95,0.02-7.91,0.07-11.86c0.11-8.57,0.23-17.14,0.36-25.71c0.01-0.67,0.11-1.35,0.3-2
				c0.62-2.16,1.95-3.54,4.3-3.56c2.29-0.01,3.42,1.58,4.07,3.47c0.43,1.25,0.63,2.64,0.64,3.97c0.07,5.78,0.03,11.56,0.03,17.34
				C266.43,108.39,266.75,108.39,267.08,108.39z"/>
			<path class="st0" d="M166.56-45.09c4.02,0,8.01,0,12.71,0c0,7.13,0.15,14.23-0.05,21.32c-0.13,4.59-0.58,9.2-1.26,13.75
				c-0.36,2.43-1.71,4.74-4.59,4.79c-2.96,0.05-4.61-2.11-4.99-4.73c-0.81-5.69-1.48-11.43-1.76-17.17
				C166.34-33,166.56-38.9,166.56-45.09z"/>
			<path class="st0" d="M68.15,229.32c0,6.37,0.03,12.74-0.02,19.1c-0.01,1.23-0.16,2.53-0.56,3.69c-0.67,1.92-2.28,3.25-4.19,2.66
				c-1.41-0.44-2.88-1.8-3.59-3.15c-0.71-1.35-0.61-3.19-0.68-4.82c-0.44-10.32-0.8-20.64-1.25-30.96c-0.07-1.72-0.5-3.43-0.66-5.16
				c-0.38-3.94,1.83-6.86,5.18-6.93c3.22-0.07,5.47,2.63,5.41,6.45c-0.05,3.19-0.11,6.37-0.13,9.56c-0.02,3.19,0,6.37,0,9.56
				C67.81,229.32,67.98,229.32,68.15,229.32z"/>
			<path class="st0" d="M225.29,77.49c-0.67-4.84-1.24-9.69-2.03-14.51c-0.42-2.57,0.34-4.54,2.21-6.16
				c1.94-1.69,4.16-1.45,6.19-0.41c2.16,1.1,3.25,3.26,2.82,5.58c-2.48,13.31,0.35,26.76-1.2,40.09c-0.21,1.82-0.31,3.65-0.47,5.48
				c-0.17,1.88-1.15,3.17-3.05,3.19c-1.94,0.02-2.86-1.34-3.05-3.18c-0.35-3.36-0.73-6.71-0.97-10.08
				c-0.46-6.63-0.84-13.27-1.25-19.9C224.76,77.56,225.03,77.52,225.29,77.49z"/>
			<path class="st0" d="M426.39,231.95c-0.66-7.17-1.32-14.35-2-21.52c-0.32-3.36,1.9-6.36,4.95-6.67c2.94-0.29,5.82,2.22,5.84,5.43
				c0.1,13.59,0.13,27.18,0.07,40.76c-0.01,1.24-0.56,2.7-1.34,3.66c-1.91,2.34-5.86,1.58-6.6-1.51c-0.85-3.51-0.98-7.22-1.19-10.86
				c-0.18-3.08-0.04-6.17-0.04-9.26C426.18,231.98,426.29,231.97,426.39,231.95z"/>
			<path class="st0" d="M221.22,15.98c-1.43-1.3-3-2.24-3.85-3.62c-1.28-2.1-0.25-4.14,1.29-5.75c7.02-7.36,14.08-14.68,21.15-22
				c2.2-2.28,4.41-4.56,6.73-6.71c0.96-0.9,2.14-1.84,3.37-2.1c1.35-0.3,3.41-0.37,4.15,0.42c0.88,0.94,1.34,3.23,0.8,4.36
				c-1.18,2.47-2.91,4.76-4.78,6.79c-8.09,8.75-16.28,17.4-24.52,26C224.57,14.38,223.05,14.89,221.22,15.98z"/>
			<path class="st0" d="M326.87,234.57c-2.52-0.3-4.05-1.55-4.85-3.58c-0.86-2.2-0.22-4.23,1.54-5.75
				c5.88-5.06,11.74-10.15,17.73-15.08c3.84-3.16,7.87-6.11,11.86-9.08c0.82-0.61,1.83-1.11,2.83-1.32c3.13-0.67,5.33,1.9,4.1,4.88
				c-0.57,1.37-1.53,2.72-2.62,3.72c-8.94,8.13-17.93,16.2-26.96,24.22C329.49,233.48,328.09,233.92,326.87,234.57z"/>
			<path class="st0" d="M328.97-45.11c3.83,0,6.97,0,10.44,0c0.21,2.6,0.48,5.16,0.63,7.72c0.67,11.27,1.31,22.55,1.95,33.82
				c0.04,0.77,0.04,1.55,0,2.32c-0.14,2.81-1.53,4.43-3.9,4.4c-2.58-0.04-3.75-1.75-4.03-4.06c-1.01-8.23-1.94-16.47-2.89-24.7
				C330.44-32.01,329.73-38.41,328.97-45.11z"/>
			<path class="st0" d="M441.07,101.46c-0.49-7.54-0.96-14.84-1.45-22.14c-0.22-3.27,1.88-5.87,4.84-5.96
				c3.28-0.1,5.55,2.63,5.36,6.38c-0.3,5.96-0.64,11.92-0.84,17.88c-0.27,8.38-0.43,16.77-0.63,25.15
				c-0.01,0.48,0.02,0.98-0.08,1.44c-0.38,1.85-1.32,3.66-3.29,3.24c-1.22-0.26-2.75-1.87-3.05-3.14c-0.66-2.78-0.76-5.72-0.83-8.61
				C440.99,110.88,441.07,106.06,441.07,101.46z"/>
			<path class="st0" d="M73.89,102.83c-0.56-7.78-1.1-15.57-1.67-23.35c-0.25-3.33,2.03-6.16,5.03-6.15c3.03,0,5.36,2.67,5.26,5.96
				c-0.35,12.23-0.68,24.46-1.05,36.7c-0.07,2.41-0.3,4.82-0.43,7.23c-0.12,2.23-0.89,4.28-3.3,4.33c-2.43,0.06-3.26-1.94-3.37-4.2
				c-0.33-6.83-0.69-13.66-1.03-20.49C73.53,102.85,73.71,102.84,73.89,102.83z"/>
			<path class="st0" d="M343.9,275.24c-6.28,0.32-12.56,0.65-18.84,0.97c-3.07,0.16-5.39-1.77-5.49-4.6
				c-0.11-2.94,2.23-5.18,5.27-5.23c10.19-0.17,20.38-0.4,30.58-0.6c1.62-0.03,3.25-0.1,4.87,0.02c3.33,0.25,5.18,1.89,5.32,4.54
				c0.14,2.86-1.52,4.83-5.05,5.1c-4.18,0.32-8.4,0.16-12.61,0.2c-1.34,0.01-2.68,0-4.02,0
				C343.92,275.51,343.91,275.38,343.9,275.24z"/>
			<path class="st0" d="M314.11-45.2c-3.1,6.35-6.01,12.29-8.9,18.23c-3.53,7.26-7.06,14.52-10.56,21.79
				c-1.65,3.44-4.94,4.89-7.68,3.32c-2.97-1.7-3.41-5.19-1.39-8.53c6.34-10.43,12.69-20.87,18.78-31.44c1.42-2.47,2.77-3.91,5.7-3.4
				C311.25-45.03,312.48-45.2,314.11-45.2z"/>
			<path class="st0" d="M328.28,34.91c10.88-0.53,21.76-1.1,32.64-1.55c2.85-0.12,5.75-0.06,8.56,0.34
				c1.07,0.15,2.83,1.56,2.76,2.25c-0.11,1.14-1.24,2.52-2.31,3.13c-1.26,0.72-2.91,0.89-4.41,1c-12.58,0.97-25.16,1.86-37.74,2.83
				c-1.51,0.12-3,0.6-4.51,0.82c-3.34,0.48-5.69-1.23-5.94-4.26c-0.22-2.7,2.02-4.85,5.23-4.84c1.9,0.01,3.8,0.28,5.7,0.43
				C328.28,35.01,328.28,34.96,328.28,34.91z"/>
			<path class="st0" d="M293.57,25.13c4.49,0,8.98-0.04,13.47,0.03c1.13,0.02,2.46,0.06,3.32,0.66c1.07,0.75,2.38,2.05,2.41,3.15
				c0.03,1.1-1.17,2.76-2.24,3.23c-1.88,0.82-4.05,1.13-6.12,1.27c-11.65,0.82-23.3,1.53-34.95,2.25c-2.4,0.15-4.49-1.55-4.72-3.71
				c-0.27-2.51,1.45-4.63,4.2-4.9c4.1-0.39,8.21-0.65,12.32-0.92c4.1-0.27,8.21-0.47,12.32-0.7
				C293.57,25.37,293.57,25.25,293.57,25.13z"/>
			<path class="st0" d="M280.37,226.15c-0.71-7.08-1.42-14.16-2.13-21.25c-0.23-2.31-0.17-4.77,2.17-5.79
				c1.46-0.63,3.64-0.73,5.04-0.07c2.15,1,2.39,3.32,2.36,5.73c-0.09,8.86,0.05,17.72,0.1,26.58c0.02,4.44,0.06,8.88,0,13.32
				c-0.03,2.29-0.72,4.36-3.4,4.52c-2.57,0.15-3.52-1.8-3.69-3.95c-0.5-6.33-0.83-12.68-1.23-19.02
				C279.86,226.2,280.12,226.17,280.37,226.15z"/>
			<path class="st0" d="M465.86,103.63c-0.38,7.02-0.76,14.04-1.17,21.06c-0.05,0.85-0.08,1.89-0.56,2.49
				c-0.71,0.9-1.8,2.05-2.73,2.04c-0.9,0-2.36-1.18-2.59-2.09c-0.64-2.5-0.98-5.12-1.04-7.71c-0.26-11.3-0.4-22.6-0.54-33.9
				c-0.04-2.91,1.94-4.97,4.53-4.91c2.39,0.05,4.42,2.25,4.42,4.78c0,6.08,0,12.15,0,18.23
				C466.08,103.62,465.97,103.63,465.86,103.63z"/>
			<path class="st0" d="M89.97,104.07c0-6.17-0.01-12.35,0-18.52c0.01-2.9,1.65-4.81,4.16-4.91c2.65-0.1,4.65,1.81,4.57,4.8
				c-0.34,12.82-0.73,25.63-1.25,38.45c-0.09,2.28-0.12,5.47-3.42,5.38c-3.21-0.09-3.21-3.21-3.26-5.55
				c-0.14-6.54-0.05-13.09-0.05-19.64C90.47,104.07,90.22,104.07,89.97,104.07z"/>
			<path class="st0" d="M138.23,230.13c-0.53-7-1.05-14-1.61-20.99c-0.19-2.39,0.39-4.44,2.47-5.77c1.98-1.27,4.03-1.07,5.94,0.21
				c1.97,1.31,2.46,3.31,2.3,5.57c-0.7,10.08-1.38,20.15-2.06,30.23c-0.12,1.83-0.14,3.66-0.34,5.48c-0.39,3.45-1.64,5-3.85,4.69
				c-2.8-0.39-3.33-2.49-3.32-4.91c0.02-4.82,0.01-9.65,0.01-14.47C137.92,230.16,138.08,230.15,138.23,230.13z"/>
			<path class="st0" d="M316.8-45.09c2.98,0,5.54,0,8.17,0c0.13,0.43,0.33,0.79,0.33,1.14c0.2,13.9,0.41,27.79,0.55,41.69
				c0.02,2.5,0.12,5.34-3.09,6.07c-2.02,0.46-3.49-1.83-3.71-5.88c-0.67-12.23-1.23-24.47-1.84-36.71
				C317.11-40.78,316.95-42.79,316.8-45.09z"/>
			<path class="st0" d="M40.98,116.76c0-7.98,0.06-15.97-0.03-23.95c-0.03-3.36,1.88-5.78,4.94-5.81c2.87-0.03,5.05,2.32,4.95,5.54
				c-0.16,5.19-0.5,10.38-0.62,15.58c-0.09,4.04,0.08,8.09,0.04,12.13c-0.01,1.43-0.2,2.88-0.44,4.3c-0.37,2.18-1.43,3.86-3.87,3.91
				c-2.56,0.05-3.83-1.67-4.18-3.93c-0.4-2.55-0.46-5.16-0.67-7.75C41.07,116.77,41.03,116.76,40.98,116.76z"/>
			<path class="st0" d="M252.48,271.76c-4.48,0-8.95-0.04-13.43,0.01c-3.51,0.04-6.23-2.44-6.17-5.76c0.06-3.3,2.92-5.74,6.39-5.51
				c7.24,0.46,14.48,0.83,21.71,1.36c1.88,0.14,3.94,0.34,5.53,1.21c1.4,0.77,3.1,2.51,3.12,3.85c0.02,1.34-1.62,3.45-2.97,3.92
				c-2.45,0.85-5.23,0.8-7.88,0.97c-2.09,0.13-4.2,0.03-6.31,0.03C252.48,271.8,252.48,271.78,252.48,271.76z"/>
			<path class="st0" d="M409.02,109.75c-0.23-5.39-0.42-10.78-0.72-16.16c-0.22-4.01,1.68-6.59,5.01-6.55
				c3.23,0.03,4.88,2.44,4.77,6.47c-0.24,8.75-0.32,17.5-0.54,26.25c-0.05,1.91,0.04,4-0.71,5.66c-0.59,1.31-2.35,2.84-3.61,2.85
				c-1.26,0.02-3.28-1.49-3.67-2.74c-0.75-2.4-0.67-5.09-0.77-7.67c-0.11-2.69-0.02-5.4-0.02-8.1
				C408.85,109.76,408.94,109.76,409.02,109.75z"/>
			<path class="st0" d="M89.33,169.73c-0.4-5.57-0.78-11.13-1.21-16.7c-0.21-2.69,0.72-4.76,3.22-5.85
				c2.07-0.91,4.09-0.43,5.45,1.28c0.82,1.03,1.41,2.58,1.41,3.89c-0.03,9.14-0.23,18.29-0.4,27.43c-0.02,1.06-0.11,2.12-0.27,3.16
				c-0.34,2.17-1.26,3.93-3.72,4.04c-2.66,0.12-3.84-1.78-4.09-3.99c-0.44-3.81-0.5-7.67-0.7-11.51c-0.03-0.58,0-1.15,0-1.73
				C89.11,169.75,89.22,169.74,89.33,169.73z"/>
			<path class="st0" d="M455.8,152.51c-0.4-3.31,1.79-5.73,4.76-5.68c3.01,0.05,5.16,2.42,5.11,5.76
				c-0.15,9.24-0.33,18.48-0.55,27.72c-0.03,1.24-0.23,2.5-0.54,3.7c-0.47,1.86-1.73,3.4-3.64,2.87c-1.4-0.39-2.76-1.74-3.63-3.02
				c-0.63-0.92-0.55-2.42-0.59-3.66C456.39,170.98,456.1,161.75,455.8,152.51z"/>
			<path class="st0" d="M384.49,170.42c0-3.36,0.06-6.45-0.01-9.53c-0.1-4.09,2.18-7.03,5.54-6.99c3.39,0.04,5.69,3.03,5.5,7.05
				c-0.37,7.6-0.58,15.22-1.1,22.81c-0.23,3.41-2.07,5.13-4.69,5.23c-2.32,0.09-4.19-1.63-4.53-4.99
				C384.73,179.4,384.7,174.77,384.49,170.42z"/>
			<path class="st0" d="M221.86,24.14c0.95-1.6,1.47-3,2.41-3.98c6.21-6.44,12.46-12.84,18.8-19.13c2.86-2.84,5.96-5.44,9.01-8.09
				c1.43-1.24,3.28-2.39,4.86-0.84c1.71,1.67,0.48,3.73-0.74,5.15c-4.45,5.18-8.98,10.3-13.65,15.29
				c-4.27,4.57-8.65,9.04-13.2,13.32c-1.06,0.99-3.1,1.48-4.57,1.29C223.76,27,222.94,25.31,221.86,24.14z"/>
			<path class="st0" d="M17.68,172.71c-0.19-3.95-0.34-7.9-0.6-11.84c-0.25-3.75,2.05-6.82,5.33-6.97c3.18-0.15,5.91,2.62,5.81,6.2
				c-0.22,7.52-0.58,15.03-0.9,22.55c-0.03,0.67-0.17,1.33-0.32,1.99c-0.59,2.66-2.18,4.47-4.93,4.35c-2.51-0.11-3.89-2.1-4.15-4.45
				c-0.42-3.91-0.51-7.87-0.74-11.8C17.35,172.72,17.52,172.72,17.68,172.71z"/>
			<path class="st0" d="M352.5-9.96c7.63-0.37,15.26-0.79,22.89-1.05c1.88-0.06,3.91,0.05,5.62,0.74c1.19,0.48,2.54,2,2.7,3.2
				c0.14,1.05-1.04,2.91-2.08,3.35c-2.33,0.98-4.9,1.58-7.43,1.83c-7.32,0.73-14.65,1.24-21.99,1.77c-2.99,0.22-5.48-2.12-5.49-5.02
				C346.71-8.06,349.24-10.29,352.5-9.96z"/>
			<path class="st0" d="M-12.93-9.99c6.86-0.35,13.72-0.76,20.58-1.02c1.88-0.07,3.92-0.05,5.63,0.62c1.27,0.5,2.88,2.03,2.96,3.21
				c0.09,1.2-1.23,3.17-2.41,3.66c-2.31,0.98-4.93,1.39-7.47,1.64C-0.74-1.18-7.87-0.67-14.99-0.1c-2.83,0.22-5.38-1.91-5.58-4.63
				c-0.2-2.74,1.97-5.25,4.79-5.47c0.95-0.07,1.9-0.01,2.86-0.01C-12.93-10.14-12.93-10.07-12.93-9.99z"/>
			<path class="st0" d="M350.62,165.76c1.9-0.19,3.79-0.44,5.69-0.56c2.76-0.17,5.03,1.75,5.2,4.28c0.2,2.89-1.92,5.28-4.84,5.34
				c-8.78,0.18-17.56,0.37-26.35,0.45c-1.79,0.02-3.72-0.11-5.34-0.77c-1.1-0.44-2.58-2.06-2.45-2.93c0.18-1.14,1.65-2.75,2.77-2.95
				c5.82-1.06,11.7-1.78,17.57-2.53c2.56-0.32,5.14-0.42,7.71-0.63C350.61,165.57,350.61,165.67,350.62,165.76z"/>
			<path class="st0" d="M273.03,64.79c-4.28,0.32-8.57,0.62-12.85,0.97c-3.35,0.27-5.79-1.56-5.87-4.47
				c-0.09-3.06,2.31-4.94,5.76-4.94c7.16,0.01,14.32-0.23,21.47-0.22c2.75,0,5.52,0.3,8.25,0.69c1.91,0.27,3.05,1.55,3,3.61
				c-0.05,2.08-1.28,3.26-3.19,3.47c-5.5,0.61-11.01,1.07-16.52,1.6C273.07,65.26,273.05,65.03,273.03,64.79z"/>
			<path class="st0" d="M317.83,131.19c-2.24-1.26-4.3-1.98-5.81-3.33c-6.01-5.38-11.89-10.9-17.73-16.47
				c-2.29-2.19-2.35-5.41-0.4-7.23c1.72-1.61,5.03-1.3,7.07,0.6c6.31,5.87,12.65,11.71,18.96,17.59c1.56,1.46,2.73,3.32,1.62,5.36
				C320.82,129.05,319.23,129.93,317.83,131.19z"/>
			<path class="st0" d="M308.49-2.5c-0.45-5.85-0.88-11.7-1.37-17.54c-0.22-2.64,1.59-4.88,4.08-4.91c2.35-0.03,4.17,2.02,4.22,4.56
				c0.19,9.72,0.5,19.44,0.59,29.17c0.02,2.67-0.41,5.38-1,8c-0.22,0.98-1.53,2.44-2.25,2.38c-1.01-0.07-2.61-1.22-2.79-2.14
				c-0.82-4.13-1.33-8.34-1.75-12.54c-0.23-2.29-0.04-4.63-0.04-6.94C308.28-2.48,308.38-2.49,308.49-2.5z"/>
			<path class="st0" d="M365.55,145.34c-7.09,0.89-14.17,1.93-21.29,2.55c-1.63,0.14-3.86-0.7-4.92-1.89
				c-0.86-0.97-1.05-3.62-0.32-4.68c0.9-1.31,2.99-2.32,4.66-2.47c7.57-0.68,15.18-1.02,22.77-1.48c2.19-0.13,4.38-0.37,6.57-0.35
				c2.21,0.02,3.9,1,4.28,3.42c0.4,2.5-1.15,3.95-3.19,4.42c-2.76,0.65-5.65,0.77-8.48,1.11
				C365.6,145.78,365.58,145.56,365.55,145.34z"/>
			<path class="st0" d="M106.69,76.59c-5.09,0.56-10.17,1.33-15.27,1.57c-1.64,0.08-3.84-0.84-4.86-2.07
				c-0.81-0.98-0.85-3.57-0.1-4.67c0.84-1.23,2.92-2.14,4.5-2.21c7.31-0.33,14.64-0.31,21.96-0.45c2.2-0.04,4.4-0.33,6.59-0.23
				c2.83,0.14,4.58,1.8,4.61,4.2c0.03,2.79-1.78,4.07-4.2,4.17c-4.39,0.18-8.78,0.05-13.18,0.05
				C106.72,76.84,106.71,76.71,106.69,76.59z"/>
			<path class="st0" d="M474.46,76.59c-5.19,0.56-10.37,1.32-15.57,1.58c-1.67,0.08-3.96-0.72-4.92-1.95
				c-0.84-1.06-0.83-3.71-0.06-4.91c0.78-1.21,2.94-2.02,4.53-2.09c7.13-0.31,14.28-0.28,21.42-0.4c2.39-0.04,4.78-0.31,7.17-0.25
				c2.51,0.06,4.33,1.49,4.48,4.02c0.16,2.59-1.56,4.19-4.09,4.28c-4.29,0.16-8.6,0.04-12.9,0.04
				C474.49,76.8,474.47,76.7,474.46,76.59z"/>
			<path class="st0" d="M492.79,40.8c-1.11,1.89-1.6,3.32-2.56,4.28c-6.57,6.62-13.17,13.2-19.89,19.66
				c-2.25,2.16-4.76,1.9-6.57-0.22c-1.58-1.85-1.32-4.47,0.85-6.42c6.72-6.03,13.45-12.04,20.29-17.92
				c1.14-0.98,2.86-1.76,4.31-1.75C490.34,38.45,491.44,39.85,492.79,40.8z"/>
			<path class="st0" d="M193.63,143.68c0,4.63,0.16,9.26-0.07,13.87c-0.11,2.35,0.19,5.68-3.14,5.95c-3.48,0.29-3.57-2.98-3.73-5.39
				c-0.65-9.59-1.18-19.2-1.64-28.8c-0.13-2.65,1.79-4.51,4.19-4.54c2.4-0.03,4.21,1.64,4.29,4.45c0.15,4.81,0.04,9.64,0.04,14.46
				C193.59,143.68,193.61,143.68,193.63,143.68z"/>
			<path class="st0" d="M125.37,40.87c-1.08,1.82-1.55,3.15-2.45,4.05c-6.53,6.63-13.09,13.23-19.77,19.7
				c-2.33,2.26-4.79,2.08-6.59,0.06c-1.68-1.89-1.45-4.61,0.81-6.65c6.7-6.04,13.42-12.05,20.26-17.93c1.13-0.98,2.89-1.7,4.34-1.66
				C123.06,38.48,124.11,39.92,125.37,40.87z"/>
			<path class="st0" d="M101.52,154.22c0.05-4.27,3.38-7.48,7.43-6.41c3.09,0.81,4.55,3.78,3.97,6.95c-0.54,2.95-0.63,6-0.69,9.01
				c-0.07,3.27,0.22,6.55,0.13,9.81c-0.07,2.51-1.14,4.66-3.91,4.91c-2.72,0.25-4.34-1.5-4.74-4.04c-0.61-3.79-0.92-7.64-1.33-11.46
				C102.08,160.32,101.85,157.63,101.52,154.22z"/>
			<path class="st0" d="M371.38-45.11c4.28,0,8.19,0,12.54,0c0.14,7.05,2.12,14.14-0.7,21.03c-0.66,1.61-2.5,3.31-4.14,3.8
				c-2.24,0.67-4-1.17-4.74-3.29c-0.96-2.78-1.89-5.65-2.24-8.56C371.58-36.32,371.6-40.58,371.38-45.11z"/>
			<path class="st0" d="M4.01-45.07c4.17,0,8.16,0,12.64,0c-0.18,7.01,2.16,14.02-0.71,20.98c-0.85,2.05-1.91,3.95-4.38,3.97
				c-2.38,0.03-3.58-1.7-4.71-3.64c-2.09-3.59-2.08-7.55-2.37-11.46C4.24-38.39,4.17-41.56,4.01-45.07z"/>
			<path class="st0" d="M468.43,154.72c0.76-1.72,1.25-3.63,2.33-5.11c1.63-2.24,4.68-2.63,6.99-1.31c2.18,1.24,3,4.18,2.34,6.87
				c-0.49,1.97-0.64,4.06-0.65,6.09c-0.02,4.14,0.25,8.28,0.23,12.42c-0.01,2.57-1.17,4.63-3.94,4.84c-2.55,0.19-4.1-1.47-4.68-3.85
				c-0.48-1.95-0.75-3.97-0.93-5.98c-0.42-4.6-0.72-9.2-1.07-13.8C468.83,154.82,468.63,154.77,468.43,154.72z"/>
			<path class="st0" d="M275.43-45.08c3.75,0,6.77,0,9.76,0c0,3.65,0.14,7.19-0.03,10.71c-0.32,6.35-0.72,12.69-1.31,19.02
				c-0.19,1.98-0.28,4.87-3.03,4.83c-2.65-0.03-2.92-2.82-3.1-4.86C276.86-25.15,276.19-34.95,275.43-45.08z"/>
			<path class="st0" d="M325.94,206.69c-0.35-5.56-0.85-11.11-0.99-16.67c-0.05-2.06,0.52-4.2,1.18-6.18
				c0.63-1.9,2.36-3.22,4.25-2.52c1.45,0.54,3.24,2.07,3.52,3.45c0.56,2.75,0.3,5.69,0.19,8.55c-0.13,3.75-0.41,7.5-0.67,11.24
				c-0.21,3.08-0.38,6.16-0.77,9.21c-0.25,1.97-1.33,3.56-3.57,3.4c-2.19-0.16-3.01-1.77-3.16-3.81c-0.16-2.21-0.33-4.42-0.49-6.63
				C325.59,206.71,325.77,206.7,325.94,206.69z"/>
			<path class="st0" d="M135.87,117.26c0-3.86,0.01-7.72,0-11.58c-0.01-3.1,1.43-5.01,3.88-5.1c2.59-0.1,4.28,1.86,4.36,4.96
				c0.19,7.13,0.41,14.27,0.59,21.4c0.03,1.25,0.09,2.54-0.19,3.74c-0.54,2.32-1.8,4.13-4.47,4.07c-2.64-0.06-4.16-1.78-4.28-4.2
				c-0.23-4.42-0.07-8.86-0.07-13.3C135.75,117.26,135.81,117.26,135.87,117.26z"/>
			<path class="st0" d="M-10.97-45.1c3.34,0,6.58,0,10.24,0c0.13,0.88,0.42,1.84,0.41,2.8c-0.06,5.89-0.14,11.77-0.29,17.66
				c-0.1,3.93-1.83,6.02-4.94,6.21c-3,0.18-5.21-1.86-5.35-5.85C-11.15-31.11-10.97-37.96-10.97-45.1z"/>
			<path class="st0" d="M356.47-45.07c3.29,0,6.69,0,10.2,0c0,7.41,0.16,14.69-0.08,21.96c-0.1,3-2.45,4.74-5.19,4.71
				c-2.61-0.02-4.76-1.87-4.86-5.06C356.31-30.56,356.47-37.67,356.47-45.07z"/>
			<path class="st0" d="M310.18,136.67c0.09,4.11-3.12,6.24-6.27,4.81c-1.61-0.73-3.07-1.95-4.39-3.17
				c-4.22-3.9-8.34-7.91-12.52-11.86c-2.05-1.93-2.4-5.12-0.74-7.02c1.85-2.12,5.06-2.31,7.17-0.31c4.86,4.61,9.72,9.23,14.45,13.98
				C309.03,134.25,309.7,135.9,310.18,136.67z"/>
			<path class="st0" d="M254.49,301.69c-2.38-0.23-5.42-0.65-8.47-0.76c-1.85-0.07-3.76,0.67-5.58,0.48
				c-1.74-0.18-3.97-0.63-4.95-1.82c-0.89-1.08-0.89-3.5-0.37-5.01c0.73-2.08,2.78-2.55,5.04-2.39c2.8,0.19,5.63,0.04,8.44-0.07
				c3.92-0.15,7.83-0.62,11.74-0.54c3.37,0.07,5.4,2.13,5.48,4.81c0.08,2.36-2.03,4.38-5.21,4.84
				C258.81,301.48,256.98,301.51,254.49,301.69z"/>
			<path class="st0" d="M371.52,124.57c3.44,0.13,5.09,1.36,5.18,3.55c0.09,2.18-1.54,3.82-4.28,4.18
				c-8.06,1.07-16.13,2.14-24.2,3.14c-3.15,0.39-5.41-1.34-5.53-4.04c-0.12-2.65,1.97-4.55,4.97-4.78
				c7.63-0.59,15.26-1.28,22.89-1.93C371.02,124.65,371.49,124.57,371.52,124.57z"/>
			<path class="st0" d="M169.25,167.07c-0.59-3.29-1.04-6.61-1.81-9.86c-0.53-2.25-0.44-4.19,1.23-5.86
				c1.66-1.65,3.92-2.4,5.76-1.25c1.59,0.99,3.35,3.06,3.5,4.78c0.46,5.35,0.23,10.76,0.15,16.14c-0.01,1.02-0.37,2.11-0.84,3.03
				c-1.01,1.97-2.66,3.05-4.93,2.64c-2.32-0.42-3.35-2.1-3.5-4.32c-0.11-1.73-0.02-3.47-0.02-5.21
				C168.95,167.12,169.1,167.1,169.25,167.07z"/>
			<path class="st0" d="M234.66-44.98c0,8.94,0.01,17.78-0.01,26.62c0,0.77-0.07,1.55-0.22,2.3c-0.38,1.87-1.43,3.53-3.38,3.15
				c-1.29-0.25-3.11-1.59-3.36-2.74c-0.71-3.26-0.92-6.68-0.99-10.04c-0.14-6.35-0.04-12.71-0.04-19.3
				C228.73-44.98,231.33-44.98,234.66-44.98z"/>
			<path class="st0" d="M249.75,105.95c0.09,2.02,0.33,4.06,0.24,6.07c-0.11,2.6-1.78,3.99-4.2,4.38c-2.01,0.32-4.74-1.57-4.82-3.67
				c-0.24-6.93-0.28-13.86-0.26-20.8c0.01-2.48,1.24-4.43,3.9-4.5c2.55-0.07,3.74,1.91,4.02,4.13c0.59,4.77,0.93,9.56,1.37,14.35
				C249.92,105.93,249.83,105.94,249.75,105.95z"/>
			<path class="st0" d="M483.35,300.71c-2.3-0.42-5.01-0.96-7.73-1.42c-2.25-0.38-4.5-0.78-6.76-0.99c-3.17-0.3-5.65-3.07-5.2-6
				c0.45-2.92,3.4-4.95,6.4-4.26c4.45,1.03,8.87,2.16,13.3,3.27c0.82,0.21,1.62,0.54,2.42,0.85c2.36,0.94,4.04,2.56,3.44,5.25
				C488.59,300.14,486.18,300.55,483.35,300.71z"/>
			<path class="st0" d="M115.75,300.61c-2-0.35-4.54-0.83-7.09-1.24c-2.44-0.4-4.89-0.79-7.35-1.08c-3.01-0.35-5.4-3.14-4.98-5.95
				c0.44-2.98,3.35-5.04,6.39-4.34c4.46,1.03,8.89,2.19,13.33,3.32c0.74,0.19,1.45,0.47,2.16,0.75c2.31,0.92,4.04,2.36,3.68,5.14
				C121.62,299.43,119.32,300.73,115.75,300.61z"/>
			<path class="st0" d="M296.83,15.09c-0.27,2.46-1.83,3.47-4.09,3.6c-6.67,0.38-13.35,0.71-20.02,1.08
				c-1.81,0.1-3.61,0.31-5.42,0.45c-2.22,0.18-3.8-0.62-4.06-3.02c-0.27-2.49,1.37-3.54,3.43-3.74c8.46-0.81,16.92-1.52,25.39-2.19
				C294.82,11.06,296.88,12.82,296.83,15.09z"/>
			<path class="st0" d="M171.59,103.28c3.73,0,7.46-0.01,11.19,0c2.33,0.01,4.01,1.1,4.11,3.49c0.1,2.49-1.76,3.55-3.94,3.73
				c-2.66,0.22-5.35,0.13-8.02,0.24c-4.68,0.2-9.36,0.48-14.04,0.65c-2.83,0.1-4.66-1.49-4.69-3.9c-0.04-2.45,1.7-4.09,4.51-4.13
				c3.63-0.05,7.26-0.01,10.89-0.01C171.59,103.33,171.59,103.31,171.59,103.28z"/>
			<path class="st0" d="M305.16,80.48c-0.5-2.72-1.31-5.44-1.4-8.18c-0.06-1.73,0.49-3.97,1.62-5.1c0.87-0.87,3.47-1.02,4.6-0.33
				c1.26,0.77,2.44,2.87,2.43,4.38c-0.07,7.21-0.56,14.41-0.92,21.62c-0.07,1.34-0.02,2.78-0.48,3.99c-0.35,0.92-1.35,2-2.23,2.17
				c-0.69,0.13-1.73-0.9-2.41-1.61c-0.41-0.43-0.54-1.23-0.6-1.88c-0.45-4.99-0.85-9.97-1.27-14.96
				C304.72,80.54,304.94,80.51,305.16,80.48z"/>
			<path class="st0" d="M412.92,144.05c-3.9,0-7.8,0-11.71,0c-0.95,0-1.91,0.05-2.86-0.02c-2.87-0.21-4.55-1.6-4.48-3.83
				c0.08-2.69,1.87-3.93,4.22-4.29c5.27-0.8,10.57-1.51,15.87-2.12c3.15-0.36,5.65,2.03,5.64,5.13
				C419.6,142.23,417.09,144.06,412.92,144.05z"/>
			<path class="st0" d="M45.61,144.1c-4.2,0-8.41-0.05-12.61,0.01c-4.11,0.06-6.28-1.16-6.42-3.75c-0.15-2.7,1.69-4.17,5.75-4.69
				c4.65-0.59,9.28-1.49,13.94-1.71c1.71-0.08,4.04,0.93,5.08,2.25c0.85,1.09,0.7,3.57,0.12,5.09
				C50.51,143.82,48.03,144.04,45.61,144.1z"/>
			<path class="st0" d="M245.34,245.23c3.13,0.28,6.28,0.45,9.39,0.89c2,0.28,3.74,1.37,3.79,3.66c0.04,2.31-1.37,3.89-3.65,4.08
				c-5.5,0.46-11.02,0.86-16.54,0.95c-2.52,0.04-4.34-2.25-4.32-4.53c0.02-2.56,1.74-4.52,4.43-4.72c2.28-0.17,4.58-0.03,6.88-0.03
				C245.32,245.42,245.33,245.32,245.34,245.23z"/>
			<path class="st0" d="M343.1-45.08c3.14,0,5.78,0,8.65,0c0,2.98,0.07,5.84-0.02,8.7c-0.14,4.83-0.37,9.66-0.6,14.48
				c-0.05,0.96-0.01,2.07-0.48,2.81c-0.59,0.94-1.65,2.15-2.54,2.17c-0.9,0.02-2.32-1.1-2.63-2.02c-0.6-1.79-0.67-3.78-0.82-5.7
				C344.13-31.35,343.64-38.07,343.1-45.08z"/>
			<path class="st0" d="M274.69,221.37c-0.05,0.77,0,1.56-0.15,2.3c-0.4,1.96-1.37,3.54-3.57,3.45c-2.18-0.09-3.54-1.43-3.69-3.68
				c-0.26-3.94-0.38-7.9-0.61-11.85c-0.17-2.98-0.46-5.95-0.6-8.94c-0.11-2.39,1.11-3.93,3.47-4.06c2.42-0.14,3.73,1.42,3.89,3.73
				c0.43,6.34,0.73,12.69,1.08,19.04C274.57,221.37,274.63,221.37,274.69,221.37z"/>
			<path class="st0" d="M473.52,92.53c-2.99,0.39-5.25-1.77-5.17-4.65c0.07-2.54,2.57-4.86,5.21-4.78
				c4.48,0.14,8.96,0.19,13.43,0.54c1.85,0.14,3.77,0.69,5.44,1.5c2.22,1.08,2.11,3.54,0.08,4.35c-2.19,0.87-4.45,1.74-6.76,2.06
				C481.7,92.11,477.6,92.23,473.52,92.53z"/>
			<path class="st0" d="M101.04,88.12c-0.04-2.72,2.45-5.12,5.23-5.02c4.18,0.15,8.37,0.22,12.55,0.48
				c1.79,0.11,3.66,0.34,5.28,1.03c0.92,0.39,1.88,1.76,1.98,2.77c0.08,0.85-0.86,2.23-1.7,2.64c-1.59,0.78-3.41,1.23-5.18,1.47
				c-4.24,0.57-8.51,0.97-12.77,1.37C103.44,93.14,101.08,91,101.04,88.12z"/>
			<path class="st0" d="M354.95,193.3c-0.55-0.1-1.5-0.44-2.43-0.42c-2.8,0.09-5.66,0.01-8.38,0.59c-2.59,0.55-4.59,0.08-6.09-1.96
				c-1.31-1.79-1.31-3.89,0.06-5.65c1.46-1.88,3.38-2.38,5.87-1.88c2.62,0.52,5.37,0.41,8.06,0.45c1.03,0.02,2.07-0.39,3.11-0.43
				c3.23-0.14,5.51,1.76,5.51,4.5C360.68,191.32,358.52,193.27,354.95,193.3z"/>
			<path class="st0" d="M335.31,249.62c3.24-0.21,6.47-0.54,9.71-0.58c2.36-0.02,4.31,1.1,5.09,3.49c1.01,3.09-0.92,6.12-4.41,6.32
				c-4.27,0.24-8.59,0.1-12.85-0.27c-2.59-0.23-3.63-2.38-3.52-4.85c0.11-2.44,1.59-3.84,3.99-4.17c0.66-0.09,1.33-0.01,2-0.01
				C335.31,249.57,335.31,249.59,335.31,249.62z"/>
			<path class="st0" d="M27.06,121.58c-0.27-1.5-0.51-3.01-0.8-4.51c-0.46-2.35-0.27-4.83,1.96-5.84c1.58-0.72,3.99-0.74,5.57-0.03
				c2.21,0.99,2.39,3.41,2.06,5.81c-0.34,2.47-0.32,4.98-0.49,7.48c-0.07,1.05,0.11,2.36-0.43,3.09c-0.99,1.34-2.3,3.04-3.73,3.33
				c-2.12,0.43-3.4-1.45-3.79-3.52c-0.36-1.89-0.48-3.83-0.71-5.74C26.81,121.62,26.93,121.6,27.06,121.58z"/>
			<path class="st0" d="M393.58,115.32c-0.17-2.94,2.01-5.14,4.84-5.1c2.86,0.04,5.06,2.31,4.9,5.23
				c-0.21,3.73-0.55,7.46-0.84,11.19c-0.19,2.39-1.33,4.14-3.76,4.33c-2.59,0.21-3.8-1.72-4.09-3.94
				C394.11,123.16,393.91,119.23,393.58,115.32z"/>
			<path class="st0" d="M361.18,111.87c3.6,0,7.21-0.03,10.81,0.01c2.02,0.03,3.67,0.89,3.91,3.05c0.26,2.31-1.28,3.55-3.31,4.04
				c-4.16,1-8.32,2.01-12.53,2.76c-2.49,0.44-5.04-1.82-5.28-4.25c-0.24-2.41,1.56-4.69,4.12-5.1c0.74-0.12,1.52-0.02,2.29-0.02
				C361.18,112.21,361.18,112.04,361.18,111.87z"/>
			<path class="st0" d="M-5.98,112.48c2.08-0.25,4.16-0.63,6.24-0.71c1.89-0.07,3.87-0.11,5.65,0.41c1.03,0.3,2.36,1.68,2.42,2.66
				c0.08,1.15-0.76,2.9-1.73,3.47c-1.67,0.98-3.74,1.34-5.67,1.79c-2.21,0.52-4.46,1.16-6.7,1.2c-1.83,0.04-4.15-0.17-5.38-1.27
				c-1-0.9-1.49-3.75-0.81-4.86c0.87-1.42,3.14-1.99,4.83-2.87c0.3-0.16,0.75-0.02,1.13-0.02C-5.99,112.35-5.98,112.42-5.98,112.48z
				"/>
			<path class="st0" d="M153.11,130.25c-3.26,0.05-5.47-2.07-5.43-4.96c0.04-2.88,2.27-5.19,5.15-5.1
				c3.92,0.12,7.83,0.35,11.75,0.61c2.02,0.13,3.46,1.1,3.71,3.3c0.26,2.29-1.21,3.45-3.08,3.9c-1.75,0.42-3.63,0.23-5.41,0.57
				C157.46,129.01,155.18,129.72,153.11,130.25z"/>
			<path class="st0" d="M310.22,289c-2.56,0.24-5.14,0.77-7.67,0.61c-1.49-0.09-3.37-0.93-4.21-2.08c-0.66-0.9-0.53-3.32,0.23-4.11
				c0.98-1.03,2.9-1.39,4.47-1.54c2.54-0.25,5.12-0.06,7.68-0.11c2.19-0.05,4.47-0.56,6.55-0.12c1.37,0.29,3.12,1.67,3.55,2.95
				c0.67,2.02-0.98,3.48-2.91,3.87c-2.51,0.51-5.09,0.64-7.64,0.94C310.25,289.27,310.24,289.13,310.22,289z"/>
			<path class="st0" d="M471.6,115.35c0-3.36-0.02-6.73,0.01-10.09c0.02-2.66,1.96-4.79,4.12-4.61c2.21,0.18,3.74,2.21,3.54,4.8
				c-0.36,4.7-0.76,9.4-1.16,14.1c-0.07,0.77,0.04,1.77-0.39,2.24c-0.94,1.02-2.22,2.48-3.29,2.43c-1.04-0.06-2.56-1.64-2.85-2.81
				c-0.48-1.91-0.13-4.02-0.13-6.05C471.51,115.35,471.55,115.35,471.6,115.35z"/>
			<path class="st0" d="M254.26,15.1c-0.24-1.72-0.79-3.46-0.63-5.14c0.15-1.58,0.69-3.45,1.74-4.51c0.71-0.71,3.18-0.82,3.82-0.17
				c1.11,1.14,2.01,3.1,1.94,4.67c-0.23,5.58-0.78,11.16-1.48,16.71c-0.21,1.62-1.26,4.41-2.04,4.45c-2.55,0.13-1.96-2.64-2.25-4.2
				c-0.73-3.88-1.04-7.84-1.52-11.76C253.98,15.13,254.12,15.12,254.26,15.1z"/>
			<path class="st0" d="M104.35,112.66c0-2.41,0-4.81,0-7.22c0-2.81,1.67-4.92,3.84-4.86c2.38,0.06,3.95,2.34,3.7,5.22
				c-0.41,4.7-0.78,9.39-1.12,14.1c-0.17,2.32-0.81,4.42-3.47,4.44c-2.76,0.02-3.3-2.13-3.29-4.46c0.01-2.41,0-4.82,0-7.22
				C104.13,112.66,104.24,112.66,104.35,112.66z"/>
			<path class="st0" d="M304.66,11.66c0,1.54,0.05,3.09-0.01,4.62c-0.07,1.71-0.41,3.75-2.48,3.45c-1.15-0.16-2.7-1.83-2.96-3.06
				c-0.71-3.36-0.9-6.84-1.18-10.28c-0.24-2.87-0.25-5.75-0.52-8.62c-0.22-2.37,0.74-3.88,3.01-4.02c2.18-0.14,3.2,1.39,3.33,3.51
				c0.3,4.8,0.61,9.6,0.91,14.4C304.73,11.66,304.69,11.66,304.66,11.66z"/>
			<path class="st0" d="M134.88,242.81c-0.62,1.53-0.86,2.85-1.59,3.78c-1.95,2.48-4.01,4.9-6.23,7.14
				c-1.85,1.87-4.74,1.7-6.42-0.06c-1.82-1.92-1.8-4.82,0.28-6.7c2.48-2.24,5.01-4.46,7.76-6.35c0.98-0.68,2.76-0.75,3.95-0.38
				C133.56,240.52,134.15,241.92,134.88,242.81z"/>
			<path class="st0" d="M319.35,81.5c-1.43-1.3-3.16-2.13-3.41-3.28c-0.32-1.46,0.15-3.48,1.02-4.74c2-2.9,4.44-5.48,6.7-8.19
				c0.25-0.29,0.46-0.62,0.72-0.9c1.49-1.5,3.13-3.54,5.32-1.84c1.95,1.51,0.9,3.64-0.19,5.47c-2.06,3.45-3.95,7.02-6.17,10.36
				C322.54,79.59,320.96,80.28,319.35,81.5z"/>
			<path class="st0" d="M173.25,180.63c1.82,0,3.75-0.38,5.41,0.12c1.31,0.4,3.02,1.79,3.19,2.94c0.16,1.09-1.26,3.26-2.34,3.53
				c-3.77,0.95-7.68,1.49-11.56,1.77c-2.29,0.16-3.95-1.96-3.9-4.13c0.05-2.25,1.84-4.02,4.31-4.2c0.86-0.06,1.72,0.01,2.58,0.02
				c0.77,0.01,1.53,0,2.3,0C173.25,180.68,173.25,180.65,173.25,180.63z"/>
			<path class="st0" d="M244.01-45.08c2.6,0,4.67,0,7.29,0c0,4.33,0.06,8.63-0.03,12.93c-0.04,1.83-1.01,3.2-2.99,3.22
				c-1.98,0.02-2.93-1.33-3.11-3.14C244.74-36.29,244.41-40.52,244.01-45.08z"/>
			<path class="st0" d="M243.75,16.62c0.15-1.29,1.22-2.68,3.53-2.73c2.12-0.04,3.55,1.53,3.35,3.76c-0.36,4-0.67,8.02-1.34,11.98
				c-0.19,1.09-1.57,1.98-2.4,2.96c-0.69-1.01-1.74-1.93-1.99-3.04c-0.45-1.95-0.41-4.01-0.57-6.02
				C244.16,21.53,243.99,19.53,243.75,16.62z"/>
			<path class="st0" d="M159.72-45c0.29,5.17-2.16,9.32-5.54,9.51c-3.64,0.2-6.42-3.75-6.56-9.51C151.66-45,155.69-45,159.72-45z"/>
			<path class="st0" d="M230.24,157.36c0.08,2.73-2.58,5.63-5.15,5.61c-2.96-0.02-5.46-2.38-5.53-5.21c-0.07-2.8,2.4-5.48,5.16-5.6
				C227.5,152.04,230.15,154.53,230.24,157.36z"/>
			<path class="st0" d="M25.14-45.13c9.55,0,19.1,0,28.9,0c-1.18,2.61-3.45,3.11-5.65,3.15c-5.15,0.1-10.3-0.05-15.45-0.18
				c-1.8-0.05-3.63-0.19-5.37-0.61c-0.99-0.23-1.84-1.1-2.75-1.68C24.93-44.67,25.03-44.9,25.14-45.13z"/>
			<path class="st0" d="M392.47-45.04c0.26-0.05,0.53-0.15,0.79-0.15c9.27-0.01,18.53-0.01,27.8-0.01c0.14,0.26,0.28,0.52,0.42,0.78
				c-1.33,0.72-2.63,1.98-4,2.05c-5.5,0.29-11.03,0.26-16.54,0.26c-1.9,0-3.84-0.1-5.69-0.5c-1.1-0.24-2.05-1.16-3.06-1.78
				C392.27-44.6,392.37-44.82,392.47-45.04z"/>
			<path class="st0" d="M442.63,155.06c-2.93-0.03-5.33-2.48-5.22-5.32c0.11-2.92,2.61-5.31,5.41-5.18
				c2.69,0.13,5.05,2.83,4.97,5.69C447.71,152.7,445.14,155.09,442.63,155.06z"/>
			<path class="st0" d="M75.36,144.57c2.92,0.12,5.22,2.81,5.02,5.88c-0.16,2.47-2.76,4.73-5.31,4.63
				c-2.82-0.12-5.03-2.44-4.96-5.23C70.17,146.79,72.51,144.45,75.36,144.57z"/>
			<path class="st0" d="M294.34-45.11c1.72,0,3.62,0,5.71,0c-1.3,3.94-2.44,7.78-3.85,11.51c-0.71,1.88-3.28,2.47-4.89,1.43
				c-1.73-1.12-2.08-3.45-1-5.31C291.69-39.88,292.91-42.38,294.34-45.11z"/>
			<path class="st0" d="M200.49,201.96c0.03-2.81,2.36-5.19,5.07-5.18c2.91,0.01,5.12,2.42,5.04,5.48c-0.07,2.64-2.36,4.83-5.04,4.8
				C202.68,207.02,200.46,204.8,200.49,201.96z"/>
			<path class="st0" d="M64.16,26.61c-2.59,0.06-5.04-2.25-5.1-4.84c-0.07-2.78,2.21-5.09,5.07-5.13c2.66-0.04,4.93,2.21,4.95,4.92
				C69.1,24.17,66.78,26.55,64.16,26.61z"/>
			<path class="st0" d="M152.53,84.76c0.22-2.2,0.17-4.47,0.77-6.56c0.31-1.07,1.81-2.52,2.74-2.49c1.02,0.04,2.63,1.42,2.87,2.46
				c0.51,2.31,0.46,4.78,0.37,7.18c-0.09,2.53-1.73,4.1-3.69,3.89C153.65,89.05,152.35,87.17,152.53,84.76z"/>
			<path class="st0" d="M431.31,26.61c-2.66-0.02-4.88-2.33-4.81-5.04c0.07-2.88,2.07-4.88,4.91-4.91c2.81-0.03,5.11,2.32,5.03,5.15
				C436.36,24.35,433.94,26.62,431.31,26.61z"/>
			<path class="st0" d="M-7.49,259.53c-2.52-0.06-4.77-2.35-4.78-4.87c-0.01-2.67,2.36-5.03,4.99-4.97
				c2.62,0.06,4.85,2.51,4.73,5.19C-2.68,257.48-4.92,259.59-7.49,259.53z"/>
			<path class="st0" d="M355.12,254.57c0.02-2.57,2.17-4.82,4.67-4.89c2.61-0.07,5.13,2.48,5.08,5.15c-0.05,2.42-2.42,4.7-4.88,4.69
				C357.26,259.51,355.1,257.31,355.12,254.57z"/>
			<path class="st0" d="M62.16,200.39c-2.53-0.03-4.86-2.38-4.75-4.79c0.11-2.51,2.46-4.74,4.88-4.65c2.61,0.1,4.49,2.01,4.53,4.59
				C66.84,198.11,64.63,200.42,62.16,200.39z"/>
			<path class="st0" d="M429.62,200.36c-2.47,0.06-4.69-1.97-4.78-4.37c-0.1-2.74,1.82-4.94,4.39-5.04c2.76-0.1,4.87,1.83,4.89,4.46
				C434.13,198.2,432.23,200.29,429.62,200.36z"/>
			<path class="st0" d="M155.54,102.48c-2.47-0.09-4.57-2.5-4.43-5.07c0.13-2.41,2.44-4.46,4.83-4.31c2.56,0.17,4.48,2.21,4.44,4.71
				C160.35,100.38,158.08,102.57,155.54,102.48z"/>
			<path class="st0" d="M425.44,279.21c-0.02-2.43,2.03-4.45,4.6-4.53c2.34-0.07,4.63,2.23,4.57,4.58c-0.06,2.35-2.3,4.58-4.64,4.6
				C427.67,283.89,425.46,281.62,425.44,279.21z"/>
			<path class="st0" d="M67.22,279.33c-0.08,2.45-2.25,4.58-4.63,4.56c-2.25-0.02-4.53-2.39-4.54-4.69
				c-0.01-2.46,2.41-4.66,4.95-4.52C65.2,274.8,67.29,277.1,67.22,279.33z"/>
			<path class="st0" d="M297.81,90.96c0.05,2.53-1.97,4.48-4.59,4.45c-2.2-0.03-4.38-1.99-4.49-4.05c-0.15-2.66,1.88-4.86,4.52-4.91
				C295.77,86.4,297.76,88.37,297.81,90.96z"/>
			<path class="st0" d="M174.93,203.24c-2.33,0-4.33-2.02-4.35-4.41c-0.02-2.28,2.06-4.34,4.41-4.37c2.29-0.03,4.35,2.07,4.33,4.43
				C179.31,201.25,177.31,203.23,174.93,203.24z"/>
			<path class="st0" d="M308.03,61.39c-2.23,0.04-4.42-2.09-4.5-4.37c-0.08-2.35,2.17-4.48,4.69-4.45c2.21,0.03,4.12,2.05,4.1,4.33
				C312.31,59.43,310.47,61.35,308.03,61.39z"/>
			<path class="st0" d="M487.04,164.19c-2.28-0.04-4.41-2.26-4.32-4.5c0.09-2.21,2.12-4.16,4.33-4.16c2.55,0.01,4.54,2.09,4.42,4.64
				C491.37,162.39,489.36,164.22,487.04,164.19z"/>
			<path class="st0" d="M119.84,164.2c-2.29,0.03-4.47-2.12-4.43-4.38c0.04-2.44,2.01-4.33,4.45-4.3c2.42,0.04,4.23,1.97,4.22,4.51
				C124.08,162.25,122.11,164.17,119.84,164.2z"/>
			<path class="st0" d="M28.28-8.13c-0.02,2.17-1.83,3.97-4.05,4c-2.54,0.04-4.49-1.76-4.53-4.19c-0.04-2.54,1.81-4.37,4.33-4.31
				C26.5-12.56,28.3-10.66,28.28-8.13z"/>
			<path class="st0" d="M386.97-8.28c0-2.44,1.97-4.44,4.36-4.43c2.27,0.01,4.17,1.9,4.25,4.22c0.08,2.53-1.78,4.43-4.29,4.38
				C388.97-4.17,386.98-6.09,386.97-8.28z"/>
			<path class="st0" d="M141.69,259.13c-0.03-2.4,1.97-4.41,4.34-4.36c2.39,0.04,4.21,1.79,4.31,4.13c0.1,2.36-2.19,4.68-4.56,4.62
				C143.63,263.46,141.71,261.41,141.69,259.13z"/>
			<path class="st0" d="M245.25,64.49c-2.26,0.05-4.06-1.74-4.19-4.18c-0.12-2.27,1.79-4.4,3.96-4.42c2.29-0.03,4.35,2.04,4.39,4.4
				C249.46,62.56,247.6,64.43,245.25,64.49z"/>
			<path class="st0" d="M485.6,65.18c-2.29,0.03-4.21-1.82-4.27-4.11c-0.06-2.24,1.81-4.2,4.1-4.29c2.38-0.1,4.4,1.85,4.43,4.27
				C489.88,63.26,487.92,65.16,485.6,65.18z"/>
			<path class="st0" d="M118.2,65.17c-2.38-0.03-4.2-1.9-4.15-4.24c0.05-2.38,1.88-4.14,4.28-4.13c2.38,0.01,4.12,1.83,4.09,4.27
				C122.38,63.51,120.64,65.2,118.2,65.17z"/>
			<path class="st0" d="M19.58,196.66c0.03-2.1,2.26-4.11,4.45-4.02c2.12,0.09,3.93,2.02,3.94,4.19c0.01,2.32-1.89,4.17-4.23,4.12
				C21.44,200.89,19.55,198.95,19.58,196.66z"/>
			<path class="st0" d="M391.31,200.95c-2.36,0.03-4.26-1.74-4.38-4.06c-0.1-2.1,1.99-4.21,4.23-4.26c2.22-0.04,4.23,2,4.18,4.25
				C395.29,199.09,393.47,200.92,391.31,200.95z"/>
			<path class="st0" d="M258.51,207.85c-2.26,0.01-3.99-1.74-3.94-4c0.05-2.13,1.95-4.06,4.01-4.07c1.98,0,3.85,2.08,3.84,4.27
				C262.4,206.06,260.57,207.84,258.51,207.85z"/>
			<path class="st0" d="M463.29-44.96c-1.91,6.04-8.85,4.11-17.53,0C451.89-44.96,457.5-44.96,463.29-44.96z"/>
			<path class="st0" d="M96.14-44.97c-2.7,6.14-9.28,3.97-17.46,0C84.73-44.97,90.3-44.97,96.14-44.97z"/>
			<path class="st0" d="M166.04,7.44c0-2.14,1.89-3.98,4.05-3.96c2.25,0.03,4.07,1.85,4,4c-0.07,2.06-1.84,3.79-3.89,3.81
				C168.01,11.31,166.04,9.48,166.04,7.44z"/>
			<path class="st0" d="M319.15,27.07c0-2.09,1.78-3.88,3.81-3.83c2.16,0.05,4.02,1.81,3.81,3.85c-0.22,2.11-1.31,3.62-3.66,3.68
				C321.01,30.82,319.15,29.06,319.15,27.07z"/>
			<path class="st0" d="M308.79,272.61c0.07-2.04,1.73-3.54,3.79-3.37c2.12,0.18,3.4,1.36,3.34,3.51c-0.06,2.23-1.4,3.52-3.63,3.61
				C310.4,276.45,308.73,274.56,308.79,272.61z"/>
			<path class="st0" d="M6.34,104.68c-2.21-0.1-3.69-1.13-3.72-3.47c-0.03-2.3,1.31-3.57,3.56-3.62c2.17-0.06,3.37,1.23,3.6,3.32
				C10.01,102.94,8.39,104.62,6.34,104.68z"/>
			<path class="st0" d="M374.21,104.63c-3.01-0.02-4.17-1.4-4.32-3.58c-0.13-1.86,1.84-3.61,3.78-3.5c2.13,0.12,3.4,1.31,3.41,3.46
				C377.09,103.29,375.86,104.56,374.21,104.63z"/>
			<path class="st0" d="M281.62-1.11c2.31,0.12,3.49,1.38,3.53,3.48c0.04,2.05-1.34,3.24-3.24,3.34c-2.12,0.11-3.44-1.24-3.57-3.33
				C278.2,0.12,279.71-0.81,281.62-1.11z"/>
			<path class="st0" d="M289.49,146.53c0.24-2.11,1.62-3.58,3.58-3.1c1.3,0.33,2.95,2,3.18,3.3c0.36,2-1.32,3.43-3.39,3.38
				C290.83,150.06,289.52,148.82,289.49,146.53z"/>
			<path class="st0" d="M236.69,233.16c1.23-0.89,2.36-2.27,3.71-2.53c1.7-0.34,3.15,0.89,3.22,2.82c0.07,1.94-0.99,3.61-3,3.39
				c-1.36-0.15-2.59-1.47-3.88-2.26C236.72,234.1,236.71,233.63,236.69,233.16z"/>
			<path class="st0" d="M194.29,58.74c0.75,1.11,1.95,2.15,2.14,3.35c0.3,1.88-1.07,3.3-2.89,2.9c-1.13-0.25-2.56-1.66-2.81-2.79
				C190.3,60.32,191.77,59.35,194.29,58.74z"/>
			<path class="st0" d="M346.24,200.1c-1.13,0.79-2.33,2.3-3.36,2.18c-1.08-0.12-2-1.78-2.99-2.77c0.99-0.95,1.91-2.56,2.98-2.67
				c1.04-0.11,2.24,1.32,3.37,2.07C346.23,199.3,346.23,199.7,346.24,200.1z"/>
			<path class="st0" d="M238.28,30.88c-1.28-1.65-2.42-2.5-2.64-3.55c-0.36-1.7,0.82-2.96,2.49-2.58c0.99,0.22,2.31,1.48,2.42,2.41
				C240.65,28.06,239.41,29.13,238.28,30.88z"/>
			<path class="st0" d="M128.19-45.08c3.47,0,6.73,0,10.13,0C135.86-42.76,132.53-42.77,128.19-45.08z"/>
		</g>
	</g>
</g>
<g>
	<path class="st0" d="M71.03,148.77c0.45,0.05,0.9,0.09,1.35,0.14c7.05,0.65,13.18,3.38,18.33,8.23c4.85,4.57,7.93,10.16,9.05,16.74
		c1.54,9.08-0.52,17.31-6.25,24.52c-4.71,5.93-10.88,9.57-18.34,10.92c-6.33,1.14-12.44,0.33-18.29-2.36
		c-0.27-0.12-0.5-0.13-0.78-0.07c-5.12,1.14-10.23,2.28-15.35,3.42c-0.05,0.01-0.1,0.05-0.16,0.08c-0.05,0-0.1,0-0.15,0
		c-0.04-0.2-0.14-0.42-0.11-0.61c0.27-1.71,0.57-3.41,0.85-5.11c0.58-3.49,1.16-6.99,1.74-10.48c0.02-0.14,0-0.32-0.07-0.45
		c-1.8-3.38-2.93-6.97-3.39-10.78c-0.39-3.22-0.29-6.42,0.35-9.59c1.31-6.54,4.44-12.08,9.36-16.59c5.08-4.65,11.08-7.26,17.95-7.87
		c0.46-0.04,0.93-0.09,1.39-0.14C69.35,148.77,70.19,148.77,71.03,148.77z M46.5,203.78c3.47-0.82,6.85-1.62,10.24-2.42
		c0.36-0.09,0.67-0.1,1.02,0.09c2.84,1.54,5.87,2.5,9.08,2.87c2.8,0.32,5.58,0.21,8.33-0.41c5.8-1.32,10.61-4.28,14.28-8.95
		c4.78-6.07,6.45-12.98,5-20.56c-1.09-5.72-3.92-10.51-8.38-14.25c-6.53-5.45-14.03-7.29-22.29-5.29
		c-7.65,1.85-13.22,6.48-16.7,13.53c-2.58,5.23-3.14,10.75-1.89,16.45c0.6,2.71,1.65,5.24,3.07,7.62c0.11,0.19,0.21,0.44,0.18,0.64
		c-0.51,2.9-1.05,5.8-1.58,8.7C46.73,202.44,46.62,203.08,46.5,203.78z"/>
	<path class="st0" d="M303.91,184.99c-0.1,0.63-0.18,1.26-0.3,1.88c-0.44,2.21-1.33,4.18-3,5.75c-1.52,1.43-3.33,2.18-5.4,2.3
		c-2.02,0.12-3.92-0.26-5.56-1.51c-0.59-0.45-1.09-1.03-1.64-1.56c0,3.31,0,6.66,0,10.03c-2,0-3.95,0-5.91,0c0-9.64,0-19.27,0-28.92
		c1.86,0,3.69,0,5.57,0c0,0.88,0,1.75,0,2.62c0.03,0.01,0.05,0.02,0.08,0.03c0.06-0.08,0.13-0.15,0.18-0.23
		c1.21-1.79,2.94-2.71,5.04-2.95c2.25-0.25,4.38,0.07,6.32,1.34c2.18,1.43,3.45,3.49,4.07,5.97c0.23,0.91,0.32,1.85,0.47,2.77
		c0.01,0.08,0.04,0.16,0.07,0.24C303.91,183.51,303.91,184.25,303.91,184.99z M287.79,183.68c-0.02,1.21,0.13,2.39,0.53,3.53
		c0.73,2.1,2.39,3.3,4.55,3.31c2.23,0.01,3.88-1.16,4.61-3.31c0.52-1.51,0.59-3.07,0.45-4.65c-0.09-1.1-0.32-2.18-0.86-3.16
		c-0.97-1.76-2.44-2.68-4.48-2.58c-1.94,0.09-3.26,1.09-4.07,2.81C287.92,180.91,287.8,182.29,287.79,183.68z"/>
	<path class="st0" d="M129.32,174.3c-1.64,6.7-3.28,13.39-4.92,20.11c-0.13,0-0.24,0-0.34,0c-1.97,0-3.93,0-5.9,0
		c-0.26,0-0.38-0.05-0.46-0.33c-2.36-8.96-4.73-17.91-7.1-26.86c-0.21-0.8-0.42-1.59-0.64-2.43c0.17,0,0.29,0,0.41,0
		c1.91,0,3.81,0.01,5.72-0.01c0.32,0,0.43,0.09,0.51,0.41c1.48,6.43,2.98,12.86,4.47,19.29c0.03,0.13,0.06,0.26,0.18,0.41
		c1.71-6.69,3.41-13.37,5.12-20.08c2.03,0,4.05,0,6.13,0c1.68,6.77,3.36,13.54,5.04,20.32c0.03,0,0.06,0,0.08,0
		c1.61-6.77,3.22-13.54,4.83-20.32c2.14,0,4.25,0,6.41,0c-0.25,0.93-0.49,1.83-0.74,2.74c-2.36,8.8-4.73,17.6-7.08,26.41
		c-0.1,0.36-0.24,0.48-0.62,0.47c-1.88-0.02-3.76-0.02-5.64-0.01c-0.26,0-0.38-0.06-0.45-0.34c-1.59-6.43-3.2-12.85-4.8-19.28
		c-0.04-0.16-0.09-0.33-0.13-0.49C129.37,174.3,129.35,174.3,129.32,174.3z"/>
	<path class="st0" d="M257.7,194.41c-2.22,0-4.39,0-6.55,0.01c-0.25,0-0.27-0.17-0.32-0.33c-0.67-1.99-1.35-3.97-2.01-5.96
		c-0.08-0.23-0.17-0.33-0.43-0.33c-3.48,0.01-6.95,0.01-10.43,0.01c-0.1,0-0.2,0.01-0.3,0.02c-0.73,2.07-1.46,4.12-2.17,6.18
		c-0.11,0.31-0.24,0.41-0.57,0.41c-2.03-0.02-4.06-0.01-6.15-0.01c0.06-0.15,0.1-0.27,0.14-0.39c3.64-9.65,7.29-19.29,10.93-28.94
		c0.09-0.25,0.22-0.3,0.46-0.3c1.97,0.01,3.93,0.01,5.9,0c0.35,0,0.51,0.1,0.63,0.43c3.03,8.15,6.08,16.29,9.12,24.44
		c0.54,1.44,1.08,2.89,1.62,4.33C257.62,194.11,257.65,194.24,257.7,194.41z M246.99,182.93c-1.25-3.63-2.48-7.22-3.71-10.8
		c-0.03,0-0.05,0-0.08,0c-1.27,3.59-2.55,7.18-3.83,10.8C241.93,182.93,244.43,182.93,246.99,182.93z"/>
	<path class="st0" d="M264.53,191.85c0,3.34,0,6.67,0,10.04c-1.98,0-3.92,0-5.89,0c0-9.63,0-19.26,0-28.91c1.85,0,3.7,0,5.6,0
		c0,0.88,0,1.75,0,2.74c0.12-0.16,0.17-0.21,0.21-0.28c1.13-1.7,2.74-2.65,4.73-2.94c2.51-0.37,4.88,0,6.99,1.51
		c1.96,1.4,3.12,3.34,3.72,5.63c0.85,3.27,0.83,6.51-0.48,9.67c-1.13,2.73-3.08,4.66-6.01,5.36c-2.57,0.62-5.05,0.36-7.23-1.26
		C265.57,192.97,265.09,192.39,264.53,191.85z M264.31,183.91c0,0.91,0.11,2.07,0.49,3.17c0.7,1.99,2.01,3.25,4.2,3.43
		c2.35,0.19,4.21-0.98,4.97-3.2c0.27-0.79,0.42-1.63,0.5-2.46c0.16-1.69,0.04-3.36-0.63-4.95c-1.02-2.43-3.19-3.54-5.74-2.92
		c-1.58,0.39-2.56,1.47-3.16,2.93C264.45,181.11,264.34,182.37,264.31,183.91z"/>
	<path class="st0" d="M170.28,194.39c-1.98,0-3.92,0-5.91,0c0-0.17,0-0.33,0-0.49c0-3.95,0-7.89,0-11.84c0-0.95-0.1-1.9-0.39-2.81
		c-0.4-1.24-1.21-1.98-2.51-2.16c-0.91-0.12-1.8-0.09-2.67,0.2c-1.36,0.45-2.1,1.46-2.37,2.8c-0.2,0.99-0.33,2-0.34,3.01
		c-0.04,3.6-0.02,7.2-0.02,10.8c0,0.16,0,0.31,0,0.49c-1.99,0-3.92,0-5.88,0c0-9.86,0-19.7,0-29.57c1.94,0,3.89,0,5.87,0
		c0,3.69,0,7.38,0,11.19c0.13-0.15,0.2-0.21,0.24-0.28c1.72-2.6,4.21-3.53,7.21-3.32c0.95,0.07,1.89,0.22,2.78,0.59
		c2.14,0.88,3.28,2.56,3.67,4.76c0.19,1.08,0.3,2.18,0.3,3.28c0.03,4.29,0.01,8.59,0.01,12.88
		C170.28,194.05,170.28,194.2,170.28,194.39z"/>
	<path class="st0" d="M173.47,179.56c0.08-1.72,0.61-3.19,1.78-4.41c1.33-1.39,3-2.1,4.84-2.45c2.64-0.51,5.29-0.45,7.91,0.12
		c0.96,0.21,1.86,0.58,2.68,1.14c1.55,1.06,2.29,2.53,2.29,4.4c-0.01,3.8-0.03,7.6,0.01,11.39c0.01,1.18,0.18,2.36,0.32,3.53
		c0.04,0.37,0.22,0.72,0.35,1.1c-0.1,0.01-0.2,0.02-0.29,0.02c-1.77,0-3.54-0.01-5.31,0.01c-0.26,0-0.38-0.07-0.43-0.33
		c-0.1-0.54-0.23-1.08-0.36-1.67c-0.16,0.14-0.31,0.27-0.46,0.4c-1.27,1.11-2.79,1.65-4.42,1.92c-1.89,0.31-3.77,0.31-5.6-0.33
		c-2.49-0.86-3.99-2.95-3.96-5.58c0.01-0.81,0.06-1.64,0.28-2.41c0.57-2.01,2.05-3.14,3.98-3.74c1.73-0.54,3.52-0.75,5.31-0.98
		c0.99-0.12,1.99-0.26,2.95-0.52c1.68-0.47,2.12-1.42,1.49-3.32c-0.24-0.71-0.84-1.13-1.55-1.32c-1.15-0.3-2.32-0.35-3.48-0.05
		c-1.41,0.36-2.17,1.23-2.35,2.7c-0.04,0.29-0.13,0.36-0.41,0.36c-1.73-0.01-3.46-0.01-5.2-0.01
		C173.72,179.56,173.62,179.56,173.47,179.56z M187.14,183.99c-0.45,0.19-0.78,0.4-1.15,0.48c-1.07,0.23-2.15,0.41-3.23,0.6
		c-0.94,0.16-1.88,0.31-2.71,0.81c-1.06,0.63-1.51,1.68-1.29,3.03c0.16,1,0.88,1.75,2.06,1.95c0.72,0.13,1.47,0.17,2.21,0.14
		c1.97-0.07,3.51-1.3,3.85-3.18C187.08,186.57,187.05,185.29,187.14,183.99z"/>
	<path class="st0" d="M222.68,179.19c-0.02-0.13-0.04-0.25-0.06-0.37c-0.15-0.99-0.66-1.71-1.62-2.07c-1.36-0.52-2.75-0.57-4.15-0.2
		c-1.17,0.31-1.72,1.32-1.35,2.35c0.16,0.46,0.51,0.75,0.91,0.99c0.82,0.51,1.75,0.71,2.68,0.94c1.82,0.45,3.65,0.87,5.45,1.36
		c0.94,0.25,1.78,0.73,2.53,1.35c1.58,1.29,1.94,3.01,1.76,4.94c-0.29,3-2.43,5.21-5.6,5.99c-2.91,0.71-5.83,0.69-8.72-0.13
		c-2.01-0.57-3.64-1.69-4.68-3.56c-0.57-1.02-0.79-2.14-0.82-3.32c1.87,0,3.71,0,5.57,0c0.04,0.29,0.07,0.58,0.14,0.86
		c0.24,0.94,0.81,1.65,1.66,2.08c1.7,0.84,3.45,0.88,5.18,0.08c0.78-0.36,1.3-0.97,1.39-1.88c0.08-0.79-0.19-1.46-0.88-1.81
		c-0.77-0.39-1.6-0.72-2.43-0.96c-1.67-0.47-3.38-0.81-5.05-1.29c-0.93-0.27-1.85-0.64-2.69-1.11c-1.36-0.75-2.21-1.92-2.36-3.51
		c-0.19-2.1,0.27-3.99,1.92-5.44c1.09-0.97,2.41-1.49,3.82-1.76c2.59-0.5,5.19-0.52,7.75,0.19c2.26,0.63,3.99,1.94,4.83,4.21
		c0.24,0.65,0.34,1.35,0.51,2.08C226.4,179.19,224.55,179.19,222.68,179.19z"/>
	<path class="st0" d="M198.04,172.96c0-2.16,0-4.27,0-6.41c1.97,0,3.92,0,5.91,0c0,2.12,0,4.24,0,6.4c1.45,0,2.86,0,4.29,0
		c0,1.33,0,2.62,0,3.95c-1.42,0-2.83,0-4.26,0c-0.01,0.16-0.02,0.29-0.02,0.43c0,3.39,0,6.78,0,10.17c0,0.27,0.01,0.54,0.04,0.81
		c0.11,1.1,0.64,1.59,1.8,1.65c0.41,0.02,0.82,0.02,1.22,0c0.39-0.02,0.78-0.07,1.21-0.11c0,1.51,0,3.02,0,4.6
		c-0.77,0.05-1.55,0.11-2.32,0.14c-1.46,0.05-2.92,0.05-4.35-0.31c-2.31-0.57-3.5-2.1-3.5-4.49c-0.01-3.08,0-6.16,0-9.24
		c0-1.2,0-2.4,0-3.64c-1.18,0-2.35,0-3.54,0c0-1.33,0-2.62,0-3.96C195.68,172.96,196.85,172.96,198.04,172.96z"/>
	<path class="st0" d="M59.7,164.55c0.43,0.03,0.86,0.06,1.29,0.1c0.39,0.03,0.72,0.22,0.93,0.55c0.23,0.38,0.44,0.77,0.6,1.18
		c0.72,1.85,1.42,3.71,2.12,5.57c0.16,0.43,0.11,0.84-0.09,1.25c-0.43,0.89-1.12,1.56-1.76,2.28c-0.12,0.13-0.24,0.25-0.37,0.37
		c-0.44,0.45-0.51,0.82-0.21,1.37c2.36,4.28,5.67,7.54,10.2,9.48c0.77,0.33,1.16,0.26,1.71-0.37c0.81-0.92,1.6-1.85,2.39-2.78
		c0.45-0.53,0.8-0.68,1.43-0.4c0.99,0.43,1.96,0.92,2.93,1.41c1.02,0.52,2.03,1.07,3.05,1.61c1.11,0.58,1.05,0.64,0.98,1.88
		c-0.03,0.44-0.16,0.87-0.24,1.31c-0.28,1.44-1.15,2.44-2.33,3.25c-2.09,1.43-4.36,1.8-6.78,1.17c-3.75-0.99-7.31-2.41-10.4-4.83
		c-2.83-2.21-5.17-4.88-7.17-7.86c-1.08-1.61-2.17-3.21-2.88-5.04c-0.88-2.25-1.15-4.53-0.4-6.88c0.51-1.6,1.49-2.89,2.74-3.97
		C58.08,164.62,58.86,164.47,59.7,164.55z"/>
</g>
<g>
</g>
<g>
</g>
<g>
</g>
<g>
</g>
<g>
</g>
<g>
</g>
</svg>
