<?xml version="1.0" encoding="utf-8"?>
<!-- Generator: Adobe Illustrator 25.2.0, SVG Export Plug-In . SVG Version: 6.00 Build 0)  -->
<svg version="1.1" id="Layer_1" xmlns="http://www.w3.org/2000/svg" xmlns:xlink="http://www.w3.org/1999/xlink" x="0px" y="0px"
	 viewBox="0 0 100 100" style="enable-background:new 0 0 100 100;" xml:space="preserve">
<style type="text/css">
	.st0{fill:#F4E70A;}
	.st1{fill:#FFFFFF;}
	.st2{fill:#030304;}
	.st3{fill:none;}
</style>
<g>
	<path class="st0" d="M3.8,72.98L3.8,72.98c0.06,2.08,0.07,4.17,0.42,6.23c0.37,2.18,0.9,4.31,1.91,6.29
		c1.37,2.68,3.25,4.95,5.62,6.8c1.7,1.33,3.56,2.38,5.62,3.05c3,0.97,6.1,1.34,9.25,1.36c1.96,0.01,3.92,0.06,5.88,0.05
		c14.25-0.06,28.5,0.1,42.75-0.09c1.89-0.03,3.75-0.26,5.61-0.6c3.56-0.65,6.7-2.17,9.39-4.57c3.13-2.8,5.25-6.22,6.2-10.35
		c0.62-2.7,0.78-5.44,0.81-8.19v-0.55c0-0.21-0.08-46.7-0.09-47.31c-0.02-1.69-0.15-3.36-0.46-5.02c-0.38-2.02-0.93-4-1.9-5.83
		c-1.02-1.93-2.3-3.67-3.89-5.19C88.5,6.75,85.7,5.1,82.44,4.23c-2.95-0.79-5.95-0.96-8.98-0.96c0,0-0.02-0.03-0.02-0.05H27.61
		c0,0.02,0,0.03,0,0.05c-1.72,0.03-3.44,0.02-5.15,0.23c-1.87,0.23-3.73,0.58-5.5,1.24c-2.79,1.03-5.22,2.64-7.29,4.79
		c-2.35,2.43-4,5.25-4.88,8.52C4,20.98,3.83,23.96,3.83,26.96"/>
	<path class="st1" d="M50.96,82.15c-0.19,0-0.38-0.01-0.52-0.01c-0.11,0.01-0.23,0.01-0.34,0.01c-4.08,0-6.81-1.93-9.21-3.63
		c-1.72-1.22-3.35-2.37-5.26-2.69c-0.94-0.16-1.87-0.23-2.77-0.23c-1.62,0-2.9,0.25-3.84,0.43c-0.58,0.11-1.07,0.21-1.46,0.21
		c-0.4,0-0.89-0.09-1.09-0.78c-0.16-0.55-0.28-1.08-0.39-1.59c-0.28-1.28-0.48-2.06-0.96-2.13c-5.12-0.79-8.14-1.95-8.74-3.36
		c-0.06-0.15-0.1-0.3-0.11-0.44c-0.02-0.42,0.27-0.79,0.69-0.86c4.06-0.67,7.67-2.82,10.74-6.38c2.37-2.76,3.54-5.4,3.66-5.69
		c0.01-0.01,0.01-0.03,0.02-0.04c0.59-1.2,0.71-2.23,0.35-3.07c-0.66-1.55-2.84-2.25-4.29-2.71c-0.36-0.11-0.7-0.22-0.97-0.33
		c-1.28-0.51-3.39-1.57-3.11-3.05c0.2-1.08,1.63-1.82,2.78-1.82c0.32,0,0.6,0.06,0.84,0.17c1.3,0.61,2.47,0.92,3.47,0.92
		c1.25,0,1.85-0.48,2-0.61c-0.04-0.67-0.08-1.37-0.12-2.04c0,0,0-0.01,0-0.01c-0.29-4.67-0.66-10.48,0.83-13.81
		c4.45-9.97,13.88-10.74,16.66-10.74c0.07,0,1.21-0.01,1.21-0.01c0.05,0,0.11,0,0.17,0c2.79,0,12.24,0.78,16.69,10.75
		c1.49,3.33,1.12,9.15,0.83,13.82l-0.01,0.22c-0.04,0.63-0.08,1.23-0.11,1.82c0.14,0.13,0.69,0.56,1.81,0.61
		c0.96-0.04,2.06-0.34,3.27-0.91c0.37-0.18,0.79-0.21,1.07-0.21c0.43,0,0.86,0.08,1.22,0.23l0.02,0.01c1.03,0.37,1.7,1.09,1.72,1.86
		c0.01,0.71-0.52,1.78-3.13,2.81c-0.27,0.11-0.61,0.21-0.97,0.33c-1.45,0.46-3.63,1.15-4.29,2.7c-0.36,0.84-0.24,1.88,0.35,3.07
		c0.01,0.01,0.01,0.03,0.02,0.04c0.18,0.43,4.58,10.46,14.4,12.08c0.41,0.07,0.71,0.44,0.69,0.86c-0.01,0.15-0.05,0.3-0.11,0.45
		c-0.6,1.4-3.62,2.56-8.74,3.35c-0.48,0.07-0.68,0.85-0.96,2.12c-0.11,0.52-0.23,1.04-0.39,1.58c-0.15,0.51-0.48,0.76-1.01,0.76
		h-0.08c-0.35,0-0.84-0.06-1.46-0.18c-1.08-0.21-2.29-0.41-3.84-0.41c-0.9,0-1.83,0.08-2.77,0.23c-1.9,0.32-3.53,1.47-5.25,2.68
		C57.76,80.22,55.03,82.15,50.96,82.15"/>
	<path class="st2" d="M51.2,18.67c2.63,0,11.68,0.71,15.94,10.27c1.4,3.15,1.04,8.85,0.76,13.43c-0.05,0.73-0.09,1.43-0.13,2.1
		l-0.02,0.29l0.19,0.22c0.08,0.09,0.81,0.85,2.43,0.91l0.03,0l0.03,0c1.07-0.04,2.28-0.37,3.59-0.99c0.19-0.09,0.45-0.13,0.72-0.13
		c0.31,0,0.64,0.06,0.91,0.17l0.04,0.02c0.69,0.24,1.17,0.7,1.18,1.11c0,0.23-0.17,1.07-2.61,2.03c-0.24,0.09-0.55,0.19-0.92,0.31
		c-1.59,0.5-3.99,1.27-4.79,3.17c-0.45,1.07-0.33,2.34,0.37,3.76c0.29,0.67,4.82,10.88,15.02,12.56c0,0.05-0.01,0.1-0.04,0.16
		c-0.17,0.41-1.27,1.81-8.11,2.87c-1.07,0.16-1.33,1.36-1.64,2.76c-0.11,0.5-0.22,1-0.37,1.52c-0.05,0.16-0.06,0.17-0.22,0.17
		c-0.02,0-0.05,0-0.08,0c-0.3,0-0.76-0.06-1.3-0.17c-0.97-0.19-2.3-0.42-4-0.42c-0.95,0-1.92,0.08-2.9,0.25
		c-2.09,0.35-3.79,1.55-5.6,2.83c-2.42,1.71-4.92,3.48-8.74,3.48c-0.17,0-0.33-0.01-0.49-0.01l-0.04,0l-0.04,0
		c-0.09,0.01-0.19,0.01-0.28,0.01c-3.82,0-6.32-1.77-8.74-3.48c-1.8-1.27-3.5-2.48-5.6-2.83c-0.98-0.16-1.95-0.25-2.9-0.25
		c-1.7,0-3.03,0.26-4,0.45c-0.53,0.1-1,0.19-1.3,0.19c-0.25,0-0.25-0.01-0.3-0.19c-0.15-0.52-0.27-1.04-0.37-1.54
		c-0.3-1.4-0.57-2.6-1.64-2.77c-6.84-1.06-7.94-2.47-8.11-2.87c-0.03-0.06-0.04-0.12-0.04-0.17C27.3,66.21,31.83,56,32.12,55.33
		c0.7-1.42,0.83-2.69,0.37-3.76c-0.81-1.9-3.21-2.66-4.79-3.17c-0.36-0.12-0.68-0.22-0.92-0.31c-2.06-0.81-2.69-1.63-2.6-2.13
		c0.11-0.57,1.1-1.16,1.97-1.16c0.19,0,0.37,0.03,0.49,0.09c1.41,0.66,2.69,0.99,3.82,0.99c1.77,0,2.56-0.82,2.65-0.92l0.19-0.21
		l-0.02-0.29c-0.04-0.67-0.08-1.38-0.13-2.1c-0.29-4.58-0.65-10.28,0.76-13.43c4.25-9.52,13.25-10.26,15.91-10.26
		c0.07,0,1.22-0.01,1.22-0.01C51.09,18.67,51.14,18.67,51.2,18.67 M51.2,17.03L51.2,17.03c-0.06,0-0.12,0-0.17,0
		c-0.43,0-1.14,0.01-1.21,0.01c-1.56,0-4.67,0.22-8.02,1.7c-1.91,0.84-3.63,1.99-5.12,3.39c-1.77,1.68-3.2,3.74-4.27,6.14
		c-1.57,3.51-1.2,9.43-0.9,14.19l0,0.01c0.03,0.51,0.07,1.04,0.1,1.56c-0.23,0.11-0.6,0.22-1.15,0.22c-0.88,0-1.94-0.28-3.12-0.84
		c-0.35-0.16-0.75-0.25-1.19-0.25c-0.71,0-1.45,0.21-2.1,0.59c-0.81,0.48-1.34,1.15-1.48,1.9c-0.09,0.5-0.09,1.47,1,2.47
		c0.6,0.55,1.48,1.05,2.61,1.5c0.3,0.12,0.65,0.23,1.03,0.35c1.3,0.41,3.26,1.04,3.78,2.24c0.26,0.61,0.15,1.42-0.33,2.39
		c-0.01,0.03-0.03,0.05-0.04,0.08c-0.12,0.28-1.24,2.81-3.53,5.48c-1.3,1.52-2.74,2.79-4.26,3.77c-1.86,1.2-3.87,1.99-5.98,2.34
		c-0.83,0.14-1.42,0.87-1.37,1.71c0.01,0.24,0.07,0.48,0.17,0.72c0,0,0,0,0,0c0.34,0.78,1.11,1.45,2.37,2.04
		c1.54,0.72,3.85,1.32,6.86,1.79c0.15,0.29,0.31,1.02,0.42,1.51c0.11,0.53,0.23,1.07,0.4,1.65c0.18,0.63,0.66,1.37,1.88,1.37
		c0.46,0,1-0.1,1.61-0.22c0.9-0.18,2.14-0.42,3.68-0.42c0.85,0,1.74,0.08,2.63,0.22c1.72,0.29,3.2,1.33,4.91,2.54
		c2.51,1.77,5.35,3.78,9.69,3.78c0.12,0,0.24,0,0.35-0.01c0.14,0.01,0.32,0.01,0.51,0.01c4.34,0,7.18-2.01,9.69-3.78l0,0
		c1.71-1.21,3.19-2.26,4.91-2.54c0.89-0.15,1.78-0.22,2.63-0.22c1.47,0,2.64,0.19,3.68,0.39c0.68,0.13,1.21,0.2,1.61,0.2l0.04,0
		h0.04c0.89,0,1.55-0.49,1.8-1.35c0.17-0.57,0.29-1.1,0.4-1.63c0.1-0.47,0.27-1.21,0.42-1.51c3.01-0.47,5.32-1.07,6.86-1.79
		c1.26-0.58,2.04-1.25,2.37-2.03c0.1-0.23,0.16-0.48,0.17-0.72c0.05-0.84-0.55-1.58-1.37-1.71c-9.38-1.55-13.6-11.18-13.78-11.59
		c-0.01-0.03-0.02-0.05-0.04-0.08c-0.48-0.97-0.59-1.78-0.33-2.39c0.51-1.21,2.48-1.83,3.78-2.24c0.38-0.12,0.73-0.23,1.03-0.35
		c1.28-0.51,2.19-1.05,2.8-1.68c0.72-0.74,0.86-1.45,0.85-1.92c-0.02-1.13-0.88-2.13-2.25-2.62c-0.46-0.19-0.99-0.29-1.53-0.29
		c-0.37,0-0.91,0.05-1.42,0.29c-1.1,0.51-2.08,0.79-2.92,0.83c-0.45-0.02-0.76-0.12-0.97-0.21c0.03-0.44,0.05-0.89,0.08-1.36
		l0.01-0.2c0.3-4.76,0.67-10.69-0.89-14.2c-1.07-2.41-2.52-4.48-4.29-6.16c-1.49-1.41-3.21-2.55-5.13-3.39
		C55.87,17.24,52.76,17.03,51.2,17.03"/>
	<rect x="3.8" y="3.26" class="st3" width="93.47" height="93.47"/>
</g>
</svg>
