<?xml version="1.0" encoding="utf-8"?>
<!-- Generator: Adobe Illustrator 25.2.0, SVG Export Plug-In . SVG Version: 6.00 Build 0)  -->
<svg version="1.1" id="Layer_1" xmlns="http://www.w3.org/2000/svg" xmlns:xlink="http://www.w3.org/1999/xlink" x="0px" y="0px"
	 viewBox="0 0 100 100" style="enable-background:new 0 0 100 100;" xml:space="preserve">
<style type="text/css">
	.st0{fill:#E52521;}
	.st1{fill:#FFFFFF;}
</style>
<path class="st0" d="M95.77,26.67c-1.11-4.15-4.37-7.41-8.52-8.52c-7.51-2.02-37.66-2.02-37.66-2.02s-30.14,0-37.66,2.02
	c-4.15,1.11-7.41,4.37-8.52,8.52C1.4,34.18,1.4,49.87,1.4,49.87s0,15.69,2.02,23.2c1.11,4.15,4.37,7.41,8.52,8.52
	c7.51,2.02,37.66,2.02,37.66,2.02s30.14,0,37.66-2.02c4.15-1.11,7.41-4.37,8.52-8.52c2.02-7.51,2.02-23.2,2.02-23.2
	S97.78,34.18,95.77,26.67z"/>
<polygon class="st1" points="39.95,64.32 64.99,49.87 39.95,35.41 "/>
</svg>
