<?xml version="1.0" encoding="utf-8"?>
<!-- Generator: Adobe Illustrator 25.2.0, SVG Export Plug-In . SVG Version: 6.00 Build 0)  -->
<svg version="1.1" id="Layer_1" xmlns="http://www.w3.org/2000/svg" xmlns:xlink="http://www.w3.org/1999/xlink" x="0px" y="0px"
	 viewBox="0 0 100 100" style="enable-background:new 0 0 100 100;" xml:space="preserve">
<style type="text/css">
	.st0{fill:#3562AC;}
	.st1{fill:none;}
	.st2{fill:#FFFFFF;}
</style>
<g>
	<path class="st0" d="M2.25,73.48L2.25,73.48c0.06,2.13,0.07,4.26,0.43,6.37c0.38,2.23,0.92,4.41,1.96,6.43
		c1.4,2.74,3.32,5.05,5.74,6.95c1.74,1.36,3.64,2.44,5.75,3.11c3.07,0.99,6.23,1.37,9.45,1.39c2,0.01,4.01,0.06,6.01,0.05
		c14.56-0.06,29.12,0.11,43.68-0.09c1.93-0.03,3.83-0.26,5.73-0.61c3.63-0.67,6.85-2.22,9.59-4.67c3.2-2.86,5.36-6.35,6.34-10.57
		c0.64-2.76,0.8-5.56,0.83-8.36v-0.56c0-0.22-0.08-47.71-0.09-48.34c-0.02-1.72-0.15-3.44-0.47-5.13c-0.39-2.07-0.95-4.08-1.94-5.95
		c-1.05-1.98-2.35-3.75-3.97-5.31c-2.48-2.38-5.34-4.06-8.68-4.95c-3.01-0.8-6.08-0.98-9.18-0.98c-0.01,0-0.02-0.03-0.02-0.05H26.58
		c0,0.02,0,0.03,0,0.05c-1.76,0.03-3.51,0.02-5.26,0.24c-1.91,0.24-3.81,0.6-5.62,1.27c-2.85,1.06-5.33,2.7-7.45,4.89
		c-2.4,2.49-4.09,5.36-4.99,8.71c-0.8,2.99-0.97,6.03-0.98,9.1"/>
	<rect x="2.25" y="2.24" class="st1" width="95.5" height="95.5"/>
	<path class="st2" d="M40.07,85.96c0-11.38,0-22.63,0-33.95c-2.5,0-4.93,0-7.42,0c0-3.84,0-7.6,0-11.54c2.01,0,3.99-0.01,5.97,0
		c1.38,0.01,1.45-0.06,1.46-1.47c0-2.82,0-5.65,0-8.47c0.01-6.46,4.35-11.45,10.79-12.05c3.95-0.36,7.94-0.29,11.92-0.41
		c1.22-0.04,2.44-0.06,3.66-0.08c0.24,0,0.49,0.04,0.74,0.06c0.02,0.2,0.05,0.33,0.05,0.45c0,3.72,0,7.45,0,11.36
		c-0.45,0-0.89,0-1.32,0c-2.4,0.03-4.82-0.06-7.21,0.13c-2.11,0.16-3.12,1.36-3.19,3.49c-0.07,2.08,0.02,4.17,0,6.25
		c-0.01,0.66,0.35,0.7,0.86,0.7c3.27-0.01,6.55-0.01,9.82-0.01c0.35,0,0.7,0,1.17,0c-0.49,3.88-0.98,7.69-1.47,11.56
		c-3.5,0-6.89,0-10.37,0c0,11.35,0,22.64,0,33.98C50.36,85.96,45.28,85.96,40.07,85.96z"/>
</g>
</svg>
