<?xml version="1.0" encoding="utf-8"?>
<!-- Generator: Adobe Illustrator 25.2.0, SVG Export Plug-In . SVG Version: 6.00 Build 0)  -->
<svg version="1.1" id="Layer_1" xmlns="http://www.w3.org/2000/svg" xmlns:xlink="http://www.w3.org/1999/xlink" x="0px" y="0px"
	 viewBox="0 0 100 100" style="enable-background:new 0 0 100 100;" xml:space="preserve">
<style type="text/css">
	.st0{fill-rule:evenodd;clip-rule:evenodd;fill:#020203;}
	.st1{fill:#FFFFFF;}
</style>
<path class="st0" d="M21.55,2.64h55.12c11.21,0,20.38,9.17,20.38,20.38v55.12c0,11.21-9.17,20.38-20.38,20.38H21.55
	c-11.21,0-20.38-9.17-20.38-20.38V23.02C1.17,11.81,10.34,2.64,21.55,2.64z"/>
<path class="st1" d="M41.85,57.66c0,3.32,3.52,5.8,6.93,5.8c3.81,0,6.42-1.07,7.85-3.22c1.43-2.15,2.14-4.73,2.14-7.75
	c-3.91-0.99-10.71-1.71-14.31,0.68C42.76,54.3,41.85,55.73,41.85,57.66L41.85,57.66z M49.43,86.68c-7.3,0-10.66-0.9-16.23-3.9
	c-4.83-2.6-9-6.08-11.23-11.08c-7.99-17.9-5.56-44.68,11.51-53.57c8.67-4.52,22.42-5.01,31.23-0.54c8.45,4.3,12.54,11,15.92,19.6
	l-6.9,1.97c-3.19-11.58-10.87-18-23.34-18c-4.93,0-9.4,0.49-13.16,2.36C28.25,27.97,24.57,38.42,24.2,49
	c-0.26,7.69,0.98,15.45,4.41,21.04c3.93,6.39,12.08,10.43,19.73,10.43c7.16,0,12.92-1.24,17.37-5.41c6.05-5.68,7.31-14.73-0.4-20.25
	c-2.38,20.28-29.88,19.12-29.88,3c0-3.35,1.3-6.27,3.9-8.76c5.17-4.95,12.95-3.49,19.43-3.59c-0.68-3.06-3.29-7.5-8.28-7.5
	c-3.85,0-7.17,0.97-8.95,3.95l-5.37-3.49c2.28-4.27,6.87-7.08,13.91-7.08S64,35.94,65.15,44.68l0.35,2.7
	c3.98,1.61,6.84,4.6,8.83,7.62c5.59,8.49,2.51,19.37-5.48,26.14C64.5,84.83,58.02,86.68,49.43,86.68L49.43,86.68z"/>
</svg>
