<?xml version="1.0" encoding="utf-8"?>
<!-- Generator: Adobe Illustrator 25.2.0, SVG Export Plug-In . SVG Version: 6.00 Build 0)  -->
<svg version="1.1" id="Layer_1" xmlns="http://www.w3.org/2000/svg" xmlns:xlink="http://www.w3.org/1999/xlink" x="0px" y="0px"
	 viewBox="0 0 100 100" style="enable-background:new 0 0 100 100;" xml:space="preserve">
<style type="text/css">
	.st0{fill:#E62254;}
	.st1{fill:#020203;}
	.st2{fill:#66C3CD;}
</style>
<path class="st0" d="M29.72,76.02c-1.71-2.25-2.64-4.99-2.64-7.82c0-7.13,5.78-12.91,12.92-12.91c1.33,0,2.65,0.2,3.92,0.61V40.28
	c-1.48-0.2-2.98-0.29-4.47-0.26v12.15c-1.27-0.4-2.59-0.61-3.92-0.6c-7.14,0-12.92,5.78-12.92,12.91
	C22.61,69.53,25.5,73.89,29.72,76.02z M73.81,21.67c-3.07-3.35-5.08-7.68-5.52-12.46V7.24h-4.24
	C65.12,13.32,68.76,18.52,73.81,21.67z M68.3,37.08c6,4.29,13.36,6.81,21.3,6.81V28.61c-1.5,0-3-0.16-4.47-0.47v12.02
	c-7.94,0-15.29-2.52-21.3-6.81v31.17c0,15.59-12.65,28.23-28.25,28.23c-5.82,0-11.23-1.76-15.73-4.78
	c5.13,5.24,12.28,8.49,20.2,8.49c15.6,0,28.25-12.64,28.25-28.23L68.3,37.08L68.3,37.08z"/>
<path class="st1" d="M63.82,33.36c6,4.29,13.36,6.81,21.3,6.81V28.15c-4.43-0.94-8.36-3.26-11.31-6.48
	c-5.05-3.15-8.69-8.35-9.76-14.43H52.92v61.01C52.9,75.36,47.12,81.12,40,81.12c-4.2,0-7.92-2-10.29-5.1
	c-4.22-2.13-7.11-6.49-7.11-11.54c0-7.13,5.78-12.91,12.92-12.91c1.37,0,2.69,0.21,3.92,0.6V40.02
	C24.12,40.34,11.8,52.85,11.8,68.25c0,7.68,3.07,14.65,8.05,19.74c4.49,3.02,9.9,4.78,15.73,4.78c15.6,0,28.25-12.64,28.25-28.23
	L63.82,33.36L63.82,33.36z"/>
<path class="st2" d="M39.45,40.02v-3.46c-1.28-0.18-2.58-0.26-3.88-0.26c-15.6,0-28.25,12.64-28.25,28.23
	c0,9.78,4.97,18.39,12.52,23.46c-4.98-5.09-8.05-12.06-8.05-19.74C11.8,52.85,24.12,40.34,39.45,40.02z M64.06,7.24
	c-0.1-0.58-0.18-1.17-0.23-1.75V3.52H48.45v61.01c-0.02,7.11-5.8,12.87-12.92,12.87c-2.09,0-4.07-0.5-5.81-1.38
	c2.36,3.1,6.09,5.1,10.29,5.1c7.12,0,12.9-5.76,12.92-12.87V7.24H64.06z M85.12,28.15v-3.25c-4,0.01-7.92-1.11-11.31-3.23
	C76.82,24.95,80.77,27.22,85.12,28.15z"/>
</svg>
