<?xml version="1.0" encoding="utf-8"?>
<!-- Generator: Adobe Illustrator 25.2.0, SVG Export Plug-In . SVG Version: 6.00 Build 0)  -->
<svg version="1.1" id="Layer_1" xmlns="http://www.w3.org/2000/svg" xmlns:xlink="http://www.w3.org/1999/xlink" x="0px" y="0px"
	 viewBox="0 0 93.61 95.72" style="enable-background:new 0 0 93.61 95.72;" xml:space="preserve">
<style type="text/css">
	.st0{fill:#FFFFFF;}
</style>
<path class="st0" d="M46.79,72.47c-10.68,0-21.37,0-32.05,0c-4.3,0-7.16-2.82-7.17-7.12C7.54,56.62,7.56,47.9,7.56,39.17
	c0-4.72,0.02-9.45-0.01-14.17c-0.01-2.06,0.42-3.94,1.87-5.48c1.41-1.5,3.18-2.12,5.19-2.12c13.28,0,26.55,0,39.83,0
	c8.21,0,16.41,0,24.62,0c3.42,0,5.82,1.78,6.77,5.03c0.16,0.54,0.22,1.13,0.22,1.7c0.01,13.77,0.01,27.53,0.01,41.3
	c0,4.2-2.79,7.02-7.05,7.03c-6.28,0.03-12.56,0.01-18.83,0.01C55.72,72.48,51.26,72.48,46.79,72.47
	C46.79,72.48,46.79,72.48,46.79,72.47z M77.64,22.47c-20.59,0-41,0-61.55,0c0.23,0.28,0.36,0.47,0.52,0.61
	c1.17,1.06,2.35,2.11,3.51,3.17c2.6,2.39,5.19,4.79,7.79,7.18c3.07,2.81,6.15,5.62,9.23,8.41c2.24,2.02,4.43,4.1,6.77,5.99
	c2.46,1.99,3.7,1.91,6.08-0.16c2.58-2.24,5.09-4.56,7.62-6.86c3.17-2.88,6.32-5.78,9.49-8.66c2.61-2.38,5.23-4.75,7.83-7.14
	C75.82,24.23,76.67,23.39,77.64,22.47z M36.32,48.92c-6.71,6.15-13.37,12.26-20.16,18.5c20.54,0,40.83,0,61.23,0
	c-0.16-0.22-0.22-0.35-0.32-0.44c-1.54-1.42-3.07-2.84-4.62-4.26c-2.71-2.48-5.43-4.95-8.14-7.43c-2.1-1.92-4.19-3.84-6.26-5.78
	c-0.53-0.5-0.92-0.47-1.44,0.04c-0.88,0.87-1.82,1.67-2.73,2.5c-3.62,3.29-10.19,3.37-13.85,0.18
	C38.79,51.14,37.58,50.04,36.32,48.92z M12.59,63.95c6.83-6.36,13.47-12.56,20.16-18.79c-6.74-6.1-13.37-12.11-20.16-18.25
	C12.59,39.33,12.59,51.49,12.59,63.95z M60.92,45.17c6.74,6.28,13.36,12.44,20.09,18.7c0-12.39,0-24.54,0-36.91
	C74.25,33.09,67.65,39.07,60.92,45.17z"/>
<g>
</g>
<g>
</g>
<g>
</g>
<g>
</g>
<g>
</g>
<g>
</g>
</svg>
