<?xml version="1.0" encoding="utf-8"?>
<!-- Generator: Adobe Illustrator 25.2.0, SVG Export Plug-In . SVG Version: 6.00 Build 0)  -->
<svg version="1.1" id="Layer_1" xmlns="http://www.w3.org/2000/svg" xmlns:xlink="http://www.w3.org/1999/xlink" x="0px" y="0px"
	 viewBox="0 0 230.44 234.37" style="enable-background:new 0 0 230.44 234.37;" xml:space="preserve">
<style type="text/css">
	.st0{fill:url(#SVGID_1_);}
</style>
<linearGradient id="SVGID_1_" gradientUnits="userSpaceOnUse" x1="61.6995" y1="117.1866" x2="168.7404" y2="117.1866">
	<stop  offset="8.073434e-08" style="stop-color:#1EA464"/>
	<stop  offset="1" style="stop-color:#42B174"/>
</linearGradient>
<path class="st0" d="M61.7,100.55c26.77,0,53.49,0,80.27,0c0,19.98,0,39.93,0,59.95c-26.74,0-53.47,0-80.27,0
	C61.7,140.54,61.7,120.59,61.7,100.55z M132.67,153.86c-5.22-8.68-10.38-17.26-15.57-25.9c-2.64,2.38-5.2,4.69-7.75,7
	c-2.38,2.15-4.74,4.32-7.13,6.45c-0.15,0.13-0.59,0.15-0.72,0.03c-3.3-2.96-6.59-5.95-9.87-8.93c-1.66-1.5-3.32-3-5.03-4.55
	c-5.22,8.67-10.38,17.24-15.59,25.91C91.59,153.86,112.06,153.86,132.67,153.86z M129.94,107.22c-18.78,0-37.39,0-56.21,0
	c9.46,8.56,18.77,17,28.11,25.46C111.18,124.22,120.5,115.77,129.94,107.22z M68.45,111.48c0,11.19,0,22.26,0,33.56
	c4.42-7.36,8.72-14.53,13.05-21.74C77.16,119.37,72.85,115.47,68.45,111.48z M135.22,111.51c-2.16,1.95-4.19,3.78-6.23,5.61
	c-2.08,1.87-4.14,3.75-6.23,5.61c-0.44,0.39-0.52,0.69-0.19,1.24c4.06,6.72,8.09,13.46,12.14,20.2c0.13,0.21,0.29,0.4,0.51,0.7
	C135.22,133.7,135.22,122.69,135.22,111.51z M148.66,153.87c2.29,0,4.5,0,6.79,0c0-0.35,0-0.65,0-0.95
	c-0.01-21.6-0.02-43.2-0.01-64.8c0-0.76-0.21-0.97-0.96-0.97c-28.4,0.02-56.79,0.01-85.19,0.01c-0.29,0-0.58,0.03-0.87,0.04
	c0,2.24,0,4.39,0,6.63c26.72,0,53.41,0,80.24,0C148.66,113.96,148.66,133.91,148.66,153.87z M168.74,73.88c-28.99,0-57.93,0-86.93,0
	c0,2.2,0,4.36,0,6.62c26.75,0,53.46,0,80.25,0c0,20.06,0,40.04,0,60.07c2.26,0,4.44,0,6.68,0
	C168.74,118.28,168.74,96.09,168.74,73.88z"/>
<g>
</g>
<g>
</g>
<g>
</g>
<g>
</g>
<g>
</g>
<g>
</g>
</svg>
