<?xml version="1.0" encoding="utf-8"?>
<!-- Generator: Adobe Illustrator 25.2.0, SVG Export Plug-In . SVG Version: 6.00 Build 0)  -->
<svg version="1.1" id="Layer_1" xmlns="http://www.w3.org/2000/svg" xmlns:xlink="http://www.w3.org/1999/xlink" x="0px" y="0px"
	 viewBox="0 0 121.89 116.2" style="enable-background:new 0 0 121.89 116.2;" xml:space="preserve">
<style type="text/css">
	.st0{fill:url(#SVGID_1_);}
</style>
<linearGradient id="SVGID_1_" gradientUnits="userSpaceOnUse" x1="14.9855" y1="58.1007" x2="106.9006" y2="58.1007">
	<stop  offset="8.073434e-08" style="stop-color:#1EA464"/>
	<stop  offset="1" style="stop-color:#42B174"/>
</linearGradient>
<path class="st0" d="M61,11.71c25.34,0.01,45.92,20.85,45.9,46.49c-0.02,25.41-20.7,46.32-45.76,46.28
	C35.53,104.45,14.96,83.73,14.99,58C15.01,32.46,35.66,11.7,61,11.71z M97.02,58.09c0-20.08-16.19-36.41-36.09-36.41
	c-19.9,0-36.07,16.34-36.07,36.42c0,20.08,16.18,36.41,36.09,36.41C80.85,94.51,97.02,78.18,97.02,58.09z M65.09,48.78
	c0-3.48,0.07-6.96-0.03-10.43c-0.05-1.96-1.68-3.53-3.54-3.73c-2.11-0.23-3.92,0.88-4.52,2.84c-0.19,0.62-0.23,1.3-0.24,1.95
	c-0.02,5.61-0.02,11.21,0.01,16.82c0,0.69-0.21,1.17-0.69,1.65c-4.17,4.17-8.3,8.37-12.46,12.55c-1.27,1.27-1.73,2.76-1.19,4.48
	c0.97,3.07,4.71,3.91,7.04,1.57c4.72-4.75,9.42-9.52,14.15-14.26c1.04-1.04,1.53-2.23,1.52-3.7c-0.03-3.25-0.01-6.5-0.01-9.75
	C65.12,48.78,65.1,48.78,65.09,48.78z"/>
<g>
</g>
<g>
</g>
<g>
</g>
<g>
</g>
<g>
</g>
<g>
</g>
</svg>
