<?xml version="1.0" encoding="utf-8"?>
<!-- Generator: Adobe Illustrator 25.2.0, SVG Export Plug-In . SVG Version: 6.00 Build 0)  -->
<svg version="1.1" id="Layer_1" xmlns="http://www.w3.org/2000/svg" xmlns:xlink="http://www.w3.org/1999/xlink" x="0px" y="0px"
	 viewBox="0 0 854.11 165.46" style="enable-background:new 0 0 854.11 165.46;" xml:space="preserve">
<style type="text/css">
	.st0{fill:url(#SVGID_1_);}
	.st1{clip-path:url(#SVGID_3_);}
	.st2{opacity:0.2;fill:#F7F6F6;}
</style>
<linearGradient id="SVGID_1_" gradientUnits="userSpaceOnUse" x1="10.0716" y1="82.7324" x2="838.6943" y2="82.7324">
	<stop  offset="8.073434e-08" style="stop-color:#1EA464"/>
	<stop  offset="1" style="stop-color:#42B174"/>
</linearGradient>
<path class="st0" d="M810.46,144.61H38.31c-15.59,0-28.24-12.64-28.24-28.24V49.09c0-15.59,12.64-28.24,28.24-28.24h772.15
	c15.59,0,28.24,12.64,28.24,28.24v67.28C838.69,131.97,826.05,144.61,810.46,144.61z"/>
<g>
	<defs>
		<path id="SVGID_2_" d="M810.46,144.61H38.31c-15.59,0-28.24-12.64-28.24-28.24V49.09c0-15.59,12.64-28.24,28.24-28.24h772.15
			c15.59,0,28.24,12.64,28.24,28.24v67.28C838.69,131.97,826.05,144.61,810.46,144.61z"/>
	</defs>
	<clipPath id="SVGID_3_">
		<use xlink:href="#SVGID_2_"  style="overflow:visible;"/>
	</clipPath>
	<g class="st1">
		<path class="st2" d="M187.24-58.3c2.17-0.96,4.15-2.44,5.75-4.4c2.64-3.23,3.86-7.3,3.43-11.45c-0.42-4.15-2.44-7.89-5.67-10.52
			c-3.23-2.64-7.3-3.86-11.45-3.43c-4.15,0.42-7.89,2.44-10.52,5.67c-2.64,3.23-3.86,7.3-3.43,11.45c0.42,4.15,2.44,7.89,5.67,10.52
			C175.72-56.62,182.02-55.99,187.24-58.3z M171.31-71.59c-0.26-2.56,0.49-5.06,2.11-7.05c1.62-1.99,3.93-3.23,6.48-3.49
			c2.56-0.26,5.06,0.49,7.05,2.11c1.99,1.62,3.23,3.93,3.49,6.48c0.26,2.56-0.49,5.06-2.12,7.05c-3.35,4.11-9.42,4.73-13.53,1.38
			C172.81-66.73,171.57-69.03,171.31-71.59z"/>
		<path class="st2" d="M275.31-13.69c-5.42-9.72-12.36-18.07-20.64-24.82c-6.96-5.67-14.76-10.37-23.2-13.97
			c-0.07-0.19-0.15-0.39-0.22-0.59c-0.3-0.81-0.6-1.63-0.89-2.46c-0.07-0.2-0.14-0.41-0.21-0.61c-0.29-0.83-0.57-1.67-0.84-2.53
			c-0.06-0.18-0.11-0.35-0.17-0.52c-0.31-0.98-0.62-1.97-0.92-2.97c-0.06-0.21-0.12-0.42-0.19-0.64c-0.3-1.04-0.6-2.08-0.89-3.14
			c-0.17-0.88-1.07-5.24-3.12-10.85c0-0.01-0.01-0.02-0.01-0.03c-0.3-0.83-0.64-1.69-0.99-2.57c-0.01-0.03-0.03-0.07-0.04-0.1
			c-0.08-0.2-0.17-0.41-0.25-0.61c-0.3-0.72-0.61-1.45-0.95-2.19c-0.06-0.13-0.13-0.27-0.19-0.4c-1.87-4.05-4.3-8.3-7.4-12.15
			c-0.39-0.49-0.79-0.97-1.21-1.44c-0.06-0.06-0.11-0.13-0.17-0.19c-0.17-0.19-0.35-0.38-0.52-0.57c-0.28-0.3-0.56-0.6-0.85-0.9
			c-1.58-1.62-3.3-3.11-5.19-4.42l-0.02-0.01c0,0-0.02-0.01-0.03-0.02c-0.46-0.32-6.86-4.56-16.13-5.98
			c-4.78-0.73-10.84-0.76-17.37,1.39c-0.06,0.02-0.11,0.04-0.17,0.06c-0.27,0.09-0.53,0.18-0.8,0.28c-0.16,0.06-0.32,0.12-0.48,0.17
			c-0.18,0.07-0.36,0.13-0.53,0.2c-0.24,0.09-0.48,0.19-0.72,0.29c-0.11,0.05-0.22,0.09-0.33,0.14c-0.3,0.13-0.6,0.26-0.9,0.4
			c-0.06,0.03-0.12,0.06-0.19,0.09c-0.34,0.16-0.68,0.32-1.02,0.49c-0.03,0.02-0.06,0.03-0.09,0.04c-0.37,0.18-0.74,0.38-1.1,0.58
			c-0.01,0.01-0.02,0.01-0.03,0.02c-0.38,0.21-0.76,0.42-1.13,0.64c-0.01,0-0.02,0.01-0.02,0.01c-0.38,0.22-0.75,0.45-1.13,0.69
			c-0.01,0.01-0.03,0.02-0.04,0.03c-0.37,0.23-0.73,0.47-1.1,0.72c-0.03,0.02-0.05,0.03-0.08,0.05c-0.35,0.24-0.7,0.48-1.05,0.74
			c-0.05,0.03-0.09,0.06-0.14,0.1c-0.32,0.24-0.64,0.48-0.97,0.73c-0.07,0.06-0.14,0.11-0.21,0.16c-0.3,0.23-0.59,0.47-0.89,0.71
			c-0.1,0.08-0.19,0.15-0.29,0.23c-0.27,0.22-0.54,0.46-0.81,0.69c-0.12,0.1-0.24,0.21-0.36,0.31c-0.24,0.21-0.47,0.43-0.71,0.65
			c-0.15,0.14-0.3,0.27-0.45,0.41c-0.24,0.23-0.49,0.47-0.73,0.71c-0.13,0.13-0.27,0.26-0.4,0.39c-0.58,0.58-1.14,1.2-1.68,1.86
			c-0.54,0.66-1.04,1.34-1.49,2.02c-0.33,0.49-0.64,0.98-0.94,1.47c-0.09,0.15-0.18,0.3-0.27,0.46c-0.21,0.34-0.41,0.68-0.6,1.02
			c-0.1,0.17-0.19,0.34-0.28,0.5c-0.18,0.33-0.36,0.66-0.53,0.99c-0.08,0.16-0.17,0.31-0.25,0.47c-0.19,0.37-0.37,0.74-0.55,1.12
			c-0.05,0.11-0.1,0.21-0.15,0.32c-0.23,0.49-0.45,0.97-0.65,1.46c-0.01,0.02-0.02,0.04-0.03,0.06c-0.19,0.45-0.37,0.9-0.54,1.34
			c-0.05,0.13-0.1,0.27-0.15,0.4c-0.12,0.33-0.24,0.66-0.36,0.99c-0.06,0.16-0.11,0.32-0.16,0.48c-0.1,0.3-0.19,0.6-0.28,0.89
			c-0.05,0.17-0.11,0.35-0.16,0.52c-0.08,0.28-0.16,0.56-0.23,0.84c-0.05,0.18-0.1,0.36-0.14,0.54c-0.06,0.25-0.12,0.5-0.17,0.75
			c-0.11,0.48-0.21,0.96-0.3,1.43c-0.02,0.09-0.04,0.18-0.05,0.27c-0.06,0.35-0.12,0.7-0.17,1.04c-0.01,0.04-0.01,0.08-0.02,0.13
			c-1.4,9.5,1.18,17.53,3.99,23.05c-2.6,1.5-5.05,3.18-7.34,5.03c1.32-19.64-0.22-35.58-4.59-47.46
			c-4.96-13.5-12.08-24.1-21.16-31.5c-5.45-4.44-11.34-8.04-17.49-10.68c-0.97-0.42-1.93-0.82-2.89-1.21l-0.36-0.14
			c-13.31-5.3-26.27-7.3-38.5-5.96c-7.57,0.83-15.06,2.53-22.25,5.06c-5.23,1.83-10.43,4.15-15.45,6.87
			c-11.83,6.43-23.12,14.87-33.57,25.08C-24.24-96.6-34.14-85.77-43.3-74.53c-7.02,8.61-13.93,17.44-20.55,26.25
			c-6.44,8.58-12.65,17-18.44,25.04c-3.38,4.68-4.74,9.91-4.05,15.55c0.7,5.64,3.33,10.36,7.82,14.02L155.61,197.2
			c4.49,3.66,9.54,5.3,15,4.86c2.55-0.2,4.97-0.81,7.26-1.83c2.53-1.12,4.9-2.74,7.07-4.85l0.11-0.12
			c6.62-7.16,12.98-14.23,18.89-21.01c5.81-6.65,11.46-13.34,16.8-19.89c22.83-28.01,39.69-53.33,50.11-75.26
			c6.47-13.62,10.76-26.52,12.76-38.35c1.27-7.49,1.65-14.74,1.12-21.52c-0.44-6.65-1.6-13.04-3.45-19
			C279.77-4.6,277.76-9.29,275.31-13.69z M151.68-64.46c0-0.02-0.01-0.04-0.01-0.06c-0.05-0.32-0.1-0.65-0.14-0.98
			c-0.05-0.39-0.1-0.79-0.13-1.2c-0.01-0.12-0.02-0.25-0.03-0.38c-0.04-0.46-0.06-0.93-0.08-1.41c0-0.07,0-0.14-0.01-0.22
			c-0.09-4.17,0.66-8.78,2.78-13.7c0.02-0.05,0.04-0.09,0.06-0.14c0.3-0.68,0.61-1.36,0.96-2.05c0-0.01,0.01-0.02,0.01-0.03
			c0.33-0.66,0.7-1.32,1.08-1.99c0.08-0.14,0.16-0.28,0.24-0.42c0.39-0.66,0.8-1.33,1.24-2c0.34-0.51,0.72-1.02,1.12-1.52
			c0,0,0.01-0.01,0.01-0.01c0.41-0.51,0.84-0.99,1.28-1.42c0.03-0.03,0.06-0.05,0.09-0.08c0.54-0.54,1.08-1.05,1.62-1.53
			c0.18-0.17,0.37-0.33,0.55-0.49c0.4-0.35,0.81-0.69,1.21-1.02c0.19-0.15,0.38-0.31,0.57-0.45c0.47-0.37,0.93-0.71,1.4-1.05
			c0.11-0.08,0.21-0.16,0.32-0.23c0.57-0.4,1.13-0.77,1.7-1.12c0.16-0.1,0.33-0.19,0.49-0.29c0.41-0.25,0.83-0.49,1.24-0.71
			c0.19-0.1,0.38-0.21,0.58-0.31c0.42-0.22,0.84-0.42,1.25-0.62c0.15-0.07,0.3-0.15,0.46-0.22c0.56-0.25,1.12-0.49,1.68-0.7
			c0.13-0.05,0.26-0.09,0.39-0.14c0.43-0.16,0.87-0.31,1.3-0.45c0.21-0.07,0.41-0.13,0.62-0.19c0.36-0.1,0.71-0.2,1.06-0.29
			c0.22-0.06,0.43-0.11,0.65-0.16c0.36-0.08,0.71-0.16,1.06-0.23c0.19-0.04,0.39-0.08,0.58-0.11c0.5-0.09,0.99-0.16,1.48-0.23
			c0.14-0.02,0.28-0.03,0.42-0.05c0.41-0.05,0.81-0.09,1.22-0.11c0.21-0.02,0.42-0.02,0.63-0.03c0.31-0.02,0.61-0.03,0.91-0.04
			c0.22-0.01,0.44-0.01,0.66-0.01c0.29,0,0.58,0,0.86,0.01c0.21,0.01,0.42,0.01,0.63,0.02c0.32,0.01,0.64,0.04,0.96,0.06
			c0.26,0.02,0.52,0.04,0.77,0.07c0.34,0.03,0.69,0.07,1.02,0.11c0.21,0.03,0.42,0.06,0.64,0.09c0.24,0.04,0.48,0.07,0.72,0.11
			c0.22,0.04,0.43,0.08,0.65,0.12c0.22,0.04,0.44,0.09,0.66,0.13c0.21,0.04,0.42,0.09,0.63,0.14c0.22,0.05,0.44,0.1,0.65,0.16
			c0.29,0.07,0.58,0.15,0.86,0.22c0.26,0.07,0.52,0.14,0.77,0.22c0.2,0.06,0.4,0.12,0.59,0.19c0.17,0.06,0.35,0.11,0.52,0.17
			c0.19,0.06,0.38,0.13,0.57,0.2c0.16,0.06,0.32,0.11,0.47,0.17c0.18,0.07,0.36,0.13,0.54,0.2c0.15,0.06,0.29,0.11,0.44,0.17
			c0.17,0.07,0.35,0.14,0.51,0.21c0.11,0.04,0.2,0.09,0.31,0.13c0.33,0.14,0.64,0.28,0.94,0.42c0.12,0.05,0.23,0.11,0.35,0.16
			c0.15,0.07,0.29,0.14,0.43,0.21c0.1,0.05,0.21,0.1,0.31,0.15c0.13,0.07,0.26,0.13,0.39,0.2c0.09,0.05,0.17,0.09,0.26,0.14
			c0.12,0.06,0.24,0.13,0.36,0.19c0.04,0.02,0.08,0.04,0.12,0.07c0.25,0.14,0.48,0.27,0.67,0.38c0.04,0.02,0.08,0.05,0.12,0.07
			c0.09,0.06,0.18,0.11,0.26,0.15c0.04,0.02,0.07,0.05,0.11,0.07c0.08,0.05,0.15,0.09,0.21,0.13c0.02,0.01,0.03,0.02,0.04,0.03
			c0.14,0.09,0.24,0.15,0.29,0.19c8.71,6.08,13.7,17.17,16.24,24.73c0.02,0.07,0.05,0.15,0.07,0.22c0.51,1.54,0.92,2.93,1.24,4.09
			c0.6,2.2,0.87,3.59,0.88,3.65l0.05,0.24c0.01,0.03,0.02,0.06,0.03,0.09c0.35,1.29,0.71,2.54,1.07,3.77
			c0.16,0.52,0.32,1.04,0.48,1.55c0.22,0.71,0.43,1.42,0.66,2.11c0.24,0.74,0.49,1.47,0.74,2.2c0.14,0.42,0.28,0.85,0.43,1.26
			c0.3,0.85,0.6,1.69,0.91,2.52c0.09,0.25,0.18,0.5,0.28,0.75c0.14,0.36,0.26,0.73,0.4,1.08l0.46,1.2l0.03,0.01
			c4.55,11.37,9.58,19.37,13.77,24.03c-7.73-4.52-22.49-9.38-43.63-10.69l-0.24-0.01c-0.23,0-23.38,0.28-35.73-11.45
			c-0.23-0.22-1.89-1.89-3.79-4.71l-0.85-1.4C154.32-55.52,152.47-59.68,151.68-64.46z M275.54,2.02c1.71,5.51,2.79,11.44,3.2,17.65
			c0.49,6.32,0.13,13.08-1.06,20.09c-1.9,11.29-6.03,23.66-12.26,36.78c-10.21,21.5-26.81,46.41-49.34,74.05
			c-5.3,6.5-10.91,13.14-16.67,19.73c-5.86,6.72-12.16,13.72-18.72,20.82c-3.13,3.01-6.58,4.63-10.56,4.94
			c-3.92,0.31-7.43-0.84-10.73-3.53L-74.73,1.67c-3.3-2.69-5.15-5.99-5.65-10.1c-0.51-4.14,0.46-7.84,2.96-11.3
			c5.77-8.01,11.95-16.4,18.37-24.95c6.57-8.75,13.44-17.52,20.41-26.06c9.02-11.06,18.76-21.72,28.95-31.68
			c10.05-9.82,20.9-17.93,32.24-24.1c2.41-1.31,4.86-2.51,7.33-3.61c2.4-1.06,4.82-2.02,7.24-2.87c6.76-2.37,13.8-3.97,20.92-4.76
			c11.14-1.22,23.01,0.61,35.27,5.43l0.36,0.14c1.02,0.41,2.04,0.83,3.08,1.28c5.65,2.43,11.05,5.73,16.07,9.82
			c8.23,6.71,14.73,16.44,19.32,28.92c4.61,12.56,5.82,30.25,3.6,52.58l-0.88,8.88l6.07-6.54c3.43-3.7,7.43-6.85,11.91-9.42
			c2.15,3.12,3.93,4.89,4,4.95c13.81,13.11,37.67,13.15,39.87,13.13c24.95,1.56,39.07,8.06,43.48,11.66
			c2.59,2.11,4.82,3.01,6.83,2.73c0.46-0.06,0.91-0.19,1.32-0.37c0.73-0.32,1.37-0.83,1.87-1.48c0.84-0.98,1.26-2.21,1.17-3.5
			c-0.14-2.02-1.46-4.03-4.05-6.14c-2.82-2.3-7.6-8.25-12.39-18.54c5.71,2.92,11.06,6.38,15.95,10.37
			c7.69,6.27,14.14,14.03,19.19,23.09C272.32-6.73,274.16-2.43,275.54,2.02z"/>
		<path class="st2" d="M92.77-1.47c8.5-26.74,3.25-48.81-15.18-63.84C66.63-74.24,54.63-77.84,41.9-76
			C11.66-71.65-11.89-38.3-12.88-36.88l-1.59,2.28l87.2,71.09l1.88-2.47C75.09,33.39,86.5,18.26,92.77-1.47z M71.63,27.86
			L-6.29-35.67c5.75-7.42,25.68-31.03,49.05-34.39c11-1.58,21.45,1.58,31.05,9.41C90.36-47.15,94.84-27.89,87.1-3.42
			C82.6,10.81,75.06,22.82,71.63,27.86z"/>
		<path class="st2" d="M111.25,41.67c-7.01,7.25-11.15,13.17-11.32,13.42l-1.59,2.28l87.2,71.09l1.88-2.47
			c1.36-1.79,33.18-44.25,18.14-79.62c-3.17-7.47-8.27-14.1-15.16-19.71C158.93,1.01,127.3,25.06,111.25,41.67z M200.03,48.72
			c11.72,27.54-9.17,61.63-15.6,71.1l-77.92-63.53c1.77-2.3,4.9-6.15,9.06-10.45c7.13-7.38,18.33-17.15,31.19-21.73
			c14.33-5.1,27.73-2.68,39.85,7.19C192.72,36.3,197.24,42.16,200.03,48.72L200.03,48.72z"/>
	</g>
</g>
<g>
</g>
<g>
</g>
<g>
</g>
<g>
</g>
<g>
</g>
<g>
</g>
</svg>
