<?xml version="1.0" encoding="utf-8"?>
<!-- Generator: Adobe Illustrator 25.2.0, SVG Export Plug-In . SVG Version: 6.00 Build 0)  -->
<svg version="1.1" id="Layer_1" xmlns="http://www.w3.org/2000/svg" xmlns:xlink="http://www.w3.org/1999/xlink" x="0px" y="0px"
	 viewBox="0 0 230.44 234.37" style="enable-background:new 0 0 230.44 234.37;" xml:space="preserve">
<style type="text/css">
	.st0{fill:url(#SVGID_1_);}
	.st1{fill:url(#SVGID_2_);}
</style>
<g>
	
		<linearGradient id="SVGID_1_" gradientUnits="userSpaceOnUse" x1="71.4411" y1="118.8113" x2="158.9939" y2="118.8113" gradientTransform="matrix(1 0 0 -1 0 236)">
		<stop  offset="8.073434e-08" style="stop-color:#1EA464"/>
		<stop  offset="1" style="stop-color:#42B174"/>
	</linearGradient>
	<path class="st0" d="M115.21,175.45c-2.86-3.71-5.63-7.21-8.29-10.8c-9.23-12.41-18.44-24.84-27.64-37.28
		c-3.43-4.63-5.97-9.7-7.03-15.42c-3.46-18.66,4.35-36.74,20.17-46.5c17.29-10.66,39.31-8.06,53.62,6.38
		c9.17,9.24,13.38,20.53,12.92,33.63c-0.27,7.8-2.61,14.85-7.21,21.08c-10.52,14.24-21.11,28.42-31.69,42.62
		C118.52,171.23,116.91,173.24,115.21,175.45z M115.18,158.04c0.31-0.37,0.49-0.56,0.64-0.77c8.23-11.03,16.47-22.04,24.66-33.09
		c1.72-2.32,3.4-4.7,4.78-7.23c3.4-6.19,3.76-12.88,2.64-19.72c-3.19-19.47-23.23-32.22-41.9-26.33
		c-13.81,4.35-21.86,14.03-23.79,28.59c-1,7.55,0.45,14.61,5.03,20.84c6.9,9.39,13.79,18.79,20.71,28.17
		C110.29,151.66,112.7,154.77,115.18,158.04z"/>
	
		<linearGradient id="SVGID_2_" gradientUnits="userSpaceOnUse" x1="96.1" y1="134.145" x2="134.3" y2="134.145" gradientTransform="matrix(1 0 0 -1 0 236)">
		<stop  offset="8.073434e-08" style="stop-color:#1EA464"/>
		<stop  offset="1" style="stop-color:#42B174"/>
	</linearGradient>
	<path class="st1" d="M134.3,101.81c0.01,10.66-8.5,19.3-19.04,19.32c-10.52,0.02-19.15-8.64-19.16-19.24
		c-0.01-10.63,8.56-19.3,19.07-19.31C125.74,82.57,134.29,91.16,134.3,101.81z M123.82,101.89c0.02-4.78-3.91-8.75-8.64-8.73
		c-4.67,0.01-8.57,3.95-8.58,8.66c-0.01,4.78,3.9,8.73,8.63,8.74C119.87,110.55,123.81,106.59,123.82,101.89z"/>
</g>
</svg>
