<?xml version="1.0" encoding="utf-8"?>
<!-- Generator: Adobe Illustrator 25.2.0, SVG Export Plug-In . SVG Version: 6.00 Build 0)  -->
<svg version="1.1" id="Layer_1" xmlns="http://www.w3.org/2000/svg" xmlns:xlink="http://www.w3.org/1999/xlink" x="0px" y="0px"
	 viewBox="0 0 230.44 234.37" style="enable-background:new 0 0 230.44 234.37;" xml:space="preserve">
<style type="text/css">
	.st0{fill:url(#SVGID_1_);}
</style>
<linearGradient id="SVGID_1_" gradientUnits="userSpaceOnUse" x1="59.4304" y1="118.7979" x2="155.63" y2="118.7979" gradientTransform="matrix(1 0 0 -1 0 236)">
	<stop  offset="8.073434e-08" style="stop-color:#1EA464"/>
	<stop  offset="1" style="stop-color:#42B174"/>
</linearGradient>
<path class="st0" d="M121.93,168.33c-3.2,0.05-6.32-0.46-9.37-1.41c-3.26-1.02-6.19-2.69-9.06-4.5
	c-7.79-4.94-14.49-11.11-20.53-18.07c-3.78-4.36-7.47-8.78-10.73-13.55c-3.81-5.57-7.22-11.37-9.72-17.68
	c-1.32-3.33-2.35-6.75-2.82-10.31c-0.81-6.18,0.16-12.02,3.52-17.34c2.78-4.4,6.7-7.21,11.74-8.45c2.59-0.64,5.18-0.88,7.83-0.62
	c1.87,0.18,3.18,1.2,4.17,2.73c0.95,1.47,1.41,3.13,1.79,4.81c1.16,5.15,2.4,10.29,3.17,15.52c0.06,0.42,0.13,0.83,0.18,1.25
	c0.14,1.04-0.19,1.94-0.89,2.71c-0.9,0.99-2,1.68-3.2,2.21c-1.42,0.63-2.85,1.26-4.27,1.89c-0.02,0.01-0.05,0.02-0.07,0.04
	c-1.6,0.84-1.82,1.36-1.56,3.16c0.27,1.88,1.05,3.56,1.81,5.26c2.6,5.75,5.92,11.01,10.18,15.66c2.8,3.06,5.9,5.78,9.27,8.18
	c1.1,0.78,2.17,1.6,3.25,2.39c0.87,0.64,1.83,1.07,2.85,1.4c1.01,0.33,1.86,0.08,2.62-0.63c0.73-0.69,1.3-1.5,1.78-2.37
	c0.83-1.49,1.74-2.91,3.02-4.05c0.71-0.64,1.45-1.28,2.46-1.34c0.47-0.03,0.97,0.03,1.42,0.16c2.7,0.77,5.3,1.85,7.9,2.93
	c3.88,1.6,7.73,3.24,11.36,5.37c0.69,0.41,1.34,0.92,1.93,1.47c0.71,0.66,0.99,1.55,1.02,2.52c0.11,3.03-0.63,5.87-1.9,8.59
	c-1.85,3.95-4.55,7.17-8.27,9.46c-2.75,1.7-5.76,2.51-8.97,2.65C123.22,168.36,122.57,168.33,121.93,168.33z M155.63,118.55
	c-0.16-1.91-0.26-3.82-0.48-5.72c-0.56-4.98-1.79-9.78-3.65-14.42c-2.81-6.96-6.89-13.05-12.25-18.27
	c-4.14-4.02-8.82-7.26-13.99-9.76c-4.02-1.94-8.21-3.38-12.58-4.29c-1.34-0.28-2.58,0.52-2.84,1.82c-0.26,1.27,0.59,2.48,1.93,2.75
	c0.35,0.07,0.69,0.15,1.04,0.23c9.66,2.31,17.99,6.97,24.85,14.25c4.69,4.98,8.14,10.73,10.39,17.21
	c2.11,6.08,3.09,12.34,2.87,18.78c-0.05,1.43,0.93,2.53,2.25,2.57c1.32,0.03,2.35-1.02,2.37-2.45c0.02-0.89,0-1.79,0-2.68
	C155.56,118.55,155.59,118.55,155.63,118.55z M140.32,106.19c-4.15-13.76-15.11-23.44-28.25-26.58c-0.33-0.08-0.71-0.09-1.05-0.02
	c-1.07,0.22-1.82,1.15-1.83,2.19c-0.01,1.13,0.71,2.06,1.8,2.36c1.16,0.32,2.33,0.61,3.46,1.02c7.53,2.7,13.54,7.38,17.78,14.24
	c3.56,5.76,5.23,12.07,5.22,18.85c0,1.34,1,2.4,2.29,2.41s2.32-1.03,2.34-2.36c0.01-0.5,0-1,0-1.49
	C141.95,113.2,141.37,109.66,140.32,106.19z M128.41,115.32c-0.12-1.11-0.2-2.24-0.38-3.34c-1.46-9.07-8.14-16.2-17.05-18.19
	c-0.37-0.08-0.79-0.08-1.16,0c-1.05,0.23-1.78,1.22-1.76,2.26c0.03,1.15,0.78,2.01,1.92,2.3c5.66,1.4,9.8,4.7,12.22,10.09
	c1.09,2.43,1.56,5,1.51,7.67c-0.02,1.24,0.86,2.27,2.01,2.4c1.21,0.14,2.3-0.62,2.55-1.84c0.09-0.43,0.06-0.89,0.08-1.33
	C128.38,115.32,128.4,115.32,128.41,115.32z"/>
</svg>
