<?xml version="1.0" encoding="utf-8"?>
<!-- Generator: Adobe Illustrator 25.2.0, SVG Export Plug-In . SVG Version: 6.00 Build 0)  -->
<svg version="1.1" id="Layer_1" xmlns="http://www.w3.org/2000/svg" xmlns:xlink="http://www.w3.org/1999/xlink" x="0px" y="0px"
	 viewBox="0 0 186.81 165.46" style="enable-background:new 0 0 186.81 165.46;" xml:space="preserve">
<style type="text/css">
	.st0{fill:#FFFFFF;}
</style>
<path class="st0" d="M139.86,56.38c-0.08,0.75-0.19,1.5-0.23,2.25c-0.74,14.52-3.28,28.64-9.42,41.94
	c-4.41,9.55-10.25,18.06-18.52,24.73c-5.15,4.15-10.89,7.16-17.34,8.7c-0.6,0.14-1.3,0.14-1.9,0c-9.48-2.33-17.2-7.53-23.68-14.68
	c-8.47-9.36-13.8-20.42-17.22-32.47c-2.09-7.36-3.42-14.86-3.94-22.5c-0.19-2.82-0.43-5.63-0.66-8.57
	c18.83-1.94,33.35-11.92,46.34-24.41c3.43,2.94,6.77,5.99,10.3,8.78c5.65,4.46,11.71,8.3,18.39,11.06
	c5.73,2.37,11.65,4.09,17.89,4.48C139.86,55.92,139.86,56.15,139.86,56.38z M131.14,63.43c0.06-1.65,0.06-1.65-1.38-2
	c-4.53-1.13-8.87-2.76-13.09-4.74c-8.01-3.76-15.27-8.65-21.98-14.38c-1.05-0.89-1.51-0.89-2.53-0.03
	c-0.96,0.81-1.93,1.63-2.92,2.41c-9.77,7.73-20.41,13.78-32.59,16.84c-0.89,0.22-1.05,0.6-1.01,1.39
	c0.35,6.11,1.13,12.16,2.53,18.12c2.8,11.94,7.48,22.99,15.52,32.41c4.76,5.57,10.42,9.93,17.28,12.7c1.67,0.67,3.19,0.81,4.81,0.01
	c1.26-0.63,2.59-1.12,3.84-1.77c8.16-4.27,14.22-10.74,19.01-18.46C126.69,92.87,130.14,78.45,131.14,63.43z M89.73,89.96
	c-3.97-3.92-7.95-7.83-11.92-11.76c-2.74-2.71-3.94-2.71-6.65,0.05c-1.59,1.62-1.6,3.29,0.03,4.9c5.46,5.4,10.93,10.8,16.4,16.19
	c2.1,2.07,3.54,2.05,5.66-0.03c6.97-6.87,13.93-13.75,20.89-20.62c1.93-1.91,3.88-3.8,5.78-5.73c1.36-1.39,1.34-3.08,0.02-4.49
	c-0.31-0.33-0.65-0.65-0.97-0.97c-1.73-1.7-3.36-1.72-5.09-0.04c-2.59,2.54-5.17,5.1-7.76,7.65c-5.22,5.15-10.44,10.31-15.69,15.49
	C90.17,90.37,89.94,90.17,89.73,89.96z"/>
</svg>
