<?xml version="1.0" encoding="utf-8"?>
<!-- Generator: Adobe Illustrator 25.2.0, SVG Export Plug-In . SVG Version: 6.00 Build 0)  -->
<svg version="1.1" id="Layer_1" xmlns="http://www.w3.org/2000/svg" xmlns:xlink="http://www.w3.org/1999/xlink" x="0px" y="0px"
	 viewBox="0 0 186.81 165.46" style="enable-background:new 0 0 186.81 165.46;" xml:space="preserve">
<style type="text/css">
	.st0{fill:#FFFFFF;}
</style>
<g>
	<path class="st0" d="M126.21,107.71c-4.33,5.72-9.49,9.92-15.7,12.82c-3.5,1.63-7.17,2.69-10.98,3.32
		c-0.38,0.06-0.87,0.28-1.04,0.58c-3.77,6.51-9.72,9.85-16.83,11.21c-3.35,0.64-6.83,0.6-10.26,0.82c-0.79,0.05-1.53-0.19-1.73-1.1
		c-0.21-0.96,0.5-1.3,1.21-1.63c4.95-2.36,7.35-6.71,9.16-11.55c-1.86-0.86-3.65-1.59-5.36-2.48c-14.9-7.73-23.51-23.66-21.82-40.28
		c1.96-19.21,17.05-34.37,36.28-36.45c22-2.38,42.04,13.55,44.68,35.51c1.03,8.58-0.47,16.69-4.51,24.34
		c-0.4,0.75-0.88,1.19-1.72,1.43c-8.24,2.39-16.63,3.89-25.18,4.48c-0.41,0.03-0.97-0.23-1.26-0.54c-0.87-0.91-1.85-1.45-3.13-1.45
		c-3.09,0.01-6.17-0.02-9.26,0.01c-2.3,0.03-3.93,1.66-3.95,3.86c-0.02,2.13,1.7,3.8,4,3.81c3.05,0.02,6.1-0.01,9.14,0.01
		c1.58,0.01,2.69-0.69,3.56-1.98c0.24-0.35,0.74-0.72,1.14-0.75C110.51,111.08,118.26,109.82,126.21,107.71z M93.4,87.08
		c1.92,0,3.55-1.6,3.57-3.53c0.02-1.92-1.58-3.56-3.5-3.6c-1.97-0.04-3.64,1.61-3.63,3.59C89.86,85.48,91.46,87.08,93.4,87.08z
		 M75.1,83.46c-0.03,1.96,1.52,3.58,3.46,3.63c1.97,0.05,3.67-1.6,3.67-3.56c0-1.91-1.62-3.55-3.54-3.57
		C76.73,79.94,75.13,81.5,75.1,83.46z M108.14,87.08c2,0,3.61-1.63,3.59-3.62c-0.03-1.91-1.68-3.53-3.6-3.5
		c-1.92,0.02-3.54,1.66-3.53,3.57C104.6,85.45,106.23,87.08,108.14,87.08z"/>
	<path class="st0" d="M134.86,108.4c13.04-22.6,5.49-49.15-12.34-62.66c-17.53-13.29-41.97-13.03-59.14,0.72
		c-17.69,14.17-23.93,40.09-11.43,61.92c-0.98,0.34-1.89,0.82-2.86,0.97c-2.81,0.42-5.64,0.79-8.48,1.04
		c-4.38,0.39-7.96-2.62-8.5-6.98c-0.84-6.83-1.69-13.66-2.55-20.49c-0.63-5.05,2.36-8.83,7.43-9.39c1.06-0.12,2.39,0.04,3.08-0.55
		c0.67-0.56,0.66-1.92,0.97-2.93c6.64-21.78,20.99-35.38,43.43-39.42c28.27-5.09,55.19,13.18,61.68,41.23
		c0.23,0.98,0.62,1.42,1.61,1.44c0.71,0.01,1.41,0.16,2.12,0.24c4.95,0.52,7.97,4.38,7.34,9.35c-0.87,6.87-1.71,13.74-2.56,20.61
		c-0.5,4.1-4,7.19-8.11,6.91c-3.03-0.21-6.06-0.65-9.07-1.08C136.63,109.19,135.81,108.74,134.86,108.4z"/>
</g>
</svg>
