<?xml version="1.0" encoding="utf-8"?>
<!-- Generator: Adobe Illustrator 25.2.0, SVG Export Plug-In . SVG Version: 6.00 Build 0)  -->
<svg version="1.1" id="Layer_1" xmlns="http://www.w3.org/2000/svg" xmlns:xlink="http://www.w3.org/1999/xlink" x="0px" y="0px"
	 viewBox="0 0 490.8 240.25" style="enable-background:new 0 0 490.8 240.25;" xml:space="preserve">
<style type="text/css">
	.st0{fill:#FFFFFF;}
	.st1{fill:url(#SVGID_1_);}
	.st2{opacity:0.1;clip-path:url(#SVGID_3_);}
	.st3{fill:#E52521;}
</style>
<g>
	<path class="st0" d="M309,126.43c-3.78,0-6.7-0.73-8.75-2.19c-2.06-1.46-3.08-3.52-3.08-6.18c0-1.23,0.19-2.55,0.58-3.95
		c0.39-1.4,1.03-2.9,1.92-4.5l2.5,1.18c-0.67,1.4-1.14,2.64-1.42,3.72c-0.28,1.08-0.42,2.08-0.42,3.01c0,1.4,0.38,2.52,1.12,3.36
		c0.75,0.84,1.83,1.45,3.23,1.83c1.4,0.38,3.09,0.57,5.06,0.57h15.21l1.79,3.15H309z M313.58,135.48l-2.75-2.82l2.63-2.82l2.75,2.82
		L313.58,135.48z M318.7,123.28h0.42v3.15h-0.42c-0.83,0-1.25-0.55-1.25-1.64C317.45,123.78,317.87,123.28,318.7,123.28z
		 M318.7,126.43v-3.15h7.75c0.17-1.99,0-3.96-0.5-5.91c-0.5-1.95-1.29-3.97-2.38-6.08l2.67-2.69c0.92,1.88,1.67,3.79,2.25,5.72
		s0.91,3.9,0.98,5.91c0.07,2-0.24,4.07-0.94,6.2H318.7z"/>
	<path class="st0" d="M339.75,136.11c-1.11,0-2.33-0.21-3.65-0.63c-1.32-0.42-2.56-1.04-3.73-1.85l1.25-2.31
		c0.92,0.48,1.9,0.87,2.94,1.18c1.04,0.31,1.98,0.46,2.81,0.46c2.08,0,3.85-0.58,5.29-1.75c1.44-1.16,2.44-2.75,3-4.77h-3.54
		c-1.56,0-2.89-0.15-4-0.46c-1.11-0.31-2.02-0.74-2.73-1.3c-0.71-0.56-1.23-1.24-1.56-2.04c-0.33-0.8-0.5-1.67-0.5-2.63
		c0-1.35,0.21-2.59,0.63-3.72c0.42-1.13,0.99-2.12,1.73-2.94s1.57-1.47,2.5-1.93c0.93-0.46,1.91-0.69,2.94-0.69
		c1.47,0,2.78,0.45,3.94,1.35c1.15,0.9,2.07,2.16,2.75,3.79c0.68,1.63,1.06,3.52,1.15,5.68c0.03,0.28,0.04,0.57,0.04,0.86
		c0,0.29-0.01,0.6-0.04,0.9h2.96v3.15h-3.33c-0.28,1.35-0.72,2.61-1.33,3.79c-0.61,1.18-1.37,2.21-2.27,3.09
		c-0.9,0.88-1.96,1.57-3.17,2.06C342.6,135.86,341.25,136.11,339.75,136.11z M344.37,123.28h3.67c0.03-0.31,0.04-0.61,0.04-0.9
		c0-0.29-0.01-0.58-0.04-0.86c-0.08-1.43-0.34-2.72-0.77-3.87c-0.43-1.15-1.01-2.07-1.75-2.75c-0.74-0.69-1.59-1.03-2.56-1.03
		c-0.86,0-1.65,0.27-2.38,0.82c-0.72,0.55-1.29,1.25-1.69,2.1c-0.4,0.86-0.6,1.76-0.6,2.71c0,0.81,0.19,1.5,0.56,2.06
		c0.38,0.56,1.01,0.99,1.9,1.28C341.64,123.13,342.84,123.28,344.37,123.28z"/>
	<path class="st0" d="M353.91,123.28h0.42v3.15h-0.42c-0.83,0-1.25-0.55-1.25-1.64C352.66,123.78,353.08,123.28,353.91,123.28z
		 M353.91,126.43v-3.15h4.96c0.36-0.73,0.7-1.61,1.02-2.65s0.6-2.14,0.83-3.3c0.24-1.16,0.41-2.26,0.52-3.3l3.67-1.26
		c-0.36,1.88-0.76,3.61-1.19,5.19c-0.43,1.58-0.93,3.06-1.5,4.44s-1.26,2.72-2.06,4.04H353.91z M358,135.48l-2.79-2.82l2.62-2.82
		l2.79,2.82L358,135.48z M368.21,126.43c-1.22,0-2.35-0.12-3.4-0.36s-2-0.55-2.88-0.93c-0.88-0.38-1.69-0.82-2.44-1.32l1.67-2.23
		c0.64,0.37,1.31,0.67,2.02,0.93c0.71,0.25,1.44,0.44,2.21,0.57s1.52,0.19,2.27,0.19h0.79v3.15H368.21z M364.58,135.48l-2.79-2.82
		l2.63-2.82l2.79,2.82L364.58,135.48z"/>
	<path class="st0" d="M368.46,123.28h0.42v3.15h-0.42c-0.83,0-1.25-0.55-1.25-1.64C367.21,123.78,367.62,123.28,368.46,123.28z
		 M368.46,126.43v-3.15h7.75c0.17-1.99,0-3.96-0.5-5.91c-0.5-1.95-1.29-3.97-2.38-6.08l2.67-2.69c0.92,1.88,1.67,3.79,2.25,5.72
		c0.58,1.93,0.91,3.9,0.98,5.91s-0.24,4.07-0.94,6.2H368.46z M371.5,104.27l-2.79-2.82l2.62-2.82l2.79,2.82L371.5,104.27z
		 M378.08,104.27l-2.79-2.82l2.62-2.82l2.79,2.82L378.08,104.27z"/>
	<path class="st0" d="M389.5,136.11c-1.11,0-2.33-0.21-3.65-0.63c-1.32-0.42-2.56-1.04-3.73-1.85l1.25-2.31
		c0.92,0.48,1.9,0.87,2.94,1.18c1.04,0.31,1.98,0.46,2.81,0.46c2.08,0,3.85-0.58,5.29-1.75c1.44-1.16,2.44-2.75,3-4.77h-3.54
		c-1.56,0-2.89-0.15-4-0.46c-1.11-0.31-2.02-0.74-2.73-1.3c-0.71-0.56-1.23-1.24-1.56-2.04c-0.33-0.8-0.5-1.67-0.5-2.63
		c0-1.35,0.21-2.59,0.63-3.72c0.42-1.13,0.99-2.12,1.73-2.94s1.57-1.47,2.5-1.93c0.93-0.46,1.91-0.69,2.94-0.69
		c1.47,0,2.78,0.45,3.94,1.35c1.15,0.9,2.07,2.16,2.75,3.79c0.68,1.63,1.06,3.52,1.15,5.68c0.03,0.28,0.04,0.57,0.04,0.86
		c0,0.29-0.01,0.6-0.04,0.9h2.96v3.15h-3.33c-0.28,1.35-0.72,2.61-1.33,3.79c-0.61,1.18-1.37,2.21-2.27,3.09
		c-0.9,0.88-1.96,1.57-3.17,2.06C392.35,135.86,391,136.11,389.5,136.11z M394.12,123.28h3.67c0.03-0.31,0.04-0.61,0.04-0.9
		c0-0.29-0.01-0.58-0.04-0.86c-0.08-1.43-0.34-2.72-0.77-3.87c-0.43-1.15-1.01-2.07-1.75-2.75c-0.74-0.69-1.59-1.03-2.56-1.03
		c-0.86,0-1.65,0.27-2.38,0.82c-0.72,0.55-1.29,1.25-1.69,2.1c-0.4,0.86-0.6,1.76-0.6,2.71c0,0.81,0.19,1.5,0.56,2.06
		c0.38,0.56,1.01,0.99,1.9,1.28C391.39,123.13,392.6,123.28,394.12,123.28z"/>
	<path class="st0" d="M403.67,123.28h0.42v3.15h-0.42c-0.83,0-1.25-0.55-1.25-1.64C402.42,123.78,402.83,123.28,403.67,123.28z
		 M403.67,126.43v-3.15h4.96c0.36-0.73,0.7-1.61,1.02-2.65s0.6-2.14,0.83-3.3c0.24-1.16,0.41-2.26,0.52-3.3l3.67-1.26
		c-0.36,1.88-0.76,3.61-1.19,5.19c-0.43,1.58-0.93,3.06-1.5,4.44s-1.26,2.72-2.06,4.04H403.67z M407.75,135.48l-2.79-2.82l2.62-2.82
		l2.79,2.82L407.75,135.48z M417.96,126.43c-1.22,0-2.35-0.12-3.4-0.36s-2-0.55-2.88-0.93c-0.88-0.38-1.69-0.82-2.44-1.32l1.67-2.23
		c0.64,0.37,1.31,0.67,2.02,0.93c0.71,0.25,1.44,0.44,2.21,0.57s1.52,0.19,2.27,0.19h0.79v3.15H417.96z M414.33,135.48l-2.79-2.82
		l2.63-2.82l2.79,2.82L414.33,135.48z"/>
	<path class="st0" d="M418.21,123.28h0.42v3.15h-0.42c-0.83,0-1.25-0.55-1.25-1.64C416.96,123.78,417.38,123.28,418.21,123.28z
		 M418.21,126.43v-3.15H424V95.31h3.17v31.12H418.21z"/>
	<path class="st0" d="M433.83,95.31H437v31.12h-3.17V95.31z"/>
</g>
<g>
	<linearGradient id="SVGID_1_" gradientUnits="userSpaceOnUse" x1="412.297" y1="203.0195" x2="-22.7189" y2="-14.9369">
		<stop  offset="0" style="stop-color:#E52521"/>
		<stop  offset="1" style="stop-color:#A51A17"/>
	</linearGradient>
	<path class="st1" d="M442.99,226.39H42.02c-19.24,0-34.84-15.6-34.84-34.84V44.35c0-19.24,15.6-34.84,34.84-34.84h400.98
		c19.24,0,34.84,15.6,34.84,34.84v147.19C477.84,210.79,462.24,226.39,442.99,226.39z"/>
	<g>
		<defs>
			<path id="SVGID_2_" d="M442.91,226.39H41.94c-19.24,0-34.84-15.6-34.84-34.84V44.35c0-19.24,15.6-34.84,34.84-34.84h400.98
				c19.24,0,34.84,15.6,34.84,34.84v147.19C477.76,210.79,462.16,226.39,442.91,226.39z"/>
		</defs>
		<clipPath id="SVGID_3_">
			<use xlink:href="#SVGID_2_"  style="overflow:visible;"/>
		</clipPath>
		<g class="st2">
			<path class="st0" d="M-0.32,300.83c-0.68-13.78-1.33-27.57-2.05-41.35c-0.8-15.14-1.68-30.27-2.5-45.4
				c-0.6-11.09-1.18-22.17-1.69-33.26c-0.07-1.61,0.01-3.35,0.55-4.83c0.92-2.53,2.87-4.11,5.69-4.02c2.84,0.09,5.46,2.28,5.82,5.09
				c0.49,3.83,0.78,7.68,0.99,11.54c1.94,35.67,3.84,71.35,5.74,107.02c0.09,1.73,0.08,3.48,0.11,5.21
				C8.12,300.83,3.9,300.83-0.32,300.83z"/>
			<path class="st0" d="M367.31,300.83c-0.75-13-1.51-26.01-2.24-39.01c-0.94-16.58-1.87-33.16-2.77-49.74
				c-0.59-10.8-1.17-21.6-1.65-32.4c-0.19-4.25,2.37-7.53,5.77-7.75c3.67-0.24,6.47,2.66,6.71,7.11c1.38,24.88,2.7,49.76,4.08,74.64
				c0.88,15.72,1.83,31.43,2.75,47.15C375.74,300.83,371.52,300.83,367.31,300.83z"/>
			<path class="st0" d="M-26.78,44.31c6.4-0.37,12.8-0.85,19.2-1.01c1.33-0.03,3.05,0.78,3.95,1.79c1.35,1.51,1.91,0.93,2.79-0.26
				c2.98-4.02,5.93-8.07,9.03-11.99c1.11-1.4,2.5-2.74,4.04-3.6c1.07-0.59,2.99-0.84,3.85-0.25c0.89,0.62,1.47,2.51,1.29,3.72
				c-0.27,1.84-1.05,3.74-2.06,5.32C8.9,48.09,2.48,58.15-4.19,68.05c-6.99,10.38-14.24,20.58-21.39,30.85
				c-0.31,0.44-0.8,0.75-1.21,1.12C-26.78,81.45-26.78,62.88-26.78,44.31z"/>
			<path class="st0" d="M163.07,300.83c-0.42-25.77-0.85-51.54-1.26-77.3c-0.05-2.88-0.2-5.78,0.02-8.64
				c0.27-3.64,2.93-6.18,6.05-6.17c3.12,0.01,6.01,2.84,6.15,6.46c0.29,7.71,0.4,15.43,0.55,23.15c0.39,20.84,0.77,41.68,1.15,62.51
				C171.51,300.83,167.29,300.83,163.07,300.83z"/>
			<path class="st0" d="M-26.78,4.27c15.47-0.8,30.93-1.62,46.4-2.38c2.29-0.11,4.6-0.06,6.87,0.21c1.87,0.22,3.56,1.09,3.68,3.37
				c0.11,2.26-1.47,3.4-3.29,3.78c-2.98,0.63-6.03,1.06-9.06,1.26c-13.73,0.9-27.47,1.68-41.2,2.53c-1.14,0.07-2.26,0.34-3.39,0.51
				C-26.78,10.46-26.78,7.36-26.78,4.27z"/>
			<path class="st0" d="M-26.78,18.2c12.97-0.57,25.94-1.24,38.92-1.66c3.96-0.13,6.49,1.88,6.49,4.3c0,2.57-2.14,4.51-6.22,4.8
				c-13.06,0.92-26.13,1.64-39.19,2.43C-26.78,24.77-26.78,21.48-26.78,18.2z"/>
			<path class="st0" d="M-26.78,107.57c6.12-7.25,12.28-14.48,18.36-21.77c2.21-2.65,4.25-5.45,6.37-8.18
				c0.35-0.45,0.71-0.91,1.1-1.33c2.42-2.59,4.73-3.22,6.46-1.78c1.73,1.44,1.66,3.96-0.42,6.75c-6.89,9.25-13.83,18.45-20.77,27.66
				c-3.18,4.22-6.4,8.41-9.64,12.59c-0.37,0.48-0.96,0.77-1.45,1.15C-26.78,117.63-26.78,112.6-26.78,107.57z"/>
			<path class="st0" d="M-26.78,225.38c0.76-0.58,1.47-1.22,2.27-1.71c2.7-1.68,4.89-1.02,8.08,2.16c-0.24-2.96-0.38-5.94-0.75-8.88
				c-0.47-3.75,1.65-6.96,4.89-7.12c3.16-0.15,5.6,2.63,5.61,6.32c0.01,5.22,0.13,10.44,0.06,15.66c-0.03,2.11-0.33,4.23-0.7,6.3
				c-0.35,1.93-1.35,3.43-3.54,3.59c-2.19,0.16-3.47-1.13-3.93-3.07c-0.8-3.45-1.38-6.95-1.89-9.59c-2.31,3.04-5.06,6.75-7.91,10.39
				c-0.54,0.69-1.45,1.09-2.19,1.62C-26.78,235.83-26.78,230.6-26.78,225.38z"/>
			<path class="st0" d="M-26.78,149.93c9.63-0.55,19.25-1.09,28.88-1.69c1.12-0.07,2.24-0.46,3.33-0.79
				c2.4-0.73,4.67-0.14,5.71,1.98c0.79,1.6,0.97,3.91,0.48,5.64c-0.65,2.34-2.89,3.04-5.3,3.07c-10.2,0.15-20.4,0.36-30.59,0.58
				c-0.84,0.02-1.67,0.32-2.5,0.5C-26.78,156.12-26.78,153.03-26.78,149.93z"/>
			<path class="st0" d="M433.47,300.83c-1.05-0.58-2.05-1.26-3.14-1.73c-3.94-1.68-5.87-5.08-4.67-8.38
				c1.28-3.51,5.02-4.87,9.15-3.24c7.74,3.06,15.46,6.15,23.17,9.27c3.17,1.29,6.29,2.71,9.43,4.07
				C456.09,300.83,444.78,300.83,433.47,300.83z"/>
			<path class="st0" d="M66.42,300.83c-1.34-0.66-2.68-1.35-4.03-1.98c-3.66-1.69-5.29-5.16-3.95-8.48c1.17-2.92,4.84-4.52,8.3-3.17
				c10.88,4.24,21.69,8.65,32.51,13.02c0.23,0.09,0.37,0.4,0.55,0.6C88.66,300.83,77.54,300.83,66.42,300.83z"/>
			<path class="st0" d="M-26.78,136.59c7.7-0.46,15.4-0.93,23.11-1.39c2.19-0.13,4.39-0.39,6.58-0.32c2.22,0.07,3.87,1.25,4.2,3.6
				c0.33,2.35-1.2,3.66-3.15,4.21c-1.82,0.52-3.76,0.65-5.66,0.83c-8.36,0.81-16.72,1.57-25.08,2.36
				C-26.78,142.78-26.78,139.68-26.78,136.59z"/>
			<path class="st0" d="M-26.78,125.56c4.85-0.74,9.68-1.63,14.56-2.18c4.36-0.5,8.76-0.64,13.14-0.93c0.29-0.02,0.57-0.01,0.86,0
				c2.83,0.05,4.65,1.41,4.76,3.55c0.1,1.95-1.8,3.79-4.37,4.16c-3.21,0.46-6.43,0.87-9.64,1.28c-4.82,0.62-9.63,1.38-14.48,1.76
				c-1.57,0.12-3.21-0.79-4.82-1.23C-26.78,129.82-26.78,127.69-26.78,125.56z"/>
			<path class="st0" d="M285.61,300.83c-1.32-1.72-1.96-3.54-0.71-5.59c1.27-2.1,3.25-1.87,5.32-1.86
				c6.97,0.02,13.95-0.16,20.92-0.23c1.63-0.02,3.4-0.28,4.84,0.27c1.19,0.45,2.68,1.89,2.76,2.99c0.08,1.02-1.35,2.46-2.46,3.17
				c-1.19,0.75-2.78,0.86-4.2,1.25C303.25,300.83,294.43,300.83,285.61,300.83z"/>
			<path class="st0" d="M-14.13,300.83c-0.24-5.76-0.43-11.52-0.74-17.28c-0.14-2.58,0.69-4.84,2.94-5.74
				c1.65-0.66,3.97-0.67,5.63-0.02c2.28,0.89,3.07,3.24,2.99,5.76c-0.17,5.76-0.31,11.52-0.46,17.28
				C-7.22,300.83-10.67,300.83-14.13,300.83z"/>
			<path class="st0" d="M353.5,300.83c-0.12-3.64-0.19-7.28-0.38-10.92c-0.11-2.11-0.43-4.2-0.62-6.3c-0.33-3.6,2.1-6.52,5.55-6.67
				c3.31-0.15,5.99,2.51,5.89,6.02c-0.17,5.96-0.43,11.92-0.65,17.88C360.02,300.83,356.76,300.83,353.5,300.83z"/>
			<path class="st0" d="M143.51,300.83c-0.2-4.05-0.48-8.1-0.56-12.15c-0.05-2.91,1.15-5.27,3.9-6.54c2.22-1.03,4.63-0.8,6.1,0.95
				c1.31,1.57,2.18,3.84,2.46,5.9c0.54,3.9,0.53,7.89,0.75,11.84C151.95,300.83,147.73,300.83,143.51,300.83z"/>
			<path class="st0" d="M324.16,300.83c-0.61-4.3-1.36-8.58-1.78-12.9c-0.44-4.53,1.7-7.37,5.44-7.7c3.33-0.3,6.14,2.44,6.4,6.7
				c0.28,4.62,0.21,9.26,0.3,13.9C331.06,300.83,327.61,300.83,324.16,300.83z"/>
			<path class="st0" d="M339.11,300.83c-0.28-4.52-0.49-9.04-0.87-13.56c-0.24-2.85,0.36-5.54,2.93-6.66
				c1.67-0.73,4.22-0.62,5.9,0.15c2.45,1.12,2.92,3.79,2.79,6.48c-0.21,4.52-0.27,9.05-0.4,13.58
				C346.02,300.83,342.57,300.83,339.11,300.83z"/>
			<path class="st0" d="M-26.78-47.38c2.67,0,5.34,0,8.41,0c0,1.49,0.05,2.81-0.01,4.13c-0.27,6.74-0.57,13.47-0.86,20.21
				c-0.08,1.93-0.41,3.87-2.76,4.05c-2.38,0.18-2.99-1.62-3.17-3.6c-0.19-2.2-0.29-4.41-0.59-6.59c-0.17-1.25-0.67-2.46-1.02-3.68
				C-26.78-37.71-26.78-42.55-26.78-47.38z"/>
			<path class="st0" d="M-26.78,264.26c5.51-0.21,11.02-0.57,16.54-0.59c3.51-0.02,5.46,1.77,5.63,4.49
				c0.17,2.83-1.74,4.98-5.31,5.16c-5.61,0.28-11.24,0.17-16.85,0.23C-26.78,270.45-26.78,267.36-26.78,264.26z"/>
			<path class="st0" d="M-26.78,32.12c0.74-0.14,1.47-0.38,2.21-0.41c6.11-0.24,12.23-0.47,18.35-0.64
				c1.62-0.04,3.24,0.08,4.86,0.24c1.69,0.17,3.66,0.71,3.27,2.75c-0.24,1.23-1.8,2.72-3.07,3.11c-2.33,0.72-4.88,0.78-7.34,1
				c-6.09,0.53-12.18,1-18.27,1.49C-26.78,37.15-26.78,34.64-26.78,32.12z"/>
			<path class="st0" d="M127.4,300.83c-0.33-2.17-0.62-4.35-0.99-6.51c-0.25-1.42-0.72-2.81-0.9-4.24
				c-0.44-3.57,2.11-6.86,5.52-7.22c3.19-0.34,6.41,2.32,6.61,5.82c0.22,4.04,0.1,8.09,0.13,12.14
				C134.3,300.83,130.85,300.83,127.4,300.83z"/>
			<path class="st0" d="M-26.78,206.23c3.51-2.63,6.95-5.35,10.54-7.86c1.74-1.21,3.82-1.57,5.47,0.23c1.67,1.81,1.24,4.03-0.23,5.5
				c-5.14,5.09-10.5,9.96-15.78,14.91C-26.78,214.74-26.78,210.48-26.78,206.23z"/>
			<path class="st0" d="M-26.78,280.51c6.57-1.82,9.52,0.63,9.19,7.63c-0.2,4.23-0.37,8.46-0.56,12.68c-2.88,0-5.75,0-8.63,0
				C-26.78,294.05-26.78,287.28-26.78,280.51z"/>
			<path class="st0" d="M390.32,300.83c-0.75-2.83-0.93-5.52,1.7-7.57c2.55-1.99,5.11-1.28,7.79-0.2
				c6.59,2.66,13.23,5.19,19.85,7.78C409.88,300.83,400.1,300.83,390.32,300.83z"/>
			<path class="st0" d="M23.27,300.83c-1.06-2.59-1.15-5.06,1.01-7.18c2.24-2.2,4.76-1.93,7.42-0.91c5.6,2.14,11.24,4.18,16.84,6.33
				c1.21,0.46,2.34,1.17,3.5,1.76C42.45,300.83,32.86,300.83,23.27,300.83z"/>
			<path class="st0" d="M-26.78,163.86c4.19-0.28,8.38-0.54,12.57-0.85c2.93-0.21,5.4,1.85,5.47,4.63c0.07,2.86-2.13,5.02-5.16,5.01
				c-4.29-0.01-8.58-0.06-12.88-0.09C-26.78,169.67-26.78,166.76-26.78,163.86z"/>
			<path class="st0" d="M-26.78,181.85c3.17,0.06,6.33,0.11,9.5,0.2c1.68,0.05,3.67-0.33,4.95,0.44c1.29,0.78,2.42,2.68,2.61,4.22
				c0.25,2.01-1.17,3.62-3.3,4.08c-1.01,0.22-2.08,0.19-3.12,0.21c-3.55,0.06-7.1,0.09-10.65,0.13
				C-26.78,188.04-26.78,184.95-26.78,181.85z"/>
			<path class="st0" d="M179.75,300.83c-0.02-2.02-0.17-4.04-0.04-6.05c0.21-3.34,2.67-5.78,5.85-6.03
				c2.94-0.23,5.64,1.89,6.23,5.21c0.4,2.25,0.42,4.57,0.62,6.87C188.19,300.83,183.97,300.83,179.75,300.83z"/>
			<path class="st0" d="M272.38,300.83c0.04-2.12,0.15-4.24,0.1-6.35c-0.07-3.4,2.11-6.27,4.94-6.35c2.94-0.08,5.24,2.53,5.29,6.04
				c0.03,2.22,0.02,4.44,0.02,6.66C279.28,300.83,275.83,300.83,272.38,300.83z"/>
			<path class="st0" d="M199.89,300.83c-0.24-1.42-0.61-2.82-0.68-4.25c-0.16-3.46,2.45-6.21,5.74-6.18
				c3.32,0.03,6.11,3.08,5.86,6.47c-0.1,1.33-0.37,2.64-0.56,3.96C206.79,300.83,203.34,300.83,199.89,300.83z"/>
			<path class="st0" d="M-26.78,246.85c0.19-0.02,0.38-0.07,0.56-0.06c4.04,0.09,6.47,2.15,6.3,5.33c-0.16,3.06-2.83,4.85-6.86,4.6
				C-26.78,253.43-26.78,250.14-26.78,246.85z"/>
			<path class="st0" d="M222.9,300.83c-0.48-0.42-0.96-0.84-1.44-1.25c-1.95-1.67-2.21-4.31-0.6-6.15c1.66-1.9,4.35-1.93,6.06-0.08
				c1.73,1.88,1.58,4.36-0.36,6.12c-0.47,0.43-0.9,0.91-1.35,1.37C224.44,300.83,223.67,300.83,222.9,300.83z"/>
			<path class="st0" d="M-26.78,194.62c0.75,0.95,1.96,1.83,2.1,2.86c0.09,0.67-1.35,1.57-2.1,2.36
				C-26.78,198.1-26.78,196.36-26.78,194.62z"/>
			<path class="st0" d="M224.29,273.37c15.5,0,31-0.04,46.5,0.03c4.59,0.02,9.2,0.1,13.75,0.61c3.68,0.42,5.48,2.43,5.41,4.95
				c-0.07,2.48-2.41,4.66-5.88,4.97c-4.86,0.43-9.74,0.72-14.61,0.83c-19.81,0.43-39.62,0.75-59.44,1.14
				c-7.46,0.15-14.92,0.49-22.38,0.59c-4.91,0.06-8.27-4.41-6.31-8.5c0.81-1.69,2.59-2.92,4.13-4.58
				c-4.28-2.33-3.54-6.66-3.61-10.76c-0.52-30.51-1.06-61.03-1.59-91.54c-0.01-0.77-0.02-1.55,0.04-2.32
				c0.29-3.65,2.52-5.79,5.92-5.73c3.29,0.06,5.68,2.43,5.62,6.02c-0.13,8.79-0.53,17.58-0.62,26.37
				c-0.23,23.09-0.35,46.18-0.51,69.27c-0.02,3.29,0.32,6.73-3.53,8.67c11.53,1.5,22.94,0.19,34.75-0.15
				c-5.38-2.17-4.28-6.75-4.4-10.69c-0.34-10.71-0.5-21.43-0.69-32.14c-0.11-6.27-0.13-12.55-0.26-18.82
				c-0.04-1.92-0.26-3.84-0.51-5.75c-0.47-3.74,1.9-7.03,5.3-7.26c3.61-0.24,6.16,2.45,6.14,6.41c-0.06,19.98-0.15,39.96-0.11,59.94
				c0.01,3.27-0.82,5.97-3.76,7.94C223.87,273.02,224.08,273.19,224.29,273.37z"/>
			<path class="st0" d="M29.9-25.67c-2.2,0-4.41-0.06-6.61,0.01c-4.37,0.14-7.4-2.12-7.56-5.73c-0.19-4.13,2.14-6.59,6.82-6.8
				c15.79-0.69,31.58-1.26,47.38-1.89c15.41-0.62,30.81-1.31,46.22-1.84c5.16-0.18,10.34,0.04,15.5,0.13
				c1.04,0.02,2.11,0.19,3.12,0.45c2.94,0.75,4.82,2.75,4.7,5.1c-0.15,2.93-1.95,4.68-4.63,5.14c-4.43,0.75-8.89,1.47-13.37,1.68
				c-17.03,0.78-34.08,1.33-51.12,1.98c-13.49,0.51-26.98,1.04-40.46,1.56C29.9-25.8,29.9-25.74,29.9-25.67z"/>
			<path class="st0" d="M46.73,181.35c0.4,15.06,1,30.12,1.16,45.18c0.21,19.78,0.11,39.56,0.03,59.34
				c-0.01,2.28-0.39,4.67-1.2,6.78c-0.46,1.19-2.14,2.66-3.25,2.64c-1.29-0.02-3.16-1.27-3.69-2.47c-0.98-2.23-1.51-4.79-1.63-7.24
				c-1.09-21.98-2.18-43.97-3.01-65.96c-0.64-16.98-0.94-33.98-1.32-50.97c-0.09-3.88,2.81-6.9,6.29-6.91
				c3.46-0.01,6.14,2.71,6.25,6.59c0.12,4.34,0.03,8.68,0.03,13.02C46.5,181.35,46.62,181.35,46.73,181.35z"/>
			<path class="st0" d="M415.3,228.03c0,19.51,0.02,39.01-0.04,58.52c-0.01,1.91-0.18,3.99-0.98,5.66
				c-0.65,1.36-2.31,3.01-3.58,3.06c-1.25,0.06-3.12-1.47-3.74-2.78c-0.96-2.02-1.41-4.43-1.52-6.71
				c-1.03-20.43-2.11-40.87-2.84-61.31c-0.66-18.33-0.97-36.68-1.29-55.02c-0.03-1.81,0.53-3.9,1.51-5.39
				c1.42-2.16,3.84-2.81,6.39-2.07c2.63,0.77,4.42,3.22,4.54,6.39c0.26,7.14,0.55,14.28,0.6,21.43c0.1,12.74,0.03,25.48,0.03,38.22
				C414.69,228.03,414.99,228.03,415.3,228.03z"/>
			<path class="st0" d="M362.53,50.01c-5.01,0.28-9.67,0.42-14.31,0.84c-8.29,0.75-16.56,1.65-24.84,2.51
				c-3.68,0.38-6.18-1.23-6.35-4.16c-0.18-3.05,1.98-4.85,5.69-4.95c11.96-0.31,23.93-0.64,35.89-1.03c2.7-0.09,5,0.36,6.19,3.93
				c1.47-2.05,2.61-3.76,3.87-5.37c2.9-3.71,5.8-7.42,8.85-11c0.82-0.97,2.1-1.69,3.31-2.15c2.22-0.84,4.24,0.58,3.95,2.92
				c-0.26,2.05-0.78,4.26-1.86,5.97C376.23,48.09,369.51,58.64,362.5,69c-9.92,14.67-20.09,29.17-30.19,43.73
				c-1.37,1.97-2.87,3.86-4.38,5.73c-2.02,2.51-4.24,2.98-6.51,1.45c-2.16-1.46-2.65-3.98-0.93-6.62
				c5.25-8.07,10.58-16.07,15.94-24.07c8.41-12.56,16.87-25.08,25.3-37.63C361.99,51.21,362.15,50.78,362.53,50.01z"/>
			<path class="st0" d="M490.85-41.99c0,4.29,0,8.3,0,12.5c-3.74,0.18-7.35,0.38-10.97,0.51c-29.56,1.09-59.13,2.17-88.69,3.26
				c-5.27,0.19-8.31-2.11-8.18-6.23c0.1-3.33,1.9-5.49,5.45-6.04c2.54-0.4,5.14-0.49,7.72-0.58c17.32-0.65,34.65-1.25,51.97-1.91
				c11.95-0.46,23.9-1.01,35.85-1.49C486.19-42.07,488.38-41.99,490.85-41.99z"/>
			<path class="st0" d="M464.54,253.77c-0.56-0.42-1.14-0.82-1.67-1.27c-2.75-2.31-2.65-6.21,0.1-8.55
				c7.81-6.65,15.58-13.35,23.36-20.03c1.36-1.17,2.74-2.32,4.48-3.79c0,14.76,0,28.97,0,43.59c-6.56,0.18-13.13,0.41-19.69,0.54
				c-13.39,0.26-26.79,0.45-40.18,0.74c-1.99,0.04-3.97,0.54-5.97,0.73c-3.34,0.33-6.31-2.04-6.49-5.1c-0.21-3.52,2.44-6.28,6-6.27
				c9.07,0.03,18.14,0.04,27.21,0.05c4.24,0.01,8.47,0,12.71,0C464.43,254.2,464.49,253.98,464.54,253.77z"/>
			<path class="st0" d="M149.1,159.05c-0.99-0.11-1.97-0.3-2.96-0.31c-4.69-0.06-9.38-0.01-14.08-0.1
				c-3.14-0.06-4.84-1.63-4.76-4.17c0.08-2.46,1.71-3.96,4.68-3.98c8.14-0.05,16.27-0.03,24.41,0.02c2.43,0.01,4.53,0.96,4.78,3.62
				c0.25,2.7-1.65,3.92-4.1,4.26c-1.38,0.19-2.77,0.26-4.46,0.62c6.02,2.02,5.6,6.93,5.63,11.64c0.13,21.24,0.29,42.47,0.37,63.71
				c0.03,7.13-0.11,14.26-0.2,21.39c-0.04,3.21-1.47,5.04-3.86,5.07c-2.35,0.03-3.9-1.79-4.07-4.98c-1.21-22.26-2.4-44.52-3.6-66.77
				c-0.37-6.84-0.71-13.69-1.2-20.53c-0.26-3.56,0.15-6.73,3.68-8.76C149.27,159.53,149.19,159.29,149.1,159.05z"/>
			<path class="st0" d="M52.21,148.65c0-8.59,0.03-17.65-0.01-26.72c-0.04-10.82-0.13-21.64-0.19-32.46c0-0.68,0-1.36,0.11-2.02
				c0.53-3.17,2.53-4.96,5.42-4.9c2.73,0.06,4.74,2.11,4.9,5.35c0.31,6.56,0.55,13.12,0.68,19.68c0.29,13.8,0.65,27.61,0.67,41.42
				c0.02,8.97-0.51,17.95-0.8,26.93c-0.02,0.48-0.02,0.98-0.14,1.44c-0.52,2.06-1.33,3.97-3.82,4.04c-2.49,0.08-3.63-1.71-3.99-3.81
				c-0.57-3.42-0.95-6.88-1.2-10.33c-0.32-4.43-0.42-8.87-0.63-13.3c-0.02-0.35-0.16-0.7-0.36-1.52c-0.7,0.84-1.05,1.55-1.62,1.88
				c-1.41,0.83-2.92,2.1-4.39,2.11c-5.15,0.02-10.31-0.38-15.46-0.71c-2.01-0.13-3.91-0.73-4.13-3.17
				c-0.21-2.44,1.51-3.48,3.52-3.81c5.37-0.9,10.76-1.93,16.18-2.3C48.8,146.29,50.75,147.99,52.21,148.65z"/>
			<path class="st0" d="M420,151.86c-2.23,4.46-2.8,4.73-8.02,4.43c-4.2-0.24-8.4-0.39-12.6-0.54c-2.25-0.08-4.51-0.57-4.79-3.13
				c-0.29-2.57,1.69-3.63,4.01-3.98c5.1-0.79,10.19-1.67,15.3-2.36c2.97-0.4,4.75,1.39,6.08,4.65c0-4.31,0.03-7.9-0.01-11.48
				c-0.17-14.68-0.36-29.35-0.53-44.03c-0.03-2.51-0.1-5.02,0.05-7.52c0.21-3.41,2.22-5.38,5.21-5.37c2.84,0.01,5.08,2.15,5.15,5.48
				c0.43,22.4,0.81,44.79,1.1,67.19c0.08,5.88-0.16,11.77-0.34,17.65c-0.05,1.73-0.3,3.47-0.64,5.17c-0.39,1.99-1.6,3.42-3.7,3.4
				c-2.05-0.01-3.48-1.31-3.72-3.36c-0.63-5.26-1.19-10.53-1.55-15.82c-0.23-3.43-0.04-6.89-0.04-10.34
				C420.64,151.89,420.32,151.88,420,151.86z"/>
			<path class="st0" d="M98.15,254.14c-1.21-0.71-1.74-0.98-2.22-1.32c-3.18-2.23-3.26-6.37-0.29-8.9
				c8.4-7.15,16.72-14.38,25.13-21.52c1.74-1.48,3.58-3.02,5.64-3.87c1.21-0.5,3.48-0.19,4.28,0.68c0.78,0.84,0.89,3.29,0.22,4.31
				c-1.62,2.46-3.73,4.64-5.88,6.66c-6.02,5.66-12.21,11.14-18.25,16.79c-2.34,2.19-4.45,4.65-6.8,7.13
				c0.43,0.08,0.98,0.26,1.54,0.26c6.99,0.01,13.99-0.05,20.98,0.02c1.89,0.02,3.99-0.02,5.6,0.78c1.38,0.68,2.88,2.4,3.11,3.86
				c0.36,2.25-1.45,3.83-3.66,4.02c-5.9,0.52-11.82,1.01-17.74,1.14c-15.32,0.36-30.64,0.5-45.96,0.8
				c-2.09,0.04-4.17,0.52-6.26,0.74c-3.52,0.38-6.31-1.98-6.41-5.4c-0.11-3.52,2.42-5.98,5.92-5.95c7.92,0.07,15.85,0.08,23.77,0.08
				c4.98,0,9.96-0.06,14.94-0.11C96.34,254.36,96.86,254.27,98.15,254.14z"/>
			<path class="st0" d="M180.35-47.28c4.09,0,8,0,12.65,0c0,7.2-0.09,14.31,0.02,21.42c0.23,14.58,0.71,29.16,0.82,43.73
				c0.09,11.57-0.27,23.15-2.69,34.52c-0.21,1.01-1.82,2.11-2.98,2.42c-1.79,0.48-2.86-0.9-3.15-2.58
				c-1.03-5.88-2.65-11.76-2.85-17.68c-0.89-27.02-1.37-54.06-1.99-81.09C180.18-46.71,180.26-46.89,180.35-47.28z"/>
			<path class="st0" d="M143.66,9.62c-0.4-11.68-0.87-23.35-1.16-35.03c-0.15-5.8,4.84-9.16,9.34-6.47
				c2.27,1.36,3.08,3.55,3.16,6.13c0.39,11.58,0.81,23.17,1.21,34.75c0.4,11.67,0.97,23.34,1.09,35.02c0.06,5.66-0.74,11.34-1.2,17
				c-0.07,0.85-0.15,1.9-0.66,2.48c-1.07,1.22-2.39,2.98-3.65,3.01c-1.22,0.03-3.23-1.61-3.59-2.89c-1.29-4.61-2.55-9.34-2.87-14.09
				c-0.87-13.28-1.27-26.59-1.85-39.89C143.54,9.62,143.6,9.62,143.66,9.62z"/>
			<path class="st0" d="M113.3,280.68c-11.96,0-23.91,0-35.87,0c-1.24,0-2.49-0.01-3.73-0.12c-3.53-0.3-6.06-2.86-6.11-6.09
				c-0.05-3.25,2.33-6.08,5.89-6.22c8.79-0.35,17.6-0.44,26.4-0.59c16.65-0.27,33.29-0.52,49.94-0.75c1.33-0.02,2.69,0,4,0.22
				c3.26,0.56,5.74,3.24,5.65,5.92c-0.12,3.38-2.71,6.19-6.27,6.32c-7.84,0.28-15.68,0.41-23.52,0.52
				c-5.46,0.08-10.91,0.01-16.37,0.01C113.3,280.16,113.3,280.42,113.3,280.68z"/>
			<path class="st0" d="M78.88-9.39c-7.35,0.34-14.71,0.68-22.06,1c-1.05,0.05-2.12,0.08-3.15-0.09c-3.25-0.54-5.52-3.06-5.57-6.06
				c-0.05-2.94,2.17-5.74,5.44-6.11c5.13-0.57,10.29-0.85,15.45-1.1c20.54-0.99,41.08-1.93,61.62-2.87
				c0.86-0.04,1.73-0.05,2.58,0.06c3.94,0.5,6.47,2.91,6.49,6.12c0.02,3.23-2.73,6.05-6.63,6.34c-5.44,0.41-10.9,0.56-16.34,0.83
				C104.1-10.63,91.49-10,78.88-9.37C78.88-9.38,78.88-9.38,78.88-9.39z"/>
			<path class="st0" d="M33.33-2.77c-0.17-2.99-0.38-5.97-0.5-8.96c-0.17-4.29,2.13-7.39,5.67-7.76c3.52-0.37,6.47,2.17,6.81,6.59
				c0.7,9.04,1.06,18.1,1.58,27.15c0.7,12.13,1.68,24.26,2.04,36.4c0.17,5.83-0.72,11.7-1.33,17.54c-0.24,2.3-1.32,4.46-4.03,4.52
				c-2.76,0.06-3.83-2.34-4.24-4.41c-1.25-6.22-2.59-12.48-3.03-18.79C35.08,32.11,34.29,14.67,33.33-2.77z"/>
			<path class="st0" d="M400.16-10.36c0-0.77-0.02-1.54,0-2.31c0.14-3.81,2.73-6.75,6.04-6.88c3.27-0.12,6.19,2.68,6.47,6.46
				c0.47,6.55,0.83,13.11,1.19,19.67c0.8,14.56,1.75,29.11,2.27,43.68c0.2,5.66-0.5,11.37-0.98,17.04
				c-0.12,1.37-0.74,2.83-1.52,3.98c-1.35,2-3.88,1.98-5.36,0.06c-0.75-0.97-1.52-2.12-1.74-3.29c-1.08-5.78-2.46-11.55-2.84-17.39
				c-1.34-20.33-2.3-40.68-3.41-61.03C400.23-10.36,400.2-10.36,400.16-10.36z"/>
			<path class="st0" d="M141.92,182.86c-0.72,1.1-1.73,3.07-3.15,4.69c-4.57,5.21-9.24,10.32-13.95,15.39
				c-9.61,10.37-19.14,20.8-28.94,30.98c-5.66,5.88-11.73,11.37-17.7,16.95c-2.6,2.43-5.85,2.45-8.01,0.3
				c-2.23-2.22-2.17-5.54,0.51-8.24c12.83-12.99,25.63-26.02,38.66-38.8c7.89-7.74,16.17-15.07,24.35-22.5
				c1.25-1.13,2.81-2.06,4.39-2.64C140.23,178.19,141.99,179.65,141.92,182.86z"/>
			<path class="st0" d="M286.1,165.81c-1.36-0.65-3.74-1.45-5.76-2.8c-17.93-11.96-35.8-24.02-53.68-36.06
				c-1.67-1.12-3.4-2.19-4.92-3.51c-3.14-2.71-3.65-6.35-1.47-9.21c2.03-2.67,5.68-3.08,9-0.8c19.6,13.47,39.33,26.77,57.77,41.86
				c1.52,1.25,2.99,2.77,3.94,4.48C292.7,162.86,290.68,165.86,286.1,165.81z"/>
			<path class="st0" d="M426.94,73.89c-2.36-0.16-4.23-1.14-5.08-3.52c-0.97-2.69-0.12-4.98,1.86-6.82c3.66-3.4,7.41-6.7,11.1-10.08
				c14.18-12.97,28.3-26.02,42.59-38.86c2.3-2.07,5.28-3.43,8.09-4.81c1.66-0.82,3.51-0.79,4.9,1.03c1.31,1.71,0.5,3.08-0.53,4.36
				c-3.19,3.94-6.08,8.2-9.73,11.65c-15.37,14.51-30.97,28.76-46.49,43.11C431.69,71.74,430.14,74.2,426.94,73.89z"/>
			<path class="st0" d="M59.43,74.61c-1.62-1.25-3.82-2.13-4.44-3.66c-0.68-1.67-0.63-4.49,0.38-5.83c2.22-2.95,5.2-5.33,7.94-7.86
				c14.53-13.42,29.07-26.84,43.66-40.18c2.18-2,4.62-3.75,7.1-5.37c1.49-0.98,3.23-1.72,4.97-2.13c3.25-0.78,5.26,1.19,3.82,4.12
				c-1.73,3.54-3.95,7.11-6.77,9.8C101.78,37.14,87.21,50.5,72.73,63.98c-2.81,2.61-5.48,5.39-8.38,7.89
				C63.12,72.94,61.46,73.51,59.43,74.61z"/>
			<path class="st0" d="M277.84,37.36c8.71,0,17.43-0.04,26.14,0.02c3.57,0.02,5.77,1.63,5.76,3.96c-0.01,2.18-2.1,3.85-5.46,4.09
				c-18.14,1.29-36.27,2.63-54.42,3.75c-8.48,0.52-16.99,0.62-25.49,0.83c-3.09,0.08-6.01-2.83-6.07-5.83
				c-0.07-3.2,2.59-5.76,6.16-5.92c6.6-0.29,13.19-0.63,19.79-0.85c11.2-0.37,22.39-0.66,33.59-0.99
				C277.83,36.73,277.84,37.04,277.84,37.36z"/>
			<path class="st0" d="M303.55,172.02c-0.17-3.49,2.37-6.58,5.67-6.96c3.39-0.4,6.39,1.92,6.72,5.61c0.29,3.26,0.08,6.56,0.13,9.84
				c0.38,22.99,0.8,45.98,1.14,68.98c0.04,2.69-0.34,5.39-0.53,8.08c-0.16,2.11-1.31,3.81-3.32,3.52c-1.17-0.17-2.84-1.92-3.02-3.15
				c-1.01-7.16-1.84-14.35-2.36-21.57c-1.52-21.18-2.87-42.38-4.29-63.57C303.67,172.52,303.59,172.23,303.55,172.02z"/>
			<path class="st0" d="M490.85-24.06c0,4.15,0,8.16,0,12.42c-4.34,0.26-8.61,0.57-12.88,0.77c-17.98,0.85-35.97,1.75-53.96,2.39
				c-2.28,0.08-5.07-0.72-6.76-2.16c-1.23-1.04-1.58-3.87-1.33-5.76c0.32-2.43,2.38-4.02,4.87-4.25c5.34-0.5,10.69-0.86,16.04-1.12
				c16.26-0.8,32.52-1.54,48.78-2.28C487.3-24.12,489.01-24.06,490.85-24.06z"/>
			<path class="st0" d="M71.31-3.54c12.03-0.78,24.06-1.65,36.1-2.32c8.89-0.5,17.78-0.9,26.68-1.02c4.29-0.06,6.36,1.65,6.54,4.24
				c0.19,2.72-1.82,4.83-6.1,5.21c-12.39,1.1-24.81,1.87-37.21,2.83C85.88,6.28,74.43,7.24,62.99,8.17
				c-1.15,0.09-2.29,0.26-3.44,0.29c-3.98,0.12-6.82-2.23-6.99-5.71c-0.16-3.44,2.82-6.45,6.65-6.54c4.02-0.09,8.05-0.02,12.07-0.02
				C71.29-3.72,71.3-3.63,71.31-3.54z"/>
			<path class="st0" d="M27.94,265.67c0,4.63,0.02,10.7-0.02,16.77c-0.01,0.94-0.04,2.13-0.58,2.77c-1.09,1.3-2.51,3.16-3.82,3.18
				c-1.31,0.02-3.42-1.68-3.83-3.04c-1.09-3.66-1.78-7.51-2.06-11.33c-1.47-19.73-2.76-39.48-4.1-59.22
				c-0.05-0.67-0.08-1.35-0.05-2.03c0.16-3.62,2.48-6.35,5.62-6.63c3.38-0.3,6.35,1.91,6.68,5.71c0.56,6.54,0.72,13.11,0.97,19.67
				C27.15,242.43,27.51,253.33,27.94,265.67z"/>
			<path class="st0" d="M394.12,230.38c0.51,17.88,0.97,33.03,1.34,48.19c0.05,2.1,0.1,4.41-0.68,6.27
				c-0.63,1.53-2.31,3.2-3.84,3.62c-2.02,0.55-3.7-1.16-4.04-3.23c-0.91-5.5-1.86-11.01-2.28-16.56c-1.38-18.19-2.53-36.4-3.77-54.6
				c-0.29-4.25,1.94-7.5,5.43-7.88c3.73-0.41,6.56,1.96,6.92,6.41C393.73,219.42,393.92,226.27,394.12,230.38z"/>
			<path class="st0" d="M230.72,204.25c0.25-3.47,1.59-5.41,4.2-6.35c2.61-0.94,5.34-0.01,7.32,2.59c2.05,2.67,4.07,5.36,5.94,8.16
				c5.14,7.66,10.14,15.42,15.31,23.06c6.14,9.08,12.44,18.04,18.55,27.14c1.09,1.63,1.88,3.61,2.25,5.54
				c0.21,1.09-0.37,2.91-1.21,3.47c-0.86,0.57-2.8,0.48-3.67-0.15c-2.07-1.5-4.03-3.29-5.61-5.31
				c-5.45-6.97-10.65-14.13-16.06-21.13c-6.64-8.58-13.42-17.06-20.1-25.61c-1.89-2.42-3.74-4.89-5.39-7.48
				C231.42,206.84,231.08,205.19,230.72,204.25z"/>
			<path class="st0" d="M239.12,191.12c-9.95,0-19.91-0.05-29.86,0.03c-3.14,0.02-6.28,0.48-9.43,0.56c-3.64,0.1-6.6-2.64-6.54-5.86
				c0.06-3.64,3.11-6.22,6.95-6.1c18.54,0.57,37.08,1.03,55.62,1.63c6.88,0.22,13.76,0.69,20.64,1.11c0.93,0.06,1.86,0.4,2.76,0.71
				c1.86,0.65,3.63,1.9,2.97,3.92c-0.46,1.42-2.17,3.17-3.55,3.41c-4.32,0.74-8.74,1.05-13.12,1.13
				c-8.81,0.16-17.62,0.05-26.43,0.05C239.12,191.51,239.12,191.32,239.12,191.12z"/>
			<path class="st0" d="M294.06,177.46c1.87,1.53,3.85,2.82,5.32,4.55c0.56,0.65,0.23,2.45-0.21,3.52c-0.94,2.3-3.51,3.12-5.78,2.2
				c-2.17-0.88-3.33-2.68-2.93-4.77c0.32-1.69,1.7-3.18,2.7-4.92c-11.68-0.33-23.13-0.56-34.58-0.99c-8.8-0.33-17.6-0.94-26.4-1.36
				c-2.96-0.14-5.94-0.03-8.9-0.12c-3.49-0.11-6.03-2.9-5.75-6.22c0.26-3.17,3.15-5.57,6.39-5.36c9.17,0.59,18.34,1.12,27.5,1.76
				c12.99,0.91,25.97,1.87,38.95,2.87c1.21,0.09,2.45,0.46,3.57,0.96c3.65,1.64,3.96,4.96,0.76,7.4
				C294.36,177.24,294,177.5,294.06,177.46z"/>
			<path class="st0" d="M128.12,39.08c-0.4-7.6-0.81-15.21-1.19-22.81c-0.2-3.99,2.53-7.42,5.95-7.58c3.7-0.17,6.6,2.95,6.63,7.18
				c0.13,17.86,0.39,35.72,0.31,53.58c-0.03,5.67-0.81,11.37-1.65,17c-0.2,1.32-2.01,2.39-3.08,3.58c-1.03-1.12-2.71-2.11-2.97-3.39
				c-1.11-5.57-2.13-11.2-2.58-16.86c-0.81-10.21-1.18-20.45-1.74-30.67C127.92,39.09,128.02,39.08,128.12,39.08z"/>
			<path class="st0" d="M490.99,191.18c0,4.19,0.07,7.95-0.05,11.71c-0.03,0.84-0.52,1.82-1.09,2.47
				c-13.66,15.68-28.16,30.53-43.4,44.65c-0.49,0.46-0.98,0.93-1.51,1.34c-2.46,1.92-5.53,1.78-7.56-0.31
				c-1.97-2.03-2.1-4.94,0.01-7.32c3.65-4.09,7.31-8.19,11.23-12.01c13.69-13.36,27.49-26.6,41.26-39.88
				C490.07,191.65,490.34,191.56,490.99,191.18z"/>
			<path class="st0" d="M215.53,57.29c-0.58,15.23-1.14,30.45-1.75,45.68c-0.07,1.63-0.25,3.29-0.67,4.86
				c-0.26,0.96-1.07,1.76-1.63,2.63c-0.64-0.81-1.71-1.56-1.84-2.44c-1.09-7.63-2.44-15.25-2.9-22.93
				c-1.02-17.05-1.55-34.12-2.34-51.18c-0.17-3.64-0.57-7.28-0.96-10.91c-0.4-3.64,2.12-7.05,5.42-7.2
				c3.65-0.16,6.15,2.51,6.14,6.45c-0.02,11.67-0.01,23.34-0.01,35.01C215.17,57.28,215.35,57.29,215.53,57.29z"/>
			<path class="st0" d="M319.12,149.14c-1.79-1.49-3.63-2.44-4.6-3.96c-1.26-1.97-0.9-4.27,0.68-6.19
				c10.95-13.38,21.9-26.74,32.83-40.13c5.95-7.29,11.86-14.62,17.8-21.91c2.58-3.17,5.12-4,7.01-2.42
				c1.94,1.63,1.69,4.01-0.91,7.42c-14.92,19.57-29.88,39.12-44.78,58.71c-1.15,1.52-1.8,3.46-3.07,4.85
				C322.87,146.82,321.16,147.68,319.12,149.14z"/>
			<path class="st0" d="M490.91-6.74c0,3.6,0,6.86,0,10.51c-4.48,0.33-8.92,0.68-13.36,0.97c-12.5,0.81-25,1.54-37.5,2.4
				c-4.2,0.29-8.37,1.05-12.56,1.21c-1.78,0.07-3.87-0.43-5.32-1.41c-2.11-1.43-2.88-3.84-1.98-6.43c0.91-2.62,3.61-4.25,6.88-4.29
				c6.89-0.09,13.79,0.05,20.67-0.31c13.75-0.73,27.49-1.74,41.23-2.63C489.52-6.77,490.08-6.74,490.91-6.74z"/>
			<path class="st0" d="M85.22,204.49c1.55-2.14,2.43-4.01,3.87-5.22c7.26-6.12,14.55-12.21,22.04-18.03
				c7.5-5.83,15.24-11.35,22.91-16.96c0.99-0.73,2.15-1.26,3.29-1.73c2.03-0.83,4.42-0.84,5.35,1.17c0.71,1.53,0.64,4.14-0.23,5.55
				c-1.43,2.31-3.63,4.23-5.77,5.97c-10.44,8.45-20.97,16.78-31.45,25.18c-3.07,2.46-6.05,5.02-9.07,7.54
				c-1.98,1.65-4.32,2.65-6.6,1.27C87.94,208.25,86.87,206.35,85.22,204.49z"/>
			<path class="st0" d="M31.3,26.67c0.84,12.48,1.69,24.82,2.49,37.16c0.68,10.5,1.31,21,1.88,31.51c0.08,1.52-0.09,3.15-0.6,4.56
				c-0.33,0.91-1.4,1.95-2.29,2.13c-0.67,0.13-1.93-0.84-2.32-1.63c-0.72-1.43-1.22-3.06-1.41-4.65
				c-2.51-21.28-4.94-42.56-7.44-63.84c-0.29-2.48-0.73-4.97-1.34-7.38c-0.69-2.7-0.28-5.04,1.86-6.8c1.84-1.5,3.97-1.79,6.19-0.63
				c2.56,1.33,3.36,3.53,3.17,6.26C31.41,24.5,31.36,25.66,31.3,26.67z"/>
			<path class="st0" d="M398.49,23.26c0.62,9.72,1.26,19.45,1.86,29.17c0.88,14.07,1.77,28.15,2.58,42.22
				c0.09,1.61-0.06,3.33-0.54,4.86c-0.32,1.01-1.35,2.39-2.18,2.47c-0.81,0.08-2.34-1.14-2.55-2.02c-1.07-4.68-2.07-9.41-2.63-14.18
				c-2.08-17.73-3.95-35.48-5.98-53.21c-0.32-2.77-0.97-5.5-1.52-8.23c-0.54-2.66-0.37-5.35,2.12-6.64
				c1.64-0.85,4.06-1.05,5.84-0.53C398.19,17.95,399.04,20.48,398.49,23.26z"/>
			<path class="st0" d="M373.85,158c-14.85-1.02-29.6,1.03-44.39,1.64c-10.04,0.42-20.08,0.74-30.13,1.04
				c-3.19,0.1-5.08-1.41-5.09-3.81c-0.01-2.31,1.89-3.81,5.03-4.01c22.06-1.38,44.12-2.73,66.18-4.17c2.37-0.15,4.74-0.62,7.04-1.23
				c2.28-0.6,4.2-0.22,5.74,1.48c1.55,1.71,1.88,3.81,0.93,5.93C378.15,157.15,376.25,158.1,373.85,158z"/>
			<path class="st0" d="M291.41,237.3c0-9.27,0.09-18.54-0.04-27.81c-0.05-3.46-0.65-6.91-0.91-10.37c-0.1-1.33-0.15-2.73,0.18-4
				c0.55-2.15,1.98-3.52,4.35-3.44c2.25,0.08,3.56,1.48,3.9,3.56c0.32,1.98,0.27,4.02,0.34,6.03c0.39,11.57,0.75,23.14,1.17,34.71
				c0.39,10.61,0.86,21.23,1.24,31.84c0.04,1.23-0.19,2.5-0.48,3.71c-0.53,2.22-2,3.63-4.27,3.58c-2.25-0.05-3.91-1.52-4.2-3.7
				c-0.54-4.01-0.89-8.06-0.97-12.1c-0.15-7.34-0.04-14.68-0.04-22.02C291.59,237.3,291.5,237.3,291.41,237.3z"/>
			<path class="st0" d="M114.79,127.48c-3.92-4.36-3.08-9.1-3.47-13.53c-0.44-5-0.57-10.02-0.85-15.03
				c-0.18-3.12,1.85-5.68,4.48-5.61c3.09,0.07,4.73,2.3,4.62,5.7c-0.21,6.28-0.08,12.57-0.35,18.84c-0.13,2.96-0.88,5.89-1.35,8.84
				c-0.3,0.03-0.6,0.06-0.9,0.09c0.52,0.34,1.02,0.7,1.55,1c2.62,1.51,3.7,3.94,2.88,6.55c-0.88,2.82-3.26,4.54-6.2,3.96
				c-12.25-2.44-24.61-0.9-36.92-1.2c-3.06-0.08-6.11-0.28-9.16-0.53c-2.01-0.16-3.95-1.26-3.5-3.32c0.3-1.37,2.22-3.16,3.62-3.36
				c4.24-0.62,8.57-0.64,12.87-0.74c8.62-0.2,17.25-0.24,25.87-0.49C110.08,128.6,112.15,127.96,114.79,127.48z"/>
			<path class="st0" d="M481.34,127.87c-0.94-3.05-2.02-5.22-2.21-7.46c-0.61-7.3-0.94-14.63-1.29-21.95
				c-0.14-3.06,1.9-5.23,4.59-5.13c2.78,0.1,4.59,2.22,4.51,5.23c-0.18,6.85-0.22,13.7-0.55,20.54c-0.11,2.22-1.03,4.39-1.39,6.61
				c-0.1,0.62,0.29,1.6,0.78,1.99c3,2.36,3.97,4.78,2.75,7.36c-1.36,2.89-3.82,3.34-7.53,2.99c-7.4-0.7-14.85-0.86-22.28-1.08
				c-7.25-0.21-14.51-0.16-21.77-0.36c-2.11-0.06-4.22-0.86-4.02-3.5c0.2-2.63,2.4-3.37,4.59-3.43c11.27-0.32,22.55-0.47,33.82-0.82
				C474.81,128.74,478.26,128.18,481.34,127.87z"/>
			<path class="st0" d="M327.76,4.85c19.43-0.98,39.22-1.98,59.01-2.95c2-0.1,4.02-0.06,6.03,0.05c2.22,0.12,4.5,0.73,4.72,3.31
				c0.22,2.69-1.83,3.84-4.22,4.2c-2.83,0.43-5.67,0.91-8.53,1.08c-17.96,1.09-35.93,2.07-53.89,3.17
				c-3.04,0.19-6.05,0.85-9.09,1.17c-2.29,0.24-4.49-0.59-5.16-2.77c-0.49-1.61-0.18-3.84,0.61-5.34c0.55-1.04,2.47-1.65,3.87-1.85
				C323.16,4.62,325.3,4.85,327.76,4.85z"/>
			<path class="st0" d="M11.09,136.76c0-11.39,0.02-22.78-0.01-34.17c-0.03-12.64-0.1-25.29-0.16-37.93
				c-0.02-3.34,1.77-5.42,4.66-5.38c2.8,0.03,4.79,2.33,4.73,5.42c-0.25,12.82-0.53,25.64-0.72,38.47
				c-0.17,11.58-0.23,23.16-0.38,34.73c-0.02,1.34,0.1,2.93-0.56,3.94c-0.82,1.27-2.24,2.58-3.64,2.95
				c-1.88,0.49-3.26-0.96-3.68-2.85c-0.37-1.69-0.42-3.44-0.61-5.16C10.85,136.76,10.97,136.76,11.09,136.76z"/>
			<path class="st0" d="M378.23,102.02c0-12.35,0-24.7,0-37.05c0-3.61,1.73-5.72,4.67-5.68c2.98,0.04,4.69,2.19,4.62,5.68
				c-0.25,13.79-0.52,27.59-0.7,41.38c-0.13,9.84-0.11,19.67-0.2,29.51c-0.02,1.73-0.2,3.47-0.37,5.19
				c-0.22,2.17-1.29,3.64-3.58,3.81c-2.46,0.18-3.8-1.28-4.13-3.53c-0.3-2.09-0.32-4.23-0.32-6.35
				c-0.03-10.99-0.01-21.99-0.01-32.98C378.21,102.02,378.22,102.02,378.23,102.02z"/>
			<path class="st0" d="M80.25,192.86c0,10.23,0.02,20.47-0.03,30.7c-0.01,1.52-0.07,3.18-0.66,4.52c-0.46,1.05-1.79,2.39-2.73,2.39
				c-1.12,0-2.92-1.08-3.23-2.08c-0.8-2.53-1.19-5.26-1.29-7.92c-0.7-18.14-1.27-36.28-1.9-54.42c-0.06-1.73-0.26-3.46-0.41-5.18
				c-0.29-3.43,2.2-6.39,5.46-6.5c3-0.1,5.56,2.5,5.57,5.76c0.02,10.91,0.01,21.83,0.01,32.74
				C80.77,192.86,80.51,192.86,80.25,192.86z"/>
			<path class="st0" d="M447.71,191.82c0,10.24,0.02,20.48-0.02,30.71c-0.01,1.54-0.25,3.08-0.45,4.6
				c-0.27,2.07-1.37,3.49-3.53,3.47c-2.27-0.02-3.12-1.8-3.32-3.71c-0.5-4.8-1-9.61-1.17-14.43c-0.54-15.82-0.92-31.65-1.39-47.47
				c-0.05-1.64-0.41-3.27-0.38-4.91c0.06-3.4,2.5-5.85,5.55-5.77c3.04,0.08,5.36,2.68,5.36,6c0,10.5,0,21,0,31.5
				C448.16,191.82,447.93,191.82,447.71,191.82z"/>
			<path class="st0" d="M490.86,267.41c0,4.19,0,8.2,0,12.88c-6.75,0-13.41-0.05-20.06,0.01c-8.89,0.08-17.78,0.26-26.68,0.38
				c-1.05,0.01-2.11,0-3.15-0.11c-3.6-0.36-5.97-2.83-5.99-6.17c-0.02-3.24,2.14-5.87,5.65-6.15c4.76-0.37,9.55-0.35,14.33-0.45
				c11-0.22,22-0.41,32.99-0.59C488.88,267.2,489.82,267.33,490.86,267.41z"/>
			<path class="st0" d="M280.68,65.08c4.48,0.24,9.24,0.43,14,0.77c2.23,0.16,3.85,1.37,4.07,3.72c0.23,2.37-1.19,4.03-3.31,4.43
				c-6.63,1.25-13.28,2.58-19.99,3.23c-11.41,1.1-22.86,1.68-34.3,2.51c-3.63,0.26-6.39-1.83-6.7-5.18c-0.28-3,1.81-5.55,5.08-5.85
				C253.13,67.46,266.75,66.3,280.68,65.08z"/>
			<path class="st0" d="M175.81,54.41c0,11.29,0.02,22.58-0.02,33.86c-0.01,1.43-0.05,3-0.6,4.26c-0.49,1.11-1.72,1.88-2.62,2.8
				c-0.9-0.95-2.41-1.81-2.59-2.88c-0.94-5.9-1.84-11.83-2.23-17.78c-0.93-14.55-1.56-29.13-2.35-43.69
				c-0.14-2.6-0.52-5.19-0.63-7.79c-0.16-3.73,1.85-6.19,4.89-6.21c3.16-0.02,5.42,2.46,5.48,6.17c0.1,6.37,0.14,12.74,0.18,19.1
				c0.03,4.05,0,8.1,0,12.15C175.49,54.41,175.65,54.41,175.81,54.41z"/>
			<path class="st0" d="M168.1,138.53c-0.61-6.69-1.22-13.37-1.85-20.05c-0.07-0.77-0.34-1.51-0.41-2.28
				c-0.22-2.58,1.37-4.56,3.64-4.61c2.4-0.05,3.98,1.64,3.98,4.27c0,8.09-0.04,16.18,0.01,24.27c0.01,1.97-0.07,3.76-2.38,4.29
				c-2.23,0.51-2.67-1.26-3.3-2.78c-0.06-0.14-0.3-0.2-0.64-0.4c-1.75,4.48-5.74,5.07-9.66,5.11c-8.32,0.08-16.64-0.16-24.96-0.37
				c-3.34-0.08-5.56-2.53-5.55-5.78c0.01-2.96,2.4-5.39,5.53-5.48c7.93-0.23,15.86-0.46,23.79-0.62c4.28-0.09,8.46,0.2,10.83,4.82
				C167.46,138.8,167.78,138.67,168.1,138.53z"/>
			<path class="st0" d="M207.88,235.52c-0.53,9.74-1.03,19.48-1.62,29.21c-0.29,4.84-1.58,6.88-4.11,7.01
				c-2.3,0.12-3.82-1.85-4.15-6.59c-0.74-10.39-1.25-20.8-1.77-31.2c-0.28-5.5-0.55-11-0.56-16.5c0-5.52,4.7-8.79,9.03-6.44
				c3.14,1.71,3.58,4.82,3.61,7.99c0.05,5.5,0.01,11.01,0.01,16.51C208.17,235.51,208.03,235.52,207.88,235.52z"/>
			<path class="st0" d="M217.5,136.07c1.14-1.62,1.99-3.62,3.49-4.77c2.27-1.74,4.96-1.26,7.23,0.38c4.35,3.15,8.63,6.39,12.9,9.64
				c5.26,4,10.58,7.94,15.69,12.14c1.8,1.48,3.38,3.49,4.42,5.58c0.6,1.2,0.45,3.49-0.35,4.47c-0.81,0.98-3.17,1.7-4.27,1.21
				c-4.59-2.03-9.18-4.22-13.37-6.98c-7.27-4.8-14.23-10.07-21.33-15.12C219.8,141.1,218.13,139.35,217.5,136.07z"/>
			<path class="st0" d="M59.77,51.99c-3.48-0.15-5.22-1.39-6.18-3.81c-1.01-2.57-0.42-4.84,1.5-6.6
				c10.2-9.33,20.43-18.62,30.73-27.83c1.55-1.39,3.38-2.7,5.31-3.32c1.28-0.41,3.5-0.02,4.34,0.9c0.83,0.91,1.12,3.38,0.46,4.39
				c-2.13,3.28-4.57,6.43-7.31,9.21C81.87,31.77,74.87,38.36,68,45.08c-1.51,1.47-2.78,3.21-4.39,4.56
				C62.28,50.75,60.63,51.48,59.77,51.99z"/>
			<path class="st0" d="M427.27,51.96c-3.62,0-5.33-1.37-6.32-3.7c-1.07-2.52-0.48-4.91,1.41-6.65
				c10.11-9.29,20.3-18.48,30.51-27.66c1.35-1.21,2.89-2.24,4.46-3.16c1.87-1.09,3.95-1.3,5.58,0.35c1.57,1.6,1.25,3.7,0.15,5.37
				c-1.42,2.15-3.07,4.22-4.89,6.04c-7.68,7.68-15.46,15.26-23.19,22.89c-1.3,1.28-2.4,2.78-3.79,3.94
				C429.77,50.55,428.11,51.42,427.27,51.96z"/>
			<path class="st0" d="M269.39,111.62c0-8.1-0.12-16.2,0.05-24.3c0.09-4.5,1.62-6.55,4.15-6.53c2.42,0.02,4.18,2.26,4.43,6.5
				c0.7,11.46,1.22,22.93,1.79,34.4c0.23,4.72,0.47,9.45,0.58,14.17c0.1,3.96-2.15,6.42-5.49,6.24c-3.02-0.17-4.92-2.16-4.95-5.59
				c-0.08-8.3-0.02-16.6-0.02-24.9C269.74,111.62,269.57,111.62,269.39,111.62z"/>
			<path class="st0" d="M335.48,18.36c8.6-0.51,17.2-1.12,25.8-1.51c6.12-0.28,12.25-0.38,18.38-0.32c3.91,0.04,6.13,1.77,6.21,4.25
				c0.09,2.5-1.91,4.37-5.85,4.82c-6.46,0.74-12.95,1.34-19.44,1.76c-8.98,0.58-17.97,0.94-26.96,1.38
				c-3.2,0.15-5.64-2.03-5.81-5.13c-0.14-2.66,2.39-5.2,5.37-5.35c0.76-0.04,1.53-0.01,2.3-0.01
				C335.48,18.28,335.48,18.32,335.48,18.36z"/>
			<path class="st0" d="M315.09,107.5c-4.63,0.09-6.91-4.03-4.87-7.52c2.03-3.48,4.34-6.8,6.67-10.09
				c7.34-10.35,14.71-20.67,22.15-30.95c1.11-1.53,2.49-3,4.04-4.04c1.02-0.68,2.59-0.55,3.91-0.78c0.17,1.27,0.81,2.7,0.43,3.77
				c-0.95,2.7-2.07,5.42-3.61,7.82c-8.33,13.04-16.76,26.01-25.29,38.92C317.61,106.03,315.87,106.87,315.09,107.5z"/>
			<path class="st0" d="M200.24-47.25c3.86,0,7.27,0,10.89,0c0.07,0.78,0.17,1.51,0.18,2.25c0.23,12.75,0.52,25.5,0.62,38.25
				c0.02,2.97-0.56,5.95-0.91,8.91c-0.26,2.25-1.4,3.93-3.74,4.1c-2.51,0.18-3.59-1.77-3.96-3.82c-0.73-4.08-1.47-8.19-1.67-12.32
				C201.05-22.22,200.7-34.57,200.24-47.25z"/>
			<path class="st0" d="M350.71,229.4c-2.18,2.83-3.84,5.14-5.66,7.3c-1.98,2.36-4.05,4.63-6.17,6.86c-2.36,2.49-5.47,2.94-7.4,1.18
				c-2.16-1.97-2.21-4.65-0.02-7.49c2.94-3.8,5.85-7.64,8.97-11.29c3.62-4.26,6.19-4.25,10.43,0.31c-0.3-3.84-0.54-7.04-0.8-10.24
				c-0.2-2.48,0.72-4.67,2.93-5.43c1.58-0.54,3.83-0.33,5.31,0.46c1.15,0.62,2.16,2.6,2.22,4.02c0.26,6.24,0.2,12.51,0.13,18.76
				c-0.02,1.62-0.18,3.41-0.9,4.79c-0.66,1.26-2.12,2.8-3.31,2.87c-1.21,0.07-3.13-1.23-3.63-2.41c-0.96-2.24-1.13-4.82-1.63-7.25
				C351.07,231.28,350.97,230.73,350.71,229.4z"/>
			<path class="st0" d="M200.26,146.98c0-8.41-0.02-16.81,0.01-25.22c0.01-3.55,2.16-5.84,5.14-5.59c3.02,0.26,4.63,2.75,4.48,6.23
				c-0.37,8.88-0.74,17.76-0.78,26.64c-0.03,7.32,0.42,14.64,0.63,21.96c0.03,1.16,0.09,2.34-0.09,3.47
				c-0.35,2.11-1.59,3.56-3.75,3.8c-2.17,0.23-3.79-0.9-4.36-2.98c-0.48-1.74-0.65-3.61-0.67-5.42c-0.07-7.63-0.03-15.26-0.03-22.9
				C200.64,146.99,200.45,146.99,200.26,146.98z"/>
			<path class="st0" d="M490.99,171.52c0,5.1,0.09,9.5-0.08,13.89c-0.03,0.83-0.94,1.82-1.69,2.4c-5.78,4.44-11.65,8.74-17.42,13.19
				c-2.96,2.28-5.74,4.79-8.61,7.19c-2.71,2.27-6.56,2.07-8.52-0.43c-1.84-2.35-1.23-6.26,1.29-8.31
				c7.36-5.99,14.69-12.02,22.09-17.95C482.13,178.24,486.32,175.12,490.99,171.52z"/>
			<path class="st0" d="M256.62-47.26c3.44,0,6.67,0,10.57,0c0,3.65-0.07,7.28,0.01,10.9c0.22,9.06,0.73,18.12,0.67,27.18
				c-0.03,3.97-1.02,7.98-1.91,11.89c-0.23,1.02-1.71,2.38-2.68,2.43c-0.93,0.05-2.52-1.22-2.81-2.2c-1.19-4.14-2.59-8.35-2.84-12.6
				c-0.68-11.63-0.83-23.3-1.17-34.95C256.45-45.39,256.55-46.15,256.62-47.26z"/>
			<path class="st0" d="M187.51,93.07c0-7.02,0.05-14.04-0.03-21.05c-0.03-2.51,1.85-5.24,4.1-5.54c2.34-0.31,5.02,2.04,5.12,4.74
				c0.51,13.18,0.97,26.36,1.37,39.54c0.05,1.72-0.22,3.47-0.56,5.16c-0.46,2.32-1.55,4.21-4.25,4.28
				c-2.55,0.07-3.86-1.57-4.32-3.82c-0.55-2.73-1.04-5.51-1.14-8.28c-0.18-5-0.05-10.02-0.05-15.03
				C187.68,93.07,187.59,93.07,187.51,93.07z"/>
			<path class="st0" d="M264.14,106.21c0,5.49,0,10.99,0,16.48c0,0.77,0.02,1.55-0.08,2.31c-0.45,3.44-2.61,5.54-5.55,5.42
				c-2.93-0.12-5.05-2.43-5.11-5.86c-0.07-3.95,0.02-7.91,0.07-11.86c0.11-8.57,0.23-17.14,0.36-25.71c0.01-0.67,0.11-1.35,0.3-2
				c0.62-2.16,1.95-3.54,4.3-3.56c2.29-0.01,3.42,1.58,4.07,3.47c0.43,1.25,0.63,2.64,0.64,3.97c0.07,5.78,0.03,11.56,0.03,17.34
				C263.5,106.21,263.82,106.21,264.14,106.21z"/>
			<path class="st0" d="M163.63-47.26c4.02,0,8.01,0,12.71,0c0,7.13,0.15,14.23-0.05,21.32c-0.13,4.59-0.58,9.2-1.26,13.75
				c-0.36,2.43-1.71,4.74-4.59,4.79c-2.96,0.05-4.61-2.11-4.99-4.73c-0.81-5.69-1.48-11.43-1.76-17.17
				C163.4-35.18,163.63-41.07,163.63-47.26z"/>
			<path class="st0" d="M65.21,227.14c0,6.37,0.03,12.74-0.02,19.1c-0.01,1.23-0.16,2.53-0.56,3.69c-0.67,1.92-2.28,3.25-4.19,2.66
				c-1.41-0.44-2.88-1.8-3.59-3.15c-0.71-1.35-0.61-3.19-0.68-4.82c-0.44-10.32-0.8-20.64-1.25-30.96c-0.07-1.72-0.5-3.43-0.66-5.16
				c-0.38-3.94,1.83-6.86,5.18-6.93c3.22-0.07,5.47,2.63,5.41,6.45c-0.05,3.19-0.11,6.37-0.13,9.56c-0.02,3.19,0,6.37,0,9.56
				C64.88,227.14,65.05,227.14,65.21,227.14z"/>
			<path class="st0" d="M222.36,75.32c-0.67-4.84-1.24-9.69-2.03-14.51c-0.42-2.57,0.34-4.54,2.21-6.16
				c1.94-1.69,4.16-1.45,6.19-0.41c2.16,1.1,3.25,3.26,2.82,5.58c-2.48,13.31,0.35,26.76-1.2,40.09c-0.21,1.82-0.31,3.65-0.47,5.48
				c-0.17,1.88-1.15,3.17-3.05,3.19c-1.94,0.02-2.86-1.35-3.05-3.18c-0.35-3.36-0.73-6.71-0.97-10.08
				c-0.46-6.63-0.84-13.27-1.25-19.9C221.83,75.38,222.09,75.35,222.36,75.32z"/>
			<path class="st0" d="M423.45,229.78c-0.66-7.17-1.32-14.35-2-21.52c-0.32-3.36,1.9-6.36,4.95-6.67c2.94-0.29,5.82,2.22,5.84,5.43
				c0.1,13.59,0.13,27.18,0.07,40.76c-0.01,1.24-0.56,2.7-1.34,3.66c-1.91,2.34-5.86,1.58-6.6-1.51c-0.85-3.51-0.98-7.22-1.19-10.86
				c-0.18-3.08-0.04-6.17-0.04-9.26C423.25,229.8,423.35,229.79,423.45,229.78z"/>
			<path class="st0" d="M218.28,13.8c-1.43-1.3-3-2.24-3.85-3.62c-1.28-2.1-0.25-4.14,1.29-5.75c7.02-7.36,14.08-14.68,21.15-22
				c2.2-2.28,4.41-4.56,6.73-6.71c0.96-0.9,2.14-1.84,3.37-2.1c1.35-0.3,3.41-0.37,4.15,0.42c0.88,0.94,1.34,3.23,0.8,4.36
				c-1.18,2.47-2.91,4.76-4.78,6.79c-8.09,8.75-16.28,17.4-24.52,26C221.63,12.2,220.11,12.72,218.28,13.8z"/>
			<path class="st0" d="M323.94,232.39c-2.52-0.3-4.05-1.55-4.85-3.58c-0.86-2.2-0.22-4.23,1.54-5.75
				c5.88-5.06,11.74-10.15,17.73-15.08c3.84-3.16,7.87-6.11,11.86-9.08c0.82-0.61,1.83-1.11,2.83-1.32c3.13-0.67,5.33,1.9,4.1,4.88
				c-0.57,1.37-1.53,2.72-2.62,3.72c-8.94,8.13-17.93,16.2-26.96,24.22C326.56,231.3,325.16,231.74,323.94,232.39z"/>
			<path class="st0" d="M326.04-47.29c3.83,0,6.97,0,10.44,0c0.21,2.6,0.48,5.16,0.63,7.72c0.67,11.27,1.31,22.55,1.95,33.82
				c0.04,0.77,0.04,1.55,0,2.32c-0.14,2.81-1.53,4.43-3.9,4.4c-2.58-0.04-3.75-1.75-4.03-4.06c-1.01-8.23-1.94-16.47-2.89-24.7
				C327.51-34.19,326.79-40.59,326.04-47.29z"/>
			<path class="st0" d="M438.14,99.28c-0.49-7.54-0.96-14.84-1.45-22.14c-0.22-3.27,1.88-5.87,4.84-5.96
				c3.28-0.1,5.55,2.63,5.36,6.38c-0.3,5.96-0.64,11.92-0.84,17.88c-0.27,8.38-0.43,16.77-0.63,25.15
				c-0.01,0.48,0.02,0.98-0.08,1.44c-0.38,1.85-1.32,3.66-3.29,3.24c-1.22-0.26-2.75-1.87-3.05-3.14c-0.66-2.78-0.76-5.72-0.83-8.61
				C438.05,108.7,438.14,103.88,438.14,99.28z"/>
			<path class="st0" d="M70.96,100.65c-0.56-7.78-1.1-15.57-1.67-23.35c-0.25-3.33,2.03-6.16,5.03-6.15c3.03,0,5.36,2.67,5.26,5.96
				c-0.35,12.23-0.68,24.46-1.05,36.7c-0.07,2.41-0.3,4.82-0.43,7.23c-0.12,2.23-0.89,4.28-3.3,4.33c-2.43,0.06-3.26-1.94-3.37-4.2
				c-0.33-6.83-0.69-13.66-1.03-20.49C70.59,100.67,70.78,100.66,70.96,100.65z"/>
			<path class="st0" d="M340.97,273.06c-6.28,0.32-12.56,0.65-18.84,0.97c-3.07,0.16-5.39-1.77-5.49-4.6
				c-0.11-2.94,2.23-5.18,5.27-5.23c10.19-0.17,20.38-0.4,30.58-0.6c1.62-0.03,3.25-0.1,4.87,0.02c3.33,0.25,5.18,1.89,5.32,4.54
				c0.14,2.86-1.52,4.83-5.05,5.1c-4.18,0.32-8.4,0.16-12.61,0.2c-1.34,0.01-2.68,0-4.02,0
				C340.98,273.34,340.97,273.2,340.97,273.06z"/>
			<path class="st0" d="M311.18-47.38c-3.1,6.35-6.01,12.29-8.9,18.23c-3.53,7.26-7.06,14.52-10.56,21.79
				c-1.65,3.44-4.94,4.89-7.68,3.32c-2.97-1.7-3.41-5.19-1.39-8.53C289-23,295.34-33.43,301.44-44.01c1.42-2.47,2.77-3.91,5.7-3.4
				C308.31-47.21,309.54-47.38,311.18-47.38z"/>
			<path class="st0" d="M325.35,32.73c10.88-0.53,21.76-1.1,32.64-1.55c2.85-0.12,5.75-0.06,8.56,0.34
				c1.07,0.15,2.83,1.56,2.76,2.25c-0.11,1.14-1.24,2.52-2.31,3.13c-1.26,0.72-2.91,0.89-4.41,1c-12.58,0.97-25.16,1.86-37.74,2.83
				c-1.51,0.12-3,0.6-4.51,0.82c-3.34,0.48-5.69-1.23-5.94-4.26c-0.22-2.7,2.02-4.85,5.23-4.84c1.9,0.01,3.8,0.28,5.7,0.43
				C325.34,32.83,325.34,32.78,325.35,32.73z"/>
			<path class="st0" d="M290.64,22.95c4.49,0,8.98-0.04,13.47,0.03c1.13,0.02,2.46,0.06,3.32,0.66c1.07,0.75,2.38,2.05,2.41,3.15
				c0.03,1.1-1.17,2.76-2.24,3.23c-1.88,0.82-4.05,1.13-6.12,1.27c-11.65,0.82-23.3,1.53-34.95,2.25c-2.4,0.15-4.49-1.55-4.72-3.71
				c-0.27-2.51,1.45-4.63,4.2-4.9c4.1-0.39,8.21-0.65,12.32-0.92c4.1-0.27,8.21-0.47,12.32-0.7
				C290.64,23.19,290.64,23.07,290.64,22.95z"/>
			<path class="st0" d="M277.44,223.97c-0.71-7.08-1.42-14.16-2.13-21.25c-0.23-2.31-0.17-4.77,2.17-5.79
				c1.46-0.63,3.64-0.73,5.04-0.07c2.15,1,2.39,3.32,2.36,5.73c-0.09,8.86,0.05,17.72,0.1,26.58c0.02,4.44,0.06,8.88,0,13.32
				c-0.03,2.29-0.72,4.36-3.4,4.52c-2.57,0.15-3.52-1.8-3.69-3.95c-0.5-6.33-0.83-12.68-1.23-19.02
				C276.93,224.02,277.18,224,277.44,223.97z"/>
			<path class="st0" d="M462.92,101.45c-0.38,7.02-0.76,14.04-1.17,21.06c-0.05,0.85-0.08,1.89-0.56,2.49
				c-0.71,0.9-1.8,2.05-2.73,2.04c-0.9,0-2.36-1.18-2.59-2.09c-0.64-2.5-0.98-5.12-1.04-7.71c-0.26-11.3-0.4-22.6-0.54-33.9
				c-0.04-2.91,1.94-4.97,4.53-4.91c2.39,0.05,4.42,2.25,4.42,4.78c0,6.08,0,12.15,0,18.23
				C463.15,101.44,463.03,101.45,462.92,101.45z"/>
			<path class="st0" d="M87.03,101.89c0-6.17-0.01-12.35,0-18.52c0.01-2.9,1.65-4.81,4.16-4.91c2.65-0.1,4.65,1.81,4.57,4.8
				c-0.34,12.82-0.73,25.63-1.25,38.45c-0.09,2.28-0.12,5.47-3.42,5.38c-3.21-0.09-3.21-3.21-3.26-5.55
				c-0.14-6.54-0.05-13.09-0.05-19.64C87.54,101.89,87.29,101.89,87.03,101.89z"/>
			<path class="st0" d="M135.3,227.96c-0.53-7-1.05-14-1.61-20.99c-0.19-2.39,0.39-4.44,2.47-5.77c1.98-1.27,4.03-1.07,5.94,0.21
				c1.97,1.31,2.46,3.31,2.3,5.57c-0.7,10.08-1.38,20.15-2.06,30.23c-0.12,1.83-0.14,3.66-0.34,5.48c-0.39,3.45-1.64,5-3.85,4.69
				c-2.8-0.39-3.33-2.49-3.32-4.91c0.02-4.82,0.01-9.65,0.01-14.47C134.99,227.98,135.14,227.97,135.3,227.96z"/>
			<path class="st0" d="M313.87-47.27c2.98,0,5.54,0,8.17,0c0.13,0.43,0.33,0.79,0.33,1.14c0.2,13.9,0.41,27.79,0.55,41.69
				c0.02,2.5,0.12,5.34-3.09,6.07c-2.02,0.46-3.49-1.83-3.71-5.88c-0.67-12.23-1.23-24.47-1.84-36.71
				C314.17-42.96,314.02-44.97,313.87-47.27z"/>
			<path class="st0" d="M38.05,114.58c0-7.98,0.06-15.97-0.03-23.95c-0.03-3.36,1.88-5.78,4.94-5.81c2.87-0.03,5.05,2.32,4.95,5.54
				c-0.16,5.19-0.5,10.38-0.62,15.58c-0.09,4.04,0.08,8.09,0.04,12.13c-0.01,1.43-0.2,2.88-0.44,4.3c-0.37,2.18-1.43,3.86-3.87,3.91
				c-2.56,0.05-3.83-1.67-4.18-3.93c-0.4-2.55-0.46-5.16-0.67-7.75C38.14,114.59,38.09,114.59,38.05,114.58z"/>
			<path class="st0" d="M249.54,269.58c-4.48,0-8.95-0.04-13.43,0.01c-3.51,0.04-6.23-2.44-6.17-5.76c0.06-3.3,2.92-5.74,6.39-5.51
				c7.24,0.46,14.48,0.83,21.71,1.36c1.88,0.14,3.94,0.34,5.53,1.21c1.4,0.77,3.1,2.51,3.12,3.85c0.02,1.34-1.62,3.45-2.97,3.92
				c-2.45,0.85-5.23,0.8-7.88,0.97c-2.09,0.13-4.2,0.03-6.31,0.03C249.54,269.62,249.54,269.6,249.54,269.58z"/>
			<path class="st0" d="M406.09,107.58c-0.23-5.39-0.42-10.78-0.72-16.16c-0.22-4.01,1.68-6.59,5.01-6.55
				c3.23,0.03,4.88,2.44,4.77,6.47c-0.24,8.75-0.32,17.5-0.54,26.25c-0.05,1.91,0.04,4-0.71,5.66c-0.59,1.31-2.35,2.84-3.61,2.85
				c-1.26,0.02-3.28-1.49-3.67-2.74c-0.75-2.4-0.67-5.09-0.77-7.67c-0.11-2.69-0.02-5.4-0.02-8.1
				C405.91,107.58,406,107.58,406.09,107.58z"/>
			<path class="st0" d="M86.39,167.56c-0.4-5.57-0.78-11.13-1.21-16.7c-0.21-2.69,0.72-4.76,3.22-5.85
				c2.07-0.91,4.09-0.43,5.45,1.28c0.82,1.03,1.41,2.58,1.41,3.89c-0.03,9.14-0.23,18.29-0.4,27.43c-0.02,1.06-0.11,2.12-0.27,3.16
				c-0.34,2.17-1.26,3.93-3.72,4.04c-2.66,0.12-3.84-1.78-4.09-3.99c-0.44-3.81-0.5-7.67-0.7-11.51c-0.03-0.58,0-1.15,0-1.73
				C86.17,167.57,86.28,167.56,86.39,167.56z"/>
			<path class="st0" d="M452.87,150.34c-0.4-3.31,1.79-5.73,4.76-5.68c3.01,0.05,5.16,2.42,5.11,5.76
				c-0.15,9.24-0.33,18.48-0.55,27.72c-0.03,1.24-0.23,2.5-0.54,3.7c-0.47,1.86-1.73,3.4-3.64,2.87c-1.4-0.39-2.76-1.74-3.63-3.02
				c-0.63-0.92-0.55-2.42-0.59-3.66C453.46,168.8,453.17,159.57,452.87,150.34z"/>
			<path class="st0" d="M381.56,168.24c0-3.36,0.06-6.45-0.01-9.53c-0.1-4.09,2.18-7.03,5.54-6.99c3.39,0.04,5.69,3.03,5.5,7.05
				c-0.37,7.6-0.58,15.22-1.1,22.81c-0.23,3.41-2.07,5.13-4.69,5.23c-2.32,0.09-4.19-1.63-4.53-4.99
				C381.79,177.22,381.77,172.59,381.56,168.24z"/>
			<path class="st0" d="M218.92,21.96c0.95-1.6,1.47-3,2.41-3.98c6.21-6.44,12.46-12.84,18.8-19.13c2.86-2.84,5.96-5.44,9.01-8.09
				c1.43-1.24,3.28-2.39,4.86-0.84c1.71,1.67,0.48,3.73-0.74,5.15c-4.45,5.18-8.98,10.3-13.65,15.29
				c-4.27,4.57-8.65,9.04-13.2,13.32c-1.06,0.99-3.1,1.48-4.57,1.29C220.83,24.82,220,23.13,218.92,21.96z"/>
			<path class="st0" d="M14.75,170.53c-0.19-3.95-0.34-7.9-0.6-11.84c-0.25-3.75,2.05-6.82,5.33-6.97c3.18-0.15,5.91,2.62,5.81,6.2
				c-0.22,7.52-0.58,15.03-0.9,22.55c-0.03,0.67-0.17,1.33-0.32,1.99c-0.59,2.66-2.18,4.47-4.93,4.35c-2.51-0.11-3.89-2.1-4.15-4.45
				c-0.42-3.91-0.51-7.87-0.74-11.8C14.42,170.55,14.58,170.54,14.75,170.53z"/>
			<path class="st0" d="M349.57-12.14c7.63-0.37,15.26-0.79,22.89-1.05c1.88-0.06,3.91,0.05,5.62,0.74c1.19,0.48,2.54,2,2.7,3.2
				c0.14,1.05-1.04,2.91-2.08,3.35c-2.33,0.98-4.9,1.58-7.43,1.83c-7.32,0.73-14.65,1.24-21.99,1.77c-2.99,0.22-5.48-2.12-5.49-5.02
				C343.77-10.23,346.31-12.47,349.57-12.14z"/>
			<path class="st0" d="M-15.86-12.17C-9-12.52-2.14-12.93,4.72-13.19c1.88-0.07,3.92-0.05,5.63,0.62c1.27,0.5,2.88,2.03,2.96,3.21
				c0.09,1.2-1.23,3.17-2.41,3.66C8.59-4.72,5.97-4.31,3.44-4.06c-7.11,0.7-14.24,1.21-21.37,1.77c-2.83,0.22-5.38-1.91-5.58-4.63
				c-0.2-2.74,1.97-5.25,4.79-5.47c0.95-0.07,1.9-0.01,2.86-0.01C-15.86-12.32-15.86-12.24-15.86-12.17z"/>
			<path class="st0" d="M347.69,163.58c1.9-0.19,3.79-0.44,5.69-0.56c2.76-0.17,5.03,1.75,5.2,4.28c0.2,2.89-1.92,5.28-4.84,5.34
				c-8.78,0.18-17.56,0.37-26.35,0.45c-1.79,0.02-3.72-0.11-5.34-0.77c-1.1-0.44-2.58-2.06-2.45-2.93c0.18-1.14,1.65-2.75,2.77-2.95
				c5.82-1.06,11.7-1.78,17.57-2.53c2.56-0.32,5.14-0.42,7.71-0.63C347.67,163.39,347.68,163.49,347.69,163.58z"/>
			<path class="st0" d="M270.09,62.61c-4.28,0.32-8.57,0.62-12.85,0.97c-3.35,0.27-5.79-1.56-5.87-4.47
				c-0.09-3.06,2.31-4.94,5.76-4.94c7.16,0.01,14.32-0.23,21.47-0.22c2.75,0,5.52,0.3,8.25,0.69c1.91,0.27,3.05,1.55,3,3.61
				c-0.05,2.08-1.28,3.26-3.19,3.47c-5.5,0.61-11.01,1.07-16.52,1.6C270.13,63.08,270.11,62.85,270.09,62.61z"/>
			<path class="st0" d="M314.9,129.01c-2.24-1.26-4.3-1.98-5.81-3.33c-6.01-5.38-11.89-10.9-17.73-16.47
				c-2.29-2.19-2.35-5.41-0.4-7.23c1.72-1.61,5.03-1.3,7.07,0.6c6.31,5.87,12.65,11.71,18.96,17.59c1.56,1.46,2.73,3.32,1.62,5.36
				C317.89,126.88,316.29,127.75,314.9,129.01z"/>
			<path class="st0" d="M305.56-4.67c-0.45-5.85-0.88-11.7-1.37-17.54c-0.22-2.64,1.59-4.88,4.08-4.91
				c2.35-0.03,4.17,2.02,4.22,4.56c0.19,9.72,0.5,19.44,0.59,29.17c0.02,2.67-0.41,5.38-1,8c-0.22,0.98-1.53,2.44-2.25,2.38
				c-1.01-0.07-2.61-1.22-2.79-2.14c-0.82-4.13-1.33-8.34-1.75-12.54c-0.23-2.29-0.04-4.63-0.04-6.94
				C305.34-4.65,305.45-4.66,305.56-4.67z"/>
			<path class="st0" d="M362.62,143.16c-7.09,0.89-14.17,1.93-21.29,2.55c-1.63,0.14-3.86-0.7-4.92-1.89
				c-0.86-0.97-1.05-3.62-0.32-4.68c0.9-1.31,2.99-2.32,4.66-2.47c7.57-0.68,15.18-1.02,22.77-1.48c2.19-0.13,4.38-0.37,6.57-0.35
				c2.21,0.02,3.9,1,4.28,3.42c0.4,2.5-1.15,3.95-3.19,4.42c-2.76,0.65-5.65,0.77-8.48,1.11
				C362.67,143.6,362.64,143.38,362.62,143.16z"/>
			<path class="st0" d="M103.75,74.41c-5.09,0.56-10.17,1.33-15.27,1.57c-1.64,0.08-3.84-0.84-4.86-2.07
				c-0.81-0.98-0.85-3.57-0.1-4.67c0.84-1.23,2.92-2.14,4.5-2.21c7.31-0.33,14.64-0.31,21.96-0.45c2.2-0.04,4.4-0.33,6.59-0.23
				c2.83,0.14,4.58,1.8,4.61,4.2c0.03,2.79-1.78,4.07-4.2,4.17c-4.39,0.18-8.78,0.05-13.18,0.05
				C103.79,74.66,103.77,74.53,103.75,74.41z"/>
			<path class="st0" d="M471.52,74.41c-5.19,0.56-10.37,1.32-15.57,1.58c-1.67,0.08-3.96-0.72-4.92-1.95
				c-0.84-1.06-0.83-3.71-0.06-4.91c0.78-1.21,2.94-2.02,4.53-2.09c7.13-0.31,14.28-0.28,21.42-0.4c2.39-0.04,4.78-0.31,7.17-0.25
				c2.51,0.06,4.33,1.49,4.48,4.02c0.16,2.59-1.56,4.19-4.09,4.28c-4.29,0.16-8.6,0.04-12.9,0.04
				C471.56,74.62,471.54,74.52,471.52,74.41z"/>
			<path class="st0" d="M489.86,38.62c-1.11,1.89-1.6,3.32-2.56,4.28c-6.57,6.62-13.17,13.2-19.89,19.66
				c-2.25,2.16-4.76,1.9-6.57-0.22c-1.58-1.85-1.32-4.47,0.85-6.42c6.72-6.03,13.45-12.04,20.29-17.92
				c1.14-0.98,2.86-1.76,4.31-1.75C487.4,36.27,488.5,37.67,489.86,38.62z"/>
			<path class="st0" d="M190.7,141.5c0,4.63,0.16,9.26-0.07,13.87c-0.11,2.35,0.19,5.68-3.14,5.95c-3.48,0.29-3.57-2.98-3.73-5.39
				c-0.65-9.59-1.18-19.2-1.64-28.8c-0.13-2.65,1.79-4.51,4.19-4.54c2.4-0.03,4.21,1.64,4.29,4.45c0.15,4.81,0.04,9.64,0.04,14.46
				C190.66,141.5,190.68,141.5,190.7,141.5z"/>
			<path class="st0" d="M122.43,38.7c-1.08,1.82-1.55,3.15-2.45,4.05c-6.53,6.63-13.09,13.23-19.77,19.7
				c-2.33,2.26-4.79,2.08-6.59,0.06c-1.68-1.89-1.45-4.61,0.81-6.65c6.7-6.04,13.42-12.05,20.26-17.93c1.13-0.98,2.89-1.7,4.34-1.66
				C120.13,36.3,121.18,37.74,122.43,38.7z"/>
			<path class="st0" d="M98.59,152.04c0.05-4.27,3.38-7.48,7.43-6.41c3.09,0.81,4.55,3.78,3.97,6.95c-0.54,2.95-0.63,6-0.69,9.01
				c-0.07,3.27,0.22,6.55,0.13,9.81c-0.07,2.51-1.14,4.66-3.91,4.91c-2.72,0.25-4.34-1.5-4.74-4.04c-0.61-3.79-0.92-7.64-1.33-11.46
				C99.15,158.14,98.92,155.46,98.59,152.04z"/>
			<path class="st0" d="M368.44-47.29c4.28,0,8.19,0,12.54,0c0.14,7.05,2.12,14.14-0.7,21.03c-0.66,1.61-2.5,3.31-4.14,3.8
				c-2.24,0.67-4-1.17-4.74-3.29c-0.96-2.78-1.89-5.65-2.24-8.56C368.65-38.5,368.66-42.76,368.44-47.29z"/>
			<path class="st0" d="M1.07-47.25c4.17,0,8.16,0,12.64,0c-0.18,7.01,2.16,14.02-0.71,20.98c-0.85,2.05-1.91,3.95-4.38,3.97
				c-2.38,0.03-3.58-1.7-4.71-3.64c-2.09-3.59-2.08-7.55-2.37-11.46C1.3-40.56,1.23-43.74,1.07-47.25z"/>
			<path class="st0" d="M465.49,152.54c0.76-1.72,1.25-3.63,2.33-5.11c1.63-2.24,4.68-2.63,6.99-1.31c2.18,1.24,3,4.18,2.34,6.87
				c-0.49,1.97-0.64,4.06-0.65,6.09c-0.02,4.14,0.25,8.28,0.23,12.42c-0.01,2.57-1.17,4.63-3.94,4.84c-2.55,0.19-4.1-1.47-4.68-3.85
				c-0.48-1.95-0.75-3.97-0.93-5.98c-0.42-4.6-0.72-9.2-1.07-13.8C465.9,152.64,465.7,152.59,465.49,152.54z"/>
			<path class="st0" d="M272.49-47.26c3.75,0,6.77,0,9.76,0c0,3.65,0.14,7.19-0.03,10.71c-0.32,6.35-0.72,12.69-1.31,19.02
				c-0.19,1.98-0.28,4.87-3.03,4.83c-2.65-0.03-2.92-2.82-3.1-4.86C273.93-27.33,273.25-37.12,272.49-47.26z"/>
			<path class="st0" d="M323,204.51c-0.35-5.56-0.85-11.11-0.99-16.67c-0.05-2.06,0.52-4.2,1.18-6.18c0.63-1.9,2.36-3.22,4.25-2.52
				c1.45,0.54,3.24,2.07,3.52,3.45c0.56,2.75,0.3,5.69,0.19,8.55c-0.13,3.75-0.41,7.5-0.67,11.24c-0.21,3.08-0.38,6.16-0.77,9.21
				c-0.25,1.97-1.33,3.56-3.57,3.4c-2.19-0.16-3.01-1.77-3.16-3.81c-0.16-2.21-0.33-4.42-0.49-6.63
				C322.66,204.54,322.83,204.52,323,204.51z"/>
			<path class="st0" d="M132.94,115.08c0-3.86,0.01-7.72,0-11.58c-0.01-3.1,1.43-5.01,3.88-5.1c2.59-0.1,4.28,1.86,4.36,4.96
				c0.19,7.13,0.41,14.27,0.59,21.4c0.03,1.25,0.09,2.54-0.19,3.74c-0.54,2.32-1.8,4.13-4.47,4.07c-2.64-0.06-4.16-1.78-4.28-4.2
				c-0.23-4.42-0.07-8.86-0.07-13.3C132.82,115.08,132.88,115.08,132.94,115.08z"/>
			<path class="st0" d="M-13.91-47.28c3.34,0,6.58,0,10.24,0c0.13,0.88,0.42,1.84,0.41,2.8c-0.06,5.89-0.14,11.77-0.29,17.66
				c-0.1,3.93-1.83,6.02-4.94,6.21c-3,0.18-5.21-1.86-5.35-5.85C-14.09-33.29-13.91-40.14-13.91-47.28z"/>
			<path class="st0" d="M353.53-47.25c3.29,0,6.69,0,10.2,0c0,7.41,0.16,14.69-0.08,21.96c-0.1,3-2.45,4.74-5.19,4.71
				c-2.61-0.02-4.76-1.87-4.86-5.06C353.38-32.74,353.53-39.85,353.53-47.25z"/>
			<path class="st0" d="M307.24,134.49c0.09,4.11-3.12,6.24-6.27,4.81c-1.61-0.73-3.07-1.95-4.39-3.17
				c-4.22-3.9-8.34-7.91-12.52-11.86c-2.05-1.93-2.4-5.12-0.74-7.02c1.85-2.12,5.06-2.31,7.17-0.31c4.86,4.61,9.72,9.23,14.45,13.98
				C306.1,132.07,306.76,133.72,307.24,134.49z"/>
			<path class="st0" d="M251.55,299.52c-2.38-0.23-5.42-0.65-8.47-0.76c-1.85-0.07-3.76,0.67-5.58,0.48
				c-1.74-0.18-3.97-0.63-4.95-1.82c-0.89-1.08-0.89-3.5-0.37-5.01c0.73-2.08,2.78-2.55,5.04-2.39c2.8,0.19,5.63,0.04,8.44-0.07
				c3.92-0.15,7.83-0.62,11.74-0.54c3.37,0.07,5.4,2.13,5.48,4.81c0.08,2.36-2.03,4.38-5.21,4.84
				C255.87,299.31,254.05,299.34,251.55,299.52z"/>
			<path class="st0" d="M368.59,122.39c3.44,0.13,5.09,1.36,5.18,3.55c0.09,2.18-1.54,3.82-4.28,4.18
				c-8.06,1.07-16.13,2.14-24.2,3.14c-3.15,0.39-5.41-1.34-5.53-4.04c-0.12-2.65,1.97-4.55,4.97-4.78
				c7.63-0.59,15.26-1.28,22.89-1.93C368.08,122.47,368.55,122.39,368.59,122.39z"/>
			<path class="st0" d="M166.32,164.89c-0.59-3.29-1.04-6.61-1.81-9.86c-0.53-2.25-0.44-4.19,1.23-5.86
				c1.66-1.65,3.92-2.4,5.76-1.25c1.59,0.99,3.35,3.06,3.5,4.78c0.46,5.35,0.23,10.76,0.15,16.14c-0.01,1.02-0.37,2.11-0.84,3.03
				c-1.01,1.97-2.66,3.05-4.93,2.64c-2.32-0.42-3.35-2.1-3.5-4.32c-0.11-1.73-0.02-3.47-0.02-5.21
				C166.01,164.95,166.17,164.92,166.32,164.89z"/>
			<path class="st0" d="M231.73-47.16c0,8.94,0.01,17.78-0.01,26.62c0,0.77-0.07,1.55-0.22,2.3c-0.38,1.87-1.43,3.53-3.38,3.15
				c-1.29-0.25-3.11-1.59-3.36-2.74c-0.71-3.26-0.92-6.68-0.99-10.04c-0.14-6.35-0.04-12.71-0.04-19.3
				C225.79-47.16,228.4-47.16,231.73-47.16z"/>
			<path class="st0" d="M246.81,103.77c0.09,2.02,0.33,4.06,0.24,6.07c-0.11,2.6-1.78,3.99-4.2,4.38c-2.01,0.32-4.74-1.57-4.82-3.67
				c-0.24-6.93-0.28-13.86-0.26-20.8c0.01-2.48,1.24-4.43,3.9-4.5c2.55-0.07,3.74,1.91,4.02,4.13c0.59,4.77,0.93,9.56,1.37,14.35
				C246.99,103.75,246.9,103.76,246.81,103.77z"/>
			<path class="st0" d="M480.41,298.53c-2.3-0.42-5.01-0.96-7.73-1.42c-2.25-0.38-4.5-0.78-6.76-0.99c-3.17-0.3-5.65-3.07-5.2-6
				c0.45-2.92,3.39-4.95,6.4-4.26c4.45,1.03,8.87,2.16,13.3,3.27c0.82,0.21,1.62,0.54,2.42,0.85c2.36,0.94,4.04,2.56,3.44,5.25
				C485.66,297.96,483.25,298.37,480.41,298.53z"/>
			<path class="st0" d="M112.81,298.44c-2-0.35-4.54-0.83-7.09-1.24c-2.44-0.4-4.89-0.79-7.35-1.08c-3.01-0.35-5.4-3.14-4.98-5.95
				c0.44-2.98,3.35-5.04,6.39-4.34c4.46,1.03,8.89,2.19,13.33,3.32c0.74,0.19,1.45,0.47,2.16,0.75c2.31,0.92,4.04,2.36,3.68,5.14
				C118.68,297.25,116.38,298.55,112.81,298.44z"/>
			<path class="st0" d="M293.9,12.91c-0.27,2.46-1.83,3.47-4.09,3.6c-6.67,0.38-13.35,0.71-20.02,1.08
				c-1.81,0.1-3.61,0.31-5.42,0.45c-2.22,0.18-3.8-0.62-4.06-3.02c-0.27-2.49,1.37-3.54,3.43-3.74c8.46-0.81,16.92-1.52,25.39-2.19
				C291.89,8.88,293.94,10.64,293.9,12.91z"/>
			<path class="st0" d="M168.66,101.1c3.73,0,7.46-0.01,11.19,0c2.33,0.01,4.01,1.1,4.11,3.49c0.1,2.49-1.76,3.55-3.94,3.73
				c-2.66,0.22-5.35,0.13-8.02,0.24c-4.68,0.2-9.36,0.48-14.04,0.65c-2.83,0.1-4.66-1.49-4.69-3.9c-0.04-2.45,1.7-4.09,4.51-4.13
				c3.63-0.05,7.26-0.01,10.89-0.01C168.66,101.16,168.66,101.13,168.66,101.1z"/>
			<path class="st0" d="M302.22,78.31c-0.5-2.72-1.31-5.44-1.4-8.18c-0.06-1.73,0.49-3.97,1.62-5.1c0.87-0.87,3.47-1.02,4.6-0.33
				c1.26,0.77,2.44,2.87,2.43,4.38c-0.07,7.21-0.56,14.41-0.92,21.62c-0.07,1.34-0.02,2.78-0.48,3.99c-0.35,0.92-1.35,2-2.23,2.17
				c-0.69,0.13-1.73-0.9-2.41-1.61c-0.41-0.43-0.54-1.23-0.6-1.88c-0.45-4.99-0.85-9.97-1.27-14.96
				C301.79,78.36,302,78.33,302.22,78.31z"/>
			<path class="st0" d="M409.99,141.87c-3.9,0-7.8,0-11.71,0c-0.95,0-1.91,0.05-2.86-0.02c-2.87-0.21-4.55-1.6-4.48-3.83
				c0.08-2.69,1.87-3.93,4.22-4.29c5.27-0.8,10.57-1.51,15.87-2.12c3.15-0.36,5.65,2.03,5.64,5.13
				C416.67,140.05,414.15,141.88,409.99,141.87z"/>
			<path class="st0" d="M42.67,141.93c-4.2,0-8.41-0.05-12.61,0.01c-4.11,0.06-6.28-1.16-6.42-3.75c-0.15-2.7,1.69-4.17,5.75-4.69
				c4.65-0.59,9.28-1.49,13.94-1.71c1.71-0.08,4.04,0.93,5.08,2.25c0.85,1.09,0.7,3.57,0.12,5.09
				C47.58,141.65,45.1,141.86,42.67,141.93z"/>
			<path class="st0" d="M242.4,243.05c3.13,0.28,6.28,0.45,9.39,0.89c2,0.28,3.74,1.37,3.79,3.66c0.04,2.31-1.37,3.89-3.65,4.08
				c-5.5,0.46-11.02,0.86-16.54,0.95c-2.52,0.04-4.34-2.25-4.32-4.53c0.02-2.56,1.74-4.52,4.43-4.72c2.28-0.17,4.58-0.03,6.88-0.03
				C242.39,243.24,242.4,243.15,242.4,243.05z"/>
			<path class="st0" d="M340.17-47.26c3.14,0,5.78,0,8.65,0c0,2.98,0.07,5.84-0.02,8.7c-0.14,4.83-0.37,9.66-0.6,14.48
				c-0.05,0.96-0.01,2.07-0.48,2.81c-0.59,0.94-1.65,2.15-2.54,2.17c-0.9,0.02-2.32-1.1-2.63-2.02c-0.6-1.79-0.67-3.78-0.82-5.7
				C341.19-33.53,340.7-40.25,340.17-47.26z"/>
			<path class="st0" d="M271.76,219.19c-0.05,0.77,0,1.56-0.15,2.3c-0.4,1.96-1.37,3.54-3.57,3.45c-2.18-0.09-3.54-1.43-3.69-3.68
				c-0.26-3.94-0.38-7.9-0.61-11.85c-0.17-2.98-0.46-5.95-0.6-8.94c-0.11-2.39,1.11-3.93,3.47-4.06c2.42-0.14,3.73,1.42,3.89,3.73
				c0.43,6.34,0.73,12.7,1.08,19.04C271.63,219.19,271.7,219.19,271.76,219.19z"/>
			<path class="st0" d="M470.59,90.35c-2.99,0.39-5.25-1.77-5.17-4.65c0.07-2.54,2.57-4.86,5.21-4.78
				c4.48,0.14,8.96,0.19,13.43,0.54c1.85,0.14,3.77,0.69,5.44,1.5c2.22,1.08,2.11,3.54,0.08,4.35c-2.19,0.87-4.45,1.74-6.76,2.06
				C478.77,89.93,474.67,90.05,470.59,90.35z"/>
			<path class="st0" d="M98.1,85.95c-0.04-2.72,2.45-5.12,5.23-5.02c4.18,0.15,8.37,0.22,12.55,0.48c1.79,0.11,3.66,0.34,5.28,1.03
				c0.92,0.39,1.88,1.76,1.98,2.77c0.08,0.85-0.86,2.23-1.7,2.64c-1.59,0.78-3.41,1.23-5.18,1.47c-4.24,0.57-8.51,0.97-12.77,1.37
				C100.51,90.96,98.15,88.83,98.1,85.95z"/>
			<path class="st0" d="M352.01,191.12c-0.55-0.1-1.5-0.44-2.43-0.42c-2.8,0.09-5.66,0.01-8.38,0.59c-2.59,0.55-4.59,0.08-6.09-1.96
				c-1.31-1.79-1.31-3.89,0.06-5.65c1.46-1.88,3.38-2.38,5.87-1.88c2.62,0.52,5.37,0.41,8.06,0.45c1.03,0.02,2.07-0.39,3.11-0.43
				c3.23-0.14,5.51,1.76,5.51,4.5C357.75,189.14,355.58,191.09,352.01,191.12z"/>
			<path class="st0" d="M332.38,247.44c3.24-0.21,6.47-0.54,9.71-0.58c2.36-0.02,4.31,1.1,5.09,3.49c1.01,3.09-0.92,6.12-4.41,6.32
				c-4.27,0.24-8.59,0.1-12.85-0.27c-2.59-0.23-3.63-2.38-3.52-4.85c0.11-2.44,1.59-3.84,3.99-4.17c0.66-0.09,1.33-0.01,2-0.01
				C332.37,247.39,332.37,247.41,332.38,247.44z"/>
			<path class="st0" d="M24.12,119.4c-0.27-1.5-0.51-3.01-0.8-4.51c-0.46-2.35-0.27-4.83,1.96-5.84c1.58-0.72,3.99-0.74,5.57-0.03
				c2.21,0.99,2.39,3.41,2.06,5.81c-0.34,2.47-0.32,4.98-0.49,7.48c-0.07,1.05,0.11,2.36-0.43,3.09c-0.99,1.34-2.3,3.04-3.73,3.33
				c-2.12,0.43-3.4-1.45-3.79-3.52c-0.36-1.89-0.48-3.83-0.71-5.74C23.87,119.44,24,119.42,24.12,119.4z"/>
			<path class="st0" d="M390.64,113.15c-0.17-2.94,2.01-5.14,4.84-5.1c2.86,0.04,5.06,2.31,4.9,5.23
				c-0.21,3.73-0.55,7.46-0.84,11.19c-0.19,2.39-1.33,4.14-3.76,4.33c-2.59,0.21-3.8-1.72-4.09-3.94
				C391.17,120.98,390.97,117.05,390.64,113.15z"/>
			<path class="st0" d="M358.25,109.69c3.6,0,7.21-0.03,10.81,0.01c2.02,0.03,3.67,0.89,3.91,3.05c0.26,2.31-1.28,3.55-3.31,4.04
				c-4.16,1-8.32,2.01-12.53,2.76c-2.49,0.44-5.04-1.82-5.28-4.25c-0.24-2.41,1.56-4.69,4.12-5.1c0.74-0.12,1.52-0.02,2.29-0.02
				C358.25,110.03,358.25,109.86,358.25,109.69z"/>
			<path class="st0" d="M-8.91,110.3c2.08-0.25,4.16-0.63,6.24-0.71c1.89-0.07,3.87-0.11,5.65,0.41c1.03,0.3,2.36,1.68,2.42,2.66
				c0.08,1.15-0.76,2.9-1.73,3.47C2,117.11-0.07,117.46-2,117.92c-2.21,0.52-4.46,1.16-6.7,1.2c-1.83,0.04-4.15-0.17-5.38-1.27
				c-1-0.9-1.49-3.75-0.81-4.86c0.87-1.42,3.14-1.99,4.83-2.87c0.3-0.16,0.75-0.02,1.13-0.02C-8.92,110.17-8.92,110.24-8.91,110.3z"
				/>
			<path class="st0" d="M150.18,128.08c-3.26,0.05-5.47-2.07-5.43-4.96c0.04-2.88,2.27-5.19,5.15-5.1
				c3.92,0.12,7.83,0.35,11.75,0.61c2.02,0.13,3.46,1.1,3.71,3.3c0.26,2.29-1.21,3.45-3.08,3.9c-1.75,0.42-3.63,0.23-5.41,0.57
				C154.53,126.84,152.24,127.54,150.18,128.08z"/>
			<path class="st0" d="M307.29,286.82c-2.56,0.24-5.14,0.77-7.67,0.61c-1.49-0.09-3.37-0.93-4.21-2.08
				c-0.66-0.9-0.53-3.32,0.23-4.11c0.98-1.03,2.9-1.39,4.47-1.54c2.54-0.25,5.12-0.06,7.68-0.11c2.19-0.05,4.47-0.56,6.55-0.12
				c1.37,0.29,3.12,1.67,3.55,2.95c0.67,2.02-0.98,3.48-2.91,3.87c-2.51,0.51-5.09,0.64-7.64,0.94
				C307.32,287.09,307.3,286.96,307.29,286.82z"/>
			<path class="st0" d="M468.67,113.17c0-3.36-0.02-6.73,0.01-10.09c0.02-2.66,1.96-4.79,4.12-4.61c2.21,0.18,3.74,2.21,3.54,4.8
				c-0.36,4.7-0.76,9.4-1.16,14.1c-0.07,0.77,0.04,1.77-0.39,2.24c-0.94,1.02-2.22,2.48-3.29,2.43c-1.04-0.06-2.56-1.64-2.85-2.81
				c-0.48-1.91-0.13-4.02-0.13-6.05C468.57,113.17,468.62,113.17,468.67,113.17z"/>
			<path class="st0" d="M251.32,12.92c-0.24-1.72-0.79-3.46-0.63-5.14c0.15-1.58,0.69-3.45,1.74-4.51c0.71-0.71,3.18-0.82,3.82-0.17
				c1.11,1.14,2.01,3.1,1.94,4.67c-0.23,5.58-0.78,11.16-1.48,16.71c-0.21,1.62-1.26,4.41-2.04,4.45c-2.55,0.13-1.96-2.64-2.25-4.2
				c-0.73-3.88-1.04-7.84-1.52-11.76C251.04,12.96,251.18,12.94,251.32,12.92z"/>
			<path class="st0" d="M101.41,110.48c0-2.41,0-4.81,0-7.22c0-2.81,1.67-4.92,3.84-4.86c2.38,0.06,3.95,2.34,3.7,5.22
				c-0.41,4.7-0.78,9.39-1.12,14.1c-0.17,2.32-0.81,4.42-3.47,4.44c-2.76,0.02-3.3-2.13-3.29-4.46c0.01-2.41,0-4.82,0-7.22
				C101.19,110.48,101.3,110.48,101.41,110.48z"/>
			<path class="st0" d="M301.72,9.48c0,1.54,0.05,3.09-0.01,4.62c-0.07,1.71-0.41,3.75-2.48,3.45c-1.15-0.16-2.7-1.83-2.96-3.06
				c-0.71-3.36-0.9-6.84-1.18-10.28c-0.24-2.87-0.25-5.75-0.52-8.62c-0.22-2.37,0.74-3.88,3.01-4.02c2.18-0.14,3.2,1.39,3.33,3.51
				c0.3,4.8,0.61,9.6,0.91,14.4C301.79,9.48,301.76,9.48,301.72,9.48z"/>
			<path class="st0" d="M131.95,240.63c-0.62,1.53-0.86,2.85-1.59,3.78c-1.95,2.48-4.01,4.9-6.23,7.14
				c-1.85,1.87-4.74,1.7-6.42-0.06c-1.82-1.92-1.8-4.82,0.28-6.7c2.48-2.24,5.01-4.46,7.76-6.35c0.98-0.68,2.76-0.75,3.95-0.38
				C130.62,238.34,131.22,239.74,131.95,240.63z"/>
			<path class="st0" d="M316.41,79.33c-1.43-1.3-3.16-2.13-3.41-3.28c-0.32-1.46,0.15-3.48,1.02-4.74c2-2.9,4.44-5.48,6.7-8.19
				c0.25-0.29,0.46-0.62,0.72-0.9c1.49-1.5,3.13-3.54,5.32-1.84c1.95,1.51,0.9,3.64-0.19,5.47c-2.06,3.45-3.95,7.02-6.17,10.36
				C319.6,77.41,318.02,78.11,316.41,79.33z"/>
			<path class="st0" d="M170.31,178.46c1.82,0,3.75-0.38,5.41,0.12c1.31,0.4,3.02,1.79,3.19,2.94c0.16,1.09-1.26,3.26-2.34,3.53
				c-3.77,0.95-7.68,1.49-11.56,1.77c-2.29,0.16-3.95-1.96-3.9-4.13c0.05-2.25,1.84-4.02,4.31-4.2c0.86-0.06,1.72,0.01,2.58,0.02
				c0.77,0.01,1.53,0,2.3,0C170.31,178.5,170.31,178.48,170.31,178.46z"/>
			<path class="st0" d="M241.08-47.26c2.6,0,4.67,0,7.29,0c0,4.33,0.06,8.63-0.03,12.93c-0.04,1.83-1.01,3.2-2.99,3.22
				c-1.98,0.02-2.93-1.33-3.11-3.14C241.8-38.47,241.48-42.7,241.08-47.26z"/>
			<path class="st0" d="M240.81,14.44c0.15-1.29,1.22-2.68,3.53-2.73c2.12-0.04,3.55,1.53,3.35,3.76c-0.36,4-0.67,8.02-1.34,11.98
				c-0.19,1.09-1.57,1.98-2.4,2.96c-0.69-1.01-1.74-1.93-1.99-3.04c-0.45-1.95-0.41-4.01-0.57-6.02
				C241.22,19.35,241.05,17.35,240.81,14.44z"/>
			<path class="st0" d="M156.79-47.17c0.29,5.17-2.16,9.32-5.54,9.51c-3.64,0.2-6.42-3.75-6.56-9.51
				C148.72-47.17,152.76-47.17,156.79-47.17z"/>
			<path class="st0" d="M227.3,155.18c0.08,2.73-2.58,5.63-5.15,5.61c-2.96-0.02-5.46-2.38-5.53-5.21c-0.07-2.8,2.4-5.48,5.16-5.6
				C224.57,149.86,227.22,152.35,227.3,155.18z"/>
			<path class="st0" d="M22.2-47.31c9.55,0,19.1,0,28.9,0c-1.18,2.61-3.45,3.11-5.65,3.15c-5.15,0.1-10.3-0.05-15.45-0.18
				c-1.8-0.05-3.63-0.19-5.37-0.61c-0.99-0.23-1.84-1.1-2.75-1.68C22-46.85,22.1-47.08,22.2-47.31z"/>
			<path class="st0" d="M389.53-47.21c0.26-0.05,0.53-0.15,0.79-0.15c9.27-0.01,18.53-0.01,27.8-0.01c0.14,0.26,0.28,0.52,0.42,0.78
				c-1.33,0.72-2.63,1.98-4,2.05c-5.5,0.29-11.03,0.26-16.54,0.26c-1.9,0-3.84-0.1-5.69-0.5c-1.1-0.24-2.05-1.16-3.06-1.78
				C389.34-46.78,389.44-47,389.53-47.21z"/>
			<path class="st0" d="M439.69,152.89c-2.93-0.03-5.33-2.48-5.22-5.32c0.11-2.92,2.61-5.31,5.41-5.18
				c2.69,0.13,5.05,2.83,4.97,5.69C444.77,150.52,442.2,152.91,439.69,152.89z"/>
			<path class="st0" d="M72.43,142.39c2.92,0.12,5.22,2.81,5.02,5.88c-0.16,2.47-2.76,4.73-5.31,4.63
				c-2.82-0.12-5.03-2.44-4.96-5.23C67.24,144.61,69.57,142.27,72.43,142.39z"/>
			<path class="st0" d="M291.41-47.29c1.72,0,3.62,0,5.71,0c-1.3,3.94-2.44,7.78-3.85,11.51c-0.71,1.88-3.28,2.47-4.89,1.43
				c-1.73-1.12-2.08-3.45-1-5.31C288.75-42.06,289.97-44.55,291.41-47.29z"/>
			<path class="st0" d="M197.55,199.78c0.03-2.81,2.36-5.19,5.07-5.18c2.91,0.01,5.12,2.42,5.04,5.48c-0.07,2.64-2.36,4.83-5.04,4.8
				C199.74,204.84,197.53,202.62,197.55,199.78z"/>
			<path class="st0" d="M61.23,24.44c-2.59,0.06-5.04-2.25-5.1-4.84c-0.07-2.78,2.21-5.09,5.07-5.13c2.66-0.04,4.93,2.21,4.95,4.92
				C66.16,21.99,63.85,24.37,61.23,24.44z"/>
			<path class="st0" d="M149.6,82.58c0.22-2.2,0.17-4.47,0.77-6.56c0.31-1.07,1.81-2.52,2.74-2.49c1.02,0.04,2.63,1.42,2.87,2.46
				c0.51,2.31,0.46,4.78,0.37,7.18c-0.09,2.53-1.73,4.1-3.69,3.89C150.71,86.87,149.41,84.99,149.6,82.58z"/>
			<path class="st0" d="M428.37,24.43c-2.66-0.02-4.88-2.33-4.81-5.04c0.07-2.88,2.07-4.88,4.91-4.91c2.81-0.03,5.11,2.32,5.03,5.15
				C433.43,22.17,431,24.45,428.37,24.43z"/>
			<path class="st0" d="M-10.43,257.35c-2.52-0.06-4.77-2.35-4.78-4.87c-0.01-2.67,2.36-5.03,4.99-4.97
				c2.62,0.06,4.85,2.51,4.73,5.19C-5.62,255.3-7.85,257.41-10.43,257.35z"/>
			<path class="st0" d="M352.19,252.39c0.02-2.57,2.17-4.82,4.67-4.89c2.61-0.07,5.13,2.48,5.08,5.15c-0.05,2.42-2.42,4.7-4.88,4.69
				C354.33,257.33,352.17,255.13,352.19,252.39z"/>
			<path class="st0" d="M59.23,198.21c-2.53-0.03-4.86-2.38-4.75-4.79c0.11-2.51,2.46-4.74,4.88-4.65c2.61,0.1,4.49,2.01,4.53,4.59
				C63.91,195.93,61.69,198.24,59.23,198.21z"/>
			<path class="st0" d="M426.69,198.18c-2.47,0.06-4.69-1.97-4.78-4.37c-0.1-2.74,1.82-4.94,4.39-5.04c2.76-0.1,4.87,1.83,4.89,4.46
				C431.2,196.02,429.3,198.11,426.69,198.18z"/>
			<path class="st0" d="M152.61,100.3c-2.47-0.09-4.57-2.5-4.43-5.07c0.13-2.41,2.44-4.46,4.83-4.31c2.56,0.17,4.48,2.21,4.44,4.71
				C157.41,98.21,155.15,100.39,152.61,100.3z"/>
			<path class="st0" d="M422.51,277.03c-0.02-2.43,2.03-4.45,4.6-4.53c2.34-0.07,4.63,2.23,4.57,4.58c-0.06,2.35-2.3,4.58-4.64,4.6
				C424.74,281.71,422.53,279.44,422.51,277.03z"/>
			<path class="st0" d="M64.28,277.15c-0.08,2.45-2.25,4.58-4.63,4.56c-2.25-0.02-4.53-2.39-4.54-4.69
				c-0.01-2.46,2.41-4.66,4.95-4.52C62.27,272.62,64.35,274.92,64.28,277.15z"/>
			<path class="st0" d="M294.87,88.78c0.05,2.53-1.97,4.48-4.59,4.45c-2.2-0.03-4.38-1.99-4.49-4.05c-0.15-2.66,1.88-4.86,4.52-4.91
				C292.84,84.23,294.82,86.19,294.87,88.78z"/>
			<path class="st0" d="M172,201.06c-2.33,0-4.33-2.02-4.35-4.41c-0.02-2.28,2.06-4.34,4.41-4.37c2.29-0.03,4.35,2.07,4.33,4.43
				C176.38,199.07,174.37,201.05,172,201.06z"/>
			<path class="st0" d="M305.1,59.21c-2.23,0.04-4.42-2.09-4.5-4.37c-0.08-2.35,2.17-4.48,4.69-4.45c2.21,0.03,4.12,2.05,4.1,4.33
				C309.37,57.25,307.54,59.17,305.1,59.21z"/>
			<path class="st0" d="M484.11,162.01c-2.28-0.04-4.41-2.26-4.32-4.5c0.09-2.21,2.12-4.16,4.33-4.16c2.55,0.01,4.54,2.09,4.42,4.64
				C488.44,160.22,486.42,162.05,484.11,162.01z"/>
			<path class="st0" d="M116.9,162.03c-2.29,0.03-4.47-2.12-4.43-4.38c0.04-2.44,2.01-4.33,4.45-4.3c2.42,0.04,4.23,1.97,4.22,4.51
				C121.14,160.07,119.18,162,116.9,162.03z"/>
			<path class="st0" d="M25.34-10.31c-0.02,2.17-1.83,3.97-4.05,4c-2.54,0.04-4.49-1.76-4.53-4.19c-0.04-2.54,1.81-4.37,4.33-4.31
				C23.57-14.74,25.37-12.84,25.34-10.31z"/>
			<path class="st0" d="M384.04-10.46c0-2.44,1.97-4.44,4.36-4.43c2.27,0.01,4.17,1.9,4.25,4.22c0.08,2.53-1.78,4.43-4.29,4.38
				C386.03-6.35,384.04-8.27,384.04-10.46z"/>
			<path class="st0" d="M138.75,256.95c-0.03-2.4,1.97-4.41,4.34-4.36c2.39,0.04,4.21,1.79,4.31,4.13c0.1,2.36-2.19,4.68-4.56,4.62
				C140.7,261.28,138.78,259.23,138.75,256.95z"/>
			<path class="st0" d="M242.32,62.31c-2.26,0.05-4.06-1.74-4.19-4.18c-0.12-2.27,1.79-4.4,3.96-4.42c2.29-0.03,4.35,2.04,4.39,4.4
				C246.52,60.38,244.67,62.26,242.32,62.31z"/>
			<path class="st0" d="M482.67,63.01c-2.29,0.03-4.21-1.82-4.27-4.11c-0.06-2.24,1.81-4.2,4.1-4.29c2.38-0.1,4.4,1.85,4.43,4.27
				C486.94,61.08,484.99,62.98,482.67,63.01z"/>
			<path class="st0" d="M115.26,62.99c-2.38-0.03-4.2-1.9-4.15-4.24c0.05-2.38,1.88-4.14,4.28-4.13c2.38,0.01,4.12,1.83,4.09,4.27
				C119.45,61.33,117.71,63.03,115.26,62.99z"/>
			<path class="st0" d="M16.65,194.49c0.03-2.1,2.26-4.11,4.45-4.02c2.12,0.09,3.93,2.02,3.94,4.19c0.01,2.32-1.89,4.17-4.23,4.12
				C18.5,198.72,16.62,196.77,16.65,194.49z"/>
			<path class="st0" d="M388.38,198.77c-2.36,0.03-4.26-1.74-4.38-4.06c-0.1-2.1,1.99-4.21,4.23-4.26c2.22-0.04,4.23,2,4.18,4.25
				C392.35,196.91,390.54,198.75,388.38,198.77z"/>
			<path class="st0" d="M255.58,205.67c-2.26,0.01-3.99-1.74-3.94-4c0.05-2.13,1.95-4.06,4.01-4.07c1.98,0,3.85,2.08,3.84,4.27
				C259.47,203.88,257.64,205.66,255.58,205.67z"/>
			<path class="st0" d="M460.36-47.14c-1.91,6.04-8.85,4.11-17.53,0C448.95-47.14,454.57-47.14,460.36-47.14z"/>
			<path class="st0" d="M93.2-47.15c-2.7,6.14-9.28,3.97-17.46,0C81.79-47.15,87.37-47.15,93.2-47.15z"/>
			<path class="st0" d="M163.1,5.26c0-2.14,1.89-3.98,4.05-3.96c2.25,0.03,4.07,1.85,4,4c-0.07,2.06-1.84,3.79-3.89,3.81
				C165.08,9.13,163.1,7.3,163.1,5.26z"/>
			<path class="st0" d="M316.22,24.89c0-2.09,1.78-3.88,3.81-3.83c2.16,0.05,4.02,1.81,3.81,3.85c-0.22,2.11-1.31,3.62-3.66,3.68
				C318.08,28.65,316.22,26.88,316.22,24.89z"/>
			<path class="st0" d="M305.86,270.44c0.07-2.04,1.73-3.54,3.79-3.37c2.12,0.18,3.4,1.36,3.34,3.51c-0.06,2.23-1.4,3.52-3.63,3.61
				C307.47,274.27,305.79,272.39,305.86,270.44z"/>
			<path class="st0" d="M3.4,102.5c-2.21-0.1-3.69-1.13-3.72-3.47c-0.03-2.3,1.31-3.57,3.56-3.62c2.17-0.06,3.37,1.23,3.6,3.32
				C7.08,100.76,5.46,102.44,3.4,102.5z"/>
			<path class="st0" d="M371.27,102.45c-3.01-0.02-4.17-1.4-4.32-3.58c-0.13-1.86,1.84-3.61,3.78-3.5c2.13,0.12,3.4,1.31,3.41,3.46
				C374.15,101.11,372.92,102.38,371.27,102.45z"/>
			<path class="st0" d="M278.68-3.29c2.31,0.12,3.49,1.38,3.53,3.48c0.04,2.05-1.34,3.24-3.24,3.34c-2.12,0.11-3.44-1.24-3.57-3.33
				C275.26-2.06,276.77-2.99,278.68-3.29z"/>
			<path class="st0" d="M286.55,144.35c0.24-2.11,1.62-3.58,3.58-3.1c1.3,0.33,2.95,2,3.18,3.3c0.36,2-1.32,3.43-3.39,3.38
				C287.89,147.89,286.59,146.64,286.55,144.35z"/>
			<path class="st0" d="M233.75,230.98c1.23-0.89,2.36-2.27,3.71-2.53c1.7-0.34,3.15,0.89,3.22,2.82c0.07,1.94-0.99,3.61-3,3.39
				c-1.36-0.15-2.59-1.47-3.88-2.26C233.79,231.93,233.77,231.45,233.75,230.98z"/>
			<path class="st0" d="M191.36,56.56c0.75,1.11,1.95,2.15,2.14,3.35c0.3,1.88-1.07,3.3-2.89,2.9c-1.13-0.25-2.56-1.66-2.81-2.79
				C187.36,58.15,188.83,57.17,191.36,56.56z"/>
			<path class="st0" d="M343.3,197.92c-1.13,0.79-2.33,2.3-3.36,2.18c-1.08-0.12-2-1.78-2.99-2.77c0.99-0.95,1.91-2.56,2.98-2.67
				c1.04-0.11,2.24,1.32,3.37,2.07C343.3,197.12,343.3,197.52,343.3,197.92z"/>
			<path class="st0" d="M235.34,28.7c-1.28-1.65-2.42-2.5-2.64-3.55c-0.36-1.7,0.82-2.96,2.49-2.58c0.99,0.22,2.31,1.48,2.42,2.41
				C237.72,25.89,236.48,26.95,235.34,28.7z"/>
			<path class="st0" d="M125.26-47.26c3.47,0,6.73,0,10.13,0C132.93-44.94,129.6-44.95,125.26-47.26z"/>
		</g>
	</g>
</g>
<g id="Socials_20_1_">
	<path id="Button_1_" class="st3" d="M106.74,158.67c-0.89-3.34-3.49-5.97-6.8-6.87c-6-1.62-30.06-1.62-30.06-1.62
		s-24.06,0-30.06,1.62c-3.31,0.9-5.92,3.52-6.8,6.87c-1.61,6.06-1.61,18.7-1.61,18.7s0,12.64,1.61,18.69
		c0.89,3.34,3.49,5.97,6.8,6.87c6,1.62,30.06,1.62,30.06,1.62s24.06,0,30.06-1.62c3.31-0.9,5.92-3.52,6.8-6.87
		c1.61-6.06,1.61-18.69,1.61-18.69S108.35,164.72,106.74,158.67z"/>
	<path id="Play_1_" class="st0" d="M62.18,189.01l19.99-11.65l-19.99-11.65V189.01z"/>
</g>
<g>
	<path class="st0" d="M216.75,196.63c-0.07,0.71-0.14,1.34-0.21,2.07c-1.74,0-3.39,0-5.16,0c0-13.2,0-26.31,0-39.56
		c1.69,0,3.34,0,5.19,0c0,4.03,0,8.06,0,12.58c0.85-0.71,1.34-1.15,1.86-1.56c3.54-2.77,7.41-1.41,8.1,3.02
		c0.39,2.5,0.32,5.08,0.35,7.62c0.05,3.66,0.01,7.33-0.01,10.99c0,0.65-0.01,1.31-0.1,1.96c-0.31,2.18-0.7,4.4-3.11,5.22
		c-2.34,0.8-4.31-0.14-5.99-1.8c-0.19-0.18-0.38-0.36-0.57-0.53C217.07,196.6,216.98,196.63,216.75,196.63z M216.66,183.88
		c0,2.62-0.06,5.24,0.04,7.85c0.03,0.68,0.37,1.57,0.88,1.95c1.86,1.42,3.71,0.46,3.84-2.05c0.16-3.07,0.09-6.15,0.09-9.23
		c0-2.09,0.03-4.19-0.12-6.28c-0.1-1.41-0.75-2.63-2.42-2.44c-1.5,0.17-2.43,0.94-2.35,2.73
		C216.75,178.9,216.66,181.39,216.66,183.88z"/>
	<path class="st0" d="M126.29,173.65c1.13-4.41,2.3-8.8,3.37-13.23c0.31-1.28,0.79-1.9,2.21-1.74c1.34,0.15,2.71,0.03,4.33,0.03
		c-1.12,3.78-2.18,7.39-3.25,10.99c-0.58,1.94-1.05,3.92-1.79,5.79c-2.09,5.29-2.35,10.78-2.12,16.37c0.09,2.33,0.02,4.67,0.02,7.09
		c-2.12,0-3.96,0-6.06,0c0-2.5-0.17-4.91,0.03-7.29c0.63-7.54-1.05-14.65-3.61-21.63c-1.34-3.66-2.53-7.37-3.88-11.32
		c1.98,0,3.71-0.1,5.42,0.06c0.46,0.04,1.08,0.79,1.24,1.32c1.28,4.5,2.47,9.03,3.69,13.55
		C126.01,173.66,126.15,173.66,126.29,173.65z"/>
	<path class="st0" d="M171.91,198.95c-1.79,0-3.45,0-5.19,0c-0.07-0.93-0.14-1.75-0.21-2.72c-1.13,0.86-2.07,1.75-3.16,2.38
		c-3.26,1.89-6.64,0.66-6.67-3.27c-0.04-5.96-0.12-11.91-0.16-17.87c-0.02-2.74,0-5.48,0-8.36c1.82,0,3.47,0,5.31,0
		c0.03,0.7,0.09,1.39,0.09,2.08c0.01,6.75-0.02,13.49,0.02,20.24c0.01,1.14-0.46,2.68,1.34,2.98c1.31,0.21,3.27-1.75,3.3-3.27
		c0.05-2.82,0.02-5.63,0.02-8.45c0-4.26,0-8.51,0.01-12.77c0-0.25,0.09-0.49,0.16-0.84c1.71,0,3.36,0,5.14,0
		C171.91,179.02,171.91,188.88,171.91,198.95z"/>
	<path class="st0" d="M152.31,183.95c-0.16,3.07-0.11,6.1-0.54,9.06c-0.58,4.03-3.63,6.48-7.55,6.48c-4.04,0-7.33-2.45-7.59-6.6
		c-0.37-5.9-0.37-11.87,0.01-17.77c0.25-4.02,3.57-6.47,7.5-6.49c3.96-0.01,7.02,2.4,7.61,6.4
		C152.18,177.99,152.14,181.02,152.31,183.95z M141.64,183.9c0.01,0,0.01,0,0.02,0c0,2.42-0.06,4.85,0.02,7.27
		c0.07,2.16,1.05,3.36,2.56,3.27c1.98-0.13,2.25-1.65,2.45-3.2c0.01-0.06,0.01-0.13,0.01-0.2c0-4.65,0.01-9.3-0.01-13.94
		c0-0.58-0.01-1.31-0.34-1.69c-0.62-0.71-1.45-1.62-2.24-1.67c-0.67-0.04-1.59,0.89-2.06,1.61c-0.39,0.59-0.37,1.5-0.39,2.28
		C141.61,179.71,141.64,181.81,141.64,183.9z"/>
	<path class="st0" d="M247.04,185.01c-3.64,0-7.05,0-10.8,0c0.13,2.52,0.15,4.86,0.39,7.16c0.15,1.39,1.13,2.21,2.58,2.13
		c1.39-0.08,2.04-1,2.18-2.32c0.12-1.09,0.2-2.18,0.31-3.36c1.76,0,3.41,0,5.05,0c1.45,6.32-2.4,11.01-8.57,10.55
		c-3.86-0.29-6.78-3.11-6.97-7.37c-0.23-5.22-0.24-10.47,0-15.69c0.2-4.48,3.3-7.23,7.58-7.31c4.51-0.09,7.34,2.41,7.99,7.07
		c0.11,0.78,0.22,1.56,0.24,2.34C247.06,180.37,247.04,182.52,247.04,185.01z M241.79,180.34c-0.18-1.75-0.12-3.42-0.59-4.91
		c-0.24-0.75-1.49-1.72-2.19-1.65c-0.84,0.08-2.01,1.03-2.28,1.85c-0.46,1.42-0.34,3.03-0.47,4.7
		C238.16,180.34,239.75,180.34,241.79,180.34z"/>
	<path class="st0" d="M201.28,169.28c1.88,0,3.53,0,5.29,0c0,9.81,0,19.54,0,29.39c-1.7,0-3.35,0-5.13,0
		c-0.09-0.82-0.18-1.62-0.27-2.47c-1.28,0.88-2.41,1.88-3.71,2.51c-3.04,1.48-5.85,0.08-5.91-3.18c-0.16-8.69-0.05-17.39-0.05-26.23
		c1.68,0,3.33,0,5.21,0c0,1.36,0,2.72,0,4.07c0,5.96-0.03,11.92,0.03,17.88c0.01,1.12-0.51,2.71,1.29,3.03
		c1.28,0.23,3.24-1.82,3.25-3.34c0.03-4.13,0.01-8.25,0.01-12.38C201.28,175.52,201.28,172.46,201.28,169.28z"/>
	<path class="st0" d="M178.27,164.56c-2.23,0-4.15,0-6.17,0c0-1.86,0-3.54,0-5.39c6.1,0,12.21,0,18.43,0c0,1.76,0,3.49,0,5.4
		c-2.09,0-4.07,0-6.24,0c0,11.42,0,22.66,0,34.07c-2.07,0-3.96,0-6.02,0C178.27,187.35,178.27,176.11,178.27,164.56z"/>
</g>
<g>
</g>
<g>
</g>
<g>
</g>
<g>
</g>
<g>
</g>
<g>
</g>
</svg>
